<svg width="88" height="76" viewBox="0 0 88 76" fill="none" xmlns="http://www.w3.org/2000/svg">
<path d="M12.4865 41.6039C12.5963 41.1009 12.6792 40.5925 12.7349 40.0808C12.8326 39.6106 12.7982 39.1226 12.6355 38.6705C12.389 38.2143 11.9973 37.8523 11.5217 37.641C11.4023 37.5835 11.2713 37.5537 11.1386 37.5537C11.0059 37.5537 10.8749 37.5835 10.7555 37.641C10.4534 38.7706 10.2353 39.9207 10.1028 41.0821C10.0119 41.784 9.95744 42.4901 9.93962 43.1976C9.86492 43.8264 9.87924 44.4625 9.98219 45.0874C10.1036 45.3692 10.3191 45.6008 10.5923 45.7432C10.6368 45.7816 10.6886 45.8108 10.7447 45.829C10.8007 45.8472 10.8599 45.8539 10.9187 45.8489C11.0818 45.8137 11.1315 45.6162 11.1599 45.4541C11.2734 45.4541 12.0325 46.1592 12.1105 46.0111C12.3447 45.588 11.6636 44.5585 11.9332 44.1566C12.2028 43.7546 12.5575 43.6418 12.6426 43.2751C12.6754 43.1933 12.6821 43.1034 12.6618 43.0176C12.6415 42.9319 12.5952 42.8544 12.5291 42.7956C12.373 42.6616 12.1886 42.7463 12.2666 42.4501C12.3447 42.1539 12.4298 41.8719 12.4865 41.6039Z" fill="#3A4044"/>
<path d="M35.1395 68.181L33.7277 67.363L31.5 66.9893L35.1395 69.1118V68.181Z" fill="#727272"/>
<path d="M72.8887 43.5993C72.8887 43.698 72.8887 43.8179 72.9312 43.9237L73.9032 43.4301L76.1237 44.5724C76.1237 44.4666 76.1238 44.3468 76.0812 44.248L75.5491 41.5755C75.3575 40.4332 74.3501 40.0524 73.2718 40.6729L72.4062 41.1665L72.8887 43.5993Z" fill="#423131"/>
<path d="M63.3111 47.4284C63.2741 47.8653 63.3475 48.3044 63.5246 48.7059C63.7018 49.1074 63.9772 49.4584 64.3256 49.7272C65.177 50.2913 67.0002 51.2785 67.0002 51.2785C69.5613 49.8048 74.5984 44.6995 74.5984 42.1469C74.5984 41.0398 72.2005 40.2077 71.5407 39.7846C70.6894 39.2416 69.4124 39.3262 67.9509 40.1513C65.3898 41.625 63.3111 44.8828 63.3111 47.4284Z" fill="url(#paint0_linear_673_2753)"/>
<path d="M65.8223 48.8808C65.8223 51.4264 67.901 52.3008 70.4621 50.8341C73.0232 49.3674 75.1019 46.1026 75.1019 43.557C75.1019 41.0114 73.0232 40.137 70.4621 41.6107C67.901 43.0845 65.8223 46.3352 65.8223 48.8808Z" fill="#424852"/>
<path d="M72.1241 47.4618C73.4831 45.666 73.7573 43.5916 72.7365 42.8284C71.7157 42.0652 69.7865 42.9023 68.4275 44.6981C67.0685 46.4939 66.7943 48.5684 67.8151 49.3315C68.8359 50.0947 70.7651 49.2576 72.1241 47.4618Z" fill="url(#paint1_linear_673_2753)"/>
<path d="M72.3165 47.6059C73.6755 45.8101 73.9497 43.7356 72.9289 42.9725C71.9081 42.2093 69.9789 43.0464 68.6199 44.8422C67.2609 46.638 66.9867 48.7124 68.0075 49.4756C69.0283 50.2388 70.9575 49.4017 72.3165 47.6059Z" fill="#D7D9DB"/>
<path d="M73.222 44.6363C73.1347 45.5223 72.8396 46.3755 72.3603 47.1274C71.881 47.8794 71.2309 48.5091 70.4622 48.9659C68.9369 49.8403 67.6954 49.3185 67.6954 47.8095C67.6943 47.6367 67.7109 47.4642 67.745 47.2947C67.9134 46.5078 68.2412 45.7632 68.7083 45.1061C69.1754 44.4491 69.7722 43.8934 70.4622 43.4728C70.568 43.4109 70.6769 43.3544 70.7885 43.3036C72.1649 42.676 73.222 43.226 73.222 44.6363Z" fill="url(#paint2_linear_673_2753)"/>
<path d="M71.8812 44.474C71.8149 45.1452 71.591 45.7916 71.2275 46.3611C70.864 46.9306 70.3711 47.4073 69.7883 47.7529C69.5986 47.8684 69.3931 47.9563 69.1782 48.0138C69.0534 48.0676 68.9191 48.0963 68.7831 48.0985C68.6471 48.1006 68.5119 48.0761 68.3854 48.0263C68.2589 47.9765 68.1436 47.9025 68.0459 47.8084C67.9482 47.7143 67.8701 47.602 67.8161 47.4779C67.782 47.4138 67.758 47.3448 67.7451 47.2734C67.7786 47.0608 67.8284 46.851 67.8941 46.6458C68.3039 45.471 69.0635 44.4479 70.0721 43.7124C70.1948 43.615 70.3253 43.5278 70.4623 43.4515L70.7319 43.3105H70.7886C71.4201 43.2823 71.8741 43.6842 71.8812 44.474Z" fill="#E3E5E6"/>
<path d="M71.6901 44.1849C71.6901 45.3131 70.2712 47.3651 69.1219 48.035H69.0723C69.0207 48.025 68.9706 48.0084 68.9233 47.9857H68.8665C68.5091 47.8616 68.1626 47.7083 67.8307 47.5273C67.7966 47.4632 67.7727 47.3942 67.7598 47.3228C67.7933 47.1102 67.8431 46.9003 67.9087 46.6952C68.3185 45.5204 69.0781 44.4973 70.0868 43.7618C70.2095 43.6644 70.34 43.5772 70.477 43.5009L70.7465 43.3599C71.0446 43.5717 71.3246 43.8075 71.5837 44.065L71.6901 44.1849Z" fill="url(#paint3_linear_673_2753)"/>
<path d="M71.9597 44.9463C71.9015 45.5245 71.7075 46.0809 71.3932 46.5708C71.079 47.0608 70.6534 47.4705 70.1506 47.7669C69.1574 48.3381 68.3486 47.9996 68.3486 47.0124C68.3499 46.8987 68.3618 46.7854 68.3841 46.6739C68.4954 46.1624 68.7092 45.6785 69.0127 45.2508C69.3162 44.8232 69.7032 44.4606 70.1506 44.1848L70.3705 44.079C71.2644 43.6841 71.9597 44.0226 71.9597 44.9463Z" fill="#D9DBDD"/>
<path d="M71.1006 45.5318C71.0765 45.8192 70.9841 46.0969 70.8312 46.342C70.6783 46.5871 70.4692 46.7928 70.2209 46.9421C69.7385 47.2171 69.3412 47.0549 69.3412 46.5684C69.3381 46.5143 69.3381 46.4602 69.3412 46.4062C69.3966 46.1568 69.5017 45.921 69.6504 45.7126C69.7991 45.5043 69.9883 45.3278 70.2067 45.1933L70.3132 45.144C70.7601 44.9113 71.1006 45.0946 71.1006 45.5318Z" fill="url(#paint4_linear_673_2753)"/>
<path d="M70.3485 45.6515C70.3384 45.7648 70.3009 45.874 70.2391 45.9698C70.1773 46.0656 70.0931 46.1451 69.9938 46.2015C69.8022 46.3143 69.6461 46.2508 69.6461 46.0534C69.6427 46.0324 69.6427 46.011 69.6461 45.9899C69.6665 45.8901 69.7072 45.7954 69.7658 45.7117C69.8244 45.628 69.8995 45.5571 69.9867 45.5034H70.0292C70.2137 45.4047 70.3485 45.4752 70.3485 45.6515Z" fill="#E3E5E6"/>
<path d="M30.5137 66.5098L21.5107 72.2075C21.5107 72.2075 23.3056 65.8611 23.4617 65.8117C23.6178 65.7624 33.8197 58.1256 30.5137 66.5098Z" fill="#2A313C"/>
<path d="M30.2725 66.8767C30.2941 66.9861 30.3083 67.0968 30.315 67.2081L31.2941 66.7145L33.5075 67.8569C33.5075 67.744 33.5076 67.6312 33.4721 67.5254L32.94 64.86C32.7484 63.7176 31.7339 63.3368 30.6626 63.9503L29.79 64.451L30.2725 66.8767Z" fill="#423131"/>
<path d="M21.6166 71.1849C21.6166 72.2779 21.1554 73.6317 21.7869 74.0548C22.6382 74.619 24.4615 75.6062 24.4615 75.6062C27.0297 74.1324 32.0597 69.0271 32.0597 66.4815C32.0597 65.3674 29.6617 64.5353 29.009 64.1122C28.1577 63.5692 26.8807 63.6539 25.4121 64.4859C24.243 65.1725 23.2765 66.1532 22.6102 67.3293C21.9438 68.5054 21.6011 69.8352 21.6166 71.1849Z" fill="url(#paint5_linear_673_2753)"/>
<path d="M23.2842 73.1875C23.2842 75.7331 25.3629 76.6075 27.924 75.1408C30.4851 73.674 32.5638 70.4092 32.5638 67.8636C32.5638 65.318 30.4851 64.4436 27.924 65.9174C25.3629 67.3912 23.2842 70.6419 23.2842 73.1875Z" fill="#424852"/>
<path d="M29.5811 71.7738C30.9401 69.9781 31.2143 67.9036 30.1935 67.1404C29.1727 66.3773 27.2435 67.2144 25.8845 69.0101C24.5255 70.8059 24.2513 72.8804 25.2721 73.6436C26.2929 74.4067 28.2221 73.5696 29.5811 71.7738Z" fill="url(#paint6_linear_673_2753)"/>
<path d="M24.8447 72.292C24.8447 73.9844 26.2211 74.5626 27.9237 73.5895C29.6264 72.6164 30.9815 70.4798 30.9815 68.7592C30.9815 67.0386 29.6051 66.4886 27.9024 67.4688C26.1998 68.4489 24.8447 70.6067 24.8447 72.292Z" fill="#D7D9DB"/>
<path d="M30.6838 68.9425C30.5966 69.8285 30.3014 70.6817 29.8221 71.4336C29.3428 72.1856 28.6927 72.8153 27.9241 73.2721C26.3988 74.1465 25.1572 73.6247 25.1572 72.1157C25.1597 71.9431 25.1763 71.7709 25.2069 71.6009C25.3753 70.814 25.703 70.0694 26.1701 69.4123C26.6373 68.7553 27.234 68.1996 27.9241 67.779L28.2504 67.6098C29.6267 66.954 30.6838 67.5322 30.6838 68.9425Z" fill="url(#paint7_linear_673_2753)"/>
<path d="M29.3431 68.7801C29.2779 69.4516 29.0545 70.0984 28.6909 70.6681C28.3272 71.2378 27.8337 71.7143 27.2502 72.059C27.0611 72.1757 26.8554 72.2636 26.6401 72.3199C26.5153 72.3736 26.381 72.4024 26.245 72.4045C26.109 72.4067 25.9739 72.3821 25.8474 72.3324C25.7209 72.2826 25.6055 72.2086 25.5078 72.1145C25.4101 72.0204 25.332 71.9081 25.278 71.784C25.2439 71.7199 25.22 71.6509 25.207 71.5795C25.2431 71.3667 25.2953 71.1569 25.3631 70.9519C25.7702 69.7776 26.5274 68.7544 27.534 68.0185C27.6579 67.9227 27.7883 67.8356 27.9242 67.7576L28.2009 67.6166H28.2506C28.8962 67.5884 29.336 68.0044 29.3431 68.7801Z" fill="#E3E5E6"/>
<path d="M29.151 68.4981C29.151 69.6193 27.7321 71.6713 26.5828 72.3412H26.5403C26.4881 72.3333 26.4377 72.3166 26.3913 72.2918C26.373 72.2989 26.3528 72.2989 26.3345 72.2918C25.9748 72.168 25.6259 72.0147 25.2917 71.8335C25.2576 71.7693 25.2336 71.7003 25.2207 71.629C25.2568 71.4162 25.3089 71.2064 25.3768 71.0014C25.7838 69.8271 26.5411 68.8039 27.5477 68.0679C27.6716 67.9722 27.8019 67.885 27.9379 67.807L28.2146 67.666C28.5092 67.8794 28.7867 68.1151 29.0446 68.3712L29.151 68.4981Z" fill="url(#paint8_linear_673_2753)"/>
<path d="M29.4207 69.2528C29.3611 69.8297 29.1672 70.3848 28.8545 70.8744C28.5417 71.3639 28.1186 71.7744 27.6187 72.0734C26.6254 72.6375 25.8096 72.299 25.8096 71.3118C25.8112 71.2005 25.8231 71.0896 25.8451 70.9804C25.9556 70.4668 26.1697 69.9807 26.4746 69.5517C26.7794 69.1226 27.1686 68.7595 27.6187 68.4842L27.8315 68.3784C28.7254 67.9694 29.4207 68.3643 29.4207 69.2528Z" fill="#D9DBDD"/>
<path d="M28.5624 69.845C28.5345 70.1267 28.4404 70.398 28.2875 70.6368C28.1347 70.8757 27.9275 71.0755 27.6827 71.2201C27.2003 71.4951 26.803 71.3329 26.803 70.8534C26.7961 70.7972 26.7961 70.7404 26.803 70.6842C26.8579 70.4355 26.9621 70.2002 27.1095 69.9919C27.2569 69.7837 27.4445 69.6067 27.6614 69.4713L27.7678 69.4219C28.2219 69.2174 28.5624 69.3937 28.5624 69.845Z" fill="url(#paint9_linear_673_2753)"/>
<path d="M27.8104 69.9581C27.8011 70.0708 27.7646 70.1795 27.7041 70.2753C27.6436 70.371 27.5608 70.4508 27.4628 70.5081C27.2641 70.6209 27.1081 70.5575 27.1081 70.36C27.1046 70.339 27.1046 70.3176 27.1081 70.2966C27.1293 70.1961 27.1711 70.101 27.2309 70.0173C27.2907 69.9336 27.3672 69.863 27.4557 69.81C27.6756 69.7113 27.8104 69.7748 27.8104 69.9581Z" fill="#E3E5E6"/>
<path d="M23.9727 24.6592L45.6889 37.8032V62.0321L23.9727 48.8881V24.6592Z" fill="#9F4B12"/>
<path d="M23.5889 25.5334L45.4895 38.0851V35.7792L23.5889 23.2275V25.5334Z" fill="#AE571D"/>
<path d="M29.116 56.172L10.3581 45.4326L9.84024 45.4749C9.84024 45.4749 4.16466 48.8808 2.4407 50.827C1.67788 51.6116 1.24412 52.6554 1.22754 53.7463C1.22754 53.7463 6.47037 58.633 19.9854 64.4787L29.116 56.172Z" fill="#ED843E"/>
<path d="M16.7928 60.6076C18.1975 59.0022 19.7483 57.5293 21.4255 56.2074L23.6532 54.5856L11.7557 47.6328C11.7557 47.6328 5.76091 52.7028 5.20045 54.099C4.63998 55.4952 16.7928 60.6076 16.7928 60.6076Z" fill="#9F4B12"/>
<path d="M16.7925 60.6076C18.1971 59.0022 19.7479 57.5293 21.4252 56.2074L23.6528 54.5856L11.7554 47.6328C11.7554 47.6328 6.02303 53.274 5.46257 54.6843C4.9021 56.0946 16.7925 60.6076 16.7925 60.6076Z" fill="#DE7123"/>
<path d="M22.0569 61.193L20.7303 62.3777C7.21529 56.5249 1.97246 51.6382 1.97246 51.6382C1.97246 51.6382 1.97246 51.4478 2.01503 51.3491C1.53005 52.0584 1.25702 52.8896 1.22754 53.7466C1.22754 53.7466 6.47037 58.6333 19.9854 64.479L22.6884 62.0744C22.4215 61.8248 22.2069 61.5253 22.0569 61.193Z" fill="#C7621E"/>
<path d="M9.69824 45.574C11.8823 48.0044 14.4483 50.0667 17.2964 51.6806C20.9117 53.46 24.6285 55.0281 28.4277 56.3769L29.1371 56.1442L10.3793 45.4048L9.86141 45.4471L9.69824 45.574Z" fill="#424852"/>
<path d="M29.1154 56.1653C31.2012 50.7427 32.6626 45.588 32.6626 45.588C25.863 43.0738 19.5383 39.4383 13.9545 34.8345C12.0796 38.0922 10.8739 41.6874 10.4072 45.4117C10.4072 45.4117 14.4298 50.5593 29.165 56.1512L29.1154 56.1653Z" fill="#424852"/>
<path d="M31.9602 45.6304C31.5416 46.949 30.5058 51.0742 28.6826 55.7141C19.5662 52.2306 14.8838 48.994 12.4858 47.0337C12.046 46.6811 11.6913 46.3779 11.4217 46.117C11.0386 45.7573 10.7974 45.5105 10.6768 45.3695C11.5491 41.9631 12.7366 38.6441 14.224 35.4551C14.3588 35.5679 14.3091 35.5256 14.5503 35.7089C14.6851 35.8288 14.8483 35.9487 15.0186 36.0756C15.9267 36.7808 17.3101 37.8244 19.0908 38.9879L19.6655 39.3546C23.522 41.8846 27.6446 43.989 31.9602 45.6304Z" fill="#538B94"/>
<path d="M19.6305 39.3546C19.5749 39.8303 19.42 40.2893 19.1756 40.7022C18.9313 41.115 18.603 41.4726 18.2116 41.7521L14.6147 44.5022L13.8698 45.9125C13.704 46.2086 13.4583 46.4528 13.1603 46.6176L12.4509 47.0196C12.011 46.667 11.6563 46.3638 11.3867 46.1029V45.8631C11.3867 45.8631 12.4083 40.1091 14.0897 36.5269L14.9481 36.0615C15.8562 36.7667 17.2397 37.8103 19.0204 38.9738L19.6305 39.3546Z" fill="#B5D6C7"/>
<path d="M1.22771 53.7466C6.19385 58.1749 19.9855 64.479 19.9855 64.479L19.9075 71.3401L20.1416 74.6684L1.18514 62.6808L1.14258 60.4032L1.22771 53.7466Z" fill="#D6770B"/>
<path d="M1.18486 54.1978C8.81852 60.1704 19.9569 64.8385 19.9569 64.8385L19.8646 70.3809C5.54797 63.7948 1.10682 59.6415 1.10682 59.6415L1.04297 56.7645L1.18486 54.1978Z" fill="#272E39"/>
<path d="M18.5309 68.4488C18.5167 68.6625 18.5167 68.8768 18.5309 69.0905C15.1823 67.5392 7.17969 63.6044 2.00781 59.5569C2.00781 59.3383 2.00781 59.1126 2.00781 58.894C7.1655 62.9628 15.1823 66.8975 18.5309 68.4488Z" fill="#73818E"/>
<path d="M18.5309 67.2359C18.5167 67.452 18.5167 67.6687 18.5309 67.8847C15.1823 66.3263 7.17969 62.3916 2.00781 58.344C2.00781 58.1183 2.00781 57.8927 2.00781 57.6812C7.1655 61.7499 15.1823 65.6846 18.5309 67.2359Z" fill="#73818E"/>
<path d="M18.5309 66.0301C18.5167 66.2438 18.5167 66.4581 18.5309 66.6718C15.1823 65.1134 7.17969 61.1787 2.00781 57.1311C2.00781 56.9055 2.00781 56.6798 2.00781 56.4683C7.1655 60.537 15.1823 64.4717 18.5309 66.0301Z" fill="#73818E"/>
<path d="M18.5309 64.782C18.5167 64.9957 18.5167 65.21 18.5309 65.4237C15.1823 63.8653 7.17969 59.9306 2.00781 55.883C2.00781 55.6574 2.00781 55.4811 2.00781 55.2695C7.1655 59.3383 15.1823 63.2236 18.5309 64.782Z" fill="#73818E"/>
<path d="M19.8504 69.4289C19.8362 69.6426 19.8362 69.8569 19.8504 70.0706C16.5018 68.5193 7.16546 63.9358 2.00777 59.8812C2.00777 59.8812 1.08548 59.176 1.07129 59.176C1.07129 58.9504 1.07129 58.7318 1.07129 58.5132C1.07129 58.5132 2.01485 59.2183 2.02195 59.2183C7.16545 63.287 16.5018 67.8705 19.8504 69.4289Z" fill="#99AFBA"/>
<path d="M18.5309 67.5675C18.5167 67.7812 18.5167 67.9955 18.5309 68.2092C15.1823 66.6578 7.17969 62.7231 2.00781 58.6755C2.00781 58.4569 2.00781 58.2313 2.00781 58.0127C7.1655 62.0814 15.1823 66.0162 18.5309 67.5675Z" fill="#99AFBA"/>
<path d="M19.8503 67.0103C19.8361 67.224 19.8361 67.4383 19.8503 67.652C16.5017 66.0936 7.16539 61.5101 2.0077 57.4626C2.0077 57.4626 1.00737 56.7574 1.03575 56.7574C1.03575 56.5388 1.03575 56.3273 1.03575 56.1157C1.03575 56.1157 1.97932 56.8209 1.98642 56.8209C7.16539 60.8684 16.5017 65.4519 19.8503 67.0103Z" fill="#99AFBA"/>
<path d="M18.5309 65.1066C18.5167 65.3226 18.5167 65.5393 18.5309 65.7553C15.1823 64.1969 7.17969 60.2622 2.00781 56.2146C2.00781 55.989 2.00781 55.7633 2.00781 55.5518C7.1655 59.6205 15.1823 63.5552 18.5309 65.1066Z" fill="#99AFBA"/>
<path d="M85.205 13.2358V39.3616L83.8783 40.1162L77.2237 43.931L76.1241 44.5657C76.1241 44.4528 76.1241 44.34 76.0815 44.2342L75.9183 43.4445L75.5565 41.5688C75.3579 40.4264 74.3504 40.0456 73.2721 40.6591L67.7242 43.8464C67.1244 44.2505 66.6134 44.7712 66.2219 45.3772C65.8305 45.9833 65.5668 46.6619 65.4469 47.3722L65.078 49.678L64.929 50.6017L64.8793 50.9896V51.0248L63.7726 51.6524L45.6816 62.0181V35.9276L85.205 13.2358Z" fill="#C2601B"/>
<path d="M85.205 29.7363V39.3616L83.8783 40.1161L77.2237 43.931L76.1241 44.5656C76.1241 44.4528 76.1241 44.34 76.0815 44.2342L75.9183 43.4445L75.5565 41.5688C75.3579 40.4264 74.3504 40.0456 73.2721 40.6591L67.7242 43.8464C67.1244 44.2504 66.6134 44.7712 66.2219 45.3772C65.8305 45.9833 65.5668 46.6619 65.4469 47.3722L65.078 49.678L64.929 50.6017L64.8793 50.9896V51.0248L63.7726 51.6524L45.6816 62.0181V52.414L85.205 29.7363Z" fill="#FFD23F"/>
<path d="M63.9492 49.7696L65.0843 49.1279L64.9282 50.0517L64.8785 50.4395V50.4748L63.7789 51.1024L45.6809 61.4822L44.9785 60.7841L45.0424 59.7969L45.6809 60.2552L63.9492 49.7696Z" fill="#525C61"/>
<path d="M85.2047 35.5464L87.3827 36.8791L77.2234 43.3806L76.1237 44.0153C76.1237 43.9095 76.1237 43.7896 76.0812 43.6838L75.918 42.8941L77.046 42.2524L85.2047 37.5631V35.5464Z" fill="#525C61"/>
<path d="M63.95 50.3267L64.8794 50.4747V50.9895V51.0248L63.7797 51.6594L45.6817 62.0392L44.9297 61.5879L45.0077 60.3187L45.6817 60.8052L63.95 50.3267Z" fill="#20232B"/>
<path d="M87.383 36.8794V38.1134L77.2237 43.9379L76.124 44.5655C76.124 44.4598 76.124 43.395 76.124 43.395L77.0463 42.8097L87.383 36.8794Z" fill="#20232B"/>
<path d="M45.121 58.7322L44.9294 61.3059L33.5073 67.8568C33.5073 67.744 33.5073 67.6382 33.4647 67.5324L33.3228 66.8273L33.0816 65.6144L32.9326 64.8458C32.734 63.7035 31.7266 63.3227 30.6553 63.9362L25.1074 67.1234C24.5077 67.5275 23.9966 68.0483 23.6051 68.6543C23.2137 69.2603 22.95 69.939 22.8301 70.6492L22.3193 73.773V73.9282C22.3131 74.0315 22.3131 74.1351 22.3193 74.2384C22.3193 74.2384 22.3193 74.2807 22.3193 74.3019L21.7943 74.598L22.3548 74.1961L20.2264 75.416C20.2264 75.416 20.12 74.6192 20.0207 73.3922C20.0207 72.9691 19.9639 70.8678 19.9355 70.3671C19.9355 70.1415 19.9355 69.9017 19.9355 69.662C19.9355 69.0274 19.9355 68.3363 19.9355 67.6523V67.603C19.9355 67.5254 19.9355 67.4478 19.9355 67.3773V67.342C19.9355 66.6369 19.9781 65.9317 20.0349 65.2266C20.0349 64.9586 20.0916 64.6977 20.12 64.4509C20.1326 63.3571 20.5668 62.3097 21.3332 61.5245C23.0216 59.5783 29.2435 56.1372 29.2435 56.1372L33.4363 56.8424L45.121 58.7322Z" fill="#FFD23F"/>
<path d="M44.9293 61.3057L33.8193 67.6732V65.9174L45.0428 59.5146L44.9293 61.3057Z" fill="#9FAAAB"/>
<path d="M45.1208 49.5013V58.7318L34.2946 64.8384L33.4929 65.2897C33.4929 65.2897 33.6703 64.3589 32.3365 63.139C31.2724 62.1517 29.4065 60.9812 28.6545 59.7683C28.5503 59.6028 28.4669 59.4252 28.4062 59.2395C28.3281 58.9723 28.3281 58.6886 28.4062 58.4215C28.6052 57.6698 28.842 56.9284 29.1156 56.2003C31.2014 50.7777 32.6629 45.623 32.6629 45.623L40.4313 38.3247L43.0279 39.3754L45.1208 49.5013Z" fill="#FFD23F"/>
<path d="M45.1212 49.5017L33.3089 56.8423L30.3434 58.6898L29.5063 59.2046L28.6549 59.7405L23.7527 62.8573L21.0497 64.5355L20.4821 64.7259C20.4821 64.4509 19.9571 64.7259 19.9855 64.4862C19.9981 63.3923 20.4323 62.345 21.1986 61.5598C22.8871 59.6136 29.109 56.1724 29.109 56.1724C31.1948 50.7498 32.6562 45.5952 32.6562 45.5952L40.4247 38.2969L43.0213 39.3476L45.1212 49.5017Z" fill="#CD661F"/>
<path d="M33.1098 65.6284L32.9608 64.8598C32.7621 63.7174 31.7547 63.3367 30.6834 63.9501L25.1356 67.1374C24.5358 67.5415 24.0247 68.0622 23.6333 68.6683C23.2418 69.2743 22.9782 69.953 22.8582 70.6632L22.3474 73.787L21.865 74.0973C21.865 73.9703 21.865 73.8363 21.9076 73.6883V73.519L21.716 70.501C21.5921 69.0267 22.0558 67.563 23.0072 66.4252C23.3221 66.0388 23.7042 65.7116 24.1352 65.4592L30.1797 61.9828C31.1801 61.4116 32.1307 61.6232 32.5209 62.4693C32.5957 62.6253 32.646 62.7918 32.6699 62.9629L33.1098 65.6284Z" fill="#E9BE50"/>
<path d="M34.0319 67.5464L33.5069 67.8496C33.5069 67.7368 33.5069 67.631 33.4644 67.5253L33.3225 66.8201L33.0813 65.6073L32.9323 64.8386C32.7336 63.6963 31.7262 63.3155 30.655 63.929L25.1071 67.1163C24.5073 67.5203 23.9962 68.0411 23.6048 68.6471C23.2133 69.2531 22.9497 69.9318 22.8297 70.642L22.3189 73.7659V73.921C22.3128 74.0243 22.3128 74.1279 22.3189 74.2313C22.3189 74.2313 22.3189 74.2736 22.3189 74.2947L21.7939 74.5909C21.7939 74.464 21.7939 74.337 21.8365 74.189L21.9358 73.4838L22.4254 69.958C22.5583 69.1847 22.8476 68.4461 23.2755 67.7868C23.7035 67.1275 24.2614 66.5612 24.9155 66.122L30.9671 62.6527C31.197 62.4999 31.4579 62.3993 31.7313 62.3579C32.0047 62.3164 32.2839 62.3352 32.5492 62.4129C32.7989 62.5143 33.0162 62.6814 33.1774 62.8964C33.3387 63.1114 33.4379 63.366 33.4644 63.6328L33.9326 66.4534L34.0532 67.1586C34.0106 67.3137 34.0177 67.4336 34.0319 67.5464Z" fill="#D2A329"/>
<path d="M21.8083 64.1688V65.5791C21.809 65.776 21.7576 65.9695 21.6592 66.1403C21.5608 66.3112 21.4189 66.4532 21.2478 66.5522L20.8008 66.8132L20.4461 67.0106C20.2461 67.1291 20.0198 67.197 19.7872 67.208C19.5546 67.2191 19.3228 67.1731 19.1124 67.0741L16.083 65.7131V65.0644C16.0909 64.5741 16.124 64.0846 16.1823 63.5977L16.6435 63.8022L19.2472 64.9798C19.4463 65.0647 19.6624 65.1031 19.8789 65.0921C20.0953 65.0811 20.3063 65.0209 20.4958 64.9163L20.7867 64.7471L21.8083 64.1688Z" fill="#BDCEDF"/>
<path d="M21.8089 64.1687V65.579C21.8088 65.7393 21.7749 65.8978 21.7095 66.0444L21.3335 66.263L20.9788 66.4604C20.7771 66.5745 20.5513 66.6397 20.3196 66.6507C20.0878 66.6617 19.8567 66.6183 19.645 66.5239L16.6299 65.163V64.5142C16.6299 64.1828 16.6299 63.9924 16.6299 63.8091L19.2336 64.9867C19.4327 65.0716 19.6488 65.11 19.8653 65.099C20.0817 65.088 20.2928 65.0279 20.4822 64.9232L20.7731 64.754L21.8089 64.1687Z" fill="#E2E9EC"/>
<path d="M21.8079 66.4605V67.9061C21.8091 68.0515 21.7801 68.1955 21.7228 68.3292C21.6279 68.541 21.4693 68.7184 21.2688 68.8369L20.8005 69.1119L20.4458 69.3094C20.2452 69.4268 20.0186 69.4934 19.786 69.5032C19.5534 69.513 19.3219 69.4659 19.112 69.3658L16.1182 68.0048C16.1182 67.3631 16.1182 66.6792 16.1182 65.9881V65.9458L16.6503 66.1715L19.2894 67.2926C19.4852 67.372 19.6964 67.4069 19.9076 67.3947C20.1187 67.3825 20.3244 67.3235 20.5096 67.2221L20.8218 67.0388L21.8079 66.4605Z" fill="#BDCEDF"/>
<path d="M21.8081 66.4605V67.906C21.8093 68.0514 21.7803 68.1954 21.7229 68.3291L21.3327 68.5548L20.978 68.7593C20.7758 68.8722 20.5497 68.9362 20.3179 68.946C20.0862 68.9558 19.8554 68.9111 19.6443 68.8157L16.6504 67.4547C16.6504 67.0458 16.6504 66.6086 16.6504 66.1714L19.2895 67.2926C19.4854 67.3719 19.6966 67.4068 19.9077 67.3946C20.1188 67.3824 20.3245 67.3235 20.5098 67.2221L20.8219 67.0387L21.8081 66.4605Z" fill="#E2E9EC"/>
<path d="M21.8082 64.1685V65.5788C21.8089 65.7756 21.7575 65.9692 21.6592 66.14C21.5608 66.3108 21.4189 66.4528 21.2477 66.5519L20.8008 66.8128V64.7467L21.8082 64.1685Z" fill="#FF8118"/>
<path d="M21.8082 66.4604V67.906C21.8087 68.0946 21.759 68.28 21.6644 68.4434C21.5697 68.6068 21.4333 68.7425 21.269 68.8368L20.8008 69.1118V67.0387L21.8082 66.4604Z" fill="#FF8118"/>
<path d="M45.4902 38.0852L85.9501 14.8647V12.5518L45.4902 35.7794V38.0852Z" fill="#D36518"/>
<path d="M32.6768 45.4894L32.7264 45.5388L32.6768 45.5741C32.6768 45.5741 21.1553 41.3855 13.9189 34.8417C13.9189 34.8417 23.1418 28.1145 24.433 28.7069C32.2724 32.2961 41.708 38.4591 43.0418 39.3264C41.4739 39.1642 32.6768 45.4894 32.6768 45.4894Z" fill="#ED843E"/>
<path d="M23.5889 23.2277L45.4895 35.7793L85.9494 12.5517L64.0558 0L23.5889 23.2277Z" fill="#ED843E"/>
<path d="M3.84561 56.5741V58.6332L1.00781 56.6517V56.6164C1.00781 55.9113 1.05747 55.2061 1.11423 54.501L1.58957 54.8606L3.84561 56.5741Z" fill="#BDCEDF"/>
<path d="M3.84563 58.866V60.9321L1.06459 58.9365C1.06459 58.2948 1.02912 57.6108 1.06459 56.9197V56.8774L1.61796 57.2653L3.84563 58.866Z" fill="#BDCEDF"/>
<path d="M3.84518 56.5742V57.6954L1.58203 56.0947V56.0594C1.58203 55.6716 1.58203 55.2767 1.61751 54.8818L3.84518 56.5742Z" fill="#E2E9EC"/>
<path d="M3.84537 58.8658V59.9941L1.60352 58.3793C1.60352 58.0196 1.60352 57.6741 1.60352 57.2651L3.84537 58.8658Z" fill="#E2E9EC"/>
<path d="M18.6443 73.0607L0 62.0181V63.8867C0.0146623 64.1682 0.0954498 64.4424 0.235895 64.6873C0.376339 64.9322 0.572538 65.141 0.808771 65.297C7.12996 70.1061 18.6443 75.6486 18.6443 75.6486C19.0455 75.8788 19.5006 76.0001 19.9639 76.0001C20.4271 76.0001 20.8823 75.8788 21.2835 75.6486L22.5392 75.014V72.4543L21.2835 73.0889C20.8798 73.3149 20.4233 73.4312 19.9601 73.4263C19.4968 73.4213 19.043 73.2952 18.6443 73.0607Z" fill="#20232B"/>
<path d="M1.18484 60.9814V62.0251C5.67564 66.7848 18.9991 72.3344 18.9991 72.3344C19.2578 72.4829 19.5499 72.5645 19.8486 72.5719C20.1472 72.5793 20.443 72.5122 20.7089 72.3767L21.6666 72.0171L22.5818 72.4331L21.3048 73.0748C20.9108 73.3034 20.4627 73.4239 20.0065 73.4239C19.5503 73.4239 19.1022 73.3034 18.7082 73.0748C18.7082 73.0748 7.23643 68.6253 0.34059 62.4975C0.260066 62.4408 0.194385 62.3658 0.149057 62.2787C0.103729 62.1916 0.0800781 62.0949 0.0800781 61.9969C0.0800781 61.8988 0.103729 61.8022 0.149057 61.715C0.194385 61.6279 0.260066 61.5529 0.34059 61.4962L1.18484 60.9814Z" fill="#525C61"/>
<path d="M74.5137 39.975C74.8332 39.8439 75.1756 39.7768 75.5212 39.7776C75.6808 39.7789 75.84 39.7955 75.9965 39.827L76.408 39.2769C76.3255 38.9409 76.1669 38.628 75.9442 38.3622C75.7215 38.0963 75.4406 37.8846 75.1231 37.7431C74.8055 37.6016 74.4596 37.5341 74.1118 37.5457C73.764 37.5574 73.4234 37.6478 73.1161 37.8102L66.5112 41.6039C65.7939 42.0831 65.182 42.7021 64.7125 43.4233C64.243 44.1445 63.9257 44.9529 63.7798 45.7996L63.1768 50.2138L63.6734 50.4818L63.7727 51.6523L64.1913 50.1574L64.2409 49.7696L64.3899 48.8458L64.7588 46.54C64.8784 45.8296 65.1419 45.1508 65.5333 44.5448C65.9248 43.9387 66.4361 43.418 67.0362 43.0142L72.5841 39.827C72.8648 39.6043 73.2201 39.4957 73.5782 39.5232C73.9364 39.5507 74.2707 39.7122 74.5137 39.975Z" fill="#F0B340"/>
<path d="M77.2236 43.9309L76.124 44.5655C76.124 44.4527 76.124 44.3399 76.0814 44.2341L75.9182 43.4443L75.5564 41.5686C75.3577 40.4263 74.3503 40.0455 73.272 40.659L67.7241 43.8463C67.1243 44.2503 66.6132 44.7711 66.2218 45.3771C65.8304 45.9831 65.5667 46.6618 65.4467 47.372L65.0778 49.6779L64.9289 50.6016L64.8792 50.9894V51.0247L63.7725 51.6523C63.7725 51.5112 63.7725 51.3632 63.8292 51.208L63.9498 50.3195L64.4677 46.6246C64.6136 45.7779 64.9309 44.9695 65.4004 44.2483C65.8699 43.5271 66.4818 42.9081 67.1991 42.4289L73.8041 38.6352C75.0882 37.93 76.2942 38.3461 76.5284 39.707L77.0462 42.8097L77.1739 43.5571C77.1952 43.6841 77.2094 43.804 77.2236 43.9309Z" fill="#D2A329"/>
<path d="M32.557 57.2936C32.4372 57.2945 32.3183 57.2719 32.2073 57.2269C32.0963 57.182 31.9954 57.1157 31.9103 57.0318C31.8252 56.9479 31.7577 56.848 31.7116 56.7381C31.6655 56.6281 31.6418 56.5101 31.6418 56.391V55.4814C31.5715 52.0124 32.3997 48.5838 34.0469 45.5246L40.7511 42.3444C40.9105 42.2591 41.0881 42.2132 41.269 42.2104C41.5588 42.2104 41.8367 42.3249 42.0416 42.5285C42.2465 42.7322 42.3616 43.0084 42.3616 43.2964L43.071 47.6613C43.0679 48.2305 42.9347 48.7916 42.6816 49.3022C42.4284 49.8128 42.0619 50.2596 41.6096 50.6088L35.5935 54.2615L34.9266 55.6718C34.749 56.0497 34.4594 56.3647 34.0965 56.5744L33.0111 57.1949C32.8704 57.2649 32.7143 57.2988 32.557 57.2936Z" fill="#555D69"/>
<path d="M41.4815 50.2562L35.2384 54.0428L34.5289 55.4884C34.3749 55.802 34.1271 56.0606 33.8195 56.2288L32.7766 56.8282C32.6917 56.8761 32.5957 56.9011 32.4981 56.9008C32.4005 56.9005 32.3046 56.8748 32.22 56.8264C32.1355 56.7779 32.0651 56.7084 32.0159 56.6246C31.9667 56.5408 31.9403 56.4457 31.9395 56.3486V55.4531C31.9395 55.4531 32.578 48.4933 34.2168 45.8772L40.914 42.6969C41.0246 42.6279 41.1522 42.5905 41.2828 42.5889C41.4133 42.5873 41.5418 42.6216 41.6541 42.688C41.7663 42.7543 41.858 42.8502 41.9189 42.965C41.9798 43.0798 42.0077 43.2091 41.9994 43.3386L42.7656 47.6189C42.7682 48.1267 42.6538 48.6284 42.4313 49.0855C42.2087 49.5426 41.8838 49.9431 41.4815 50.2562Z" fill="#6BA9B0"/>
<path d="M22.3267 55.1993L22.0216 55.3968C21.9113 55.4509 21.7899 55.4791 21.6669 55.4791C21.5438 55.4791 21.4225 55.4509 21.3121 55.3968L18.0912 53.9865C17.694 53.8102 17.6514 53.514 18.0061 53.3519L18.3041 53.2249C18.5066 53.1438 18.7329 53.1438 18.9355 53.2249L22.1138 54.6352C22.4685 54.7692 22.5821 55.0301 22.3267 55.1993Z" fill="#4B4146"/>
<path d="M20.9287 55.3405L21.1912 55.4181L22.5462 54.6565L22.3334 54.5366L20.9287 55.3405Z" fill="#CF6621"/>
<path d="M20.2402 55.0861L20.5027 55.1637L21.8578 54.395L21.645 54.2822L20.2402 55.0861Z" fill="#CF6621"/>
<path d="M19.5596 54.8254L19.815 54.9029L21.17 54.1343L20.9572 54.0215L19.5596 54.8254Z" fill="#CF6621"/>
<path d="M18.8711 54.5646L19.1265 54.6422L20.4886 53.8736L20.2758 53.7607L18.8711 54.5646Z" fill="#CF6621"/>
<path d="M18.2324 54.2824L18.4878 54.36L19.8429 53.5913L19.63 53.4785L18.2324 54.2824Z" fill="#CF6621"/>
<path d="M17.6865 53.944L17.949 54.0216L19.3041 53.253L19.0912 53.1401L17.6865 53.944Z" fill="#CF6621"/>
<path d="M10.954 48.7894L11.2661 48.599C11.3583 48.5501 11.4625 48.5281 11.5667 48.5356C11.6709 48.5431 11.7708 48.5798 11.8549 48.6413L14.2529 50.4254C14.329 50.4544 14.3934 50.5076 14.4359 50.5768C14.4783 50.646 14.4965 50.7273 14.4876 50.8079C14.4787 50.8884 14.4432 50.9638 14.3866 51.0222C14.33 51.0806 14.2555 51.1187 14.1748 51.1305L13.8911 51.2504C13.804 51.2842 13.7098 51.2961 13.617 51.285C13.5242 51.2739 13.4355 51.2403 13.359 51.1869L10.9752 49.4593C10.7056 49.2337 10.6986 48.9516 10.954 48.7894Z" fill="#4B4146"/>
<path d="M12.1882 48.7401L11.9825 48.6343L10.6416 49.3606L10.7977 49.4946L12.1882 48.7401Z" fill="#CF6621"/>
<path d="M12.7065 49.0716L12.5079 48.9658L11.167 49.6921L11.316 49.8261L12.7065 49.0716Z" fill="#CF6621"/>
<path d="M13.2312 49.4026L13.0325 49.2969L11.6846 50.0232L11.8406 50.1572L13.2312 49.4026Z" fill="#CF6621"/>
<path d="M13.7566 49.7342L13.5508 49.6284L12.21 50.3477L12.366 50.4887L13.7566 49.7342Z" fill="#CF6621"/>
<path d="M14.239 50.0867L14.0332 49.981L12.6924 50.7002L12.8485 50.8412L14.239 50.0867Z" fill="#CF6621"/>
<path d="M14.615 50.4959L14.4163 50.3901L13.0684 51.1094L13.2244 51.2504L14.615 50.4959Z" fill="#CF6621"/>
<path d="M19.3747 71.0935C19.3733 70.9445 19.3292 70.799 19.2475 70.6741C19.1659 70.5492 19.05 70.4501 18.9136 70.3883L16.3525 69.2248L15.8559 68.9992C15.7943 68.9763 15.7281 68.9686 15.6629 68.9768C15.5977 68.9851 15.5356 69.009 15.4818 69.0465C15.428 69.084 15.3842 69.134 15.3542 69.1921C15.3242 69.2502 15.3089 69.3147 15.3096 69.38V69.6832C15.3135 69.8316 15.3586 69.976 15.44 70.1005C15.5214 70.2249 15.6359 70.3246 15.7707 70.3883L18.8355 71.7986C18.8971 71.8215 18.9633 71.8292 19.0285 71.821C19.0937 71.8127 19.1559 71.7888 19.2096 71.7513C19.2634 71.7138 19.3072 71.6639 19.3372 71.6058C19.3672 71.5477 19.3825 71.4831 19.3818 71.4178L19.3747 71.0935Z" fill="#ED9F51"/>
<path d="M19.1837 71.4532L16.126 70.0429C15.9893 69.9808 15.8729 69.8817 15.7901 69.757C15.7073 69.6323 15.6614 69.4871 15.6577 69.3377V69.0697C15.6536 69.044 15.6536 69.0179 15.6577 68.9922C15.558 69.0027 15.4658 69.0496 15.3989 69.1239C15.3321 69.1981 15.2953 69.2944 15.2959 69.3941V69.6973C15.2998 69.8457 15.3449 69.9902 15.4263 70.1146C15.5077 70.2391 15.6222 70.3387 15.757 70.4025L18.8219 71.8128C18.8752 71.8335 18.9325 71.8424 18.9896 71.8391C19.0468 71.8357 19.1026 71.8201 19.1531 71.7933C19.2037 71.7665 19.2478 71.7292 19.2824 71.6838C19.3171 71.6385 19.3415 71.5863 19.354 71.5307C19.2915 71.5195 19.2329 71.4929 19.1837 71.4532Z" fill="#BD7217"/>
<path d="M4.63236 63.0405C4.63115 62.8817 4.59113 62.7255 4.51574 62.5855C4.44035 62.4455 4.33186 62.3257 4.1996 62.2366L2.3905 61.0167L1.92226 60.7064C1.87222 60.6723 1.81359 60.6526 1.75294 60.6498C1.6923 60.6469 1.63206 60.6609 1.57899 60.6902C1.52592 60.7195 1.48212 60.763 1.45253 60.8157C1.42293 60.8684 1.40872 60.9282 1.41147 60.9885V61.3129C1.41501 61.4712 1.45603 61.6265 1.53122 61.7662C1.60641 61.9059 1.71363 62.026 1.84422 62.1167L4.12156 63.6469C4.1721 63.6815 4.23143 63.7013 4.29276 63.7039C4.35409 63.7065 4.41492 63.6919 4.46826 63.6617C4.5216 63.6315 4.56529 63.587 4.59432 63.5332C4.62335 63.4795 4.63653 63.4187 4.63236 63.3578V63.0405Z" fill="#ED9F51"/>
<path d="M4.44816 63.3651L2.17083 61.8349C2.04072 61.7441 1.93425 61.6239 1.86023 61.4841C1.7862 61.3443 1.74675 61.189 1.74515 61.031V60.7278C1.74196 60.702 1.74196 60.676 1.74515 60.6502C1.6999 60.6482 1.65473 60.6556 1.6125 60.6719C1.57027 60.6882 1.53192 60.7131 1.49988 60.7449C1.46785 60.7767 1.44283 60.8149 1.42643 60.8568C1.41003 60.8988 1.40261 60.9437 1.40462 60.9887V61.3131C1.40816 61.4714 1.44919 61.6267 1.52438 61.7664C1.59957 61.9061 1.7068 62.0262 1.83738 62.1169L4.11472 63.6471C4.15778 63.6791 4.20827 63.6997 4.26149 63.7071C4.31471 63.7145 4.36895 63.7084 4.41918 63.6894C4.46941 63.6704 4.51402 63.6392 4.54885 63.5985C4.58368 63.5578 4.6076 63.509 4.61842 63.4567C4.55514 63.4401 4.49677 63.4086 4.44816 63.3651Z" fill="#BD7217"/>
<g style="mix-blend-mode:multiply">
<path d="M5.76762 69.6616C5.58318 69.5363 5.43114 69.3694 5.32389 69.1745C5.21663 68.9797 5.15719 68.7624 5.15039 68.5405V66.425C5.15039 66.009 5.42708 65.8327 5.76762 66.0301L10.3081 68.7238C10.4912 68.8499 10.6419 69.0172 10.7479 69.212C10.8539 69.4068 10.9122 69.6236 10.9182 69.845V71.9604C10.9182 72.3765 10.6486 72.5528 10.3081 72.3553L5.76762 69.6616Z" fill="#8B8B8B"/>
</g>
<path d="M5.94535 69.2879C5.76092 69.1625 5.60888 68.9956 5.50162 68.8008C5.39437 68.606 5.33492 68.3887 5.32812 68.1667V66.0513C5.32812 65.6352 5.60482 65.459 5.94535 65.6634L10.4858 68.3571C10.6703 68.4825 10.8223 68.6494 10.9295 68.8442C11.0368 69.0391 11.0962 69.2563 11.103 69.4783V71.5938C11.103 72.0098 10.8264 72.1932 10.4858 71.9887L5.94535 69.2879Z" fill="#F9FCFC"/>
<path d="M5.76762 69.3656C5.58318 69.2402 5.43114 69.0733 5.32389 68.8785C5.21663 68.6837 5.15719 68.4664 5.15039 68.2444V66.129C5.15039 65.7059 5.42708 65.5296 5.76762 65.7341L10.3081 68.4278C10.4912 68.5539 10.6419 68.7211 10.7479 68.9159C10.8539 69.1107 10.9122 69.3276 10.9182 69.549V71.6644C10.9182 72.0875 10.6486 72.2638 10.3081 72.0593L5.76762 69.3656Z" fill="#E0E0E0"/>
<path d="M10.3078 71.8899L5.76738 69.1963C5.61829 69.0938 5.49519 68.9582 5.40778 68.8004C5.32037 68.6425 5.27103 68.4667 5.26367 68.2866V66.1712C5.26367 65.8327 5.4907 65.6917 5.76738 65.8539L10.3078 68.5475C10.456 68.6504 10.5781 68.7862 10.6643 68.9441C10.7505 69.1019 10.7985 69.2776 10.8045 69.4572V71.5726C10.8045 71.9393 10.5845 72.0803 10.3078 71.8899Z" fill="#F8FFFF"/>
<path d="M10.8052 69.4505C10.796 69.2736 10.7465 69.1011 10.6605 68.946C10.5744 68.7908 10.4541 68.6571 10.3086 68.5549L5.76811 65.8613C5.49142 65.6991 5.27858 65.8613 5.27148 66.1715L10.8052 69.4505Z" fill="#6BB5FF"/>
<path d="M5.27148 68.3643C5.27912 68.5415 5.32792 68.7146 5.41408 68.8699C5.50023 69.0253 5.62141 69.1587 5.76811 69.2598L10.3086 71.9535C10.5782 72.1156 10.7981 71.9535 10.8052 71.6432L5.27148 68.3643Z" fill="#6BB5FF"/>
<path d="M44.9506 61.2705L34.0322 67.5464L35.139 68.181L46.0503 61.9051L44.9506 61.2705Z" fill="#DDE2E6"/>
<path d="M46.05 62.8361L35.1387 69.1119V68.1811L46.05 61.9053V62.8361Z" fill="#B2B2B2"/>
<path d="M41.3182 53.5207L41.1621 53.429L43.4749 52.061L43.631 52.1457L41.3182 53.5207Z" fill="#DDE2E6"/>
<path d="M41.5098 54.6703L41.1621 54.4869V53.4292L41.3182 53.5209L41.5098 54.6703Z" fill="#727272"/>
<path d="M43.6312 52.146L41.3184 53.521L41.5099 54.6704L43.8227 53.2954L43.6312 52.146Z" fill="#9FAAAB"/>
<path d="M8.98874 62.018C9.06035 62.3407 9.20487 62.643 9.41136 62.9019C9.61785 63.1609 9.8809 63.3698 10.1806 63.5129C10.8333 63.8725 11.3583 63.7808 11.3512 63.3084C11.2796 62.9857 11.1351 62.6834 10.9286 62.4244C10.7221 62.1654 10.459 61.9565 10.1593 61.8135C9.47116 61.4609 8.94618 61.5596 8.98874 62.018Z" fill="#929DA6"/>
<path d="M8.69824 62.2156C8.77179 62.5375 8.91705 62.8389 9.12332 63.0976C9.32959 63.3563 9.59163 63.5658 9.89012 63.7105C10.5428 64.0631 11.0678 63.9714 11.0607 63.499C10.9872 63.1771 10.8419 62.8756 10.6356 62.6169C10.4294 62.3582 10.1673 62.1488 9.86884 62.0041C9.21615 61.6515 8.69824 61.7431 8.69824 62.2156Z" fill="#D1D1D1"/>
<path d="M23.3053 32.5073L22.7306 32.874C22.5675 32.9727 22.5604 33.142 22.3972 33.0503L22.1418 32.8458C21.9644 32.7471 21.7729 32.3733 21.9432 32.2676L22.5178 31.9009C22.681 31.8092 23.3053 31.5342 23.4685 31.6259H23.5323C23.7097 31.7599 23.4756 32.4015 23.3053 32.5073Z" fill="#9F4B12"/>
<path d="M24.1211 32.585L23.1988 33.1702C23.1109 33.2224 23.0103 33.25 22.9079 33.25C22.8055 33.25 22.705 33.2224 22.6171 33.1702L22.3971 33.0433C22.1985 32.9305 22.461 32.1196 22.6454 31.9997L23.3052 31.9433C23.4826 31.8305 23.7522 31.5484 23.9366 31.6542L24.0927 31.774C24.2843 31.8939 24.3126 32.4721 24.1211 32.585Z" fill="#ED8333"/>
<path d="M23.8874 32.0774L23.3128 32.4441C23.2346 32.4907 23.1451 32.5153 23.0538 32.5153C22.9626 32.5153 22.8731 32.4907 22.7949 32.4441H22.7239C22.6844 32.4193 22.6518 32.385 22.6292 32.3443C22.6066 32.3036 22.5947 32.2579 22.5947 32.2114C22.5947 32.1649 22.6066 32.1192 22.6292 32.0785C22.6518 32.0378 22.6844 32.0035 22.7239 31.9787L23.3057 31.6191C23.3839 31.5725 23.4734 31.5479 23.5647 31.5479C23.6559 31.5479 23.7454 31.5725 23.8236 31.6191H23.8874C23.9255 31.6442 23.9567 31.6782 23.9783 31.7182C23.9999 31.7582 24.0112 31.8029 24.0112 31.8482C24.0112 31.8936 23.9999 31.9383 23.9783 31.9783C23.9567 32.0183 23.9255 32.0523 23.8874 32.0774Z" fill="#EDBD51"/>
<path d="M28.57 35.5395L27.9953 35.9062C27.8392 36.0049 27.825 36.1741 27.6619 36.0825L27.4064 35.878C27.2291 35.7793 27.0375 35.4055 27.2078 35.2997L27.7896 34.9401C27.9456 34.8414 28.5699 34.5664 28.7331 34.6581L28.8041 34.6933C28.9814 34.792 28.7402 35.4408 28.57 35.5395Z" fill="#9F4B12"/>
<path d="M29.3927 35.6241L28.4704 36.2023C28.3817 36.2558 28.2798 36.2841 28.176 36.2841C28.0722 36.2841 27.9703 36.2558 27.8816 36.2023L27.6617 36.0753C27.463 35.9625 27.7255 35.1516 27.9171 35.0317L28.5768 34.9753C28.7542 34.8695 29.0238 34.5875 29.2083 34.6933L29.3572 34.8061C29.4581 34.917 29.5168 35.0594 29.5233 35.2087C29.5297 35.358 29.4836 35.505 29.3927 35.6241Z" fill="#ED8333"/>
<path d="M29.1586 35.1093L28.584 35.4759C28.5044 35.5224 28.4138 35.547 28.3215 35.547C28.2292 35.547 28.1386 35.5224 28.059 35.4759L27.9951 35.4407C27.9555 35.4168 27.9227 35.3832 27.8999 35.343C27.8772 35.3029 27.8652 35.2576 27.8652 35.2115C27.8652 35.1654 27.8772 35.1201 27.8999 35.08C27.9227 35.0398 27.9555 35.0062 27.9951 34.9823L28.5698 34.6157C28.648 34.5691 28.7375 34.5444 28.8287 34.5444C28.9199 34.5444 29.0094 34.5691 29.0877 34.6157H29.1586C29.2074 34.6362 29.2491 34.6705 29.2784 34.7144C29.3076 34.7583 29.3232 34.8098 29.3232 34.8624C29.3232 34.9151 29.3076 34.9666 29.2784 35.0105C29.2491 35.0544 29.2074 35.0887 29.1586 35.1093Z" fill="#EDBD51"/>
<path d="M33.8191 38.5789L33.2444 38.9455C33.0812 39.0372 33.0741 39.2135 32.911 39.1218L32.6485 38.9173C32.4782 38.8116 32.2796 38.4449 32.4498 38.3391L33.0316 37.9724C33.1877 37.8808 33.8191 37.5987 33.9822 37.6974H34.0461C34.2447 37.8244 34.0106 38.4731 33.8191 38.5789Z" fill="#9F4B12"/>
<path d="M34.6563 38.6562L33.734 39.2415C33.6461 39.2936 33.5456 39.3212 33.4431 39.3212C33.3407 39.3212 33.2402 39.2936 33.1523 39.2415L32.9323 39.1216C32.7337 39.0017 32.9891 38.1908 33.1806 38.0779L33.8191 38.0427C33.9965 37.9369 34.2661 37.6549 34.4506 37.7606L34.5995 37.8735C34.6948 37.9793 34.7521 38.1135 34.7623 38.2552C34.7726 38.3968 34.7353 38.5379 34.6563 38.6562Z" fill="#ED8333"/>
<path d="M34.4226 38.1484L33.848 38.508C33.7697 38.5547 33.6802 38.5793 33.589 38.5793C33.4978 38.5793 33.4083 38.5547 33.3301 38.508H33.2591C33.2195 38.4833 33.1869 38.4489 33.1644 38.4082C33.1418 38.3675 33.1299 38.3218 33.1299 38.2753C33.1299 38.2289 33.1418 38.1832 33.1644 38.1425C33.1869 38.1018 33.2195 38.0674 33.2591 38.0427L33.8409 37.683C33.9191 37.6364 34.0086 37.6118 34.0998 37.6118C34.191 37.6118 34.2805 37.6364 34.3588 37.683H34.4226C34.4622 37.7078 34.4948 37.7421 34.5174 37.7828C34.54 37.8235 34.5519 37.8693 34.5519 37.9157C34.5519 37.9622 34.54 38.0079 34.5174 38.0486C34.4948 38.0893 34.4622 38.1236 34.4226 38.1484Z" fill="#EDBD51"/>
<path d="M3.89517 65.0855L4.60461 64.6554L3.81003 64.0137L3.10059 64.4509L3.89517 65.0855Z" fill="#CBE0E0"/>
<path d="M3.89453 68.5547L4.60398 68.1176V64.6553L3.89453 65.0854V68.5547Z" fill="#A6B8B6"/>
<path d="M3.10059 64.4507L3.89516 65.0853V68.5547L3.10059 67.92V64.4507Z" fill="#859494"/>
<path d="M13.2666 70.4726L14.0115 69.8168L13.1814 69.4219L12.4365 70.0777L13.2666 70.4726Z" fill="#CBE0E0"/>
<path d="M13.2666 73.942L14.0115 73.2862V69.8169L13.2666 70.4727V73.942Z" fill="#A6B8B6"/>
<path d="M12.4365 70.0776L13.2666 70.4725V73.9419L12.4365 73.547V70.0776Z" fill="#859494"/>
<path d="M48.5333 35.1445V35.4477C48.5314 35.5162 48.5121 35.583 48.4774 35.6421C48.4427 35.7013 48.3936 35.7508 48.3347 35.7862L47.0222 36.5407C46.9985 36.5543 46.9716 36.5615 46.9443 36.5615C46.9169 36.5615 46.89 36.5544 46.8663 36.5408C46.8426 36.5272 46.8229 36.5077 46.8091 36.4842C46.7954 36.4606 46.7882 36.4339 46.7881 36.4067V36.3221L47.8877 35.6875C47.9457 35.6527 47.9942 35.6043 48.0288 35.5465C48.0635 35.4887 48.0832 35.4233 48.0864 35.356V35.1304L48.2992 35.0105C48.3229 34.9969 48.3498 34.9898 48.3772 34.9897C48.4045 34.9897 48.4314 34.9969 48.4551 35.0104C48.4788 35.024 48.4985 35.0435 48.5123 35.0671C48.526 35.0906 48.5333 35.1173 48.5333 35.1445Z" fill="#9F4B12"/>
<path d="M48.0864 35.1309V35.3565C48.0832 35.4237 48.0635 35.4891 48.0288 35.547C47.9942 35.6048 47.9457 35.6532 47.8877 35.6879L46.7881 36.3226V36.104C46.7887 36.0352 46.8074 35.9679 46.8422 35.9085C46.877 35.8491 46.9269 35.7998 46.9867 35.7655L48.0864 35.1309Z" fill="#FF5440"/>
<path d="M66.589 24.6876V24.9908C66.5884 25.0595 66.5697 25.1269 66.5349 25.1863C66.5 25.2456 66.4502 25.2949 66.3903 25.3293L65.0779 26.0556C65.0542 26.0692 65.0273 26.0763 64.9999 26.0764C64.9725 26.0764 64.9457 26.0692 64.922 26.0557C64.8982 26.0421 64.8785 26.0226 64.8648 25.999C64.8511 25.9755 64.8438 25.9488 64.8438 25.9216V25.837L65.9434 25.2023C66.0022 25.1686 66.0514 25.1204 66.0862 25.0624C66.121 25.0044 66.1402 24.9384 66.142 24.8709V24.6453L66.3548 24.5254C66.3807 24.5098 66.4105 24.502 66.4407 24.503C66.4709 24.504 66.5002 24.5136 66.525 24.5308C66.5498 24.548 66.569 24.5719 66.5804 24.5998C66.5917 24.6276 66.5947 24.6581 66.589 24.6876Z" fill="#9F4B12"/>
<path d="M66.142 24.645V24.8707C66.1402 24.9382 66.121 25.0041 66.0862 25.0621C66.0514 25.1202 66.0022 25.1683 65.9434 25.2021L64.8438 25.8367V25.6181C64.8457 25.5497 64.8649 25.4828 64.8996 25.4237C64.9343 25.3646 64.9834 25.315 65.0424 25.2797L66.142 24.645Z" fill="#FFB81B"/>
<path d="M84.6515 14.2301V14.5333C84.6518 14.6013 84.6335 14.668 84.5985 14.7264C84.5635 14.7848 84.5132 14.8326 84.4529 14.8647L83.1404 15.6263C83.1167 15.6399 83.0898 15.647 83.0624 15.647C83.0351 15.6471 83.0082 15.6399 82.9845 15.6264C82.9607 15.6128 82.941 15.5933 82.9273 15.5697C82.9136 15.5462 82.9063 15.5195 82.9062 15.4923V15.4077L84.0059 14.773C84.0658 14.7387 84.1156 14.6894 84.1504 14.63C84.1853 14.5707 84.2039 14.5033 84.2045 14.4346V14.216L84.4245 14.0961C84.4479 14.0842 84.4741 14.0783 84.5004 14.0792C84.5268 14.08 84.5525 14.0875 84.5752 14.1008C84.5978 14.1142 84.6167 14.1331 84.6301 14.1557C84.6434 14.1783 84.6508 14.2039 84.6515 14.2301Z" fill="#9F4B12"/>
<path d="M84.1899 14.2158V14.4344C84.1893 14.5031 84.1706 14.5705 84.1358 14.6299C84.1009 14.6892 84.0511 14.7385 83.9912 14.7729L82.8916 15.4075V15.1889C82.8922 15.1202 82.9109 15.0528 82.9457 14.9935C82.9805 14.9341 83.0304 14.8848 83.0902 14.8505L84.1899 14.2158Z" fill="#FF5440"/>
<path d="M49.1857 56.5604V56.8707C49.1838 56.9382 49.1646 57.0041 49.1298 57.0621C49.0951 57.1202 49.0459 57.1683 48.987 57.2021L47.6745 57.9636C47.6508 57.9772 47.624 57.9844 47.5966 57.9844C47.5692 57.9844 47.5423 57.9773 47.5186 57.9637C47.4949 57.9502 47.4752 57.9306 47.4615 57.9071C47.4477 57.8836 47.4405 57.8569 47.4404 57.8297V57.738L48.533 57.1034C48.5933 57.0713 48.6437 57.0235 48.6787 56.9651C48.7137 56.9067 48.732 56.8399 48.7316 56.7719V56.5533L48.9445 56.4335C48.9671 56.4156 48.9946 56.4046 49.0234 56.402C49.0522 56.3993 49.0812 56.4051 49.1068 56.4186C49.1324 56.432 49.1535 56.4526 49.1675 56.4778C49.1815 56.503 49.1878 56.5317 49.1857 56.5604Z" fill="#E9BE50"/>
<path d="M48.718 56.5532V56.7718C48.7183 56.8398 48.7 56.9066 48.665 56.965C48.63 57.0234 48.5796 57.0712 48.5193 57.1032L47.4268 57.7379V57.5193C47.4286 57.4518 47.4478 57.3858 47.4826 57.3278C47.5174 57.2698 47.5665 57.2216 47.6254 57.1879L48.718 56.5532Z" fill="#FF5440"/>
<path d="M82.8995 37.0347V37.3379C82.8976 37.4063 82.8784 37.4732 82.8437 37.5323C82.8089 37.5914 82.7599 37.641 82.7009 37.6763L81.3884 38.4308C81.3647 38.4444 81.3378 38.4516 81.3105 38.4516C81.2831 38.4516 81.2562 38.4445 81.2325 38.4309C81.2088 38.4174 81.1891 38.3978 81.1753 38.3743C81.1616 38.3508 81.1544 38.3241 81.1543 38.2969V38.2122L82.2539 37.5776C82.3119 37.5429 82.3604 37.4944 82.3951 37.4366C82.4297 37.3788 82.4495 37.3134 82.4526 37.2462V37.0276L82.6654 36.9007C82.6891 36.8871 82.716 36.8799 82.7434 36.8799C82.7707 36.8799 82.7976 36.887 82.8213 36.9006C82.845 36.9142 82.8648 36.9337 82.8785 36.9572C82.8922 36.9807 82.8995 37.0075 82.8995 37.0347Z" fill="#E9BE50"/>
<path d="M82.4526 37.0273V37.2459C82.4495 37.3132 82.4297 37.3786 82.3951 37.4364C82.3604 37.4942 82.3119 37.5426 82.2539 37.5774L81.1543 38.212V37.9934C81.154 37.9254 81.1723 37.8586 81.2073 37.8002C81.2423 37.7418 81.2926 37.694 81.3529 37.662L82.4526 37.0273Z" fill="#FF5440"/>
<path d="M27.6193 61.1787L27.0942 61.4467C27.0247 61.4831 26.9667 61.538 26.9266 61.6052C26.8866 61.6724 26.866 61.7493 26.8672 61.8274V62.0178C26.8665 62.058 26.8762 62.0977 26.8955 62.133C26.9148 62.1684 26.9429 62.1981 26.9772 62.2194C27.0115 62.2407 27.0508 62.2529 27.0912 62.2546C27.1316 62.2563 27.1717 62.2476 27.2078 62.2294L27.7328 61.9544C27.8004 61.9164 27.8566 61.861 27.8953 61.794C27.934 61.727 27.9538 61.6508 27.9527 61.5736V61.3832C27.9536 61.3438 27.9441 61.3049 27.9252 61.2703C27.9063 61.2357 27.8786 61.2066 27.8449 61.1859C27.8112 61.1653 27.7727 61.1537 27.7331 61.1525C27.6935 61.1512 27.6542 61.1602 27.6193 61.1787Z" fill="#ED8333"/>
<path d="M27.754 61.3126L27.229 61.5806C27.16 61.6177 27.1024 61.6727 27.0624 61.7397C27.0224 61.8068 27.0015 61.8834 27.002 61.9614V62.1588C27.0024 62.1984 27.0131 62.2372 27.0328 62.2716C27.0526 62.306 27.0809 62.3347 27.115 62.3552C27.1491 62.3757 27.1879 62.3872 27.2277 62.3886C27.2675 62.39 27.307 62.3813 27.3425 62.3633L27.8675 62.0953C27.9342 62.0563 27.9895 62.0006 28.0281 61.9339C28.0666 61.8671 28.0871 61.7916 28.0874 61.7146V61.5242C28.0896 61.4842 28.0811 61.4444 28.0627 61.4088C28.0444 61.3732 28.0168 61.3431 27.9829 61.3216C27.9489 61.3 27.9099 61.2879 27.8696 61.2863C27.8294 61.2847 27.7895 61.2938 27.754 61.3126Z" fill="#EDBD51"/>
<path d="M52.7475 37.9443C54.0033 37.2391 54.8759 37.6551 54.8759 39.002C54.8455 39.7196 54.6348 40.4181 54.263 41.034C53.8912 41.6499 53.3702 42.1634 52.7475 42.5277L51.0732 43.4868V38.9385L52.7475 37.9443ZM52.0381 41.9707L52.7475 41.5617C53.0748 41.3485 53.3434 41.0576 53.5292 40.7154C53.715 40.3731 53.8121 39.9903 53.8117 39.6014C53.8117 38.7975 53.3435 38.5154 52.6979 38.8962L52.0239 39.2841L52.0381 41.9707Z" fill="#FFD23F"/>
<path d="M56.4149 36.7524V37.655L58.3162 36.562V37.4716L56.4149 38.5646V39.4531L58.5858 38.205V39.1146L55.4004 40.941V36.421L58.522 34.6299V35.5395L56.4149 36.7524Z" fill="#FFD23F"/>
<path d="M61.9491 36.2448V37.2179L59.2461 38.7692V34.221L60.2606 33.6357V37.2179L61.9491 36.2448Z" fill="#FFD23F"/>
<path d="M62.4316 36.9356V32.4015L63.4462 31.8232V36.3715L62.4316 36.9356Z" fill="#FFD23F"/>
<path d="M65.3896 35.2221L63.8359 31.5623L64.9214 30.9418L65.943 33.6989L66.9575 29.7712L68.0004 29.1719L66.4538 34.6438L65.3896 35.2221Z" fill="#FFD23F"/>
<path d="M69.412 29.299V30.2016L71.3133 29.1086V30.0183L69.412 31.1113V32.028L71.5758 30.7799V31.6966L68.3975 33.5229V28.9747L71.5191 27.1836V28.0932L69.412 29.299Z" fill="#FFD23F"/>
<path d="M74.0454 28.9957L73.2792 29.4399V30.7162L72.2646 31.3015V26.7603L74.0454 25.7378C75.0954 25.1314 75.7055 25.3571 75.7055 26.3725C75.7034 27.0621 75.4516 27.728 74.996 28.2482L75.8332 29.2707L74.6768 29.9264L74.0454 28.9957ZM74.0454 28.1001C74.2571 27.9939 74.4354 27.8318 74.5605 27.6315C74.6857 27.4312 74.7529 27.2006 74.7548 26.9648C74.7548 26.4924 74.4994 26.4007 74.0454 26.6546L73.2792 27.0917V28.5444L74.0454 28.1001Z" fill="#FFD23F"/>
<path d="M78.3727 27.7901L77.3653 28.3683V26.958L75.8896 24.6451L76.9042 24.0669L77.869 25.4772L78.8055 22.9598L79.82 22.3745L78.4011 26.2881L78.3727 27.7901Z" fill="#FFD23F"/>
<path d="M49.9736 56.8631V51.2642L61.8072 44.4736V50.0725L49.9736 56.8631ZM50.2787 51.4335V56.3695L61.488 49.9033V44.9672L50.2787 51.4335Z" fill="#BF8F00"/>
<g style="mix-blend-mode:multiply">
<g style="mix-blend-mode:multiply">
<path d="M34.2449 64.9865L30.875 58.2452V55.1144C31.3645 53.7393 33.6277 45.0942 33.6489 45.0025V44.9531H33.6915L42.4603 40.0171L44.4609 49.9597L44.3971 59.2747L34.2449 64.9865ZM31.1304 58.21L34.3513 64.6339L44.1559 59.1267L44.2197 49.9597L42.3326 40.3697L33.8902 45.0942C33.6844 45.8769 31.627 53.7464 31.1304 55.1567V58.21Z" fill="#DEB159"/>
</g>
</g>
<path d="M32.1801 55.0158C32.3007 54.1837 32.095 52.9003 32.7831 52.2305C32.9916 52.0916 33.2441 52.0339 33.4926 52.0683C33.7976 52.0683 34.0956 52.0683 34.3936 52.0683C34.7373 52.0734 35.0665 52.2068 35.3159 52.442C35.8692 52.9004 35.6635 53.944 35.6138 54.5575C35.55 55.3543 35.4223 56.1441 35.323 56.9338C35.3027 57.3477 35.2215 57.7563 35.0817 58.1467C34.8122 58.7813 34.0672 58.8941 33.45 58.9153C33.2832 58.9368 33.1138 58.9206 32.9541 58.8681C32.7945 58.8157 32.6487 58.7282 32.5277 58.6121C32.4532 58.5228 32.3988 58.4187 32.3682 58.3068C32.3376 58.1949 32.3315 58.0778 32.3504 57.9633C32.3504 57.6319 32.3504 57.3005 32.3504 56.9691C32.3647 56.8803 32.3647 56.7899 32.3504 56.7011C32.343 56.6761 32.3282 56.654 32.3078 56.6377C32.2756 56.6269 32.2407 56.6269 32.2085 56.6377C31.9513 56.7155 31.7108 56.8398 31.499 57.0043C31.2753 57.1594 31.005 57.2341 30.7328 57.2159C30.6957 57.214 30.6605 57.199 30.6335 57.1736C30.6073 57.1436 30.5901 57.107 30.5838 57.0678C30.5146 56.7739 30.515 56.4679 30.5852 56.1742C30.6554 55.8805 30.7934 55.607 30.9882 55.3754C31.2791 55.0299 31.6622 55.0722 32.0737 55.0934H32.1801C32.1801 55.0934 32.173 55.0299 32.1801 55.0158Z" fill="#3A4044"/>
<defs>
<linearGradient id="paint0_linear_673_2753" x1="71.64" y1="39.7493" x2="65.5028" y2="50.4365" gradientUnits="userSpaceOnUse">
<stop offset="0.13" stop-color="#6C7880"/>
<stop offset="0.44" stop-color="#50585E"/>
<stop offset="0.84" stop-color="#3B4145"/>
</linearGradient>
<linearGradient id="paint1_linear_673_2753" x1="56.2758" y1="42.8874" x2="52.2307" y2="49.9122" gradientUnits="userSpaceOnUse">
<stop offset="0.13" stop-color="#E0E5E8"/>
<stop offset="0.44" stop-color="#C0C4C6"/>
<stop offset="0.84" stop-color="#A8ABAD"/>
</linearGradient>
<linearGradient id="paint2_linear_673_2753" x1="72.2571" y1="43.1273" x2="68.6507" y2="49.408" gradientUnits="userSpaceOnUse">
<stop offset="0.16" stop-color="#919496"/>
<stop offset="0.56" stop-color="#B1B5B8"/>
<stop offset="0.87" stop-color="#ACB0B3"/>
</linearGradient>
<linearGradient id="paint3_linear_673_2753" x1="71.0374" y1="43.5009" x2="68.5136" y2="47.9002" gradientUnits="userSpaceOnUse">
<stop offset="0.13" stop-color="#B1B5B8"/>
<stop offset="0.44" stop-color="#919496"/>
<stop offset="0.84" stop-color="#797B7D"/>
</linearGradient>
<linearGradient id="paint4_linear_673_2753" x1="640.383" y1="-32787.3" x2="636.83" y2="-32792.6" gradientUnits="userSpaceOnUse">
<stop offset="0.16" stop-color="#919496"/>
<stop offset="0.56" stop-color="#B1B5B8"/>
<stop offset="0.87" stop-color="#ACB0B3"/>
</linearGradient>
<linearGradient id="paint5_linear_673_2753" x1="2837.13" y1="-191413" x2="2728.47" y2="-191582" gradientUnits="userSpaceOnUse">
<stop offset="0.13" stop-color="#6C7880"/>
<stop offset="0.44" stop-color="#50585E"/>
<stop offset="0.84" stop-color="#3B4145"/>
</linearGradient>
<linearGradient id="paint6_linear_673_2753" x1="2099.59" y1="62730.9" x2="2081.63" y2="62786" gradientUnits="userSpaceOnUse">
<stop offset="0.13" stop-color="#E0E5E8"/>
<stop offset="0.44" stop-color="#C0C4C6"/>
<stop offset="0.84" stop-color="#A8ABAD"/>
</linearGradient>
<linearGradient id="paint7_linear_673_2753" x1="1496.45" y1="-102777" x2="1461.81" y2="-102829" gradientUnits="userSpaceOnUse">
<stop offset="0.16" stop-color="#919496"/>
<stop offset="0.56" stop-color="#B1B5B8"/>
<stop offset="0.87" stop-color="#ACB0B3"/>
</linearGradient>
<linearGradient id="paint8_linear_673_2753" x1="1064.8" y1="-75582.1" x2="1046.71" y2="-75608.4" gradientUnits="userSpaceOnUse">
<stop offset="0.13" stop-color="#B1B5B8"/>
<stop offset="0.44" stop-color="#919496"/>
<stop offset="0.84" stop-color="#797B7D"/>
</linearGradient>
<linearGradient id="paint9_linear_673_2753" x1="492.946" y1="-32562.7" x2="489.435" y2="-32568" gradientUnits="userSpaceOnUse">
<stop offset="0.16" stop-color="#919496"/>
<stop offset="0.56" stop-color="#B1B5B8"/>
<stop offset="0.87" stop-color="#ACB0B3"/>
</linearGradient>
</defs>
</svg>
