<svg width="188" height="144" viewBox="0 0 188 144" fill="none" xmlns="http://www.w3.org/2000/svg">
<g clip-path="url(#clip0_673_3648)">
<path d="M10.767 108.675C19.9431 101.19 63.4979 105.156 63.4979 105.156C63.4979 105.156 96.6498 96.9905 108.914 95.3339C124.936 93.1738 160.281 91.733 177.462 103.911C184.323 109.666 200.991 123.216 154.987 125.582C144.151 126.483 122.945 128.117 113.001 132.393C107.551 133.283 97.9103 141.138 60.5564 135.147C31.0172 128.954 5.33055 116.117 10.767 108.675Z" fill="url(#paint0_linear_673_3648)"/>
<path d="M82.9686 56.3494L84.3166 56.7377C84.3166 56.7377 83.626 58.2786 82.4694 58.5843C81.5041 58.638 80.8052 57.2458 79.557 56.9319C77.4768 56.1304 63.7472 51.4251 62.9609 49.8181C62.6114 49.405 63.0607 47.2568 63.5017 44.4973C63.6473 43.5843 63.7222 43.1216 63.7222 43.1216L68.1657 43.5554L67.97 45.5052L67.8744 46.9924C70.7867 48.4259 75.5962 52.809 80.3558 54.8415C80.3558 54.8415 81.6414 54.6556 81.9118 54.6556C82.1823 54.6556 83.7841 56.1015 84.2834 56.2172C84.3167 56.2131 84.3957 56.6014 82.9686 56.3494Z" fill="#FFC596"/>
<path d="M66.3095 105.873L65.9268 108.562H69.5589L69.33 105.873H66.3095Z" fill="white"/>
<path d="M65.773 107.732C65.5983 109.409 64.6538 111.099 66.2514 112.416L76.8357 112.458C76.976 112.46 77.1148 112.428 77.2401 112.365C77.3654 112.303 77.4735 112.211 77.5553 112.097C77.637 111.984 77.69 111.853 77.7096 111.715C77.7292 111.577 77.7148 111.436 77.6678 111.305C77.414 110.892 72.6295 109.083 72.6295 109.083L69.8752 107.674L66.0268 107.529C65.9966 107.525 65.9659 107.527 65.9366 107.536C65.9072 107.544 65.8799 107.558 65.8561 107.577C65.8324 107.595 65.8128 107.619 65.7985 107.646C65.7842 107.672 65.7756 107.702 65.773 107.732Z" fill="black"/>
<path d="M69.5592 106.798H65.8439C65.8439 106.798 64.8704 96.0576 64.005 90.3278C63.6472 87.9565 63.2853 85.7836 62.8526 84.0361C60.6267 74.9725 59.2496 66.2063 60.1566 62.9675C63.7804 59.5428 71.3441 62.7197 71.3441 62.7197C71.5271 63.6202 69.9794 95.4338 69.5592 106.798Z" fill="black"/>
<path d="M67.4915 71.2006C67.7494 75.3028 64.8662 97.1563 64.8662 97.1563L64.005 90.3275C63.6472 87.9563 63.2853 85.7833 62.8526 84.0359C60.6267 74.9723 59.2496 66.2061 60.1566 62.9673C62.3533 64.0455 64.317 70.5355 66.5554 70.2091C67.9718 69.9723 69.2965 69.3567 70.3872 68.4286L67.4915 71.2006Z" fill="black"/>
<path d="M56.9824 108.901L56.791 110.863H59.8739L60.1818 108.901H56.9824Z" fill="white"/>
<path d="M56.4033 110.231C56.2244 111.908 55.2841 113.598 56.8817 114.916L67.466 114.957C67.6063 114.959 67.745 114.928 67.8703 114.865C67.9956 114.802 68.1038 114.71 68.1855 114.597C68.2673 114.484 68.3202 114.353 68.3398 114.215C68.3594 114.077 68.3451 113.936 68.2981 113.805C68.0443 113.392 63.2598 111.582 63.2598 111.582L60.5055 110.029H56.657C56.6269 110.025 56.5962 110.027 56.5668 110.035C56.5375 110.043 56.5102 110.057 56.4865 110.076C56.4628 110.095 56.4431 110.118 56.4288 110.145C56.4145 110.172 56.4058 110.201 56.4033 110.231Z" fill="black"/>
<path d="M65.5653 81.8714L60.3272 109.104H56.7408C56.7408 109.104 56.874 83.1769 56.8823 81.6442C56.6993 75.9598 56.1375 71.1223 56.2083 67.8175C56.2457 66.0204 56.4662 64.6737 57.0404 63.8888C57.0404 63.8888 59.8279 61.3771 66.6095 64.0416C66.6761 64.4919 67.4916 71.2008 65.5653 81.8714Z" fill="black"/>
<path d="M71.3481 57.7867C71.3481 57.9602 71.3481 58.1296 71.3481 58.299V59.6127C71.3481 60.8272 71.3481 61.8848 71.3481 62.7151C71.3481 63.7603 70.5742 64.2478 69.4551 64.6113C66.4762 65.6936 62.5195 65.4127 57.7724 65.2392C57.5633 65.2393 57.3564 65.1964 57.1649 65.1132C56.9733 65.03 56.8012 64.9083 56.6593 64.7558C56.5174 64.6033 56.4089 64.4233 56.3406 64.227C56.2722 64.0308 56.2455 63.8227 56.2622 63.6157C56.4411 61.4179 57.0485 55.1139 57.0485 55.0065C57.1358 51.5446 56.8862 50.8382 56.8654 47.0541H54.8809C54.8809 43.1503 55.2969 39.8826 56.8654 37.375C57.9055 35.7226 59.6197 34.3139 61.442 33.1943C62.9154 33.9518 64.5598 34.3216 66.2182 34.2684C67.121 34.4419 67.5538 34.2023 68.6854 34.8013C71.5229 40.56 71.3439 55.18 71.3439 55.4113V55.6097C71.3439 55.7006 71.3439 55.7873 71.3439 55.8782C71.3439 56.5391 71.3481 57.1753 71.3481 57.7867Z" fill="#FCCC54"/>
<path d="M71.3479 58.2911C69.8793 59.6378 57.0608 54.2756 57.0649 53.908C57.0649 51.7185 56.9318 49.5497 56.8652 47.1289L61.3419 47.0504C61.3419 44.4932 62.1407 38.6849 62.7981 37.5488C62.3211 39.3843 62.1636 41.2872 62.3322 43.1754L62.5984 49.8306L71.3354 49.2894L71.3479 58.2911Z" fill="#F4AA4A"/>
<path d="M80.4887 37.9743L76.9023 53.8666L86.1345 52.9826L89.8123 37.1274L80.4887 37.9743Z" fill="#F7E9CB"/>
<path d="M86.0303 36.7226L85.6766 36.7433C85.5924 36.5554 85.4526 36.3974 85.2757 36.2904C85.0988 36.1833 84.8933 36.1324 84.6865 36.1443C84.4799 36.1569 84.282 36.2316 84.1193 36.3585C83.9565 36.4855 83.8365 36.6586 83.7752 36.8549H83.4217C83.2532 36.8737 83.0985 36.9559 82.9894 37.0847C82.8802 37.2134 82.825 37.3789 82.8352 37.5469C82.8453 37.7149 82.9201 37.8726 83.0439 37.9875C83.1677 38.1024 83.3312 38.1657 83.5007 38.1644L86.1093 38.0115C86.2778 37.9927 86.4325 37.9105 86.5416 37.7817C86.6508 37.653 86.7059 37.4875 86.6957 37.3195C86.6856 37.1515 86.6109 36.9938 86.4871 36.8789C86.3633 36.764 86.1998 36.7007 86.0303 36.702V36.7226Z" fill="#6D6E70"/>
<path d="M80.114 48.7685C79.3609 49.3676 78.146 48.7314 76.952 49.1817C74.7885 49.727 59.1118 53.7259 57.5433 52.8501C56.8319 52.1189 56.4407 50.5986 56.2285 49.3015C56.1074 48.5586 56.0269 47.8098 55.9873 47.0583H60.8384L61.2836 47.4714L61.633 47.806C64.8366 47.2979 71.3186 48.0911 76.3903 46.9798C76.3903 46.9798 77.3305 46.0833 77.5511 45.9305C77.9286 45.861 78.315 45.8526 78.6952 45.9057L78.558 46.7319C79.1307 46.3752 79.7437 46.0869 80.3844 45.8726C80.946 45.7776 81.7657 45.5587 81.7782 45.9305C81.7782 45.9305 80.6589 46.4303 80.6589 46.5419C80.6506 47.2855 80.5508 48.2439 80.114 48.7685Z" fill="#FFC596"/>
<path d="M61.2836 47.4924C61.2836 47.4924 56.1578 48.8556 56.1329 48.6449C56.0164 47.7402 55.9873 47.0669 55.9873 47.0669H60.8384L61.2836 47.4924Z" fill="#F9A985"/>
<path d="M68.2151 30.65C67.7529 30.696 67.3272 30.9199 67.0293 31.2738C66.1639 32.3644 66.8879 34.4216 66.8879 34.4216C66.1117 34.5662 65.3182 34.5968 64.533 34.5125C63.3844 34.422 62.2972 33.9606 61.4376 33.1989V31.0176L60.1562 22.4043L70.8653 22.5034C70.8653 22.5034 71.7848 30.0757 68.2151 30.65Z" fill="#FFC596"/>
<path d="M66.8879 34.4134C66.1117 34.5579 65.3182 34.5885 64.533 34.5043C63.5054 32.699 63.4639 29.9849 63.4639 29.9849C64.9325 31.2242 66.9961 31.2572 67.0293 31.2655C66.164 32.3478 66.8879 34.4134 66.8879 34.4134Z" fill="#F9A985"/>
<path d="M61.4588 31.0174C61.4588 31.0174 57.6353 21.0242 59.9486 20.1071C59.9486 20.1071 66.235 19.3759 70.3955 20.4087C70.3955 20.4087 73.1289 22.6601 70.1458 22.8874C67.1628 23.1146 63.5348 24.3911 63.8219 25.0025C64.109 25.6139 63.539 27.2704 63.539 27.2704C63.539 27.2704 62.3449 24.0565 61.5336 24.8207C60.7223 25.585 61.7209 26.4484 61.8831 27.1961C61.75 28.9353 61.4588 31.0174 61.4588 31.0174Z" fill="black"/>
<path d="M59.249 24.3334L65.5647 23.0941C68.8515 22.3794 73.1742 22.5116 74.5679 22.3959C74.5679 21.7143 74.5679 21.3962 73.8315 21.1566L71.3352 20.8591C71.2645 19.5702 67.7739 13.9644 61.6871 17.1783C56.7361 20.0123 59.249 24.3334 59.249 24.3334Z" fill="#FCCC54"/>
<path d="M71.3478 20.884C69.1677 20.9336 66.9668 20.9087 65.5647 21.7887C65.5647 21.7887 64.562 16.505 67.7988 17.1908C70.2244 17.889 71.3478 20.884 71.3478 20.884Z" fill="#F4AA4A"/>
<path d="M26.9777 113.113C27.8645 111.036 26.7553 108.582 24.5 107.633C22.2448 106.684 19.6977 107.599 18.8109 109.676C17.924 111.754 19.0333 114.207 21.2885 115.157C23.5437 116.106 26.0908 115.191 26.9777 113.113Z" fill="#929496"/>
<path d="M25.5851 113.354C26.472 111.276 25.3627 108.823 23.1075 107.873C20.8523 106.924 18.3051 107.839 17.4182 109.917C16.5314 111.994 17.6407 114.448 19.8959 115.397C22.1511 116.346 24.6983 115.431 25.5851 113.354Z" fill="black"/>
<path d="M22.6214 113.33C23.5989 112.757 23.8892 111.448 23.2701 110.407C22.6509 109.366 21.3566 108.986 20.3792 109.559C19.4017 110.132 19.1113 111.441 19.7305 112.482C20.3497 113.523 21.644 113.903 22.6214 113.33Z" fill="#FEFEFE"/>
<path d="M50.7168 112.516L50.6419 113.763L38.98 115.263L11.6914 114.18L11.5 112.685L38.7221 114.143L50.7168 112.516Z" fill="black"/>
<path d="M47.5756 111.859L50.7168 112.516L38.7221 114.143L11.5 112.685L14.5829 112.421L47.5756 111.859Z" fill="#929496"/>
<path d="M14.083 79.3845L14.1288 112.268L37.9143 113.255L47.3711 111.987L47.3461 79.3267L14.083 79.3845Z" fill="#F1E4C3"/>
<path d="M14.083 79.3841L14.1288 112.268L37.9143 113.255L37.8685 79.3428L14.083 79.3841Z" fill="#EEB24B"/>
<path d="M39.7202 93.5438L45.7529 93.5386L45.7443 83.7644L39.7116 83.7696L39.7202 93.5438Z" fill="#FFFEF3"/>
<path d="M40.4674 86.3297L44.5322 86.3262L44.5317 85.7354L40.4669 85.7389L40.4674 86.3297Z" fill="#808184"/>
<path d="M41.207 87.4287L44.5312 87.4258L44.5307 86.8351L41.2065 86.8379L41.207 87.4287Z" fill="#808184"/>
<path d="M41.9547 88.5276L44.5342 88.5254L44.5337 87.9346L41.9542 87.9369L41.9547 88.5276Z" fill="#808184"/>
<path d="M42.7325 89.6305L44.5381 89.6289L44.5376 89.0381L42.732 89.0397L42.7325 89.6305Z" fill="#808184"/>
<path d="M41.543 103.06L43.6648 99.7837L45.7908 103.056H44.5385L44.5427 107.054L42.7953 107.059V103.06H41.543Z" fill="#808184"/>
<path d="M27.9424 79.3614L23.9941 79.3662L24.0033 86.8104L27.9516 86.8056L27.9424 79.3614Z" fill="#929496"/>
<path d="M14.0586 65.0991L14.0669 79.3845L34.1538 79.3473L43.6147 79.3307L43.6189 65.0454L14.0586 65.0991Z" fill="#F1E4C3"/>
<path d="M14.0586 65.0992L14.0669 79.3845L34.1538 79.3473L34.1454 65.062L14.0586 65.0992Z" fill="#EEB24B"/>
<path d="M25.6456 65.0781V70.1883L21.6973 70.1924V65.0823L25.6456 65.0781Z" fill="#929496"/>
<path d="M14.0293 50.8096L14.0418 65.0991L28.4828 65.066L35.2811 65.0495L35.2852 50.7642L14.0293 50.8096Z" fill="#F1E4C3"/>
<path d="M14.0293 50.8094L14.0418 65.0989L28.4828 65.0658L28.4704 50.7764L14.0293 50.8094Z" fill="#EEB24B"/>
<path d="M23.9976 50.7891V55.8992L21.1602 55.9034V50.7932L23.9976 50.7891Z" fill="#929496"/>
<path d="M24.0142 113.966V93.2152L15.585 88.7371L15.61 72.6258L11.2831 69.3209L11.3372 63.8224L2.72501 59.6459C2.57167 59.6155 2.41243 59.6405 2.27595 59.7162C2.13946 59.7919 2.03464 59.9134 1.98026 60.059C1.95628 60.1281 1.9475 60.2015 1.95446 60.2743C1.96142 60.3471 1.98394 60.4175 2.02059 60.4809C2.05724 60.5443 2.10718 60.5992 2.16696 60.6418C2.22673 60.6845 2.29496 60.7139 2.36716 60.7282L10.1473 64.723L9.68133 113.937H10.8628L11.1084 87.663L16.7915 90.6828L16.3755 113.937H16.9414L17.3574 90.9926L22.8119 93.8844V113.933L24.0142 113.966ZM11.2789 70.081L15.0233 72.9232L14.9985 88.4231L11.125 86.3576L11.2789 70.081Z" fill="black"/>
<path d="M1.79712 58.5514C1.64882 58.4815 1.48806 58.4413 1.32409 58.4332C1.16013 58.425 0.996101 58.4491 0.841512 58.5039C0.686923 58.5588 0.544832 58.6434 0.423228 58.753C0.301625 58.8625 0.202976 58.9947 0.132929 59.1422C-0.00985236 59.4385 -0.0282679 59.7791 0.0817352 60.089C0.191738 60.3988 0.421121 60.6526 0.719521 60.7946L7.71333 64.178L8.73679 61.9265L1.79712 58.5514Z" fill="#929496"/>
<path d="M20.5496 114.339C21.5405 112.017 20.3029 109.277 17.7853 108.217C15.2678 107.158 12.4236 108.18 11.4328 110.502C10.4419 112.823 11.6796 115.564 14.1971 116.623C16.7146 117.683 19.5588 116.66 20.5496 114.339Z" fill="black"/>
<path d="M18.991 114.602C19.9819 112.281 18.7443 109.54 16.2267 108.481C13.7092 107.421 10.8651 108.444 9.87419 110.765C8.88334 113.087 10.121 115.827 12.6385 116.887C15.156 117.946 18.0002 116.923 18.991 114.602Z" fill="#929496"/>
<path d="M15.6905 114.556C16.7807 113.917 17.1038 112.456 16.4122 111.293C15.7206 110.13 14.2761 109.705 13.1859 110.345C12.0957 110.984 11.7726 112.445 12.4642 113.608C13.1558 114.771 14.6003 115.196 15.6905 114.556Z" fill="#FEFEFE"/>
<path d="M81.7783 79.3721L81.8199 109.988L84.2705 110.979H109.246L109.221 79.3721H81.7783Z" fill="#F1E4C3"/>
<path d="M81.7783 79.3721L81.8199 109.988L84.2705 110.979L84.2247 79.3721H81.7783Z" fill="#EEB24B"/>
<path d="M98.6693 92.5673L105.904 92.561L105.897 84.4889L98.6622 84.4951L98.6693 92.5673Z" fill="#FFFEF3"/>
<path d="M99.5715 86.6048L104.443 86.6006L104.443 86.1132L99.571 86.1174L99.5715 86.6048Z" fill="#808184"/>
<path d="M100.457 87.5137L104.442 87.5103L104.442 87.0228L100.456 87.0262L100.457 87.5137Z" fill="#808184"/>
<path d="M101.35 88.4182L104.445 88.4155L104.445 87.9281L101.35 87.9308L101.35 88.4182Z" fill="#808184"/>
<path d="M102.281 89.3315L104.444 89.3296L104.444 88.8421L102.28 88.844L102.281 89.3315Z" fill="#808184"/>
<path d="M101.694 103.774L103.816 100.502L105.938 103.77L104.69 103.774L104.694 107.773H102.947V103.774H101.694Z" fill="#808184"/>
<path d="M83.6338 79.3721L83.6422 86.8039L82.4148 86.8122L82.4023 79.3721H83.6338Z" fill="#929496"/>
<path d="M173.172 0.000976562H123.396V93.2372L165.149 111.921L173.172 96.3451V0.000976562Z" fill="#858585"/>
<path d="M165.487 9.40335L123.396 0.141434L173.172 0.000976562V101.007L165.487 111.367V9.40335Z" fill="#F1E4C3"/>
<path d="M159.484 55.5477C160.479 55.5477 161.286 54.7469 161.286 53.759C161.286 52.7711 160.479 51.9702 159.484 51.9702C158.489 51.9702 157.683 52.7711 157.683 53.759C157.683 54.7469 158.489 55.5477 159.484 55.5477Z" fill="white"/>
<path d="M134.846 26.3991C134.528 28.0316 134.442 29.7001 134.588 31.3564C134.641 32.2579 134.451 33.157 134.037 33.9615C133.624 34.7659 133.003 35.4466 132.237 35.9337C131.239 37.3506 130.086 38.6643 130.032 40.7422C129.878 44.423 131.813 47.9262 132.77 48.6574C135.062 50.4173 142.901 51.5905 148.463 49.4547C153.343 48.327 151.692 36.8425 148.463 32.8766C148.463 30.2327 147.369 23.1809 145.829 21.6896C143.516 19.4464 137.75 18.5252 135.47 23.3669C135.47 23.3586 131.172 25.2919 134.846 26.3991Z" fill="#231F20"/>
<path d="M142.347 33.5376L141.661 36.0535L142.676 40.2713H136.423L137.205 36.0535L137.305 34.6902L142.992 31.3481L142.347 33.5376Z" fill="#FFC596"/>
<path d="M143.004 31.3481L142.359 33.5335C141.819 34.3835 141.053 35.0688 140.146 35.5135C139.238 35.9583 138.225 36.1451 137.217 36.0535L137.317 34.6902L143.004 31.3481Z" fill="#F9A985"/>
<path d="M143.57 28.2167C143.77 28.8983 144.123 28.1093 144.544 28.5059C144.964 28.9024 144.656 30.7656 143.478 31.158C143.054 31.92 142.47 32.5822 141.764 33.0996C139.41 34.7231 136.555 35.8923 135.848 32.984C133.855 29.6791 135.848 28.7537 135.016 26.4114C137.512 25.2588 139.871 25.5397 142.089 26.7997C142.397 26.9935 142.69 27.2118 142.963 27.4525C142.834 28.0721 143.166 30.6582 143.166 30.6582C143.354 30.2823 143.533 28.0928 143.57 28.2167Z" fill="#FFC596"/>
<path d="M132.495 45.8483C132.495 45.8483 130.635 49.9793 129.291 50.1404C127.947 50.3016 113.985 45.5302 113.985 45.5302L111.488 44.7783L111.047 44.6461L109.383 44.1504C109.274 44.124 109.176 44.0631 109.104 43.9769C109.033 43.8891 108.995 43.7796 108.996 43.6671C108.996 43.6021 109.008 43.5378 109.033 43.4776C109.057 43.4175 109.094 43.3629 109.14 43.3168C109.186 43.2707 109.24 43.2341 109.301 43.2091C109.361 43.1841 109.426 43.1713 109.491 43.1713H110.149H110.594L112.607 43.1176C112.21 42.9858 111.802 42.8863 111.388 42.8202C111.388 42.8202 111.056 42.3575 112.183 42.4566C113.311 42.5558 114.455 42.7086 114.733 43.4398C114.872 43.5572 114.99 43.6968 115.083 43.8529L128.168 45.5591L132.524 38.0322L132.495 45.8483Z" fill="#FFC596"/>
<path d="M133.435 110.074L132.707 110.719L135.99 110.789L137.654 108.529L138.544 107.335L138.756 106.274C141.253 93.7439 141.902 84.0069 140.495 79.9543C140.425 79.4669 141.702 71.6508 141.719 71.5641L135.099 67.2471C135.336 69.2341 133.76 75.0549 133.851 77.0337C133.851 77.327 133.872 77.6161 133.884 77.9053C134.259 86.6591 135.353 94.9461 136.53 105.997L133.435 110.074Z" fill="#F9A985"/>
<path d="M135.1 67.2471C135.337 69.2341 133.76 75.0549 133.851 77.0337C133.851 77.327 133.872 77.6161 133.885 77.9053L133.985 79.9709C134.946 80.7723 137.617 80.826 138.187 80.8384C139.077 81.7514 139.676 85.8205 139.173 88.1752C138.711 90.3193 139.372 101.919 138.757 106.282C141.253 93.7522 141.902 84.0152 140.496 79.9626C140.425 79.4751 141.702 71.6591 141.719 71.5723L135.1 67.2471Z" fill="#E29171"/>
<path d="M138.561 107.335C138.561 107.335 140.063 108.418 138.956 109.554C138.653 110.14 138.811 113.916 138.811 113.916H138.345L137.604 110.409L136.048 111.442L135.216 113.131C134.871 114.177 130.798 113.755 130.798 113.755C129.242 113.272 130.997 111.277 133.415 110.087C133.935 110.764 134.642 110.81 135.557 110.174L138.561 107.335Z" fill="black"/>
<path d="M138.607 111.875L137.896 112.536H141.178L142.809 110.239L143.67 109.029C143.737 108.67 143.799 108.318 143.862 107.963C146.088 95.3839 146.524 85.6552 145.031 81.6108C144.948 81.1275 146.054 73.2867 146.071 73.1958H137.75C138.029 75.1787 138.208 76.8601 138.324 78.8348C138.324 79.1239 138.357 79.4172 138.378 79.7064C138.94 88.4478 140.213 96.71 141.627 107.715L138.607 111.875Z" fill="#FFC596"/>
<path d="M137.733 73.1958C138.012 75.1787 138.191 76.8601 138.307 78.8348C138.307 79.1239 138.341 79.4172 138.362 79.7064C139.564 80.0865 141.386 80.607 142.343 80.607C143.845 80.607 144.324 87.4852 143.866 89.8482C143.45 92.0047 144.365 103.584 143.866 107.963C146.092 95.3839 146.529 85.6552 145.035 81.6108C144.952 81.1275 146.058 73.2867 146.075 73.1958H137.733Z" fill="#F9A985"/>
<path d="M143.67 109.029C143.67 109.029 145.196 110.079 144.115 111.239C143.823 111.83 144.065 115.602 144.065 115.602H143.599L142.767 112.107L141.231 113.173L140.458 114.883C140.137 115.937 136.056 115.602 136.056 115.602C134.487 115.152 136.197 113.123 138.59 111.884C139.122 112.549 139.838 112.578 140.732 111.925L143.67 109.029Z" fill="black"/>
<path d="M129.878 76.315C138.082 80.2065 158.901 77.86 156.63 74.4725C153.368 73.196 152.053 61.5794 148.637 56.4197C147.456 54.1228 144.81 52.8215 144.544 51.2517C144.127 48.7978 146.274 45.5962 146.42 43.4026C146.611 40.4736 146.886 38.3337 146.112 38.0569C145.455 37.2307 141.877 37.9124 141.66 36.0327C139.006 36.8218 138.091 36.4913 137.204 36.0327C136.618 37.1853 135.511 37.3671 134.483 37.4745C133.705 37.5571 132.973 37.5901 132.545 37.9743C131.954 39.1481 131.617 40.4313 131.554 41.7419C131.486 43.3882 131.761 45.0309 132.362 46.567C132.412 46.6909 132.457 46.8066 132.499 46.9016C133.191 48.2861 133.528 49.8185 133.481 51.3632C133.389 53.0007 132.992 54.6071 132.312 56.1016C130.385 60.9804 128.958 75.6995 129.878 76.315Z" fill="#58595B"/>
<path d="M129.878 76.3151C138.082 80.2066 158.901 77.8601 156.63 74.4726C156.48 76.7364 141.207 78.6037 136.718 74.547C134.425 72.6508 135.374 54.2715 135.981 51.5863C136.589 48.9011 142.675 49.7562 142.675 49.7562C142.675 49.7562 143.216 46.976 141.149 46.914C139.081 46.8521 135.008 46.9925 134.284 45.8482C132.707 44.0677 134.213 39.9944 134.483 37.4951C133.705 37.5777 132.973 37.6108 132.545 37.995C131.954 39.1688 131.617 40.452 131.554 41.7626C131.486 43.4089 131.761 45.0515 132.362 46.5877C132.412 46.7116 132.457 46.8273 132.499 46.9223C133.191 48.3068 133.528 49.8391 133.481 51.3839C133.389 53.0214 132.992 54.6279 132.312 56.1223C130.385 60.9804 128.958 75.6995 129.878 76.3151Z" fill="#404041"/>
<path d="M128.443 52.5032L131.717 52.4123L144.898 48.401C144.482 44.3732 145.389 38.5111 146.146 38.0732C147.69 38.3748 148.576 38.8995 149.021 40.1884C149.021 40.1884 149.853 51.1978 147.581 51.8918C145.31 52.5858 132.35 54.4819 132.35 54.4819L129.853 55.9444C129.679 56.0472 129.47 56.0788 129.273 56.0326C129.075 55.9864 128.903 55.8659 128.793 55.6965C128.21 54.8703 127.611 53.4162 128.443 52.5032Z" fill="#FFC596"/>
<path d="M127.894 38.8128C127.894 38.8128 131.039 39.639 133.801 38.7013C135.395 38.1105 135.732 36.3052 135.982 34.2438C135.699 34.0827 135.395 33.6242 135.15 32.8682C135.15 32.8682 134.862 37.5446 133.435 38.2386C131.771 39.2094 127.894 38.8128 127.894 38.8128Z" fill="#153B63"/>
<path d="M146.112 38.2303C146.736 39.4696 148.987 39.8043 148.987 39.8043C148.987 39.8043 146.907 39.8745 145.863 38.9408C144.819 38.0072 142.979 36.5118 142.979 36.5118L142.676 35.5244C142.676 35.5244 145.501 36.9786 146.112 38.2303Z" fill="#231F20"/>
<path d="M127.894 38.8128C127.894 38.8128 131.039 39.639 133.801 38.7013C135.395 38.1105 135.732 36.3052 135.982 34.2438C135.699 34.0827 135.395 33.6242 135.15 32.8682C135.15 32.8682 134.862 37.5446 133.435 38.2386C131.771 39.2094 127.894 38.8128 127.894 38.8128Z" fill="#231F20"/>
</g>
<defs>
<linearGradient id="paint0_linear_673_3648" x1="9.42817" y1="109.383" x2="185.121" y2="124.643" gradientUnits="userSpaceOnUse">
<stop stop-color="#BBBDBF"/>
<stop offset="0.48" stop-color="#D3D4D6"/>
<stop offset="1" stop-color="#F1F1F2"/>
</linearGradient>
<clipPath id="clip0_673_3648">
<rect width="188" height="144" fill="white"/>
</clipPath>
</defs>
</svg>
