<svg width="193" height="137" viewBox="0 0 193 137" fill="none" xmlns="http://www.w3.org/2000/svg">
<path d="M192.884 62.6127C195.704 79.2008 145.162 87.2824 145.162 87.2824C145.162 87.2824 124.803 113.446 115.055 120.686C102.323 130.139 68.8527 145.027 31.7166 129.222C15.4572 121.317 -23.3498 102.878 19.4179 82.6126C28.9345 77.2235 47.7655 66.9122 50.9223 55.7974C55.005 52.3014 52.0587 34.8888 99.591 32.5918C139.568 33.3869 186.351 47.4003 192.884 62.6127Z" fill="url(#paint0_linear_673_3171)"/>
<path style="mix-blend-mode:multiply" d="M104.033 108.462C153.836 83.9244 189.727 54.9455 184.199 43.7355C178.671 32.5256 133.816 43.3297 84.013 67.8671C34.2101 92.4044 -1.68148 121.383 3.84688 132.593C9.37524 143.803 54.2301 132.999 104.033 108.462Z" fill="url(#paint1_radial_673_3171)"/>
<path d="M61.3356 122.242L23.644 100.761C19.073 98.0647 20.0032 87.968 24.4563 85.3555L110.345 35.1705C111.382 34.5737 112.561 34.2662 113.757 34.2802C114.954 34.2943 116.124 34.6294 117.147 35.2504L154.35 57.438C158.862 60.1305 159.027 66.6933 154.645 69.3143L68.171 122.263C67.1357 122.876 65.9538 123.198 64.7504 123.194C63.5471 123.191 62.3671 122.862 61.3356 122.242Z" fill="#282828"/>
<path d="M60.9943 117.265L26.0048 97.379C25.0606 96.8431 24.2743 96.0681 23.7249 95.1319C23.1755 94.1958 22.8824 93.1316 22.8751 92.0463C22.8679 90.961 23.1467 89.893 23.6835 88.9496C24.2204 88.0062 24.9963 87.2207 25.9332 86.6722L110.644 37.0595C111.585 36.5082 112.656 36.2154 113.747 36.211C114.838 36.2066 115.91 36.4906 116.856 37.0342L150.528 56.4157C151.461 56.9527 152.238 57.7239 152.781 58.653C153.324 59.582 153.616 60.6368 153.626 61.7129C153.636 62.789 153.365 63.8491 152.839 64.7883C152.314 65.7275 151.552 66.5132 150.629 67.0678L67.2362 117.19C66.2957 117.754 65.2222 118.058 64.1255 118.071C63.0288 118.085 61.9482 117.806 60.9943 117.265Z" fill="black"/>
<path d="M60.8261 116.853L25.8367 96.9664C24.8927 96.4301 24.1067 95.6548 23.5576 94.7184C23.0086 93.7821 22.7159 92.7178 22.7091 91.6325C22.7023 90.5472 22.9815 89.4793 23.5187 88.5361C24.0559 87.5929 24.8321 86.8078 25.7693 86.2597L110.476 36.6468C111.417 36.0955 112.487 35.8028 113.578 35.7984C114.669 35.794 115.742 36.078 116.688 36.6216L150.36 56.0031C151.293 56.5401 152.07 57.3113 152.613 58.2404C153.156 59.1694 153.448 60.2242 153.458 61.3003C153.468 62.3764 153.197 63.4364 152.671 64.3756C152.146 65.3149 151.384 66.1006 150.461 66.6552L67.0849 116.777C66.1422 117.343 65.0657 117.649 63.9658 117.662C62.8659 117.676 61.7823 117.396 60.8261 116.853Z" fill="url(#paint2_radial_673_3171)"/>
<path d="M60.9943 117.265L26.0048 97.379C25.0606 96.8431 24.2743 96.0681 23.7249 95.1319C23.1755 94.1958 22.8824 93.1316 22.8751 92.0463C22.8679 90.961 23.1467 89.893 23.6835 88.9496C24.2204 88.0062 24.9963 87.2207 25.9332 86.6722L110.644 37.0595C111.585 36.5082 112.656 36.2154 113.747 36.211C114.838 36.2066 115.91 36.4906 116.856 37.0342L150.528 56.4157C151.461 56.9527 152.238 57.7239 152.781 58.653C153.324 59.582 153.616 60.6368 153.626 61.7129C153.636 62.789 153.365 63.8491 152.839 64.7883C152.314 65.7275 151.552 66.5132 150.629 67.0678L67.2362 117.19C66.2957 117.754 65.2222 118.058 64.1255 118.071C63.0288 118.085 61.9482 117.806 60.9943 117.265Z" fill="#F1F1F2"/>
<path d="M154.249 60.9927C154.249 62.18 153.858 63.3345 153.138 64.2783C152.666 65.1862 151.954 65.9473 151.079 66.4785L67.2613 117.749C66.3305 118.344 65.237 118.635 64.1333 118.58C63.0295 118.525 61.9704 118.127 61.1035 117.442C62.4841 119.861 65.7334 120.589 68.3219 119.011L152.14 67.7406C154.577 66.2514 155.448 63.2771 154.249 60.9927Z" fill="url(#paint3_linear_673_3171)"/>
<path d="M61.74 117.921C61.2292 117.708 60.7505 117.425 60.3174 117.08L24.9028 96.8318C22.4574 95.4308 21.7166 91.8549 23.2192 88.645L22.7141 89.7304C21.2241 92.9403 21.9649 96.5162 24.3977 97.9171L61.458 119.116C62.8975 119.957 64.6105 119.835 66.1468 119.028C65.813 119.096 65.4732 119.131 65.1324 119.133C63.8977 119.12 62.7031 118.694 61.74 117.921Z" fill="url(#paint4_linear_673_3171)"/>
<path d="M153.525 57.1222L115.884 34.8505C114.516 34.0428 112.614 34.2615 110.762 35.2712C111.052 35.2177 111.346 35.1909 111.641 35.1913C112.23 35.1918 112.815 35.2914 113.371 35.4858C114.561 35.6424 115.671 36.166 116.549 36.9834L152.582 58.296C154.03 59.1373 154.624 60.8874 154.401 62.9236C154.513 63.3715 154.579 63.8296 154.599 64.2909V64.4886C155.92 61.3796 155.604 58.3506 153.525 57.1222Z" fill="url(#paint5_linear_673_3171)"/>
<path d="M135.041 79.3645C134.825 79.4966 134.757 79.7788 134.889 79.9949C135.021 80.211 135.303 80.2792 135.519 80.1471L150.036 71.28C150.252 71.1479 150.32 70.8656 150.188 70.6495C150.056 70.4334 149.774 70.3653 149.558 70.4974L135.041 79.3645Z" fill="url(#paint6_linear_673_3171)"/>
<path d="M149.488 70.1482L134.781 79.1316C134.65 79.2115 134.609 79.3824 134.689 79.5133L134.983 79.9943C135.063 80.1252 135.234 80.1664 135.365 80.0864L150.072 71.103C150.203 71.023 150.244 70.8522 150.164 70.7213L149.87 70.2403C149.79 70.1094 149.619 70.0682 149.488 70.1482Z" fill="#878788"/>
<path d="M149.785 70.351L134.837 79.4814C134.74 79.5407 134.709 79.6676 134.769 79.7648L134.984 80.1165C135.043 80.2137 135.17 80.2443 135.267 80.1849L150.215 71.0545C150.312 70.9952 150.343 70.8683 150.283 70.7712L150.068 70.4194C150.009 70.3222 149.882 70.2916 149.785 70.351Z" fill="url(#paint7_linear_673_3171)"/>
<path d="M141.454 56.3736C141.478 56.3364 141.514 56.3077 141.555 56.2911C141.597 56.2746 141.642 56.2711 141.685 56.281C141.666 56.2502 141.656 56.2144 141.656 56.178C141.656 56.1415 141.666 56.1058 141.685 56.0749C141.702 56.0512 141.723 56.0312 141.747 56.016C141.771 56.0007 141.799 55.9906 141.827 55.9863C141.855 55.982 141.884 55.9835 141.912 55.9908C141.94 55.998 141.966 56.0109 141.988 56.0286C142.013 56.0401 142.035 56.0565 142.052 56.0769C142.07 56.0972 142.083 56.121 142.091 56.1467C142.099 56.1725 142.101 56.1996 142.098 56.2263C142.095 56.2531 142.086 56.2789 142.073 56.3021C142.052 56.3342 142.022 56.359 141.986 56.3734C141.951 56.3877 141.912 56.3907 141.875 56.382C141.905 56.4146 141.923 56.4559 141.928 56.4998C141.932 56.5438 141.923 56.588 141.9 56.626C141.882 56.6521 141.859 56.6741 141.832 56.6907C141.805 56.7073 141.775 56.7181 141.744 56.7225C141.713 56.7268 141.681 56.7246 141.651 56.7159C141.62 56.7073 141.592 56.6925 141.568 56.6723C141.54 56.6609 141.515 56.644 141.494 56.6225C141.473 56.6011 141.457 56.5756 141.446 56.5476C141.435 56.5195 141.43 56.4897 141.432 56.4597C141.433 56.4298 141.441 56.4005 141.454 56.3736ZM141.761 56.1212C141.719 56.1843 141.761 56.2474 141.807 56.3105C141.837 56.3213 141.87 56.3222 141.9 56.3131C141.93 56.304 141.957 56.2854 141.976 56.26C141.986 56.2465 141.994 56.2308 141.997 56.2142C142.001 56.1975 142 56.1802 141.996 56.1636C141.992 56.1471 141.985 56.1316 141.974 56.1184C141.963 56.1053 141.949 56.0947 141.934 56.0875C141.921 56.0775 141.905 56.0704 141.889 56.0666C141.873 56.0629 141.856 56.0626 141.84 56.0657C141.824 56.0689 141.808 56.0755 141.795 56.0851C141.781 56.0946 141.77 56.1069 141.761 56.1212ZM141.795 56.5839C141.845 56.5082 141.795 56.4367 141.744 56.3568C141.71 56.3425 141.671 56.3405 141.635 56.3512C141.599 56.3619 141.568 56.3847 141.547 56.4157C141.536 56.4321 141.529 56.4505 141.526 56.4697C141.523 56.4889 141.523 56.5086 141.528 56.5275C141.533 56.5464 141.541 56.5642 141.553 56.5796C141.565 56.5951 141.58 56.6081 141.597 56.6176C141.612 56.6294 141.629 56.6379 141.647 56.6426C141.666 56.6473 141.685 56.6481 141.703 56.6449C141.722 56.6417 141.74 56.6347 141.756 56.6242C141.771 56.6137 141.785 56.5999 141.795 56.5839Z" fill="white"/>
<path d="M142.59 56.5336L142.35 56.3822L142.224 56.5294C142.242 56.5362 142.259 56.5462 142.274 56.5589C142.323 56.5869 142.364 56.6276 142.392 56.6767C142.411 56.7099 142.421 56.7477 142.421 56.7861C142.421 56.8245 142.411 56.8621 142.392 56.8954C142.373 56.9253 142.347 56.9509 142.318 56.9707C142.288 56.9904 142.255 57.0038 142.219 57.0101C142.184 57.0164 142.148 57.0155 142.114 57.0073C142.079 56.9992 142.046 56.984 142.018 56.9627C141.962 56.9275 141.916 56.88 141.883 56.8239L141.946 56.7734C141.974 56.8222 142.013 56.8639 142.06 56.8954C142.078 56.9089 142.099 56.9185 142.121 56.9237C142.143 56.9289 142.166 56.9296 142.189 56.9257C142.211 56.9218 142.232 56.9133 142.251 56.9009C142.271 56.8884 142.287 56.8723 142.299 56.8533C142.35 56.7692 142.333 56.6766 142.203 56.5967C142.175 56.577 142.145 56.56 142.114 56.5462L142.346 56.2686L142.649 56.4621L142.59 56.5336Z" fill="white"/>
<path d="M143.137 57.0298C143.053 57.1602 142.939 57.1855 142.859 57.1308C142.779 57.0761 142.75 56.9751 142.83 56.8489C142.91 56.7227 143.028 56.6932 143.112 56.7479C143.196 56.8026 143.213 56.9078 143.137 57.0298ZM142.901 56.8868C142.847 56.9667 142.838 57.0466 142.901 57.0803C142.965 57.1139 143.024 57.0803 143.074 56.9878C143.125 56.8952 143.141 56.8321 143.074 56.7942C143.007 56.7563 142.952 56.8069 142.901 56.8868ZM142.683 57.3916L143.47 56.9709L143.524 57.0045L142.737 57.4252L142.683 57.3916ZM143.381 57.5515C143.297 57.6861 143.188 57.7071 143.104 57.6566C143.082 57.64 143.065 57.6191 143.052 57.5955C143.039 57.5718 143.032 57.5458 143.029 57.519C143.027 57.4922 143.03 57.4653 143.038 57.4398C143.047 57.4143 143.06 57.3907 143.078 57.3706C143.158 57.2443 143.272 57.2149 143.356 57.2696C143.44 57.3243 143.461 57.4295 143.381 57.5515ZM143.146 57.4085C143.095 57.4884 143.087 57.5725 143.146 57.6062C143.205 57.6398 143.263 57.6062 143.318 57.5136C143.373 57.4211 143.386 57.3579 143.318 57.3201C143.251 57.2822 143.196 57.3285 143.146 57.4085Z" fill="white"/>
<path d="M143.689 58.3216C143.6 58.252 143.538 58.154 143.512 58.0439C143.498 57.9809 143.496 57.9155 143.508 57.8519C143.519 57.7882 143.544 57.7276 143.58 57.6737L144.173 56.7439C144.206 56.6883 144.251 56.6402 144.304 56.6025C144.357 56.5649 144.417 56.5385 144.48 56.5252C144.608 56.4986 144.741 56.5228 144.851 56.5925L147.763 58.4478C147.818 58.4821 147.865 58.527 147.902 58.5797C147.938 58.6325 147.964 58.692 147.978 58.7549C147.993 58.8177 147.995 58.8828 147.984 58.9464C147.973 59.0101 147.95 59.0708 147.915 59.1251L147.321 60.0548C147.287 60.1092 147.242 60.1562 147.189 60.1931C147.137 60.2299 147.077 60.2558 147.014 60.2694C146.951 60.2846 146.886 60.2868 146.822 60.276C146.759 60.2651 146.698 60.2414 146.644 60.2063L143.727 58.351L143.689 58.3216ZM147.713 58.5908H147.683L144.771 56.7355C144.733 56.7107 144.69 56.6938 144.646 56.6857C144.601 56.6776 144.555 56.6784 144.511 56.6882C144.467 56.698 144.425 56.7166 144.388 56.7428C144.351 56.7689 144.319 56.8022 144.295 56.8407L143.706 57.7705C143.681 57.8077 143.664 57.8498 143.656 57.8939C143.648 57.9381 143.649 57.9834 143.66 58.0271C143.669 58.0708 143.686 58.1123 143.712 58.1492C143.737 58.186 143.769 58.2175 143.807 58.2417L146.724 60.0969C146.8 60.1453 146.892 60.162 146.98 60.1432C147.069 60.1218 147.145 60.0676 147.195 59.9918L147.789 59.062C147.837 58.9858 147.854 58.8937 147.835 58.8054C147.823 58.7229 147.783 58.6471 147.721 58.5908H147.713Z" fill="white"/>
<g opacity="0.4">
<path opacity="0.4" d="M146.379 57.6815L145.246 56.9607C144.795 56.6736 144.197 56.8063 143.91 57.2571C143.622 57.7078 143.755 58.306 144.206 58.593L145.339 59.3139C145.79 59.6009 146.388 59.4682 146.675 59.0175C146.963 58.5667 146.83 57.9686 146.379 57.6815Z" fill="white"/>
<path opacity="0.4" d="M143.688 58.3216C143.592 58.2472 143.527 58.1391 143.507 58.019C143.486 57.8989 143.512 57.7757 143.579 57.6737L144.172 56.7439C144.206 56.6883 144.25 56.6402 144.303 56.6025C144.356 56.5649 144.416 56.5385 144.48 56.5252C144.607 56.4986 144.74 56.5228 144.85 56.5925L146.913 57.9051C146.967 57.9397 147.014 57.9847 147.051 58.0376C147.088 58.0904 147.114 58.1501 147.127 58.213C147.141 58.276 147.142 58.3411 147.131 58.4045C147.119 58.4679 147.095 58.5283 147.06 58.5824L146.471 59.5122C146.4 59.6209 146.289 59.6976 146.163 59.7259C146.036 59.7542 145.903 59.7319 145.793 59.6636L143.726 58.351L143.688 58.3216ZM146.858 58.0481H146.833L144.77 56.7355C144.732 56.7107 144.69 56.6938 144.645 56.6857C144.6 56.6776 144.554 56.6784 144.51 56.6882C144.466 56.698 144.424 56.7166 144.387 56.7428C144.35 56.7689 144.318 56.8022 144.294 56.8407L143.705 57.7705C143.656 57.8463 143.639 57.9386 143.658 58.0269C143.677 58.1153 143.73 58.1926 143.806 58.2417L145.873 59.5542C145.911 59.5783 145.953 59.5947 145.997 59.6025C146.041 59.6103 146.087 59.6092 146.13 59.5995C146.174 59.5897 146.216 59.5714 146.252 59.5455C146.289 59.5197 146.32 59.487 146.344 59.4491L146.938 58.5193C146.989 58.4467 147.01 58.3571 146.996 58.2694C146.983 58.1816 146.936 58.1024 146.866 58.0481H146.858Z" fill="white"/>
</g>
<path d="M148.11 59.4309L147.723 59.1846L147.359 59.7559L147.746 60.0022L148.11 59.4309Z" fill="#FBFBFB"/>
<path d="M141.949 54.4859L141.757 54.3564L140.601 56.0687L140.793 56.1981L141.949 54.4859Z" fill="white"/>
<path d="M141.003 54.3792L140.064 55.7675L140.254 55.898L141.298 54.354L141.003 54.3792Z" fill="white"/>
<path d="M140.284 54.4383L139.598 55.4522L139.791 55.5826L140.578 54.4131L140.284 54.4383Z" fill="white"/>
<path d="M139.564 54.4971L139.131 55.1408L139.324 55.267L139.859 54.4761L139.564 54.4971Z" fill="white"/>
<path d="M138.844 54.5604L138.663 54.8254L138.857 54.9559L139.139 54.5352L138.844 54.5604Z" fill="white"/>
<path style="mix-blend-mode:multiply" d="M74.6052 132.274C77.2561 128.05 64.1951 115.089 45.4326 103.325C26.6701 91.561 9.31114 85.4485 6.66024 89.6723C4.00935 93.8962 17.0704 106.857 35.8328 118.621C54.5953 130.385 71.9543 136.497 74.6052 132.274Z" fill="url(#paint8_radial_673_3171)"/>
<path style="mix-blend-mode:multiply" d="M140.408 118.284C165.566 112.358 184.116 99.7297 181.84 90.0776C179.564 80.4255 157.325 77.4046 132.167 83.3302C107.01 89.2559 88.46 101.884 90.7357 111.536C93.0113 121.188 115.251 124.209 140.408 118.284Z" fill="url(#paint9_radial_673_3171)"/>
<path d="M164.481 82.768L143.453 96.5753V66.4576L164.481 48.355V82.768Z" fill="#F4AA4A"/>
<path opacity="0.39" d="M165.306 54.5349L142.834 70.4036V65.6666L165.306 49.7979V54.5349Z" fill="black"/>
<path d="M165.306 52.6841L142.834 68.5486V63.8116L165.306 47.9429V52.6841Z" fill="#F4AA4A"/>
<path d="M124.899 85.8604V54.7456L143.453 68.5487V96.5755L124.899 85.8604Z" fill="#FCCC54"/>
<path opacity="0.4" d="M124.899 57.6271V56.1841L143.453 65.2501V69.9914L124.899 57.6271Z" fill="black"/>
<path d="M124.899 56.1844V54.7456L143.453 63.8116V68.5487L124.899 56.1844Z" fill="#F4AA4A"/>
<path d="M124.899 54.7452L148.584 37.9805L165.306 48.1487L143.453 63.8113L124.899 54.7452Z" fill="#F7E9CB"/>
<path d="M156.837 87.85V54.4214L152.296 57.6271L155.688 88.6072L156.837 87.85Z" fill="#7D5264"/>
<path d="M134.589 91.4218L135.524 62.8523L131.571 58.0059L133.078 90.551L134.589 91.4218Z" fill="#7D5264"/>
<path d="M155.264 41.9941L131.571 58.0059L135.646 60L157.427 43.3109L155.264 41.9941Z" fill="#7D5264"/>
<path d="M156.838 54.4217L139.635 44.813L136.925 46.7314L152.296 57.6274" fill="#7D5264"/>
<path d="M156.425 88.0562V54.2153L151.884 57.421L155.276 88.8093L156.425 88.0562Z" fill="#C5C5C5"/>
<path d="M134.176 91.2155L135.233 59.7936L131.158 57.8037L132.665 90.3446L134.176 91.2155Z" fill="#C5C5C5"/>
<path d="M154.851 41.7881L131.158 57.804L135.233 59.7939L157.014 43.1049L154.851 41.7881Z" fill="#C5C5C5"/>
<path d="M156.426 54.2152L139.219 44.6064L136.513 46.5248L151.884 57.4209" fill="#C5C5C5"/>
<path d="M163.27 92.8941L148.593 102.528V81.51L163.27 68.8765V92.8941Z" fill="#FCCC54"/>
<path opacity="0.16" d="M163.846 73.189L148.163 84.2617V80.9551L163.846 69.8823V73.189Z" fill="black"/>
<path d="M163.846 71.8973L148.163 82.9701V79.6592L163.846 68.5864V71.8973Z" fill="#58595B"/>
<path d="M135.642 95.0526V73.332L148.593 82.9702V102.528L135.642 95.0526Z" fill="#F7E9CB"/>
<path opacity="0.16" d="M135.642 75.3468V74.3413L148.593 80.6686V83.9753L135.642 75.3468Z" fill="black"/>
<path d="M135.642 74.3417V73.332L148.593 79.6593V82.9702L135.642 74.3417Z" fill="#6D6E70"/>
<path d="M135.642 73.3319L152.175 61.6323L163.846 68.7295L148.593 79.6592L135.642 73.3319Z" fill="#BBBDBF"/>
<path d="M157.936 96.4407V73.1089L154.763 75.347L157.132 96.9666L157.936 96.4407Z" fill="#7D5264"/>
<path d="M142.405 98.9311L143.058 78.9942L140.301 75.6118L141.353 98.3253L142.405 98.9311Z" fill="#7D5264"/>
<path d="M156.834 64.4341L140.301 75.612L143.142 77.0003L158.345 65.3554L156.834 64.4341Z" fill="#7D5264"/>
<path d="M157.937 73.1087L145.928 66.4028L144.034 67.7407L154.763 75.3469" fill="#7D5264"/>
<path d="M157.646 96.5838V72.9658L154.477 75.2039L156.846 97.1096L157.646 96.5838Z" fill="#808184"/>
<path d="M142.118 98.7885L142.855 76.8575L140.01 75.4692L141.062 98.1827L142.118 98.7885Z" fill="#808184"/>
<path d="M156.547 64.291L140.01 75.4689L142.855 76.8572L158.058 65.2123L156.547 64.291Z" fill="#808184"/>
<path d="M157.646 72.9657L145.638 66.2598L143.748 67.5976L154.477 75.2038" fill="#808184"/>
<path d="M137.737 97.5894L123.061 107.228V94.2828L137.737 83.4961V97.5894Z" fill="#FCCC54"/>
<path opacity="0.16" d="M138.31 87.8123L122.627 97.7324V95.5784L138.31 84.5015V87.8123Z" fill="black"/>
<path d="M138.31 86.5166L122.627 96.4409V94.2827L138.31 83.21V86.5166Z" fill="#58595B"/>
<path d="M110.109 99.7472V87.9551L123.06 94.2824V107.227L110.109 99.7472Z" fill="#F4AA4A"/>
<path opacity="0.16" d="M110.109 89.9664V88.9609L123.06 95.2882V97.4464L110.109 89.9664Z" fill="black"/>
<path d="M110.109 88.9605V87.9551L123.06 94.2824V96.4405L110.109 88.9605Z" fill="#6D6E70"/>
<path d="M110.109 87.9553L126.638 76.2515L138.31 83.3528L123.06 94.2825L110.109 87.9553Z" fill="#BBBDBF"/>
<path d="M132.4 101.14V87.728L129.227 89.9661L131.596 101.666L132.4 101.14Z" fill="#7D5264"/>
<path d="M116.873 103.631L117.606 91.624L114.765 90.2314L115.817 103.021L116.873 103.631Z" fill="#7D5264"/>
<path d="M131.298 79.0576L114.765 90.2313L117.606 91.6238L132.813 79.9747L131.298 79.0576Z" fill="#7D5264"/>
<path d="M132.4 87.7284L120.392 81.0225L118.502 82.3603L129.226 89.9665" fill="#7D5264"/>
<path d="M132.114 101.283V87.585L128.94 89.8231L131.31 101.809L132.114 101.283Z" fill="#808184"/>
<path d="M116.583 103.488L117.32 91.4767L114.479 90.0884L115.527 102.878L116.583 103.488Z" fill="#808184"/>
<path d="M131.011 78.9146L114.479 90.0883L117.32 91.4766L132.523 79.8317L131.011 78.9146Z" fill="#808184"/>
<path d="M132.114 87.5853L120.106 80.8794L118.212 82.2172L128.941 89.8234" fill="#808184"/>
<g style="mix-blend-mode:multiply">
<g style="mix-blend-mode:multiply" opacity="0.01">
<path d="M37.5127 93.7525L61.3904 107.551C61.937 107.852 62.5559 107.997 63.1794 107.971C63.8029 107.944 64.4071 107.747 64.9259 107.4L73.0241 101.762L47.8416 89.983C47.4349 89.7702 46.9789 89.6694 46.5203 89.6908C46.0617 89.7123 45.6171 89.8552 45.232 90.105L37.5127 93.7525Z" fill="#FAFAFA"/>
</g>
<g style="mix-blend-mode:multiply" opacity="0.02">
<path d="M37.5127 93.7232L61.3904 107.522C61.9362 107.823 62.5545 107.968 63.1774 107.942C63.8002 107.915 64.4037 107.717 64.9217 107.371L73.0241 101.733L47.8416 89.9537C47.4349 89.7409 46.9789 89.6401 46.5203 89.6615C46.0617 89.683 45.6171 89.8259 45.232 90.0757L37.5127 93.7232Z" fill="#F5F5F5"/>
</g>
<g style="mix-blend-mode:multiply" opacity="0.03">
<path d="M37.5127 93.6938L61.3904 107.493C61.9356 107.796 62.5545 107.943 63.1781 107.915C63.8017 107.888 64.4054 107.687 64.9217 107.337L73.0241 101.704L47.8416 89.9243C47.4341 89.7116 46.9774 89.6108 46.5182 89.6322C46.059 89.6537 45.6137 89.7965 45.2278 90.0463L37.5127 93.6938Z" fill="#F0F0F0"/>
</g>
<g style="mix-blend-mode:multiply" opacity="0.04">
<path d="M37.5127 93.664L61.3904 107.463C61.9356 107.767 62.5545 107.913 63.1781 107.885C63.8017 107.858 64.4054 107.658 64.9217 107.307L73.0241 101.674L47.8416 89.8945C47.4341 89.6818 46.9774 89.581 46.5182 89.6024C46.059 89.6239 45.6137 89.7668 45.2278 90.0166L37.5127 93.664Z" fill="#EBEBEB"/>
</g>
<g style="mix-blend-mode:multiply" opacity="0.05">
<path d="M37.5127 93.6347L61.3904 107.434C61.9356 107.737 62.5545 107.884 63.1781 107.856C63.8017 107.829 64.4054 107.628 64.9217 107.278L73.0241 101.645L47.8416 89.8652C47.4341 89.6525 46.9774 89.5517 46.5182 89.5731C46.059 89.5946 45.6137 89.7375 45.2278 89.9872L37.5127 93.6347Z" fill="#E6E6E6"/>
</g>
<g style="mix-blend-mode:multiply" opacity="0.06">
<path d="M37.5127 93.6053L61.3862 107.404C61.9327 107.706 62.552 107.851 63.1759 107.824C63.7997 107.796 64.4038 107.597 64.9217 107.249L73.0241 101.615L47.8416 89.8359C47.4341 89.6232 46.9774 89.5224 46.5182 89.5438C46.059 89.5653 45.6137 89.7082 45.2278 89.9579L37.5127 93.6053Z" fill="#E1E1E1"/>
</g>
<g style="mix-blend-mode:multiply" opacity="0.07">
<path d="M37.5078 93.5756L61.3855 107.374C61.9321 107.676 62.5514 107.821 63.1752 107.794C63.799 107.766 64.4032 107.567 64.9211 107.219L73.0234 101.586L47.8409 89.8062C47.4335 89.5934 46.9768 89.4926 46.5176 89.5141C46.0583 89.5355 45.613 89.6784 45.2271 89.9281L37.5078 93.5756Z" fill="#DCDCDC"/>
</g>
<g style="mix-blend-mode:multiply" opacity="0.08">
<path d="M37.5078 93.5463L61.3855 107.345C61.9321 107.647 62.5514 107.792 63.1752 107.765C63.799 107.737 64.4032 107.538 64.9211 107.19L73.0234 101.556L47.8367 89.7769C47.43 89.5641 46.974 89.4633 46.5154 89.4848C46.0568 89.5062 45.6122 89.6491 45.2271 89.8989L37.5078 93.5463Z" fill="#D7D7D7"/>
</g>
<g style="mix-blend-mode:multiply" opacity="0.09">
<path d="M37.5078 93.5171L61.3855 107.316C61.9321 107.618 62.5514 107.763 63.1752 107.735C63.799 107.708 64.4032 107.509 64.9211 107.16L73.0192 101.527L47.8367 89.7477C47.43 89.5349 46.974 89.434 46.5154 89.4555C46.0568 89.4769 45.6122 89.6198 45.2271 89.8696L37.5078 93.5171Z" fill="#D2D2D2"/>
</g>
<g style="mix-blend-mode:multiply" opacity="0.1">
<path d="M37.5078 93.4873L61.3855 107.286C61.9321 107.588 62.5514 107.733 63.1752 107.706C63.799 107.678 64.4032 107.479 64.9211 107.13L73.0192 101.497L47.8367 89.7178C47.43 89.5051 46.974 89.4042 46.5154 89.4257C46.0568 89.4471 45.6122 89.5901 45.2271 89.8399L37.5078 93.4873Z" fill="#CDCDCD"/>
</g>
<g style="mix-blend-mode:multiply" opacity="0.11">
<path d="M37.5078 93.4665L61.3855 107.265C61.9321 107.567 62.5514 107.712 63.1752 107.685C63.799 107.657 64.4032 107.458 64.9211 107.11L73.0192 101.46L47.8367 89.6802C47.43 89.4675 46.974 89.3666 46.5154 89.3881C46.0568 89.4095 45.6122 89.5525 45.2271 89.8023L37.5078 93.4665Z" fill="#C8C8C8"/>
</g>
<g style="mix-blend-mode:multiply" opacity="0.12">
<path d="M37.5078 93.4287L61.3855 107.227C61.9321 107.529 62.5514 107.674 63.1752 107.647C63.799 107.62 64.4032 107.42 64.9211 107.072L73.0192 101.46L47.8367 89.6802C47.43 89.4675 46.974 89.3666 46.5154 89.3881C46.0568 89.4095 45.6122 89.5525 45.2271 89.8023L37.5078 93.4287Z" fill="#C3C3C3"/>
</g>
<g style="mix-blend-mode:multiply" opacity="0.13">
<path d="M37.5078 93.399L61.3855 107.198C61.9307 107.502 62.5497 107.648 63.1732 107.62C63.7968 107.593 64.4005 107.393 64.9169 107.042L73.0192 101.409L47.8367 89.6296C47.4301 89.417 46.9744 89.3159 46.516 89.3366C46.0576 89.3573 45.6129 89.499 45.2271 89.7474L37.5078 93.399Z" fill="#BEBEBE"/>
</g>
<g style="mix-blend-mode:multiply" opacity="0.14">
<path d="M37.5078 93.3696L61.3855 107.168C61.9307 107.472 62.5497 107.619 63.1732 107.591C63.7968 107.564 64.4005 107.363 64.9169 107.013L73.0192 101.38L47.8367 89.6002C47.4294 89.3877 46.973 89.2866 46.514 89.3073C46.0549 89.328 45.6095 89.4697 45.223 89.718L37.5078 93.3696Z" fill="#B9B9B9"/>
</g>
<g style="mix-blend-mode:multiply" opacity="0.15">
<path d="M37.5078 93.3403L61.3855 107.139C61.9307 107.443 62.5497 107.589 63.1732 107.562C63.7968 107.534 64.4005 107.334 64.9169 106.984L73.0192 101.35L47.8367 89.5709C47.4294 89.3584 46.973 89.2573 46.514 89.278C46.0549 89.2987 45.6095 89.4404 45.223 89.6887L37.5078 93.3403Z" fill="#B4B4B4"/>
</g>
<g style="mix-blend-mode:multiply" opacity="0.16">
<path d="M37.5078 93.3106L61.3855 107.109C61.9307 107.413 62.5497 107.559 63.1732 107.532C63.7968 107.504 64.4005 107.304 64.9169 106.954L73.0192 101.321L47.8367 89.5411C47.4294 89.3286 46.973 89.2276 46.514 89.2482C46.0549 89.2689 45.6095 89.4106 45.223 89.6589L37.5078 93.3106Z" fill="#AFAFAF"/>
</g>
<g style="mix-blend-mode:multiply" opacity="0.17">
<path d="M37.5078 93.2813L61.3813 107.08C61.9279 107.382 62.5472 107.527 63.171 107.5C63.7948 107.472 64.399 107.273 64.9169 106.924L73.0192 101.291L47.8367 89.5118C47.4294 89.2993 46.973 89.1983 46.514 89.219C46.0549 89.2396 45.6095 89.3813 45.223 89.6296L37.5078 93.2813Z" fill="#AAAAAA"/>
</g>
<g style="mix-blend-mode:multiply" opacity="0.18">
<path d="M37.5039 93.2519L61.3816 107.051C61.9282 107.353 62.5475 107.498 63.1713 107.47C63.7951 107.443 64.3993 107.244 64.9172 106.895L73.0195 101.262L47.837 89.4825C47.4297 89.27 46.9733 89.169 46.5143 89.1897C46.0552 89.2103 45.6098 89.352 45.2233 89.6003L37.5039 93.2519Z" fill="#A5A5A5"/>
</g>
<g style="mix-blend-mode:multiply" opacity="0.19">
<path d="M37.5039 93.2223L61.3816 107.021C61.9282 107.323 62.5475 107.468 63.1713 107.441C63.7951 107.413 64.3993 107.214 64.9172 106.865L73.0195 101.232L47.8328 89.4528C47.4262 89.2402 46.9705 89.1392 46.5121 89.1599C46.0537 89.1806 45.609 89.3223 45.2233 89.5706L37.5039 93.2223Z" fill="#A0A0A0"/>
</g>
<g style="mix-blend-mode:multiply" opacity="0.2">
<path d="M37.5039 93.1929L61.3816 106.992C61.9282 107.294 62.5475 107.439 63.1713 107.411C63.7951 107.384 64.3993 107.185 64.9172 106.836L73.0153 101.203L47.8328 89.4235C47.4262 89.211 46.9705 89.1099 46.5121 89.1306C46.0537 89.1513 45.609 89.293 45.2233 89.5413L37.5039 93.1929Z" fill="#9B9B9B"/>
</g>
<g style="mix-blend-mode:multiply" opacity="0.21">
<path d="M37.5039 93.1637L61.3816 106.963C61.9282 107.264 62.5475 107.409 63.1713 107.382C63.7951 107.355 64.3993 107.156 64.9172 106.807L73.0153 101.174L47.8328 89.3942C47.4262 89.1817 46.9705 89.0806 46.5121 89.1013C46.0537 89.122 45.609 89.2637 45.2233 89.512L37.5039 93.1637Z" fill="#969696"/>
</g>
<g style="mix-blend-mode:multiply" opacity="0.22">
<path d="M37.5039 93.1338L61.3816 106.933C61.9286 107.233 62.5477 107.377 63.1712 107.35C63.7948 107.323 64.3987 107.124 64.9172 106.777L73.0153 101.144L47.8328 89.3644C47.4262 89.1519 46.9705 89.0508 46.5121 89.0715C46.0537 89.0922 45.609 89.2339 45.2233 89.4822L37.5039 93.1338Z" fill="#919191"/>
</g>
<g style="mix-blend-mode:multiply" opacity="0.23">
<path d="M37.5039 93.1046L61.3816 106.903C61.9286 107.204 62.5477 107.348 63.1712 107.321C63.7948 107.293 64.3987 107.095 64.9172 106.748L73.0153 101.115L47.8328 89.3352C47.4262 89.1226 46.9705 89.0215 46.5121 89.0422C46.0537 89.0629 45.609 89.2046 45.2233 89.4529L37.5039 93.1046Z" fill="#8C8C8C"/>
</g>
<g style="mix-blend-mode:multiply" opacity="0.24">
<path d="M37.5039 93.0753L61.3816 106.874C61.9278 107.175 62.5462 107.319 63.1691 107.292C63.792 107.264 64.3953 107.066 64.913 106.718L73.0153 101.085L47.8328 89.3058C47.4262 89.0933 46.9705 88.9922 46.5121 89.0129C46.0537 89.0336 45.609 89.1753 45.2233 89.4236L37.5039 93.0753Z" fill="#878787"/>
</g>
<g style="mix-blend-mode:multiply" opacity="0.25">
<path d="M37.5039 93.0456L61.3816 106.845C61.9278 107.145 62.5462 107.289 63.1691 107.262C63.792 107.235 64.3953 107.036 64.913 106.689L73.0153 101.056L47.8328 89.2762C47.4248 89.0652 46.9684 88.9653 46.5095 88.9867C46.0507 89.0081 45.6056 89.1501 45.219 89.3982L37.5039 93.0456Z" fill="#828282"/>
</g>
<g style="mix-blend-mode:multiply" opacity="0.27">
<path d="M37.5039 93.0163L61.3816 106.815C61.9278 107.116 62.5462 107.26 63.1691 107.233C63.792 107.205 64.3953 107.007 64.913 106.66L73.0153 101.026L47.8328 89.2469C47.4248 89.0358 46.9684 88.936 46.5095 88.9574C46.0507 88.9789 45.6056 89.1208 45.219 89.3689L37.5039 93.0163Z" fill="#7D7D7D"/>
</g>
<g style="mix-blend-mode:multiply" opacity="0.28">
<path d="M37.5039 92.9868L61.3816 106.786C61.9278 107.086 62.5462 107.231 63.1691 107.203C63.792 107.176 64.3953 106.977 64.913 106.63L73.0153 100.993L47.8328 89.2132C47.4248 89.0021 46.9684 88.9023 46.5095 88.9237C46.0507 88.9452 45.6056 89.0871 45.219 89.3352L37.5039 92.9868Z" fill="#787878"/>
</g>
<g style="mix-blend-mode:multiply" opacity="0.29">
<path d="M37.5039 92.9576L61.3774 106.756C61.9244 107.057 62.5435 107.201 63.167 107.174C63.7906 107.146 64.3945 106.948 64.913 106.601L73.0153 100.963L47.8328 89.1839C47.4248 88.9728 46.9684 88.873 46.5095 88.8944C46.0507 88.9159 45.6056 89.0578 45.219 89.3059L37.5039 92.9576Z" fill="#737373"/>
</g>
<g style="mix-blend-mode:multiply" opacity="0.3">
<path d="M37.5 92.9277L61.3777 106.727C61.925 107.026 62.5439 107.17 63.1672 107.142C63.7906 107.115 64.3945 106.917 64.9133 106.571L73.0156 100.934L47.8331 89.1541C47.4252 88.9431 46.9687 88.8432 46.5099 88.8647C46.051 88.8861 45.6059 89.028 45.2194 89.2761L37.5 92.9277Z" fill="#6E6E6E"/>
</g>
<g style="mix-blend-mode:multiply" opacity="0.31">
<path d="M37.5 92.8984L61.3777 106.697C61.925 106.997 62.5439 107.141 63.1672 107.113C63.7906 107.086 64.3945 106.888 64.9133 106.542L73.0156 100.904L47.8289 89.1248C47.4216 88.9141 46.9659 88.8144 46.5077 88.8359C46.0496 88.8573 45.6052 88.999 45.2194 89.2467L37.5 92.8984Z" fill="#696969"/>
</g>
<g style="mix-blend-mode:multiply" opacity="0.32">
<path d="M37.5 92.8649L61.3777 106.668C61.925 106.967 62.5439 107.111 63.1672 107.084C63.7906 107.056 64.3944 106.859 64.9133 106.512L73.0114 100.875L47.8289 89.0954C47.4216 88.8848 46.9659 88.7851 46.5077 88.8066C46.0496 88.828 45.6052 88.9697 45.2194 89.2174L37.5 92.8649Z" fill="#646464"/>
</g>
<g style="mix-blend-mode:multiply" opacity="0.33">
<path d="M37.5 92.8352L61.3777 106.638C61.925 106.938 62.5439 107.082 63.1672 107.054C63.7906 107.027 64.3944 106.829 64.9133 106.483L73.0114 100.845L47.8289 89.0658C47.4217 88.8547 46.966 88.7549 46.5077 88.7763C46.0495 88.7977 45.6051 88.9396 45.2194 89.1878L37.5 92.8352Z" fill="#5F5F5F"/>
</g>
<g style="mix-blend-mode:multiply" opacity="0.34">
<path d="M37.5 92.806L61.3777 106.605C61.9243 106.906 62.5432 107.051 63.1667 107.024C63.7902 106.998 64.3944 106.8 64.9133 106.453L73.0114 100.816L47.8289 89.0365C47.4217 88.8254 46.966 88.7256 46.5077 88.747C46.0495 88.7684 45.6051 88.9104 45.2194 89.1585L37.5 92.806Z" fill="#5A5A5A"/>
</g>
<g style="mix-blend-mode:multiply" opacity="0.35">
<path d="M37.5 92.7767L61.3777 106.576C61.9243 106.877 62.5432 107.022 63.1667 106.995C63.7902 106.968 64.3944 106.771 64.9133 106.424L73.0114 100.787L47.8289 89.0072C47.4217 88.7961 46.966 88.6963 46.5077 88.7177C46.0495 88.7391 45.6051 88.881 45.2194 89.1292L37.5 92.7767Z" fill="#555555"/>
</g>
<g style="mix-blend-mode:multiply" opacity="0.36">
<path d="M37.5 92.7469L61.3777 106.546C61.9235 106.847 62.5418 106.992 63.1647 106.965C63.7875 106.939 64.391 106.741 64.909 106.394L73.0114 100.757L47.8289 88.9774C47.4217 88.7664 46.966 88.6665 46.5077 88.6879C46.0495 88.7093 45.6051 88.8513 45.2194 89.0995L37.5 92.7469Z" fill="#505050"/>
</g>
<g style="mix-blend-mode:multiply" opacity="0.37">
<path d="M37.5 92.7178L61.3777 106.517C61.9235 106.818 62.5418 106.963 63.1647 106.936C63.7875 106.91 64.391 106.712 64.909 106.365L73.0114 100.728L47.8289 88.9484C47.4212 88.7365 46.9646 88.6362 46.5056 88.6576C46.0465 88.679 45.6013 88.8215 45.2151 89.0704L37.5 92.7178Z" fill="#4B4B4B"/>
</g>
<g style="mix-blend-mode:multiply" opacity="0.38">
<path d="M37.5 92.688L61.3777 106.487C61.9235 106.788 62.5418 106.933 63.1647 106.906C63.7875 106.88 64.391 106.682 64.909 106.335L73.0114 100.698L47.8289 88.9186C47.4212 88.7067 46.9646 88.6064 46.5056 88.6278C46.0465 88.6493 45.6013 88.7916 45.2151 89.0406L37.5 92.688Z" fill="#464646"/>
</g>
<g style="mix-blend-mode:multiply" opacity="0.39">
<path d="M37.5 92.6585L61.3777 106.457C61.9235 106.759 62.5418 106.904 63.1647 106.877C63.7875 106.85 64.391 106.653 64.909 106.306L73.0114 100.669L47.8289 88.8891C47.4214 88.6764 46.9648 88.5756 46.5055 88.5971C46.0463 88.6185 45.601 88.7614 45.2151 89.0111L37.5 92.6585Z" fill="#414141"/>
</g>
<g style="mix-blend-mode:multiply" opacity="0.4">
<path d="M37.5 92.6249L61.3777 106.424C61.9235 106.725 62.5418 106.87 63.1647 106.843C63.7875 106.817 64.391 106.619 64.909 106.272L73.0114 100.635L47.8289 88.8555C47.4214 88.6428 46.9648 88.5419 46.5055 88.5634C46.0463 88.5848 45.601 88.7277 45.2151 88.9774L37.5 92.6249Z" fill="#3C3C3C"/>
</g>
<g style="mix-blend-mode:multiply" opacity="0.41">
<path d="M37.4951 92.6L61.3728 106.399C61.9195 106.7 62.5383 106.845 63.1618 106.818C63.7853 106.792 64.3895 106.594 64.9084 106.247L73.0107 100.61L47.8282 88.8305C47.4208 88.6178 46.9641 88.517 46.5049 88.5385C46.0456 88.5599 45.6004 88.7028 45.2145 88.9525L37.4951 92.6Z" fill="#373737"/>
</g>
<g style="mix-blend-mode:multiply" opacity="0.42">
<path d="M37.4951 92.5703L61.3728 106.369C61.9194 106.671 62.5387 106.816 63.1625 106.789C63.7864 106.761 64.3905 106.562 64.9084 106.214L73.0107 100.58L47.824 88.8009C47.4173 88.5881 46.9613 88.4872 46.5027 88.5087C46.0441 88.5301 45.5995 88.6731 45.2145 88.9229L37.4951 92.5703Z" fill="#323232"/>
</g>
<g style="mix-blend-mode:multiply" opacity="0.43">
<path d="M37.4951 92.541L61.3729 106.34C61.9194 106.642 62.5387 106.787 63.1626 106.759C63.7864 106.732 64.3905 106.533 64.9084 106.184L73.0065 100.551L47.824 88.7715C47.4173 88.5588 46.9613 88.458 46.5027 88.4794C46.0441 88.5008 45.5996 88.6438 45.2145 88.8936L37.4951 92.541Z" fill="#2D2D2D"/>
</g>
<g style="mix-blend-mode:multiply" opacity="0.44">
<path d="M37.4951 92.5112L61.3729 106.31C61.9194 106.612 62.5387 106.757 63.1626 106.73C63.7864 106.702 64.3905 106.503 64.9084 106.154L73.0065 100.521L47.824 88.7418C47.4173 88.529 46.9613 88.4282 46.5027 88.4496C46.0441 88.471 45.5996 88.614 45.2145 88.8638L37.4951 92.5112Z" fill="#282828"/>
</g>
<g style="mix-blend-mode:multiply" opacity="0.45">
<path d="M37.4951 92.4819L61.3729 106.281C61.9194 106.583 62.5387 106.728 63.1626 106.7C63.7864 106.673 64.3905 106.474 64.9084 106.125L73.0065 100.492L47.824 88.7125C47.4173 88.4997 46.9613 88.3989 46.5027 88.4203C46.0441 88.4417 45.5996 88.5847 45.2145 88.8345L37.4951 92.4819Z" fill="#232323"/>
</g>
<g style="mix-blend-mode:multiply" opacity="0.46">
<path d="M37.4951 92.4526L61.3729 106.252C61.9194 106.553 62.5387 106.698 63.1626 106.671C63.7864 106.644 64.3905 106.445 64.9084 106.096L73.0065 100.463L47.824 88.6832C47.4173 88.4704 46.9613 88.3696 46.5027 88.391C46.0441 88.4124 45.5996 88.5554 45.2145 88.8052L37.4951 92.4526Z" fill="#1E1E1E"/>
</g>
<g style="mix-blend-mode:multiply" opacity="0.47">
<path d="M37.4951 92.4229L61.3729 106.222C61.9181 106.525 62.537 106.672 63.1606 106.644C63.7842 106.617 64.3878 106.417 64.9042 106.066L73.0065 100.433L47.824 88.6534C47.4173 88.4407 46.9613 88.3398 46.5027 88.3612C46.0441 88.3827 45.5996 88.5256 45.2145 88.7754L37.4951 92.4229Z" fill="#191919"/>
</g>
<g style="mix-blend-mode:multiply" opacity="0.48">
<path d="M37.4951 92.3935L61.3729 106.192C61.9181 106.496 62.537 106.642 63.1606 106.615C63.7842 106.588 64.3878 106.387 64.9042 106.037L73.0065 100.404L47.824 88.6241C47.4173 88.4113 46.9613 88.3105 46.5027 88.3319C46.0441 88.3534 45.5996 88.4963 45.2145 88.7461L37.4951 92.3935Z" fill="#141414"/>
</g>
<g style="mix-blend-mode:multiply" opacity="0.49">
<path d="M37.4951 92.3642L61.3729 106.163C61.9181 106.467 62.537 106.613 63.1606 106.586C63.7842 106.558 64.3878 106.358 64.9042 106.007L73.0065 100.374L47.824 88.5947C47.4165 88.382 46.9599 88.2812 46.5007 88.3026C46.0414 88.3241 45.5961 88.4669 45.2103 88.7167L37.4951 92.3642Z" fill="#0F0F0F"/>
</g>
<g style="mix-blend-mode:multiply" opacity="0.5">
<path d="M37.4951 92.3339L61.3729 106.133C61.9181 106.436 62.537 106.583 63.1606 106.555C63.7842 106.528 64.3878 106.328 64.9042 105.977L73.0065 100.344L47.824 88.5644C47.4165 88.3517 46.9599 88.2509 46.5007 88.2724C46.0414 88.2938 45.5961 88.4367 45.2103 88.6864L37.4951 92.3339Z" fill="#0A0A0A"/>
</g>
<g style="mix-blend-mode:multiply" opacity="0.51">
<path d="M37.4951 92.3046L61.3729 106.103C61.9181 106.407 62.537 106.554 63.1606 106.526C63.7842 106.499 64.3878 106.298 64.9042 105.948L73.0065 100.315L47.824 88.5352C47.4165 88.3224 46.9599 88.2216 46.5007 88.2431C46.0414 88.2645 45.5961 88.4074 45.2103 88.6571L37.4951 92.3046Z" fill="#050505"/>
</g>
<g style="mix-blend-mode:multiply" opacity="0.52">
<path d="M37.4912 92.2759L61.3689 106.075C61.9155 106.377 62.5348 106.522 63.1586 106.494C63.7825 106.467 64.3866 106.268 64.9045 105.919L73.0068 100.286L47.8243 88.5064C47.417 88.2939 46.9606 88.1929 46.5016 88.2136C46.0425 88.2343 45.5971 88.3759 45.2106 88.6242L37.4912 92.2759Z" fill="black"/>
</g>
</g>
<path d="M37.4961 92.4147L61.3696 106.075C61.9162 106.377 62.5355 106.522 63.1593 106.494C63.7831 106.467 64.3872 106.268 64.9051 105.919L73.0075 100.286L47.825 88.5064C47.4176 88.2939 46.9613 88.1929 46.5022 88.2136C46.0432 88.2343 45.5978 88.3759 45.2112 88.6242L37.4961 92.4147Z" fill="#F4861A"/>
<path d="M38.043 91.9938L61.3609 104.842C61.9061 105.146 62.525 105.292 63.1486 105.264C63.7722 105.237 64.3759 105.037 64.8922 104.686L72.0475 99.8861L47.8163 87.2652C47.4089 87.0527 46.9525 86.9517 46.4935 86.9724C46.0345 86.9931 45.5891 87.1347 45.2025 87.383L38.043 91.9938Z" fill="#F4AA4A"/>
<path d="M52.7402 93.4663C52.8236 93.4296 52.8982 93.3757 52.9592 93.308C53.0201 93.2404 53.066 93.1606 53.0939 93.0739C53.1217 92.9872 53.1309 92.8957 53.1207 92.8052C53.1105 92.7148 53.0813 92.6274 53.0349 92.5491C52.8497 92.1494 52.3825 91.7582 51.5238 91.287C50.9979 90.9949 50.4555 90.7336 49.8992 90.5045L49.6971 90.4204L45.0967 93.4073L45.2735 93.5252C45.4587 93.6514 45.8711 93.9206 46.5067 94.274C47.2257 94.6974 48.0048 95.0094 48.8174 95.1995C48.9745 95.2314 49.1333 95.2539 49.293 95.2668C49.8445 95.3379 50.4041 95.2287 50.8883 94.9555C51.4565 94.5853 51.3555 94.0889 51.0272 93.6934C51.607 93.824 52.2145 93.7434 52.7402 93.4663ZM49.5877 94.2235C49.0111 94.5979 48.1356 94.2572 47.4832 93.908C47.2938 93.8028 47.1465 93.7187 47.0328 93.6472L48.4176 92.7511L48.8679 92.9993C49.1967 93.1576 49.4847 93.3894 49.7097 93.6766C49.7445 93.7185 49.7692 93.7678 49.782 93.8208C49.7948 93.8737 49.7953 93.9289 49.7835 93.982C49.7717 94.0352 49.748 94.0849 49.714 94.1275C49.6801 94.1701 49.6369 94.2044 49.5877 94.2277V94.2235ZM50.8167 91.8003C51.9742 92.4398 51.5533 92.7132 51.4144 92.8016C51.0608 93.033 50.3832 92.9319 49.6929 92.5491L49.1794 92.2673L50.3074 91.5353C50.4547 91.6068 50.6231 91.6951 50.8167 91.8045V91.8003Z" fill="white"/>
<path d="M58.831 95.3092L56.0657 97.1013C55.6949 97.3636 55.2554 97.5118 54.8015 97.5275C54.3475 97.5432 53.8988 97.4257 53.5108 97.1897C52.7111 96.769 52.7111 96.2137 53.5108 95.692L56.2761 93.8998L55.0134 93.1973L52.2607 94.981C50.4888 96.1337 51.7767 97.1644 52.6816 97.6777C53.1976 97.9693 53.7555 98.1793 54.3358 98.3003C54.8483 98.417 55.379 98.431 55.897 98.3415C56.415 98.2519 56.9101 98.0606 57.3536 97.7787L60.0769 96.0118L58.831 95.3092Z" fill="white"/>
<path d="M64.888 98.7505L62.6193 99.0619L62.4089 99.0913L61.5671 99.2133C61.626 99.024 61.6849 98.822 61.7481 98.5738L62.1016 97.2024L60.6622 96.4072L60.0687 99.3521L58.082 100.644L59.3447 101.346L61.3356 100.055L66.3401 99.5414L64.888 98.7505Z" fill="white"/>
<path d="M96.1654 35.9082L94.5908 35.5439L89.176 58.9309L90.7506 59.2951L96.1654 35.9082Z" fill="#808184"/>
<path d="M77.5033 29.0498L76.6406 29.0679L77.0142 46.8931L77.8769 46.875L77.5033 29.0498Z" fill="#808184"/>
<path d="M103.195 20.6401L66.0049 41.1182L66.4212 41.8736L103.612 21.3955L103.195 20.6401Z" fill="#808184"/>
<path d="M74.5424 31.7688L73.6797 31.7856L74.0008 48.2023L74.8635 48.1854L74.5424 31.7688Z" fill="#808184"/>
<path d="M71.0531 34.1252L70.1904 34.1421L70.5115 50.5588L71.3742 50.5419L71.0531 34.1252Z" fill="#808184"/>
<path d="M96.7859 34.4725L96.4404 35.1274L120.262 47.6808L120.607 47.0258L96.7859 34.4725Z" fill="#808184"/>
<path d="M94.0876 36.4359L93.7275 37.083L116.309 49.6355L116.669 48.9884L94.0876 36.4359Z" fill="#808184"/>
<path d="M90.9313 38.3304L90.5713 38.9775L113.153 51.53L113.513 50.8829L90.9313 38.3304Z" fill="#808184"/>
<path d="M87.606 39.999L87.2305 40.6372L108.926 53.3906L109.302 52.7523L87.606 39.999Z" fill="#808184"/>
<path d="M84.5538 42.3355L84.1758 42.9722L105.212 55.4517L105.59 54.8151L84.5538 42.3355Z" fill="#808184"/>
<path d="M81.1095 44.0083L80.7314 44.645L101.768 57.1246L102.146 56.4879L81.1095 44.0083Z" fill="#808184"/>
<path d="M77.8576 46.0693L77.4795 46.7061L98.516 59.1856L98.8941 58.5489L77.8576 46.0693Z" fill="#808184"/>
<path d="M119.832 75.3493C122.085 74.1462 123.28 71.988 122.5 70.5288C121.72 69.0697 119.261 68.8621 117.008 70.0652C114.754 71.2683 113.56 73.4265 114.34 74.8857C115.12 76.3449 117.578 76.5524 119.832 75.3493Z" fill="black"/>
<path d="M120.41 75.036C122.343 74.0037 123.327 72.0753 122.607 70.7289C121.888 69.3824 119.737 69.1278 117.804 70.1601C115.87 71.1924 114.886 73.1208 115.606 74.4673C116.325 75.8137 118.476 76.0683 120.41 75.036Z" fill="url(#paint10_radial_673_3171)"/>
<path d="M119.997 74.2642C121.317 73.5592 121.989 72.2417 121.497 71.3216C121.006 70.4014 119.537 70.227 118.216 70.932C116.896 71.637 116.224 72.9544 116.716 73.8746C117.207 74.7948 118.677 74.9692 119.997 74.2642Z" fill="#161616"/>
<path d="M119.62 73.5637C120.381 73.1575 120.768 72.398 120.484 71.8672C120.2 71.3364 119.354 71.2354 118.593 71.6415C117.833 72.0477 117.446 72.8072 117.729 73.338C118.013 73.8688 118.86 73.9698 119.62 73.5637Z" fill="url(#paint11_linear_673_3171)"/>
<path d="M119.574 73.474C120.27 73.1029 120.623 72.41 120.365 71.9264C120.106 71.4427 119.334 71.3515 118.638 71.7226C117.943 72.0937 117.589 72.7866 117.848 73.2703C118.106 73.7539 118.879 73.8451 119.574 73.474Z" fill="url(#paint12_linear_673_3171)"/>
<path d="M119.718 72.6504L118.565 73.2141L114.718 70.8582L120.695 67.3496L119.718 72.6504Z" fill="#161616"/>
<path d="M119.411 73.1691C119.731 72.9983 119.893 72.6788 119.774 72.4555C119.654 72.2321 119.298 72.1894 118.979 72.3602C118.659 72.531 118.496 72.8505 118.616 73.0739C118.735 73.2973 119.091 73.3399 119.411 73.1691Z" fill="url(#paint13_linear_673_3171)"/>
<path d="M119.39 73.1319C119.684 72.9754 119.833 72.684 119.725 72.4811C119.616 72.2782 119.291 72.2407 118.998 72.3972C118.705 72.5537 118.555 72.8451 118.663 73.048C118.772 73.2509 119.097 73.2885 119.39 73.1319Z" fill="url(#paint14_linear_673_3171)"/>
<path d="M95.8973 88.9958C98.1506 87.7927 99.3452 85.6345 98.5653 84.1753C97.7855 82.7162 95.3266 82.5086 93.0733 83.7117C90.8199 84.9148 89.6253 87.073 90.4052 88.5322C91.185 89.9913 93.6439 90.1989 95.8973 88.9958Z" fill="black"/>
<path d="M96.4701 88.6849C98.4036 87.6526 99.3876 85.7242 98.668 84.3778C97.9484 83.0313 95.7977 82.7767 93.8642 83.809C91.9307 84.8413 90.9466 86.7697 91.6662 88.1162C92.3858 89.4626 94.5366 89.7173 96.4701 88.6849Z" fill="url(#paint15_radial_673_3171)"/>
<path d="M96.0575 87.9131C97.3779 87.2081 98.0497 85.8907 97.5579 84.9705C97.0661 84.0503 95.5971 83.8759 94.2766 84.5809C92.9562 85.2859 92.2844 86.6034 92.7762 87.5235C93.2679 88.4437 94.7371 88.6181 96.0575 87.9131Z" fill="#161616"/>
<path d="M95.681 87.2039C96.4417 86.7977 96.8284 86.0382 96.5447 85.5074C96.261 84.9766 95.4144 84.8755 94.6537 85.2817C93.8931 85.6878 93.5063 86.4474 93.79 86.9782C94.0737 87.509 94.9203 87.61 95.681 87.2039Z" fill="url(#paint16_linear_673_3171)"/>
<path d="M96.4133 85.6204C96.67 86.1084 96.3165 86.8025 95.622 87.1728C94.9275 87.543 94.153 87.4504 93.892 86.9666C93.6311 86.4828 93.9889 85.7887 94.6833 85.4184C95.3778 85.0482 96.1523 85.1366 96.4133 85.6204Z" fill="url(#paint17_linear_673_3171)"/>
<path d="M95.7819 86.2979L94.6244 86.8616L90.7773 84.5057L96.7541 80.9971L95.7819 86.2979Z" fill="#161616"/>
<path d="M95.4734 86.8215C95.7933 86.6507 95.9558 86.3312 95.8364 86.1078C95.717 85.8844 95.361 85.8418 95.0411 86.0125C94.7212 86.1833 94.5587 86.5029 94.6781 86.7262C94.7975 86.9496 95.1535 86.9922 95.4734 86.8215Z" fill="url(#paint18_linear_673_3171)"/>
<path d="M95.4538 86.7843C95.747 86.6277 95.8968 86.3364 95.7884 86.1335C95.6799 85.9306 95.3544 85.893 95.0612 86.0495C94.768 86.2061 94.6182 86.4975 94.7266 86.7004C94.835 86.9033 95.1606 86.9408 95.4538 86.7843Z" fill="url(#paint19_linear_673_3171)"/>
<path d="M76.699 75.4411C78.9523 74.238 80.1469 72.0798 79.3671 70.6207C78.5872 69.1615 76.1284 68.9539 73.875 70.157C71.6216 71.3601 70.4271 73.5183 71.2069 74.9775C71.9867 76.4367 74.4456 76.6442 76.699 75.4411Z" fill="black"/>
<path d="M77.2757 75.1327C79.2092 74.1004 80.1933 72.172 79.4737 70.8255C78.7541 69.4791 76.6033 69.2245 74.6698 70.2568C72.7363 71.2891 71.7523 73.2175 72.4719 74.5639C73.1914 75.9104 75.3422 76.165 77.2757 75.1327Z" fill="url(#paint20_radial_673_3171)"/>
<path d="M76.868 74.3565C78.1884 73.6515 78.8602 72.334 78.3685 71.4138C77.8767 70.4937 76.4076 70.3193 75.0871 71.0243C73.7667 71.7293 73.0949 73.0467 73.5867 73.9669C74.0785 74.8871 75.5476 75.0615 76.868 74.3565Z" fill="#161616"/>
<path d="M76.4866 73.656C77.2473 73.2498 77.634 72.4903 77.3504 71.9595C77.0667 71.4287 76.2201 71.3277 75.4594 71.7339C74.6987 72.14 74.312 72.8995 74.5957 73.4303C74.8793 73.9611 75.7259 74.0621 76.4866 73.656Z" fill="url(#paint21_linear_673_3171)"/>
<path d="M76.4407 73.5746C77.1358 73.2035 77.4897 72.5106 77.2312 72.0269C76.9727 71.5433 76.1997 71.452 75.5047 71.8232C74.8096 72.1943 74.4556 72.8872 74.7141 73.3708C74.9726 73.8545 75.7456 73.9457 76.4407 73.5746Z" fill="url(#paint22_linear_673_3171)"/>
<path d="M76.5843 72.7388L75.431 73.3067L71.584 70.9466L77.5608 67.438L76.5843 72.7388Z" fill="#161616"/>
<path d="M76.2771 73.2653C76.597 73.0945 76.7595 72.775 76.6401 72.5516C76.5207 72.3283 76.1647 72.2856 75.8448 72.4564C75.5249 72.6272 75.3624 72.9467 75.4818 73.1701C75.6012 73.3935 75.9573 73.4361 76.2771 73.2653Z" fill="url(#paint23_linear_673_3171)"/>
<path d="M76.2576 73.2281C76.5508 73.0716 76.7005 72.7802 76.5921 72.5773C76.4837 72.3744 76.1581 72.3368 75.8649 72.4934C75.5717 72.6499 75.4219 72.9413 75.5303 73.1442C75.6387 73.3471 75.9644 73.3847 76.2576 73.2281Z" fill="url(#paint24_linear_673_3171)"/>
<path d="M96.3474 63.5109C98.6008 62.3078 99.7953 60.1496 99.0155 58.6905C98.2357 57.2313 95.7768 57.0238 93.5234 58.2269C91.2701 59.43 90.0755 61.5882 90.8554 63.0473C91.6352 64.5065 94.0941 64.714 96.3474 63.5109Z" fill="black"/>
<path d="M96.9241 63.202C98.8577 62.1696 99.8417 60.2413 99.1221 58.8949C98.4025 57.5484 96.2518 57.2938 94.3183 58.3261C92.3848 59.3584 91.4007 61.2868 92.1203 62.6332C92.8399 63.9797 94.9906 64.2343 96.9241 63.202Z" fill="url(#paint25_radial_673_3171)"/>
<path d="M96.5116 62.4263C97.832 61.7213 98.5038 60.4038 98.012 59.4837C97.5202 58.5635 96.0512 58.3891 94.7307 59.0941C93.4103 59.7991 92.7385 61.1165 93.2303 62.0367C93.722 62.9569 95.1912 63.1313 96.5116 62.4263Z" fill="#161616"/>
<path d="M96.1351 61.7209C96.8957 61.3148 97.2824 60.5553 96.9988 60.0245C96.7151 59.4937 95.8685 59.3927 95.1078 59.7988C94.3471 60.2049 93.9604 60.9645 94.2441 61.4952C94.5278 62.026 95.3744 62.1271 96.1351 61.7209Z" fill="url(#paint26_linear_673_3171)"/>
<path d="M96.0891 61.64C96.7842 61.2689 97.1381 60.576 96.8797 60.0924C96.6212 59.6087 95.8482 59.5175 95.1531 59.8886C94.458 60.2597 94.1041 60.9526 94.3626 61.4363C94.621 61.9199 95.394 62.0112 96.0891 61.64Z" fill="url(#paint27_linear_673_3171)"/>
<path d="M96.2327 60.8076L95.0795 61.3756L91.2324 59.0197L97.2092 55.5068L96.2327 60.8076Z" fill="#161616"/>
<path d="M96.2743 60.6519C96.3922 60.8749 96.228 61.1904 95.9081 61.3628C95.5882 61.5353 95.2347 61.4933 95.1168 61.2703C94.999 61.0473 95.1589 60.7276 95.4788 60.5551C95.7987 60.3827 96.1565 60.4415 96.2743 60.6519Z" fill="url(#paint28_linear_673_3171)"/>
<path d="M96.2235 60.6897C96.333 60.8916 96.1856 61.1861 95.891 61.3418C95.7813 61.4226 95.6448 61.4585 95.5094 61.4421C95.374 61.4257 95.2501 61.3582 95.1629 61.2534C95.0576 61.0515 95.205 60.7612 95.4954 60.6013C95.7858 60.4415 96.1267 60.4835 96.2235 60.6897Z" fill="url(#paint29_linear_673_3171)"/>
<path d="M85.7936 86.8995C85.2269 86.9172 84.6672 86.7711 84.1815 86.4788L67.5055 76.361C67.0767 76.1022 66.7221 75.7372 66.476 75.3012C66.2299 74.8653 66.1006 74.3732 66.1006 73.8726C66.1006 73.372 66.2299 72.8799 66.476 72.444C66.7221 72.008 67.0767 71.6429 67.5055 71.3842L98.4795 52.7809C98.9261 52.5138 99.4336 52.3654 99.9538 52.35C100.474 52.3345 100.989 52.4525 101.451 52.6926L121.941 63.3909C122.294 63.576 122.592 63.8534 122.8 64.1938C123.009 64.5342 123.121 64.9248 123.126 65.3241C123.13 65.7233 123.026 66.1162 122.825 66.461C122.623 66.8058 122.332 67.0897 121.983 67.2824L87.1026 86.5377C86.7008 86.7595 86.2523 86.8835 85.7936 86.8995ZM86.1387 84.796L86.6186 85.6626L86.1387 84.796L121.019 65.5407C121.057 65.5208 121.089 65.4905 121.11 65.4532C121.132 65.416 121.143 65.3733 121.141 65.3303C121.142 65.288 121.131 65.2462 121.108 65.2103C121.086 65.1743 121.053 65.1458 121.015 65.1284L100.529 54.43C100.368 54.3465 100.188 54.3053 100.006 54.3105C99.8238 54.3156 99.6463 54.367 99.4897 54.4595L68.5156 73.0627C68.378 73.1459 68.2641 73.2632 68.1851 73.4032C68.106 73.5432 68.0645 73.7013 68.0645 73.8621C68.0645 74.0228 68.106 74.1809 68.1851 74.3209C68.2641 74.461 68.378 74.5782 68.5156 74.6614L85.2086 84.7791C85.3472 84.8657 85.5063 84.914 85.6696 84.9192C85.833 84.9244 85.9949 84.8862 86.1387 84.8086V84.796Z" fill="#808184"/>
<path d="M73.9308 67.8852L73.5527 68.522L94.5893 81.0015L94.9673 80.3648L73.9308 67.8852Z" fill="#808184"/>
<path d="M76.6681 66.3652L76.29 67.002L97.3266 79.4815L97.7047 78.8448L76.6681 66.3652Z" fill="#808184"/>
<path d="M79.5822 64.8779L79.2041 65.5146L100.241 77.9942L100.619 77.3575L79.5822 64.8779Z" fill="#808184"/>
<path d="M82.1974 63.2778L81.8193 63.9146L102.856 76.3941L103.234 75.7574L82.1974 63.2778Z" fill="#808184"/>
<path d="M85.4494 61.4629L85.0713 62.0996L106.108 74.5792L106.486 73.9425L85.4494 61.4629Z" fill="#808184"/>
<path d="M87.3371 59.8618L86.959 60.4985L107.996 72.9781L108.374 72.3414L87.3371 59.8618Z" fill="#808184"/>
<g opacity="0.12">
<path opacity="0.12" d="M118.41 79.7751C120.663 78.572 121.858 76.4138 121.078 74.9546C120.298 73.4955 117.839 73.2879 115.586 74.491C113.333 75.6941 112.138 77.8523 112.918 79.3115C113.698 80.7706 116.157 80.9782 118.41 79.7751Z" fill="black"/>
<path opacity="0.12" d="M118.989 79.474C120.922 78.4417 121.906 76.5133 121.187 75.1669C120.467 73.8204 118.316 73.5657 116.383 74.5981C114.449 75.6304 113.465 77.5588 114.185 78.9053C114.904 80.2517 117.055 80.5063 118.989 79.474Z" fill="black"/>
<path opacity="0.12" d="M118.576 78.6983C119.896 77.9933 120.568 76.6758 120.076 75.7556C119.585 74.8355 118.116 74.661 116.795 75.366C115.475 76.071 114.803 77.3885 115.295 78.3087C115.786 79.2289 117.256 79.4033 118.576 78.6983Z" fill="black"/>
<path opacity="0.12" d="M118.2 77.989C118.96 77.5829 119.347 76.8234 119.063 76.2926C118.78 75.7618 117.933 75.6607 117.172 76.0668C116.412 76.473 116.025 77.2326 116.309 77.7634C116.592 78.2942 117.439 78.3952 118.2 77.989Z" fill="black"/>
<path opacity="0.12" d="M118.154 77.9121C118.849 77.5409 119.203 76.848 118.944 76.3644C118.686 75.8807 117.913 75.7894 117.218 76.1606C116.522 76.5317 116.169 77.2246 116.427 77.7083C116.686 78.1919 117.459 78.2832 118.154 77.9121Z" fill="black"/>
<path opacity="0.12" d="M118.296 77.0801L117.143 77.648L113.296 75.2879L119.273 71.7793L118.296 77.0801Z" fill="black"/>
<path opacity="0.12" d="M118.339 76.9326C118.456 77.1556 118.292 77.4754 117.972 77.6479C117.852 77.735 117.703 77.7734 117.556 77.7555C117.408 77.7375 117.273 77.6645 117.177 77.5511C117.059 77.3281 117.223 77.0126 117.543 76.8401C117.663 76.7515 117.811 76.7118 117.959 76.729C118.107 76.7462 118.243 76.819 118.339 76.9326Z" fill="black"/>
<path opacity="0.12" d="M118.288 76.9623C118.397 77.1642 118.246 77.4545 117.955 77.6143C117.665 77.7742 117.336 77.7322 117.227 77.526C117.118 77.3199 117.269 77.0296 117.56 76.8739C117.85 76.7183 118.178 76.7561 118.288 76.9623Z" fill="black"/>
<path opacity="0.12" d="M94.4724 93.4274C96.7258 92.2243 97.9203 90.0662 97.1405 88.607C96.3607 87.1478 93.9018 86.9403 91.6484 88.1434C89.3951 89.3465 88.2005 91.5047 88.9804 92.9638C89.7602 94.423 92.2191 94.6306 94.4724 93.4274Z" fill="black"/>
<path opacity="0.12" d="M95.0502 93.1229C96.9837 92.0906 97.9677 90.1622 97.2481 88.8158C96.5285 87.4693 94.3778 87.2147 92.4443 88.247C90.5108 89.2793 89.5267 91.2077 90.2463 92.5541C90.9659 93.9006 93.1166 94.1552 95.0502 93.1229Z" fill="black"/>
<path opacity="0.12" d="M94.6376 92.3472C95.958 91.6422 96.6298 90.3247 96.138 89.4046C95.6462 88.4844 94.1772 88.31 92.8567 89.015C91.5363 89.72 90.8645 91.0374 91.3562 91.9576C91.848 92.8778 93.3171 93.0522 94.6376 92.3472Z" fill="black"/>
<path opacity="0.12" d="M92.0366 90.9292C92.7955 90.5241 93.1813 89.7664 92.8984 89.2368C92.6154 88.7072 91.7708 88.6064 91.0119 89.0115C90.253 89.4167 89.8671 90.1744 90.15 90.704C90.433 91.2335 91.2777 91.3344 92.0366 90.9292Z" fill="black"/>
<path opacity="0.12" d="M94.2151 91.5565C94.9102 91.1854 95.2641 90.4925 95.0056 90.0089C94.7471 89.5252 93.9741 89.434 93.2791 89.8051C92.584 90.1762 92.23 90.8691 92.4885 91.3528C92.747 91.8364 93.52 91.9277 94.2151 91.5565Z" fill="black"/>
<path opacity="0.12" d="M94.359 90.7275L93.2057 91.2955L89.3545 88.9354L95.3313 85.4268L94.359 90.7275Z" fill="black"/>
<path opacity="0.12" d="M94.3974 90.5801C94.5152 90.8031 94.3553 91.1228 94.0354 91.2953C93.7155 91.4678 93.3577 91.4215 93.2399 91.1985C93.122 90.9755 93.282 90.6601 93.6018 90.4876C93.7217 90.4 93.8703 90.3608 94.0178 90.378C94.1653 90.3951 94.3008 90.4673 94.3974 90.5801Z" fill="black"/>
<path opacity="0.12" d="M94.3466 90.6097C94.456 90.8117 94.3087 91.1062 94.014 91.2618C93.9043 91.3427 93.7678 91.3786 93.6324 91.3622C93.497 91.3458 93.3731 91.2783 93.2859 91.1735C93.1807 90.9716 93.328 90.6771 93.6184 90.5214C93.9088 90.3657 94.2371 90.4036 94.3466 90.6097Z" fill="black"/>
<path opacity="0.12" d="M75.2771 79.8713C77.5305 78.6682 78.725 76.51 77.9452 75.0508C77.1654 73.5917 74.7065 73.3841 72.4531 74.5872C70.1998 75.7903 69.0052 77.9485 69.785 79.4077C70.5649 80.8668 73.0237 81.0744 75.2771 79.8713Z" fill="black"/>
<path opacity="0.12" d="M75.8538 79.5629C77.7873 78.5306 78.7714 76.6022 78.0518 75.2557C77.3323 73.9093 75.1815 73.6546 73.248 74.687C71.3145 75.7193 70.3304 77.6477 71.05 78.9941C71.7696 80.3406 73.9203 80.5952 75.8538 79.5629Z" fill="black"/>
<path opacity="0.12" d="M75.4412 78.7867C76.7617 78.0817 77.4335 76.7642 76.9417 75.844C76.4499 74.9239 74.9808 74.7494 73.6604 75.4544C72.3399 76.1594 71.6682 77.4769 72.16 78.3971C72.6517 79.3172 74.1208 79.4917 75.4412 78.7867Z" fill="black"/>
<path opacity="0.12" d="M75.0647 78.0818C75.8254 77.6756 76.2122 76.9161 75.9285 76.3853C75.6448 75.8545 74.7982 75.7535 74.0375 76.1596C73.2768 76.5658 72.8901 77.3253 73.1738 77.8561C73.4575 78.3869 74.3041 78.4879 75.0647 78.0818Z" fill="black"/>
<path opacity="0.12" d="M75.0188 78.0004C75.7138 77.6293 76.0678 76.9364 75.8093 76.4527C75.5508 75.9691 74.7778 75.8778 74.0827 76.249C73.3876 76.6201 73.0338 77.313 73.2922 77.7966C73.5507 78.2803 74.3237 78.3715 75.0188 78.0004Z" fill="black"/>
<path opacity="0.12" d="M75.1624 77.1729L74.0091 77.7366L70.1621 75.3807L76.1389 71.8721L75.1624 77.1729Z" fill="black"/>
<path opacity="0.12" d="M75.2047 77.0255C75.3226 77.2484 75.1585 77.5681 74.8386 77.7364C74.7191 77.825 74.5702 77.8647 74.4224 77.8475C74.2747 77.8303 74.139 77.7575 74.0431 77.6439C73.9252 77.4209 74.0894 77.1012 74.4092 76.9329C74.5288 76.8443 74.6775 76.8046 74.8253 76.8218C74.9731 76.839 75.1088 76.9118 75.2047 77.0255Z" fill="black"/>
<path opacity="0.12" d="M74.8347 77.6539C75.1279 77.4973 75.2777 77.206 75.1692 77.0031C75.0608 76.8002 74.7352 76.7626 74.442 76.9192C74.1488 77.0757 73.999 77.3671 74.1075 77.57C74.2159 77.7729 74.5415 77.8104 74.8347 77.6539Z" fill="black"/>
<path opacity="0.12" d="M94.9246 67.9406C97.1779 66.7375 98.3725 64.5793 97.5926 63.1202C96.8128 61.661 94.3539 61.4534 92.1006 62.6565C89.8472 63.8597 88.6527 66.0178 89.4325 67.477C90.2123 68.9362 92.6712 69.1437 94.9246 67.9406Z" fill="black"/>
<path opacity="0.12" d="M95.5023 67.6322C97.4358 66.5999 98.4199 64.6715 97.7003 63.3251C96.9807 61.9786 94.83 61.724 92.8964 62.7563C90.9629 63.7886 89.9789 65.717 90.6984 67.0635C91.418 68.4099 93.5688 68.6645 95.5023 67.6322Z" fill="black"/>
<path opacity="0.12" d="M95.0897 66.8604C96.4102 66.1554 97.0819 64.8379 96.5901 63.9178C96.0984 62.9976 94.6293 62.8231 93.3089 63.5282C91.9884 64.2332 91.3166 65.5506 91.8084 66.4708C92.3002 67.391 93.7693 67.5654 95.0897 66.8604Z" fill="black"/>
<path opacity="0.12" d="M94.7122 66.1555C95.4729 65.7494 95.8596 64.9898 95.5759 64.4591C95.2922 63.9283 94.4456 63.8272 93.685 64.2334C92.9243 64.6395 92.5376 65.399 92.8212 65.9298C93.1049 66.4606 93.9515 66.5617 94.7122 66.1555Z" fill="black"/>
<path opacity="0.12" d="M94.6633 66.0741C95.3584 65.703 95.7124 65.0101 95.4539 64.5264C95.1954 64.0428 94.4224 63.9516 93.7273 64.3227C93.0322 64.6938 92.6783 65.3867 92.9368 65.8704C93.1952 66.354 93.9683 66.4452 94.6633 66.0741Z" fill="black"/>
<path opacity="0.12" d="M94.8099 65.2417L93.6566 65.8096L89.8096 63.4495L95.7864 59.9409L94.8099 65.2417Z" fill="black"/>
<path opacity="0.12" d="M94.5056 65.76C94.8255 65.5892 94.988 65.2697 94.8686 65.0463C94.7492 64.8229 94.3931 64.7803 94.0733 64.951C93.7534 65.1218 93.5909 65.4414 93.7103 65.6648C93.8297 65.8881 94.1857 65.9308 94.5056 65.76Z" fill="black"/>
<path opacity="0.12" d="M94.8014 65.1195C94.9108 65.3256 94.7635 65.6159 94.4689 65.7716C94.3593 65.852 94.2233 65.888 94.0883 65.8723C93.9532 65.8567 93.8291 65.7907 93.7407 65.6874C93.6313 65.4813 93.7828 65.191 94.0732 65.0354C94.3637 64.8797 94.6919 64.9176 94.8014 65.1195Z" fill="black"/>
<path opacity="0.12" d="M84.3715 91.3292C83.8045 91.3501 83.2439 91.2038 82.7594 90.9085L66.0665 80.8118C65.6379 80.5524 65.2834 80.187 65.0374 79.7507C64.7914 79.3144 64.6621 78.822 64.6621 78.3212C64.6621 77.8204 64.7914 77.328 65.0374 76.8918C65.2834 76.4555 65.6379 76.09 66.0665 75.8307L97.0406 57.2275C97.488 56.9626 97.9952 56.8156 98.515 56.8002C99.0347 56.7847 99.5498 56.9013 100.012 57.1391L120.502 67.8374C120.856 68.0225 121.153 68.3 121.361 68.6404C121.57 68.9808 121.683 69.3714 121.687 69.7706C121.691 70.1698 121.587 70.5627 121.386 70.9076C121.185 71.2524 120.894 71.5362 120.544 71.7289L85.6637 90.9884C85.2652 91.2006 84.8228 91.3172 84.3715 91.3292ZM84.7166 89.2257L85.1965 90.0671L84.7166 89.2257L119.597 69.9662C119.635 69.947 119.666 69.9174 119.688 69.8809C119.709 69.8444 119.72 69.8024 119.719 69.76C119.72 69.7171 119.709 69.6746 119.687 69.638C119.664 69.6013 119.631 69.5721 119.592 69.5539L99.1072 58.8556C98.9453 58.7726 98.7649 58.7322 98.5831 58.7381C98.4012 58.744 98.2238 58.796 98.0676 58.8892L67.0851 77.5092C66.9474 77.5919 66.8334 77.7087 66.7543 77.8484C66.6751 77.9882 66.6335 78.1459 66.6335 78.3065C66.6335 78.467 66.6751 78.6249 66.7543 78.7646C66.8334 78.9043 66.9474 79.0211 67.0851 79.1037L83.778 89.2215C83.9174 89.3097 84.0775 89.3596 84.2423 89.3662C84.407 89.3729 84.5707 89.336 84.7166 89.2593V89.2257Z" fill="black"/>
<path opacity="0.12" d="M72.5079 72.3155L72.1299 72.9521L93.1664 85.4317L93.5445 84.795L72.5079 72.3155Z" fill="black"/>
<path opacity="0.12" d="M75.2453 70.7959L74.8672 71.4326L95.9037 83.9122L96.2818 83.2755L75.2453 70.7959Z" fill="black"/>
<path opacity="0.12" d="M78.1584 69.31L77.7803 69.9468L98.8168 82.4264L99.1949 81.7897L78.1584 69.31Z" fill="black"/>
<path opacity="0.12" d="M80.7756 67.708L80.3975 68.3447L101.434 80.8243L101.812 80.1876L80.7756 67.708Z" fill="black"/>
<path opacity="0.12" d="M84.0265 65.8931L83.6484 66.5298L104.685 79.0093L105.063 78.3727L84.0265 65.8931Z" fill="black"/>
<path opacity="0.12" d="M85.9181 64.2944L85.54 64.9312L106.577 77.4107L106.955 76.774L85.9181 64.2944Z" fill="black"/>
</g>
<path d="M74.84 48.2637L74.4619 48.9004L95.4984 61.38L95.8765 60.7432L74.84 48.2637Z" fill="#808184"/>
<path d="M71.6701 50.0955L71.2842 50.7275L91.7404 63.2081L92.1264 62.5761L71.6701 50.0955Z" fill="#808184"/>
<path d="M69.1425 51.7315L68.5537 52.6733L88.5426 65.1577L89.1314 64.2158L69.1425 51.7315Z" fill="#808184"/>
<path d="M85.8237 66.508C85.3283 66.5283 84.8379 66.4025 84.4137 66.1462L67.7207 56.0495C67.3429 55.8262 67.0298 55.5084 66.8123 55.1273C66.5948 54.7463 66.4805 54.3152 66.4805 53.8765C66.4805 53.4379 66.5948 53.0067 66.8123 52.6257C67.0298 52.2447 67.3429 51.9269 67.7207 51.7036L99.9785 32.3516L124.812 45.3258L86.9306 66.2387C86.587 66.4116 86.2083 66.5037 85.8237 66.508ZM86.3624 65.1155L86.6612 65.654L86.3624 65.1155L122.227 45.3133L100.029 33.7273L68.3647 52.7427C68.1731 52.8596 68.0148 53.0237 67.9049 53.2193C67.7951 53.4149 67.7374 53.6354 67.7374 53.8597C67.7374 54.084 67.7951 54.3045 67.9049 54.5001C68.0148 54.6957 68.1731 54.8598 68.3647 54.9767L85.0576 65.0734C85.2524 65.1939 85.4754 65.2612 85.7044 65.2686C85.9334 65.276 86.1603 65.2232 86.3624 65.1155Z" fill="#808184"/>
<path d="M85.8364 66.8196C85.2789 66.8387 84.7282 66.6923 84.2538 66.3989L67.5609 56.3022C67.1409 56.0486 66.7935 55.6909 66.5524 55.2638C66.3113 54.8367 66.1846 54.3546 66.1846 53.8642C66.1846 53.3738 66.3113 52.8917 66.5524 52.4646C66.7935 52.0375 67.1409 51.6798 67.5609 51.4263L99.9702 31.9648L100.126 32.0448L125.485 45.2841L87.1033 66.4746C86.7134 66.686 86.2797 66.8041 85.8364 66.8196ZM99.9954 32.6632L67.8892 51.948C67.5607 52.1465 67.2891 52.4265 67.1005 52.7607C66.912 53.0949 66.8129 53.4721 66.8129 53.8558C66.8129 54.2395 66.912 54.6167 67.1005 54.9509C67.2891 55.2851 67.5607 55.5651 67.8892 55.7637L84.5821 65.8604C84.9182 66.0623 85.3013 66.1728 85.6934 66.181C86.0855 66.1891 86.4729 66.0945 86.8171 65.9067L124.193 45.2925L99.9954 32.6632ZM86.392 65.8057L86.2278 65.507C86.0074 65.5791 85.7739 65.6024 85.5436 65.5755C85.3132 65.5487 85.0915 65.4722 84.8936 65.3514L68.2006 55.2546C67.9628 55.1107 67.7661 54.9079 67.6296 54.6658C67.4931 54.4237 67.4214 54.1505 67.4214 53.8726C67.4214 53.5947 67.4931 53.3216 67.6296 53.0795C67.7661 52.8374 67.9628 52.6345 68.2006 52.4906L100.008 33.3868L122.871 45.3261L86.775 65.2546L86.9223 65.5238L86.392 65.8057ZM100.042 34.0767L68.5248 53.0081C68.3793 53.0958 68.2586 53.2191 68.1739 53.3663C68.0892 53.5135 68.0434 53.6797 68.0407 53.8495C68.0422 54.019 68.087 54.1853 68.171 54.3326C68.255 54.4799 68.3753 54.6032 68.5205 54.6909L85.2134 64.8087C85.3649 64.8966 85.537 64.9429 85.7122 64.9429C85.8874 64.9429 86.0594 64.8966 86.211 64.8087L86.4845 64.6572L121.575 45.3051L100.042 34.0767Z" fill="#808184"/>
<path d="M124.79 45.3009L123.603 44.9728L130.422 20.4756L131.71 16.2223C131.782 15.915 131.932 15.6314 132.146 15.3992C132.359 15.167 132.63 14.9941 132.93 14.8971L138.453 12.7516C138.469 12.748 138.485 12.7391 138.496 12.7263C138.507 12.7134 138.514 12.6972 138.516 12.68C138.519 12.6643 138.518 12.6478 138.512 12.6327C138.506 12.6177 138.495 12.6049 138.482 12.5959L119.819 2.0785C119.677 1.98938 119.511 1.94808 119.344 1.96069L109.385 4.67001H109.343C109.244 4.68644 109.152 4.7308 109.077 4.79788C109.003 4.86497 108.949 4.95194 108.922 5.04859L100.395 33.2353L99.2119 32.8777L107.735 4.71628C107.825 4.39183 108.007 4.10018 108.258 3.87632C108.51 3.65246 108.821 3.5059 109.154 3.45419L119.121 0.74066H119.163C119.622 0.681394 120.087 0.782476 120.48 1.02676L139.151 11.5442C139.363 11.6787 139.532 11.8705 139.639 12.0974C139.747 12.3243 139.787 12.5768 139.756 12.8258C139.725 13.0748 139.624 13.3099 139.465 13.5038C139.306 13.6977 139.095 13.8424 138.857 13.9211L133.334 16.0667C133.234 16.0939 133.142 16.1471 133.068 16.2209C132.994 16.2947 132.941 16.3866 132.913 16.4874V16.5336L131.621 20.7995L124.79 45.3009Z" fill="#808184"/>
<path d="M125.005 45.6837L123.22 45.1872L130.123 20.3914L131.411 16.1381C131.498 15.7843 131.674 15.4583 131.921 15.1905C132.168 14.9228 132.479 14.722 132.825 14.6068L137.914 12.6295L119.639 2.32241C119.562 2.27052 119.47 2.24541 119.378 2.25093L109.432 4.95598H109.369C109.327 4.96162 109.287 4.97934 109.255 5.00698C109.223 5.03461 109.2 5.07096 109.188 5.11164L100.572 33.5802L98.7998 33.0459L107.411 4.58998C107.519 4.21594 107.731 3.8802 108.023 3.62179C108.314 3.36338 108.673 3.19292 109.057 3.13017L119.033 0.416644H119.096C119.622 0.350376 120.155 0.466187 120.607 0.7448L139.286 11.2622C139.552 11.4255 139.766 11.6617 139.902 11.9428C140.038 12.2238 140.091 12.5379 140.053 12.8479C140.016 13.1579 139.891 13.4506 139.692 13.6916C139.494 13.9325 139.23 14.1114 138.933 14.2071L133.394 16.3569C133.345 16.3727 133.301 16.4008 133.267 16.4384C133.232 16.4759 133.208 16.5217 133.196 16.5714V16.6261L131.899 20.9088L125.005 45.6837ZM123.982 44.7581L124.576 44.9222L131.31 20.7448L132.615 16.4326C132.65 16.281 132.724 16.1412 132.83 16.0269C132.935 15.9126 133.069 15.8276 133.217 15.7805L138.752 13.6308C138.935 13.5707 139.097 13.4598 139.219 13.311C139.341 13.1623 139.418 12.9818 139.442 12.7907C139.465 12.5997 139.434 12.4059 139.351 12.2321C139.268 12.0583 139.138 11.9116 138.975 11.8092L120.299 1.29173C119.967 1.08448 119.572 0.999646 119.184 1.0519L109.221 3.76543C108.949 3.80811 108.695 3.92729 108.489 4.10909C108.282 4.29089 108.132 4.52775 108.055 4.7919L99.6374 32.6631L100.227 32.8398L108.666 4.9644C108.71 4.80899 108.799 4.67007 108.921 4.56522C109.044 4.46038 109.196 4.39432 109.356 4.37542L119.319 1.66615H119.348C119.583 1.64799 119.818 1.70549 120.017 1.83023L138.693 12.3477C138.752 12.3877 138.799 12.4438 138.827 12.5094C138.855 12.575 138.864 12.6473 138.853 12.7179C138.844 12.7916 138.815 12.8613 138.768 12.9187C138.721 12.9762 138.658 13.0189 138.588 13.0418L133.053 15.1915C132.804 15.2738 132.581 15.4177 132.404 15.6097C132.226 15.8018 132.101 16.0357 132.038 16.2896L130.75 20.5428L123.982 44.7581Z" fill="#808184"/>
<path d="M85.6356 51.4679L85.0459 65.8311L86.2781 65.8816L86.8678 51.5184L85.6356 51.4679Z" fill="#808184"/>
<path d="M66.5619 38.0973L65.333 38.2007L66.6216 53.5062L67.8505 53.4029L66.5619 38.0973Z" fill="#808184"/>
<path d="M70.0576 41.6737L69.1953 41.7046L69.7482 57.1427L70.6104 57.1118L70.0576 41.6737Z" fill="#808184"/>
<path d="M74.8538 45.0964L74.6992 60.5444L75.5621 60.5531L75.7166 45.105L74.8538 45.0964Z" fill="#808184"/>
<path d="M77.6685 46.8186L77.4785 61.7227L78.3413 61.7336L78.5312 46.8295L77.6685 46.8186Z" fill="#808184"/>
<path d="M81.7519 48.989L81.4355 64.0845L82.2982 64.1025L82.6145 49.007L81.7519 48.989Z" fill="#808184"/>
<path d="M101.22 13.6598L100.357 13.6685L100.471 25.061L101.334 25.0523L101.22 13.6598Z" fill="#808184"/>
<path d="M109.266 9.70064L102.137 34.1963L102.965 34.4372L110.095 9.94154L109.266 9.70064Z" fill="#808184"/>
<path d="M112.394 11.6479L105.265 36.1436L106.093 36.3845L113.223 11.8888L112.394 11.6479Z" fill="#808184"/>
<path d="M105.13 14.9162L104.768 15.6987L129.406 27.1038L129.768 26.3213L105.13 14.9162Z" fill="#808184"/>
<path d="M115.544 13.1464L108.415 37.6421L109.244 37.883L116.373 13.3874L115.544 13.1464Z" fill="#808184"/>
<path d="M118.841 15.1455L111.712 39.6411L112.54 39.882L119.67 15.3864L118.841 15.1455Z" fill="#808184"/>
<path d="M122.392 17.1479L115.263 41.6436L116.091 41.8845L123.221 17.3888L122.392 17.1479Z" fill="#808184"/>
<path d="M126.453 18.706L119.323 43.2017L120.152 43.4426L127.281 18.9469L126.453 18.706Z" fill="#808184"/>
<path d="M99.9359 13.8005L99.0732 13.8193L99.4862 32.7336L100.349 32.7148L99.9359 13.8005Z" fill="#808184"/>
<path d="M96.4759 16.1125L95.6133 16.1313L96.0262 35.0456L96.8889 35.0268L96.4759 16.1125Z" fill="#808184"/>
<path d="M93.3831 18.0808L92.5205 18.0996L92.9334 37.0139L93.796 36.9951L93.3831 18.0808Z" fill="#808184"/>
<path d="M90.2728 20.1633L89.4102 20.1821L89.8231 39.0964L90.6857 39.0775L90.2728 20.1633Z" fill="#808184"/>
<path d="M87.057 22.4248L86.1943 22.4434L86.5958 41.1306L87.4585 41.1121L87.057 22.4248Z" fill="#808184"/>
<path d="M83.1538 25.3831L82.291 25.4004L82.665 44.0919L83.5278 44.0747L83.1538 25.3831Z" fill="#808184"/>
<path d="M81.0472 26.6875L80.1846 26.7056L80.5581 44.5308L81.4208 44.5127L81.0472 26.6875Z" fill="#808184"/>
<path d="M127.457 22.7582L126.595 22.7891L126.983 33.6361L127.846 33.6053L127.457 22.7582Z" fill="#808184"/>
<path d="M124.349 25.0971L123.486 25.1279L124.124 42.9415L124.987 42.9106L124.349 25.0971Z" fill="#808184"/>
<path d="M121.513 27.06L120.65 27.0908L121.349 46.5861L122.211 46.5552L121.513 27.06Z" fill="#808184"/>
<path d="M90.1524 49.7182L89.29 49.749L89.8036 64.0898L90.6659 64.059L90.1524 49.7182Z" fill="#808184"/>
<path d="M120.556 0.234878L119.486 2.12388C119.381 2.30787 119.446 2.54149 119.63 2.64567L137.031 12.4939C137.215 12.5981 137.449 12.5334 137.553 12.3494L138.623 10.4604C138.728 10.2764 138.663 10.0429 138.479 9.93869L121.078 0.0904138C120.894 -0.0137653 120.66 0.0508917 120.556 0.234878Z" fill="#808184"/>
<path d="M118.5 48.6699L116.926 48.3057L111.511 71.6925L113.086 72.0568L118.5 48.6699Z" fill="#808184"/>
<path d="M110.232 47.9134L89.4854 40.3072L101.948 14.4512L120.064 21.7923L110.232 47.9134Z" fill="#F4952F"/>
<path d="M114.937 48.9316L110.244 47.8841L120.064 21.7925L121.819 22.453L114.937 48.9316Z" fill="url(#paint30_linear_673_3171)"/>
<path d="M113.477 47.6317L110.244 47.8841L120.064 21.7925L121.053 22.1627L113.477 47.6317Z" fill="url(#paint31_linear_673_3171)"/>
<path d="M114.937 48.9316L113.46 47.354L110.244 47.8841L114.937 48.9316Z" fill="#F35919"/>
<path d="M115.429 21.3211L114.975 21.1486C113.893 24.0219 111.233 25.6921 109.048 24.8717C106.864 24.0514 105.963 21.0434 107.045 18.1701L106.59 17.9976C106.033 19.4101 105.956 20.9669 106.371 22.4275C106.523 23.0768 106.833 23.6786 107.273 24.1797C107.713 24.6807 108.27 25.0654 108.894 25.2997C109.519 25.534 110.191 25.6106 110.853 25.5228C111.514 25.4349 112.143 25.1853 112.685 24.796C113.956 23.9698 114.92 22.7488 115.429 21.3211Z" fill="#161616"/>
<path d="M107.559 18.1951C107.507 18.3307 107.417 18.448 107.299 18.532C107.18 18.6161 107.04 18.6632 106.895 18.6673C106.75 18.6715 106.607 18.6325 106.484 18.5554C106.361 18.4782 106.264 18.3664 106.205 18.2341C106.146 18.1017 106.128 17.9547 106.152 17.8118C106.177 17.6689 106.243 17.5365 106.343 17.4314C106.443 17.3263 106.572 17.2533 106.713 17.2215C106.855 17.1896 107.003 17.2005 107.138 17.2528C107.318 17.3225 107.464 17.4607 107.543 17.6372C107.622 17.8138 107.627 18.0143 107.559 18.1951Z" fill="black"/>
<path d="M115.884 21.4935C115.832 21.6291 115.742 21.7463 115.624 21.8303C115.506 21.9144 115.365 21.9615 115.22 21.9657C115.075 21.9698 114.932 21.9309 114.809 21.8538C114.687 21.7766 114.59 21.6648 114.53 21.5324C114.471 21.4 114.453 21.253 114.477 21.1101C114.502 20.9673 114.568 20.8349 114.668 20.7298C114.768 20.6247 114.897 20.5516 115.038 20.5198C115.18 20.488 115.328 20.4989 115.463 20.5512C115.553 20.5852 115.635 20.6366 115.705 20.7024C115.774 20.7683 115.83 20.8473 115.869 20.9349C115.909 21.0224 115.93 21.1169 115.932 21.2128C115.935 21.3086 115.918 21.404 115.884 21.4935Z" fill="black"/>
<path d="M103.189 30.1978L102.68 30.0674C103.06 28.5482 103.06 26.9588 102.68 25.4397C102.284 23.9673 101.539 22.9912 100.63 22.7556C99.7211 22.5201 98.5931 23.0207 97.5408 24.1229C96.4751 25.2683 95.7076 26.6582 95.3059 28.17L94.8008 28.0396C95.6131 24.8633 98.3953 21.645 100.761 22.2508C103.126 22.8566 104.002 27.0257 103.189 30.1978Z" fill="#161616"/>
<path d="M103.75 50.6309L80.6045 44.901L88.7068 24.4004L109.003 30.1513L103.75 50.6309Z" fill="url(#paint32_linear_673_3171)"/>
<path d="M108.914 51.1694L103.758 50.5972L109.002 30.1514L110.959 30.652L108.914 51.1694Z" fill="url(#paint33_linear_673_3171)"/>
<path d="M106.616 49.7979L103.758 50.5972L109.002 30.1514L109.895 30.3785L106.616 49.7979Z" fill="url(#paint34_linear_673_3171)"/>
<path d="M108.914 51.1693L106.616 49.7979L103.758 50.5972L108.914 51.1693Z" fill="#F4952F"/>
<path d="M103.973 30.1896L103.463 30.0592C104.36 26.5632 103.106 23.206 100.664 22.5834C98.2232 21.9608 95.5084 24.2956 94.6119 27.7916L94.1025 27.6612C94.5118 25.9432 95.4371 24.3915 96.7542 23.2144C98.0169 22.1375 99.4606 21.7336 100.795 22.0744C102.129 22.4151 103.194 23.4585 103.787 25.0193C104.378 26.6829 104.443 28.4879 103.973 30.1896Z" fill="#161616"/>
<path d="M95.1634 27.7617C95.1245 27.9122 95.0419 28.0479 94.9259 28.1515C94.81 28.2551 94.6659 28.3221 94.5119 28.3439C94.3579 28.3658 94.2009 28.3415 94.0607 28.2742C93.9204 28.2069 93.8033 28.0996 93.7241 27.9659C93.6448 27.8321 93.607 27.6778 93.6154 27.5226C93.6238 27.3673 93.678 27.2181 93.7712 27.0936C93.8644 26.9691 93.9925 26.8751 94.1391 26.8233C94.2858 26.7715 94.4445 26.7643 94.5952 26.8026C94.6956 26.8281 94.7901 26.8732 94.873 26.9352C94.956 26.9973 95.0258 27.0751 95.0786 27.1642C95.1314 27.2533 95.1661 27.352 95.1806 27.4545C95.1952 27.5571 95.1893 27.6614 95.1634 27.7617Z" fill="black"/>
<path d="M104.405 30.5837C104.634 30.2111 104.517 29.7242 104.144 29.4961C103.771 29.268 103.284 29.3851 103.056 29.7576C102.828 30.1301 102.945 30.617 103.317 30.8451C103.69 31.0732 104.177 30.9562 104.405 30.5837Z" fill="black"/>
<path d="M86.7325 52.1751C86.1909 52.1954 85.6553 52.0564 85.192 51.7754L66.7271 40.6816C66.3364 40.4434 66.0102 40.113 65.7772 39.7193C65.5441 39.3256 65.4114 38.8807 65.3906 38.4237C65.3698 37.9668 65.4616 37.5117 65.658 37.0985C65.8543 36.6853 66.1491 36.3266 66.5166 36.054L106.717 7.60645L131.057 20.6481L88.2729 51.6787C87.8193 51.9917 87.2836 52.1643 86.7325 52.1751ZM106.809 9.03683L67.2448 37.0342C67.0386 37.1866 66.8733 37.3874 66.7634 37.619C66.6536 37.8506 66.6027 38.1056 66.6152 38.3616C66.6277 38.6176 66.7032 38.8665 66.8351 39.0863C66.9669 39.306 67.151 39.4899 67.3711 39.6215L85.8317 50.7195C86.0941 50.8781 86.3976 50.9556 86.704 50.9421C87.0103 50.9286 87.3058 50.8248 87.5532 50.6437L128.738 20.7742L106.809 9.03683Z" fill="#808184"/>
<path d="M86.745 52.4821C86.1453 52.5103 85.5503 52.3642 85.0319 52.0614L66.5712 40.9677C66.1323 40.7046 65.7652 40.337 65.5029 39.8977C65.2405 39.4584 65.091 38.961 65.0677 38.4499C65.0443 37.9388 65.1479 37.4299 65.3691 36.9686C65.5903 36.5072 65.9223 36.1077 66.3355 35.8057L106.696 7.24463L131.634 20.5975L88.4539 51.9142C87.9543 52.2708 87.3587 52.4687 86.745 52.4821ZM106.742 7.95137L66.6933 36.2853C66.3648 36.5287 66.1013 36.8492 65.9261 37.2184C65.7508 37.5877 65.6691 37.9943 65.6882 38.4026C65.7074 38.8108 65.8267 39.208 66.0358 39.5593C66.2448 39.9105 66.5371 40.2049 66.8869 40.4166L85.3518 51.5104C85.7689 51.764 86.252 51.8882 86.7397 51.8672C87.2275 51.8463 87.6981 51.681 88.0919 51.3926L130.477 20.6565L106.742 7.95137ZM86.6987 51.2495C86.3379 51.2622 85.9813 51.1701 85.6717 50.9845L67.2068 39.8865C66.9437 39.7284 66.7235 39.508 66.5659 39.2446C66.4082 38.9813 66.3179 38.6832 66.3029 38.3767C66.288 38.0702 66.3488 37.7647 66.48 37.4872C66.6112 37.2098 66.8088 36.9689 67.0553 36.786L106.788 8.67496L129.315 20.7322L87.7299 50.8962C87.4293 51.1145 87.0701 51.2376 86.6987 51.2495ZM106.83 9.3986L67.4173 37.2866C67.2561 37.4111 67.1275 37.5728 67.0424 37.7578C66.9574 37.9428 66.9183 38.1457 66.9286 38.349C66.939 38.5523 66.9984 38.7502 67.1018 38.9256C67.2052 39.101 67.3495 39.2488 67.5225 39.3564L85.9874 50.4544C86.1983 50.5797 86.4412 50.6409 86.6864 50.6305C86.9316 50.62 87.1684 50.5383 87.3679 50.3955L128.153 20.8121L106.83 9.3986Z" fill="#808184"/>
<path d="M104.48 39.2577L103.617 39.2886L104.205 55.7147L105.068 55.6839L104.48 39.2577Z" fill="#808184"/>
<path d="M108.011 36.8398L107.148 36.8706L107.762 53.9988L108.624 53.968L108.011 36.8398Z" fill="#808184"/>
<path d="M111.447 34.2738L110.585 34.3047L111.222 52.0804L112.084 52.0495L111.447 34.2738Z" fill="#808184"/>
<path d="M114.876 31.8007L114.014 31.8315L114.674 50.2799L115.537 50.2491L114.876 31.8007Z" fill="#808184"/>
<path d="M118.181 29.5297L117.318 29.5605L117.979 48.0089L118.841 47.9781L118.181 29.5297Z" fill="#808184"/>
<path d="M120.274 27.4844C120.146 27.7425 120.006 27.9938 119.853 28.2374L127.08 31.603L86.3027 57.7788L86.7699 58.5066L128.86 31.481L120.274 27.4844Z" fill="#808184"/>
<path d="M100.916 42.2992L100.054 42.3301L100.593 57.394L101.455 57.3631L100.916 42.2992Z" fill="#808184"/>
<path d="M97.4971 44.5531L96.6348 44.584L97.1742 59.6479L98.0365 59.6171L97.4971 44.5531Z" fill="#808184"/>
<path d="M93.917 46.9936L93.0547 47.0244L93.5942 62.0884L94.4565 62.0575L93.917 46.9936Z" fill="#808184"/>
<defs>
<linearGradient id="paint0_linear_673_3171" x1="192.76" y1="60.3227" x2="59.148" y2="174.195" gradientUnits="userSpaceOnUse">
<stop stop-color="#F1F1F2"/>
<stop offset="1" stop-color="#BBBDBF"/>
</linearGradient>
<radialGradient id="paint1_radial_673_3171" cx="0" cy="0" r="1" gradientUnits="userSpaceOnUse" gradientTransform="translate(97.13 93.7473) rotate(63.749) scale(22.6834 100.53)">
<stop stop-color="#A3A1A1"/>
<stop offset="0.3" stop-color="#C9C8C8"/>
<stop offset="0.58" stop-color="#E7E6E6"/>
<stop offset="0.83" stop-color="#F9F8F8"/>
<stop offset="1" stop-color="white"/>
</radialGradient>
<radialGradient id="paint2_radial_673_3171" cx="0" cy="0" r="1" gradientUnits="userSpaceOnUse" gradientTransform="translate(88.0837 76.7309) scale(54.5487 54.5223)">
<stop/>
<stop offset="0.25" stop-color="#141414"/>
<stop offset="0.32" stop-color="#818181"/>
<stop offset="0.38" stop-color="#474747"/>
<stop offset="0.44" stop-color="#141414"/>
<stop offset="0.47"/>
<stop offset="0.52" stop-color="#4B4B4B"/>
<stop offset="0.61" stop-color="#CBCBCB"/>
<stop offset="0.65" stop-color="white"/>
<stop offset="0.82" stop-color="#7D7D7D"/>
<stop offset="0.94" stop-color="#232323"/>
<stop offset="1"/>
</radialGradient>
<linearGradient id="paint3_linear_673_3171" x1="111.374" y1="82.5716" x2="110.623" y2="81.3403" gradientUnits="userSpaceOnUse">
<stop stop-color="#6A6A6A"/>
<stop offset="0.22" stop-color="#484848"/>
<stop offset="0.98"/>
</linearGradient>
<linearGradient id="paint4_linear_673_3171" x1="41.7248" y1="111.182" x2="42.7159" y2="109.467" gradientUnits="userSpaceOnUse">
<stop stop-color="#6D6E71"/>
<stop offset="0.18" stop-color="#3A3738"/>
<stop offset="0.39" stop-color="#231F20"/>
<stop offset="0.65" stop-color="#110F10"/>
<stop offset="0.98"/>
</linearGradient>
<linearGradient id="paint5_linear_673_3171" x1="141.865" y1="48.5836" x2="141.296" y2="49.5174" gradientUnits="userSpaceOnUse">
<stop offset="0.02" stop-color="#858688"/>
<stop offset="0.42" stop-color="#58595B"/>
<stop offset="0.76" stop-color="#231F20"/>
<stop offset="0.86" stop-color="#110F10"/>
<stop offset="0.98"/>
</linearGradient>
<linearGradient id="paint6_linear_673_3171" x1="136.005" y1="79.3921" x2="150.097" y2="70.7264" gradientUnits="userSpaceOnUse">
<stop stop-color="#6D6E71"/>
<stop offset="0.18" stop-color="#3A3738"/>
<stop offset="0.39" stop-color="#231F20"/>
<stop offset="0.47" stop-color="#514E4F"/>
<stop offset="0.64" stop-color="#ACACAD"/>
<stop offset="0.72" stop-color="#D0D2D3"/>
<stop offset="0.8" stop-color="#868788"/>
<stop offset="0.89" stop-color="#3E3F3F"/>
<stop offset="0.95" stop-color="#111112"/>
<stop offset="0.98"/>
</linearGradient>
<linearGradient id="paint7_linear_673_3171" x1="151.905" y1="69.5191" x2="135.668" y2="79.2348" gradientUnits="userSpaceOnUse">
<stop offset="0.07" stop-color="#211D1E"/>
<stop offset="0.1" stop-color="#292627"/>
<stop offset="0.18" stop-color="#3A3738"/>
<stop offset="0.31" stop-color="#6D6E71"/>
<stop offset="0.47" stop-color="#231F20"/>
<stop offset="0.98"/>
</linearGradient>
<radialGradient id="paint8_radial_673_3171" cx="0" cy="0" r="1" gradientUnits="userSpaceOnUse" gradientTransform="translate(-859968 -430247) rotate(122.112) scale(388.51 7644.05)">
<stop stop-color="#A3A1A1"/>
<stop offset="0.3" stop-color="#C9C8C8"/>
<stop offset="0.58" stop-color="#E7E6E6"/>
<stop offset="0.83" stop-color="#F9F8F8"/>
<stop offset="1" stop-color="white"/>
</radialGradient>
<radialGradient id="paint9_radial_673_3171" cx="0" cy="0" r="1" gradientUnits="userSpaceOnUse" gradientTransform="translate(15407.9 379174) rotate(76.7338) scale(4013.09 3994.23)">
<stop stop-color="#A3A1A1"/>
<stop offset="0.3" stop-color="#C9C8C8"/>
<stop offset="0.58" stop-color="#E7E6E6"/>
<stop offset="0.83" stop-color="#F9F8F8"/>
<stop offset="1" stop-color="white"/>
</radialGradient>
<radialGradient id="paint10_radial_673_3171" cx="0" cy="0" r="1" gradientUnits="userSpaceOnUse" gradientTransform="translate(119.693 73.563) rotate(-28.0985) scale(3.66279 3.06477)">
<stop stop-color="white"/>
<stop offset="0.01" stop-color="#F5F5F5"/>
<stop offset="0.1" stop-color="#B7B6B6"/>
<stop offset="0.19" stop-color="#868485"/>
<stop offset="0.26" stop-color="#636061"/>
<stop offset="0.32" stop-color="#4D4A4B"/>
<stop offset="0.36" stop-color="#454243"/>
<stop offset="0.4" stop-color="#3C393A"/>
<stop offset="0.54" stop-color="#222021"/>
<stop offset="0.69" stop-color="#0F0E0E"/>
<stop offset="0.84" stop-color="#040304"/>
<stop offset="1"/>
</radialGradient>
<linearGradient id="paint11_linear_673_3171" x1="119.143" y1="73.5237" x2="122.11" y2="73.4172" gradientUnits="userSpaceOnUse">
<stop stop-color="white"/>
<stop offset="1"/>
</linearGradient>
<linearGradient id="paint12_linear_673_3171" x1="117.677" y1="72.6956" x2="120.386" y2="72.5985" gradientUnits="userSpaceOnUse">
<stop/>
<stop offset="1" stop-color="white"/>
</linearGradient>
<linearGradient id="paint13_linear_673_3171" x1="2628.56" y1="1335.77" x2="2632.46" y2="1335.63" gradientUnits="userSpaceOnUse">
<stop stop-color="white"/>
<stop offset="1"/>
</linearGradient>
<linearGradient id="paint14_linear_673_3171" x1="2408.23" y1="1235.1" x2="2411.49" y2="1234.98" gradientUnits="userSpaceOnUse">
<stop/>
<stop offset="1" stop-color="white"/>
</linearGradient>
<radialGradient id="paint15_radial_673_3171" cx="0" cy="0" r="1" gradientUnits="userSpaceOnUse" gradientTransform="translate(3974.84 1563.76) rotate(-28.0985) scale(69.0802 40.2711)">
<stop stop-color="white"/>
<stop offset="0.01" stop-color="#F5F5F5"/>
<stop offset="0.1" stop-color="#B7B6B6"/>
<stop offset="0.19" stop-color="#868485"/>
<stop offset="0.26" stop-color="#636061"/>
<stop offset="0.32" stop-color="#4D4A4B"/>
<stop offset="0.36" stop-color="#454243"/>
<stop offset="0.4" stop-color="#3C393A"/>
<stop offset="0.54" stop-color="#222021"/>
<stop offset="0.69" stop-color="#0F0E0E"/>
<stop offset="0.84" stop-color="#040304"/>
<stop offset="1"/>
</radialGradient>
<linearGradient id="paint16_linear_673_3171" x1="6072.91" y1="2926.35" x2="6094.93" y2="2925.56" gradientUnits="userSpaceOnUse">
<stop stop-color="white"/>
<stop offset="1"/>
</linearGradient>
<linearGradient id="paint17_linear_673_3171" x1="5232.01" y1="2991.02" x2="5249.32" y2="2990.4" gradientUnits="userSpaceOnUse">
<stop/>
<stop offset="1" stop-color="white"/>
</linearGradient>
<linearGradient id="paint18_linear_673_3171" x1="2530.01" y1="1380.84" x2="2533.9" y2="1380.7" gradientUnits="userSpaceOnUse">
<stop stop-color="white"/>
<stop offset="1"/>
</linearGradient>
<linearGradient id="paint19_linear_673_3171" x1="2315.91" y1="1277.38" x2="2319.17" y2="1277.27" gradientUnits="userSpaceOnUse">
<stop/>
<stop offset="1" stop-color="white"/>
</linearGradient>
<radialGradient id="paint20_radial_673_3171" cx="0" cy="0" r="1" gradientUnits="userSpaceOnUse" gradientTransform="translate(3648.13 1411.92) rotate(-28.0985) scale(69.0801 40.2711)">
<stop stop-color="white"/>
<stop offset="0.01" stop-color="#F5F5F5"/>
<stop offset="0.1" stop-color="#B7B6B6"/>
<stop offset="0.19" stop-color="#868485"/>
<stop offset="0.26" stop-color="#636061"/>
<stop offset="0.32" stop-color="#4D4A4B"/>
<stop offset="0.36" stop-color="#454243"/>
<stop offset="0.4" stop-color="#3C393A"/>
<stop offset="0.54" stop-color="#222021"/>
<stop offset="0.69" stop-color="#0F0E0E"/>
<stop offset="0.84" stop-color="#040304"/>
<stop offset="1"/>
</radialGradient>
<linearGradient id="paint21_linear_673_3171" x1="5911.6" y1="2844.54" x2="5933.61" y2="2843.75" gradientUnits="userSpaceOnUse">
<stop stop-color="white"/>
<stop offset="1"/>
</linearGradient>
<linearGradient id="paint22_linear_673_3171" x1="5386.23" y1="2608.74" x2="5404.6" y2="2608.08" gradientUnits="userSpaceOnUse">
<stop/>
<stop offset="1" stop-color="white"/>
</linearGradient>
<linearGradient id="paint23_linear_673_3171" x1="2456.89" y1="1341.89" x2="2460.78" y2="1341.75" gradientUnits="userSpaceOnUse">
<stop stop-color="white"/>
<stop offset="1"/>
</linearGradient>
<linearGradient id="paint24_linear_673_3171" x1="2241.83" y1="1238.27" x2="2245.09" y2="1238.15" gradientUnits="userSpaceOnUse">
<stop/>
<stop offset="1" stop-color="white"/>
</linearGradient>
<radialGradient id="paint25_radial_673_3171" cx="0" cy="0" r="1" gradientUnits="userSpaceOnUse" gradientTransform="translate(4033.88 1176.5) rotate(-28.0985) scale(69.0802 40.2708)">
<stop stop-color="white"/>
<stop offset="0.01" stop-color="#F5F5F5"/>
<stop offset="0.1" stop-color="#B7B6B6"/>
<stop offset="0.19" stop-color="#868485"/>
<stop offset="0.26" stop-color="#636061"/>
<stop offset="0.32" stop-color="#4D4A4B"/>
<stop offset="0.36" stop-color="#454243"/>
<stop offset="0.4" stop-color="#3C393A"/>
<stop offset="0.54" stop-color="#222021"/>
<stop offset="0.69" stop-color="#0F0E0E"/>
<stop offset="0.84" stop-color="#040304"/>
<stop offset="1"/>
</radialGradient>
<linearGradient id="paint26_linear_673_3171" x1="6065.14" y1="2763.4" x2="6087.11" y2="2762.61" gradientUnits="userSpaceOnUse">
<stop stop-color="white"/>
<stop offset="1"/>
</linearGradient>
<linearGradient id="paint27_linear_673_3171" x1="5539.5" y1="2538.32" x2="5557.86" y2="2537.67" gradientUnits="userSpaceOnUse">
<stop/>
<stop offset="1" stop-color="white"/>
</linearGradient>
<linearGradient id="paint28_linear_673_3171" x1="2384.55" y1="1428.52" x2="2388.2" y2="1428.39" gradientUnits="userSpaceOnUse">
<stop stop-color="white"/>
<stop offset="1"/>
</linearGradient>
<linearGradient id="paint29_linear_673_3171" x1="2181.94" y1="1343.82" x2="2185" y2="1343.71" gradientUnits="userSpaceOnUse">
<stop/>
<stop offset="1" stop-color="white"/>
</linearGradient>
<linearGradient id="paint30_linear_673_3171" x1="115.033" y1="34.8344" x2="119.488" y2="36.5114" gradientUnits="userSpaceOnUse">
<stop stop-color="#F6CB4F"/>
<stop offset="0.13" stop-color="#F5A83F"/>
<stop offset="0.27" stop-color="#F48C31"/>
<stop offset="0.41" stop-color="#F47526"/>
<stop offset="0.57" stop-color="#F3651F"/>
<stop offset="0.75" stop-color="#F35C1A"/>
<stop offset="1" stop-color="#F35919"/>
</linearGradient>
<linearGradient id="paint31_linear_673_3171" x1="114.909" y1="34.7924" x2="117.422" y2="35.6798" gradientUnits="userSpaceOnUse">
<stop stop-color="#F4AA4A"/>
<stop offset="0.01" stop-color="#F4A849"/>
<stop offset="0.17" stop-color="#F48C38"/>
<stop offset="0.33" stop-color="#F3752A"/>
<stop offset="0.51" stop-color="#F36520"/>
<stop offset="0.72" stop-color="#F35C1B"/>
<stop offset="1" stop-color="#F35919"/>
</linearGradient>
<linearGradient id="paint32_linear_673_3171" x1="92.1008" y1="47.8814" x2="97.5294" y2="26.6975" gradientUnits="userSpaceOnUse">
<stop stop-color="#F4952F"/>
<stop offset="0.03" stop-color="#F59932"/>
<stop offset="0.23" stop-color="#F8B041"/>
<stop offset="0.44" stop-color="#FAC04C"/>
<stop offset="0.67" stop-color="#FCC952"/>
<stop offset="1" stop-color="#FCCC54"/>
</linearGradient>
<linearGradient id="paint33_linear_673_3171" x1="106.326" y1="40.3957" x2="111.3" y2="41.6716" gradientUnits="userSpaceOnUse">
<stop stop-color="#F4AA4A"/>
<stop offset="0.32" stop-color="#F0AF4B"/>
<stop offset="1" stop-color="#EEB24B"/>
</linearGradient>
<linearGradient id="paint34_linear_673_3171" x1="106.249" y1="40.3759" x2="108.519" y2="40.9104" gradientUnits="userSpaceOnUse">
<stop stop-color="#F4952F"/>
<stop offset="0.01" stop-color="#F49630"/>
<stop offset="0.28" stop-color="#F1A63F"/>
<stop offset="0.58" stop-color="#EFAF48"/>
<stop offset="1" stop-color="#EEB24B"/>
</linearGradient>
</defs>
</svg>
