<svg width="178" height="140" viewBox="0 0 178 140" fill="none" xmlns="http://www.w3.org/2000/svg">
<path d="M0.588968 82.7061C9.22842 63.7955 53.2242 66.8692 53.2242 66.8692C53.2242 66.8692 85.8599 42.9133 98.0427 37.259C113.953 29.8775 149.294 21.422 167.463 47.5899C174.778 60.1288 192.515 89.5907 146.549 101.757C135.746 105.428 114.603 112.316 104.949 123.797C99.5434 126.67 90.4666 146.519 52.5461 137.799C22.4264 127.464 -4.30659 100.979 0.588968 82.7061Z" fill="url(#paint0_linear_673_3724)"/>
<path style="mix-blend-mode:multiply" d="M89.9733 120.142C92.2229 115.958 78.9649 104.479 60.3607 94.5049C41.7565 84.5304 24.8512 79.8367 22.6016 84.0213C20.352 88.2059 33.6099 99.6841 52.2141 109.659C70.8183 119.633 87.7236 124.327 89.9733 120.142Z" fill="url(#paint1_radial_673_3724)"/>
<path style="mix-blend-mode:multiply" d="M115.269 104.138C141.593 88.9595 161.006 73.3208 158.628 69.2077C156.25 65.0945 132.982 74.0643 106.657 89.2423C80.3326 104.42 60.9199 120.059 63.2979 124.172C65.6758 128.285 88.944 119.316 115.269 104.138Z" fill="url(#paint2_radial_673_3724)"/>
<path d="M39.3846 89.8794L101.582 54.0259L143.291 78.0698L143.178 77.4888L145.827 77.0881V79.1198C145.837 79.4753 145.751 79.827 145.576 80.137C145.401 80.4469 145.145 80.7035 144.836 80.879L83.1677 116.448C82.1546 117.033 81.0052 117.34 79.8351 117.34C78.6651 117.34 77.5156 117.033 76.5025 116.448L33.6143 91.7188V89.639L39.3846 89.8794Z" fill="#CCCBCB"/>
<path d="M144.828 78.8191L83.1677 114.372C82.1541 114.955 81.0049 115.262 79.8351 115.262C78.6654 115.262 77.5162 114.955 76.5025 114.372L33.6143 89.6389L101.582 50.4512L144.836 75.3888C145.138 75.5623 145.389 75.8126 145.563 76.1142C145.738 76.4158 145.829 76.758 145.828 77.1063C145.827 77.4545 145.734 77.7963 145.559 78.0971C145.383 78.3979 145.131 78.6469 144.828 78.8191Z" fill="#F3F2F4"/>
<path d="M36.5434 36.0048L98.5243 0.275477C98.8467 0.0865969 99.2155 -0.0085949 99.5891 0.00060958C99.9628 0.00981406 100.326 0.123051 100.639 0.327575L102.389 1.33342L101.843 2.01063L101.574 2.05075V50.4673L37.6188 87.3347L37.7592 87.5992L35.5041 90.7449L33.6141 89.6389L33.586 41.1502C33.5831 40.1088 33.855 39.0849 34.3741 38.1817C34.8933 37.2785 35.6414 36.5277 36.5434 36.0048Z" fill="#151515"/>
<path d="M103.472 51.5692V3.1166C103.471 2.76061 103.377 2.41115 103.198 2.10317C103.019 1.79519 102.762 1.53953 102.453 1.36178C102.145 1.18402 101.794 1.0904 101.438 1.09033C101.082 1.09027 100.731 1.18374 100.422 1.36138L38.4294 37.0988C37.5264 37.6194 36.7766 38.3682 36.2553 39.2701C35.7341 40.1719 35.4598 41.1949 35.46 42.2361L35.4921 90.7248L103.472 51.5692Z" fill="url(#paint3_linear_673_3724)"/>
<path d="M100.98 50.4592L37.6992 86.9539V40.2365L100.98 3.70166V50.4592Z" fill="white"/>
<path d="M51.5354 87.8835L47.7875 90.0594L45.6768 88.8532L49.4247 86.6772L51.5354 87.8835Z" fill="#151515"/>
<path d="M57.5017 90.4806L53.0476 93.0693L49.0469 90.7811L53.501 88.1924L57.5017 90.4806Z" fill="#151515"/>
<path d="M63.0721 87.2423L58.6179 89.831L54.6172 87.5428L59.0713 84.9541L63.0721 87.2423Z" fill="#151515"/>
<path d="M68.6454 84.0045L64.1912 86.5932L60.1865 84.305L64.6407 81.7163L68.6454 84.0045Z" fill="#151515"/>
<path d="M74.2146 80.7667L69.7605 83.3554L65.7598 81.0672L70.2099 78.4785L74.2146 80.7667Z" fill="#151515"/>
<path d="M79.7849 77.5328L75.3308 80.1175L71.3301 77.8294L75.7842 75.2446L79.7849 77.5328Z" fill="#151515"/>
<path d="M85.3583 74.295L80.9041 76.8838L76.8994 74.5956L81.3536 72.0068L85.3583 74.295Z" fill="#151515"/>
<path d="M90.9276 71.0567L86.4735 73.6455L82.4688 71.3573L86.9229 68.7686L90.9276 71.0567Z" fill="#151515"/>
<path d="M96.4978 67.8189L92.0437 70.4077L88.043 68.1195L92.4971 65.5308L96.4978 67.8189Z" fill="#151515"/>
<path d="M76.8631 91.3659L72.4089 93.9547L68.4082 91.6625L72.8623 89.0737L76.8631 91.3659Z" fill="#151515"/>
<path d="M82.4334 88.128L77.9832 90.7168L73.9785 88.4286L78.4327 85.8398L82.4334 88.128Z" fill="#151515"/>
<path d="M88.0067 84.8902L83.5526 87.479L79.5479 85.1908L84.002 82.6021L88.0067 84.8902Z" fill="#151515"/>
<path d="M93.5769 81.6524L89.1228 84.2412L85.1221 81.953L89.5762 79.3643L93.5769 81.6524Z" fill="#151515"/>
<path d="M99.1463 78.4142L94.6961 81.0029L90.6914 78.7147L95.1456 76.126L99.1463 78.4142Z" fill="#151515"/>
<path d="M106.947 73.8819L100.265 77.765L96.2607 75.4769L102.946 71.5938L106.947 73.8819Z" fill="#151515"/>
<path d="M102.039 64.5973L97.6454 67.1539L93.6406 64.8658L98.0346 62.3091L102.039 64.5973Z" fill="#151515"/>
<path d="M107.721 61.295L103.327 63.8517L99.3223 61.5595L103.72 59.0068L107.721 61.295Z" fill="#151515"/>
<path d="M62.7665 93.4898L58.3123 96.0786L54.3076 93.7904L58.7618 91.2017L62.7665 93.4898Z" fill="#151515"/>
<path d="M68.3367 90.252L63.8825 92.8408L59.8818 90.5526L64.336 87.9639L68.3367 90.252Z" fill="#151515"/>
<path d="M117.914 73.6897L113.464 76.2744L109.459 73.9862L113.913 71.3975L117.914 73.6897Z" fill="#151515"/>
<path d="M123.487 70.4519L119.033 73.0406L115.028 70.7484L119.482 68.1597L123.487 70.4519Z" fill="#151515"/>
<path d="M112.212 76.8917L80.0818 95.5618L76.0811 93.2737L108.207 74.6035L112.212 76.8917Z" fill="#151515"/>
<path d="M73.906 87.0143L69.4519 89.603L65.4512 87.3148L69.9053 84.7261L73.906 87.0143Z" fill="#151515"/>
<path d="M79.4794 83.776L75.0252 86.3647L71.0205 84.0765L75.4747 81.4878L79.4794 83.776Z" fill="#151515"/>
<path d="M85.0497 80.5422L80.5955 83.1269L76.5908 80.8387L81.045 78.25L85.0497 80.5422Z" fill="#151515"/>
<path d="M90.6189 77.3043L86.1648 79.889L82.1641 77.6008L86.6182 75.0161L90.6189 77.3043Z" fill="#151515"/>
<path d="M96.1892 74.0665L91.7391 76.6512L87.7344 74.367L92.1885 71.7783L96.1892 74.0665Z" fill="#151515"/>
<path d="M101.763 70.8287L97.3084 73.4174L93.3037 71.1293L97.7579 68.5405L101.763 70.8287Z" fill="#151515"/>
<path d="M112.93 64.3365L102.91 70.1592L98.9053 67.871L108.925 62.0483L112.93 64.3365Z" fill="#151515"/>
<path d="M118.195 67.3463L107.634 73.4815L103.633 71.1933L114.19 65.0581L118.195 67.3463Z" fill="#151515"/>
<path d="M78.9184 95.9663L68.3569 102.106L66.3545 100.959L76.9161 94.8242L78.9184 95.9663Z" fill="#151515"/>
<path d="M75.4228 97.9981L71.8474 100.074L67.8467 97.7858L71.422 95.71L75.4228 97.9981Z" fill="#151515"/>
<path d="M71.3738 94.5558L63.573 99.088L59.5723 96.7999L67.369 92.2676L71.3738 94.5558Z" fill="#151515"/>
<path d="M56.6194 84.9264L52.8714 87.1064L50.7607 85.9002L54.5127 83.7202L56.6194 84.9264Z" fill="#151515"/>
<path d="M61.7072 81.9689L57.9593 84.1489L55.8486 82.9427L59.5965 80.7627L61.7072 81.9689Z" fill="#151515"/>
<path d="M66.7951 79.0153L63.0472 81.1913L60.9365 79.9851L64.6844 77.8091L66.7951 79.0153Z" fill="#151515"/>
<path d="M71.884 76.0583L68.1321 78.2342L66.0254 77.028L69.7733 74.8521L71.884 76.0583Z" fill="#151515"/>
<path d="M76.968 73.1007L73.2201 75.2807L71.1094 74.0745L74.8573 71.8945L76.968 73.1007Z" fill="#151515"/>
<path d="M82.0559 70.1432L78.308 72.3232L76.1973 71.117L79.9452 68.937L82.0559 70.1432Z" fill="#151515"/>
<path d="M87.1438 67.1901L83.3959 69.3661L81.2852 68.1599L85.0331 65.9839L87.1438 67.1901Z" fill="#151515"/>
<path d="M92.2278 64.2326L88.4798 66.4126L86.3691 65.2023L90.117 63.0264L92.2278 64.2326Z" fill="#151515"/>
<path d="M97.3166 61.2751L93.5687 63.455L91.458 62.2488L95.2059 60.0688L97.3166 61.2751Z" fill="#151515"/>
<path d="M102.405 58.3175L98.6566 60.4975L96.5459 59.2913L100.294 57.1113L102.405 58.3175Z" fill="#151515"/>
<path d="M86.5825 93.5862L108.468 80.9671C108.787 80.7839 109.148 80.6875 109.515 80.6875C109.883 80.6875 110.244 80.7839 110.563 80.9671L120.105 86.4251C120.219 86.4903 120.314 86.5845 120.38 86.6981C120.446 86.8118 120.481 86.9409 120.481 87.0723C120.481 87.2037 120.446 87.3328 120.38 87.4464C120.314 87.5601 120.219 87.6543 120.105 87.7194L98.1553 100.375C97.8503 100.55 97.5043 100.643 97.1521 100.643C96.7999 100.643 96.4539 100.55 96.1489 100.375L86.5825 94.9086C86.4668 94.8412 86.3708 94.7447 86.304 94.6287C86.2373 94.5126 86.2021 94.3812 86.2021 94.2474C86.2021 94.1136 86.2373 93.9822 86.304 93.8661C86.3708 93.7501 86.4668 93.6536 86.5825 93.5862Z" fill="#E0E1E1"/>
<path d="M63.0674 64.4006V60.5095L81.5862 49.834V53.7171L63.0674 64.4006Z" fill="#808184"/>
<path d="M81.5867 49.8339L81.39 49.7217L62.8672 60.4012L63.0678 60.5094L81.5867 49.8339Z" fill="#808184"/>
<path d="M63.0678 60.5096L62.8672 60.4014V64.2845L63.0678 64.4007V60.5096Z" fill="#A6A8AB"/>
<path d="M79.2793 53.573C79.2793 53.8014 79.4198 53.9096 79.5883 53.8094C79.6833 53.7437 79.7612 53.6564 79.8157 53.5547C79.8701 53.4529 79.8994 53.3397 79.9013 53.2243C79.9013 52.9959 79.7608 52.8917 79.5883 52.9879C79.4943 53.0542 79.4172 53.1418 79.3635 53.2435C79.3099 53.3451 79.281 53.458 79.2793 53.573Z" fill="white"/>
<path d="M78.2637 54.1462C78.2637 54.3746 78.4041 54.4788 78.5726 54.3826C78.6674 54.3168 78.7452 54.2294 78.7996 54.1277C78.854 54.026 78.8835 53.9129 78.8857 53.7976C78.8857 53.5692 78.7452 53.4609 78.5726 53.5571C78.4785 53.6243 78.4015 53.7126 78.3479 53.8149C78.2942 53.9172 78.2654 54.0307 78.2637 54.1462Z" fill="white"/>
<path d="M77.249 54.7151C77.249 54.9435 77.3895 55.0517 77.562 54.9555C77.6561 54.8883 77.7331 54.8001 77.7868 54.6977C77.8405 54.5954 77.8693 54.4819 77.871 54.3664C77.871 54.138 77.7306 54.0338 77.562 54.13C77.4673 54.1959 77.3895 54.2833 77.3351 54.385C77.2807 54.4867 77.2512 54.5998 77.249 54.7151Z" fill="white"/>
<path d="M76.2334 55.2883C76.2334 55.5167 76.3738 55.6209 76.5464 55.5247C76.6404 55.4584 76.7174 55.3708 76.7711 55.2691C76.8248 55.1675 76.8537 55.0546 76.8554 54.9396C76.8554 54.7112 76.7149 54.603 76.5464 54.6992C76.4515 54.7659 76.3738 54.854 76.3194 54.9564C76.265 55.0587 76.2356 55.1724 76.2334 55.2883Z" fill="white"/>
<path d="M75.2178 55.8571C75.2178 56.0855 75.3582 56.1937 75.5308 56.0975C75.6249 56.0304 75.7019 55.9421 75.7555 55.8397C75.8092 55.7374 75.838 55.6239 75.8397 55.5084C75.8397 55.284 75.6993 55.1758 75.5308 55.272C75.436 55.3379 75.3582 55.4253 75.3038 55.527C75.2494 55.6287 75.2199 55.7418 75.2178 55.8571Z" fill="white"/>
<path d="M74.2031 56.4304C74.2031 56.6588 74.3436 56.763 74.5161 56.6668C74.6101 56.6005 74.6871 56.5129 74.7408 56.4113C74.7945 56.3096 74.8234 56.1967 74.8251 56.0817C74.8251 55.8533 74.6846 55.7492 74.5161 55.8453C74.4211 55.911 74.3432 55.9983 74.2887 56.1C74.2343 56.2018 74.2049 56.315 74.2031 56.4304Z" fill="white"/>
<path d="M73.1875 57.0032C73.1875 57.2276 73.328 57.3358 73.5005 57.2396C73.5946 57.1725 73.6716 57.0842 73.7253 56.9818C73.7789 56.8795 73.8078 56.7661 73.8095 56.6506C73.8095 56.4261 73.669 56.3179 73.5005 56.4141C73.4052 56.4804 73.3271 56.5684 73.2726 56.6708C73.2182 56.7733 73.189 56.8872 73.1875 57.0032Z" fill="white"/>
<path d="M72.1729 57.5803C72.1729 57.8087 72.3133 57.9129 72.4858 57.8167C72.5799 57.7504 72.6569 57.6628 72.7106 57.5612C72.7643 57.4595 72.7931 57.3466 72.7948 57.2316C72.7948 57.0032 72.6544 56.8991 72.4858 56.9952C72.3908 57.0609 72.3129 57.1482 72.2585 57.2499C72.204 57.3517 72.1747 57.4649 72.1729 57.5803Z" fill="white"/>
<path d="M71.1572 58.1452C71.1572 58.3696 71.2977 58.4778 71.4702 58.3817C71.5638 58.3149 71.6404 58.2272 71.6941 58.1257C71.7477 58.0241 71.7769 57.9114 71.7792 57.7966C71.7792 57.5682 71.6388 57.4599 71.4702 57.5561C71.3749 57.6224 71.2968 57.7104 71.2424 57.8129C71.1879 57.9153 71.1587 58.0293 71.1572 58.1452Z" fill="white"/>
<path d="M70.1299 58.7146C70.1299 58.943 70.2703 59.0512 70.4429 58.951C70.5369 58.8847 70.6139 58.7972 70.6676 58.6955C70.7213 58.5938 70.7502 58.4809 70.7519 58.3659C70.7519 58.1375 70.6114 58.0333 70.4429 58.1295C70.3479 58.1951 70.2699 58.2825 70.2155 58.3842C70.161 58.486 70.1317 58.5992 70.1299 58.7146Z" fill="white"/>
<path d="M69.127 59.2873C69.127 59.5157 69.2674 59.6199 69.44 59.5237C69.5335 59.4569 69.6102 59.3693 69.6638 59.2677C69.7175 59.1661 69.7466 59.0535 69.7489 58.9386C69.7489 58.7102 69.6085 58.602 69.44 58.6982C69.3446 58.7645 69.2665 58.8525 69.2121 58.9549C69.1577 59.0574 69.1285 59.1713 69.127 59.2873Z" fill="white"/>
<path d="M68.124 59.8567C68.124 60.0851 68.2645 60.1933 68.437 60.0971C68.5307 60.0295 68.6073 59.9411 68.6609 59.8389C68.7146 59.7367 68.7437 59.6234 68.746 59.5081C68.746 59.2796 68.6056 59.1754 68.437 59.2716C68.3423 59.3375 68.2645 59.4248 68.2101 59.5265C68.1557 59.6282 68.1262 59.7414 68.124 59.8567Z" fill="white"/>
<path d="M67.0967 60.4294C67.0967 60.6578 67.2371 60.762 67.4097 60.6658C67.5037 60.5995 67.5807 60.5119 67.6344 60.4102C67.6881 60.3086 67.717 60.1957 67.7187 60.0807C67.7187 59.8523 67.5782 59.7441 67.4097 59.8403C67.3148 59.907 67.2371 59.9951 67.1827 60.0975C67.1283 60.1998 67.0988 60.3135 67.0967 60.4294Z" fill="white"/>
<path d="M66.0811 60.9983C66.0811 61.2267 66.2215 61.3349 66.3941 61.2387C66.4882 61.1716 66.5652 61.0833 66.6188 60.9809C66.6725 60.8786 66.7014 60.7652 66.7031 60.6497C66.7031 60.4212 66.5626 60.317 66.3941 60.4132C66.2993 60.4791 66.2215 60.5664 66.1671 60.6682C66.1127 60.7699 66.0832 60.883 66.0811 60.9983Z" fill="white"/>
<path d="M65.0654 61.5876C65.0654 61.816 65.2059 61.9202 65.3784 61.824C65.4724 61.7577 65.5494 61.6702 65.6031 61.5685C65.6568 61.4668 65.6857 61.3539 65.6874 61.239C65.6874 61.0106 65.5469 60.9064 65.3784 61.0026C65.2834 61.0682 65.2055 61.1555 65.151 61.2573C65.0966 61.359 65.0672 61.4723 65.0654 61.5876Z" fill="white"/>
<path d="M76.2258 46.0101C81.1604 39.4895 82.1364 31.921 78.4058 29.1054C74.6752 26.2899 67.6507 29.2934 62.7161 35.814C57.7815 42.3346 56.8055 49.9031 60.5361 52.7186C64.2667 55.5342 71.2912 52.5307 76.2258 46.0101Z" fill="#F4952F"/>
<path d="M73.0516 34.6422C73.0516 36.75 71.3382 39.4509 69.2275 40.6291C67.1168 41.8072 65.4033 41.0859 65.4033 38.9741C65.4033 36.8622 67.1128 34.1653 69.2275 32.9871C71.3422 31.809 73.0516 32.5303 73.0516 34.6422Z" fill="white"/>
<path d="M77.2408 42.6451C77.2408 39.4673 74.6606 38.3533 71.4825 40.1565L66.9722 42.7132C63.79 44.5165 61.2139 48.5519 61.2139 51.7257V52.7716C63.2483 53.6973 66.0853 53.3847 69.2394 51.6055C72.3934 49.8262 75.2184 46.9209 77.2649 43.687L77.2408 42.6451Z" fill="white"/>
<path opacity="0.46" d="M53.377 33.9251V35.7845L95.9884 11.1875V9.32812L53.377 33.9251Z" fill="url(#paint4_linear_673_3724)"/>
<path d="M44.3961 39.5231C44.3669 39.8336 44.2639 40.1327 44.0957 40.3954C43.9275 40.6582 43.6989 40.8771 43.429 41.0339C42.8953 41.3384 42.4619 41.1501 42.4619 40.6331C42.4921 40.3229 42.5954 40.0242 42.7635 39.7616C42.9316 39.499 43.1597 39.2799 43.429 39.1224C43.9667 38.8018 44.3961 38.9901 44.3961 39.5231Z" fill="#151515"/>
<path d="M47.1695 37.9202C47.14 38.2312 47.0369 38.5307 46.8687 38.7941C46.7006 39.0574 46.4722 39.2771 46.2024 39.435C45.6647 39.7396 45.2354 39.5512 45.2354 39.0343C45.2652 38.7234 45.3684 38.4241 45.5365 38.1608C45.7046 37.8975 45.9328 37.6777 46.2024 37.5195C46.7361 37.2029 47.1695 37.3873 47.1695 37.9202Z" fill="url(#paint5_linear_673_3724)"/>
<path d="M49.9381 36.3055C49.9079 36.6162 49.8046 36.9155 49.6365 37.1787C49.4684 37.442 49.2404 37.6618 48.971 37.8202C48.4373 38.1248 48.0039 37.9364 48.0039 37.4195C48.0359 37.1093 48.14 36.8108 48.3079 36.5478C48.4758 36.2849 48.7029 36.0647 48.971 35.9048C49.5047 35.5882 49.9381 35.7725 49.9381 36.3055Z" fill="url(#paint6_linear_673_3724)"/>
<path d="M41.2387 57.5039L53.2769 50.0343C53.6476 49.8113 53.961 49.505 54.1923 49.1398C54.4236 48.7745 54.5663 48.3604 54.6091 47.9304L54.878 43.7027C54.2881 43.322 54.0112 43.0014 53.2729 43.4302L41.3791 50.3148C41.0074 50.5365 40.6931 50.8425 40.4617 51.208C40.2303 51.5735 40.0882 51.9882 40.0469 52.4186V56.3779C40.0629 57.0952 40.3679 57.3597 41.2387 57.5039Z" fill="url(#paint7_linear_673_3724)"/>
<path d="M41.9603 57.2958L53.8501 50.4112C54.2221 50.1894 54.5368 49.8835 54.7689 49.5181C55.001 49.1527 55.144 48.738 55.1863 48.3074V44.3561C55.1863 43.6188 54.5884 43.3703 53.8501 43.7951L41.9603 50.6797C41.5889 50.9022 41.2747 51.2083 41.0427 51.5736C40.8107 51.9388 40.6673 52.3532 40.624 52.7836V56.7267C40.624 57.4721 41.238 57.7246 41.9603 57.2958Z" fill="url(#paint8_linear_673_3724)"/>
<path d="M43.5859 54.066V51.9261L44.0193 51.6737L44.9222 52.5753V51.1688L45.3235 50.9243V53.0642L44.8781 53.3247L43.9872 52.4511V53.8457L43.5859 54.066Z" fill="white"/>
<path d="M47.799 51.6054L47.3135 51.8899L47.1209 51.5172L46.2381 52.0302L46.0535 52.6232L45.584 52.8997L46.4427 50.2589L46.9122 49.9824L47.799 51.6054ZM46.9764 51.2407L46.6714 50.6236L46.3745 51.5934L46.9764 51.2407Z" fill="white"/>
<path d="M48.0273 51.4731V49.3332L48.6935 48.9325L49.0947 50.1587L49.496 48.4676L50.1621 48.0669V50.2028L49.7609 50.4472V48.7642L49.3235 50.6997L48.8941 50.9522L48.4607 49.5656V51.2527L48.0273 51.4731Z" fill="white"/>
<path d="M50.6035 49.9662V47.8263L52.2367 46.8726V47.2332L51.0329 47.9305V48.4033L52.1404 47.7542V48.1148L51.0329 48.764V49.345L52.2648 48.6238V48.9844L50.6035 49.9662Z" fill="white"/>
<path d="M41.17 66.7971L52.5662 59.7362C52.919 59.5245 53.217 59.2328 53.4359 58.8847C53.6548 58.5366 53.7885 58.1419 53.8262 57.7325L54.079 53.7252C53.5212 53.3686 53.2764 53.068 52.5662 53.4687L41.3305 59.9806C40.9772 60.1918 40.6789 60.4834 40.4599 60.8316C40.2409 61.1798 40.1075 61.5748 40.0705 61.9843V65.7111C40.0624 66.3964 40.3514 66.6488 41.17 66.7971Z" fill="url(#paint9_linear_673_3724)"/>
<path d="M41.8557 66.5887L53.0914 60.0808C53.4436 59.8684 53.7411 59.5765 53.9599 59.2286C54.1787 58.8806 54.3128 58.4862 54.3514 58.0772V54.3744C54.3514 53.6811 53.7856 53.4447 53.0914 53.8454L41.8557 60.3573C41.5024 60.5685 41.2041 60.8601 40.9851 61.2083C40.7662 61.5565 40.6327 61.9515 40.5957 62.361V66.0878C40.5957 66.757 41.1575 66.9934 41.8557 66.5887Z" fill="url(#paint10_linear_673_3724)"/>
<path d="M42.4102 64.1084V61.9885L44.0474 61.0308V61.3954L42.8435 62.0887V62.5616L43.9511 61.9164V62.277L42.8435 62.9222V63.5073L44.0795 62.786V63.1466L42.4102 64.1084Z" fill="white"/>
<path d="M44.416 62.389V61.9883L45.2467 61.5034V61.9042L44.416 62.389Z" fill="white"/>
<path d="M45.4873 62.313V60.173L46.1534 59.7723L46.5547 60.9986L46.956 59.3075L47.6221 58.9067V61.0466L47.2208 61.2871V59.604L46.7834 61.5435L46.354 61.792L45.9166 60.3654V62.0485L45.4873 62.313Z" fill="white"/>
<path d="M50.0666 59.6479L49.5811 59.9324L49.3885 59.5597L48.5056 60.0726L48.3251 60.6657L47.8516 60.9423L48.7103 58.3014L49.1798 58.0249L50.0666 59.6479ZM49.244 59.2832L48.939 58.6661L48.6421 59.6318L49.244 59.2832Z" fill="white"/>
<path d="M50.2754 59.52V57.3801L50.7208 57.1196V59.2595L50.2754 59.52Z" fill="white"/>
<path d="M51.1572 59.0029V56.883L51.6027 56.6226V58.3818L52.7102 57.7366V58.0973L51.1572 59.0029Z" fill="white"/>
<path d="M76.2175 36.149L97.6175 23.2214C97.9752 23.007 98.2776 22.7119 98.5006 22.3598C98.7236 22.0077 98.8609 21.6083 98.9016 21.1937L99.1584 17.1183C98.5926 16.7496 98.3278 16.445 97.6175 16.8538L76.374 29.2164C76.0158 29.4306 75.7128 29.7256 75.4891 30.0776C75.2655 30.4297 75.1274 30.8292 75.0859 31.2441V35.043C75.0859 35.7523 75.3829 36.0088 76.2175 36.149Z" fill="url(#paint11_linear_673_3724)"/>
<path d="M76.9159 35.9405L98.1594 23.5779C98.5171 23.3635 98.8195 23.0684 99.0425 22.7163C99.2655 22.3642 99.4028 21.9648 99.4435 21.5502V17.7472C99.4435 17.0419 98.8697 16.7975 98.1594 17.2103L76.9159 29.5729C76.5582 29.7873 76.2558 30.0824 76.0328 30.4345C75.8099 30.7866 75.6725 31.186 75.6318 31.6006V35.3995C75.6318 36.1168 76.2056 36.3412 76.9159 35.9405Z" fill="#151515"/>
<path d="M77.1084 33.793V31.8214L77.9711 31.3164C78.1187 31.2218 78.2778 31.1464 78.4446 31.0921C78.4853 31.0799 78.5284 31.0782 78.5698 31.0874C78.6112 31.0965 78.6496 31.116 78.6814 31.1442C78.7134 31.1791 78.7378 31.2202 78.753 31.2651C78.7682 31.3099 78.7739 31.3575 78.7697 31.4046C78.7665 31.5621 78.7207 31.7158 78.6373 31.8495C78.5299 32.007 78.3937 32.1429 78.236 32.2502C78.3114 32.2433 78.3874 32.2557 78.4567 32.2862C78.5446 32.3334 78.6234 32.3958 78.6894 32.4706L78.9382 32.707L78.4486 32.9955L78.1517 32.7391C78.0858 32.6765 78.0131 32.6214 77.935 32.5748C77.8948 32.5607 77.8509 32.5607 77.8106 32.5748C77.7384 32.5994 77.6697 32.633 77.606 32.6749L77.5217 32.723V33.5245L77.1084 33.793ZM77.5097 32.4145L77.8146 32.2382C77.943 32.1664 78.0663 32.0861 78.1838 31.9977C78.2293 31.9549 78.2673 31.9048 78.2962 31.8495C78.3236 31.796 78.3387 31.7371 78.3403 31.6771C78.3438 31.6521 78.3403 31.6265 78.3304 31.6032C78.3206 31.58 78.3046 31.5598 78.2841 31.5449C78.2601 31.5345 78.2341 31.5292 78.2079 31.5292C78.1817 31.5292 78.1557 31.5345 78.1316 31.5449C78.0275 31.5939 77.9269 31.6501 77.8307 31.7132L77.5097 31.8975V32.4145Z" fill="white"/>
<path d="M79.1582 32.5948V30.6232L80.667 29.7456V30.0782L79.5675 30.7194V31.1562L80.5867 30.5591V30.8917L79.5675 31.4888V32.0217L80.7031 31.3605V31.6932L79.1582 32.5948Z" fill="white"/>
<path d="M81.9998 30.2102V29.8817L82.8826 29.3647V30.1662C82.7746 30.3226 82.6494 30.4664 82.5094 30.595C82.3619 30.7483 82.1962 30.8829 82.0158 30.9957C81.8486 31.1054 81.6572 31.1728 81.458 31.1921C81.3894 31.1976 81.3205 31.1854 81.2579 31.1566C81.1954 31.1278 81.1413 31.0834 81.1009 31.0277C81.0144 30.8931 80.9723 30.7347 80.9805 30.5749C80.9822 30.3594 81.0287 30.1465 81.117 29.9498C81.2142 29.7286 81.3501 29.5264 81.5182 29.3527C81.6586 29.1951 81.8224 29.06 82.0038 28.952C82.165 28.8211 82.3624 28.7428 82.5696 28.7275C82.6382 28.7364 82.7019 28.7675 82.7512 28.816C82.8005 28.8645 82.8325 28.9277 82.8424 28.996L82.4412 29.3046C82.4313 29.2687 82.4106 29.2367 82.3819 29.213C82.3532 29.1894 82.3178 29.1752 82.2807 29.1723C82.1747 29.1689 82.0705 29.1998 81.9837 29.2605C81.8096 29.3566 81.6621 29.4943 81.5543 29.6612C81.4484 29.8363 81.3942 30.0378 81.3979 30.2423C81.3979 30.4747 81.45 30.619 81.5584 30.6751C81.626 30.6969 81.698 30.7017 81.768 30.6891C81.838 30.6765 81.9038 30.647 81.9596 30.603C82.0543 30.5468 82.1418 30.4796 82.2205 30.4026C82.3016 30.3268 82.3755 30.2437 82.4412 30.1542V29.9297L81.9998 30.2102Z" fill="white"/>
<path d="M83.252 30.2061V28.2346L83.6532 27.9941V29.9657L83.252 30.2061Z" fill="white"/>
<path d="M83.9502 29.1565L84.3515 28.888C84.3755 29.0042 84.4237 29.0683 84.4999 29.0884C84.6058 29.0962 84.711 29.0664 84.7969 29.0042C84.9142 28.9425 85.0158 28.8548 85.0938 28.7477C85.1527 28.6776 85.1879 28.5906 85.1941 28.4993C85.1966 28.4817 85.1942 28.4638 85.1871 28.4475C85.18 28.4313 85.1686 28.4173 85.154 28.4071C85.106 28.3903 85.0536 28.3903 85.0056 28.4071L84.6765 28.5113C84.5326 28.5786 84.3729 28.605 84.215 28.5874C84.1546 28.5706 84.1022 28.5326 84.0676 28.4803C84.0329 28.4281 84.0183 28.365 84.0264 28.3029C84.0308 28.1856 84.061 28.0707 84.1147 27.9663C84.1799 27.8386 84.2653 27.7222 84.3675 27.6217C84.4879 27.5037 84.6227 27.4014 84.7688 27.3171C84.9347 27.1928 85.1396 27.1317 85.3466 27.1448C85.475 27.1769 85.5433 27.281 85.5473 27.4614L85.146 27.7178C85.146 27.6257 85.0898 27.5736 85.0336 27.5656C84.9395 27.5622 84.8472 27.592 84.7728 27.6497C84.6643 27.7091 84.5688 27.7894 84.4919 27.8862C84.4526 27.9306 84.4299 27.9872 84.4277 28.0465C84.4262 28.0653 84.4314 28.0841 84.4424 28.0995C84.4534 28.1149 84.4695 28.1259 84.4879 28.1306C84.6185 28.1252 84.7467 28.0939 84.8651 28.0384C85.009 27.9838 85.1583 27.9449 85.3105 27.9222C85.351 27.9175 85.3919 27.9215 85.4307 27.934C85.4695 27.9464 85.5051 27.967 85.5352 27.9944C85.5957 28.0686 85.6245 28.1636 85.6155 28.2588C85.6111 28.3886 85.5782 28.5158 85.5192 28.6315C85.4514 28.7804 85.3577 28.9161 85.2423 29.0323C85.1106 29.1622 84.9622 29.2741 84.8009 29.3648C84.6305 29.4926 84.4194 29.5539 84.207 29.5372C84.0585 29.4811 83.9743 29.3608 83.9502 29.1565Z" fill="white"/>
<path d="M86.4056 28.363V26.7241L85.8037 27.0767V26.7401L87.4088 25.7983V26.131L86.8069 26.4836V28.1226L86.4056 28.363Z" fill="white"/>
<path d="M87.6855 27.6177V25.6461L88.5483 25.1412C88.6968 25.0482 88.8557 24.9728 89.0218 24.9168C89.0624 24.9046 89.1055 24.903 89.147 24.9121C89.1884 24.9212 89.2268 24.9407 89.2585 24.9689C89.2906 25.0038 89.315 25.0449 89.3302 25.0898C89.3454 25.1346 89.3511 25.1822 89.3468 25.2294C89.3441 25.3869 89.2983 25.5407 89.2144 25.6742C89.1073 25.8319 88.9711 25.9679 88.8131 26.0749C88.8872 26.0704 88.9613 26.0827 89.0298 26.1109C89.1175 26.1602 89.1974 26.2224 89.2666 26.2953L89.5114 26.5357L89.0218 26.8202L88.7249 26.5638C88.6592 26.502 88.5865 26.4482 88.5082 26.4035C88.4679 26.3894 88.424 26.3894 88.3838 26.4035C88.3119 26.4289 88.2432 26.4625 88.1791 26.5037L88.0949 26.5517V27.3733L87.6855 27.6177ZM88.0868 26.2392L88.3918 26.0629C88.5208 25.9922 88.6442 25.9118 88.761 25.8224C88.8086 25.7806 88.848 25.7303 88.8773 25.6742C88.9024 25.6201 88.9161 25.5614 88.9175 25.5018C88.9175 25.4337 88.8974 25.3896 88.8613 25.3736C88.8375 25.3622 88.8114 25.3563 88.785 25.3563C88.7587 25.3563 88.7326 25.3622 88.7088 25.3736C88.6727 25.3736 88.5764 25.4458 88.4078 25.5419L88.0868 25.7303V26.2392Z" fill="white"/>
<path d="M91.5706 25.3492L91.1252 25.6097L90.9446 25.2651L90.1421 25.742L89.9735 26.287L89.5361 26.5394L90.3387 24.107L90.7721 23.8545L91.5706 25.3492ZM90.8122 25.0126L90.5353 24.4436L90.2584 25.3372L90.8122 25.0126Z" fill="white"/>
<path d="M92.0356 25.0768V23.4418L91.4297 23.7944V23.4578L93.0348 22.5161V22.8487L92.4329 23.2014V24.8404L92.0356 25.0768Z" fill="white"/>
<path d="M93.2998 24.3395V22.3679L93.7011 22.1274V24.099L93.2998 24.3395Z" fill="white"/>
<path d="M94.0176 22.9447C94.0166 22.7552 94.0478 22.5669 94.1099 22.3878C94.159 22.2475 94.2236 22.1131 94.3025 21.987C94.3764 21.8665 94.4639 21.7549 94.5633 21.6544C94.6952 21.5264 94.842 21.4147 95.0007 21.3218C95.1019 21.2439 95.2194 21.1897 95.3445 21.1633C95.4695 21.137 95.5989 21.1391 95.723 21.1695C95.9036 21.2457 95.9918 21.446 95.9918 21.7666C95.9915 22.0868 95.8981 22.4 95.723 22.6682C95.5446 22.9526 95.2994 23.1891 95.0087 23.3575C94.9074 23.4352 94.7899 23.4892 94.6649 23.5156C94.5399 23.5419 94.4106 23.5399 94.2864 23.5098C94.1059 23.4537 94.0176 23.2613 94.0176 22.9447ZM94.443 22.6843C94.443 22.9087 94.4951 23.049 94.5994 23.085C94.6664 23.1086 94.7382 23.1151 94.8082 23.1039C94.8783 23.0927 94.9445 23.0642 95.0007 23.0209C95.1664 22.9235 95.3045 22.7856 95.402 22.6202C95.5089 22.4367 95.563 22.2273 95.5585 22.0151C95.5585 21.7906 95.5063 21.6504 95.406 21.6143C95.3382 21.5932 95.2664 21.5888 95.1965 21.6014C95.1267 21.6139 95.0609 21.6431 95.0047 21.6865C94.8294 21.7884 94.6847 21.9356 94.5859 22.1125C94.4871 22.2895 94.4377 22.4897 94.443 22.6923V22.6843Z" fill="white"/>
<path d="M96.3174 22.5803V20.6087L96.7187 20.3763L97.5533 21.2058V19.8874L97.9546 19.667V21.6386L97.5533 21.879L96.7507 21.0776V22.3639L96.3174 22.5803Z" fill="white"/>
<path opacity="0.18" d="M76.9159 35.9405L98.1594 23.5779C98.5171 23.3635 98.8195 23.0684 99.0425 22.7163C99.2655 22.3642 99.4028 21.9648 99.4435 21.5502V17.7472C99.4435 17.0419 98.8697 16.7975 98.1594 17.2103L75.6318 35.3995C75.6318 36.1168 76.2056 36.3412 76.9159 35.9405Z" fill="white"/>
<path d="M41.1459 75.8299L52.3014 68.9132C52.6455 68.7077 52.9366 68.4245 53.1513 68.0862C53.3659 67.748 53.4981 67.3642 53.5373 66.9657L53.7821 63.0545C53.2364 62.7019 52.9795 62.4053 52.3014 62.8021L41.2944 69.1737C40.9512 69.3799 40.6611 69.6635 40.4472 70.0016C40.2333 70.3398 40.1015 70.7232 40.0625 71.1213V74.7679C40.0625 75.4492 40.3434 75.6936 41.1459 75.8299Z" fill="url(#paint12_linear_673_3724)"/>
<path d="M41.8159 75.6373L52.8229 69.2616C53.1665 69.0565 53.4573 68.7739 53.6719 68.4364C53.8865 68.0989 54.019 67.7159 54.0588 67.318V63.6673C54.0588 62.9861 53.505 62.7577 52.8229 63.1504L41.8159 69.5221C41.4727 69.7283 41.1826 70.0118 40.9687 70.35C40.7548 70.6881 40.623 71.0716 40.584 71.4696V75.1163C40.584 75.7975 41.1337 76.014 41.8159 75.6373Z" fill="url(#paint13_linear_673_3724)"/>
<path d="M41.5752 73.241V71.8384L42.0447 71.566C42.1563 71.4959 42.273 71.4342 42.3938 71.3816C42.4262 71.3654 42.4619 71.3569 42.4981 71.3569C42.5343 71.3569 42.5701 71.3654 42.6025 71.3816C42.6325 71.4101 42.6554 71.4453 42.6693 71.4843C42.6833 71.5232 42.6878 71.565 42.6827 71.606C42.6834 71.6899 42.6671 71.7731 42.6345 71.8505C42.6041 71.9263 42.5636 71.9978 42.5142 72.0629C42.4674 72.1188 42.4164 72.171 42.3617 72.2192C42.2935 72.2713 42.1891 72.3354 42.0567 72.4155L41.8681 72.5277V73.0567L41.5752 73.241ZM41.8681 71.9066V72.3073L42.0286 72.2151C42.1096 72.1703 42.1862 72.118 42.2573 72.0589C42.2953 72.0233 42.3266 71.9812 42.3497 71.9346C42.371 71.8953 42.3821 71.8512 42.3817 71.8064C42.3844 71.7872 42.3817 71.7677 42.3739 71.75C42.3661 71.7323 42.3535 71.7172 42.3376 71.7062C42.3187 71.6976 42.2982 71.6931 42.2774 71.6931C42.2567 71.6931 42.2361 71.6976 42.2172 71.7062C42.1456 71.7397 42.076 71.7772 42.0086 71.8184L41.8681 71.9066Z" fill="white"/>
<path d="M44.0796 71.7781L43.7625 71.9664L43.6381 71.7179L43.0563 72.0585L42.9359 72.4593L42.627 72.6396L43.1927 70.9044L43.5017 70.7241L44.0796 71.7781ZM43.5418 71.5376L43.3412 71.1368L43.1486 71.774L43.5418 71.5376Z" fill="white"/>
<path d="M44.1631 71.2732L44.448 71.0808C44.448 71.165 44.4962 71.2131 44.5483 71.2251C44.6242 71.232 44.7 71.2106 44.761 71.165C44.8451 71.1224 44.9179 71.0606 44.9737 70.9847C45.0153 70.9347 45.0405 70.8732 45.0459 70.8084C45.0459 70.7723 45.0459 70.7522 45.0178 70.7402C44.9842 70.7276 44.9471 70.7276 44.9135 70.7402C44.8774 70.7402 44.8011 70.7723 44.6767 70.8164C44.5738 70.8631 44.4601 70.8811 44.3477 70.8685C44.3045 70.8563 44.2673 70.8288 44.2429 70.7912C44.2185 70.7536 44.2087 70.7084 44.2153 70.6641C44.2185 70.582 44.239 70.5014 44.2755 70.4277C44.3229 70.3363 44.3838 70.2525 44.456 70.1792C44.5428 70.0981 44.6384 70.0269 44.7409 69.9668C44.8557 69.8793 44.9979 69.8352 45.1422 69.8426C45.2345 69.8666 45.2827 69.9388 45.2867 70.067L44.9937 70.2473C44.9937 70.1832 44.9536 70.1471 44.9135 70.1391C44.847 70.1423 44.783 70.1646 44.7289 70.2033C44.6516 70.244 44.5834 70.2999 44.5283 70.3676C44.4996 70.3998 44.4827 70.4407 44.4801 70.4838C44.4788 70.4974 44.4826 70.5111 44.4907 70.5222C44.4989 70.5333 44.5108 70.541 44.5242 70.5439C44.6173 70.5412 44.7088 70.5193 44.7931 70.4797C44.8947 70.4383 45.0013 70.41 45.1101 70.3956C45.1387 70.3921 45.1678 70.3946 45.1954 70.4028C45.223 70.4111 45.2486 70.425 45.2706 70.4437C45.3121 70.4989 45.332 70.5672 45.3268 70.636C45.3232 70.728 45.3 70.8182 45.2586 70.9005C45.2092 71.002 45.1427 71.0942 45.062 71.173C44.9673 71.2638 44.8622 71.3432 44.749 71.4095C44.6267 71.5002 44.4753 71.543 44.3236 71.5297C44.2393 71.5057 44.1791 71.4215 44.1631 71.2732Z" fill="white"/>
<path d="M45.5117 70.4879L45.7966 70.2955C45.7966 70.3757 45.8488 70.4238 45.9009 70.4358C45.9765 70.4458 46.0529 70.4256 46.1136 70.3797C46.1963 70.3333 46.2687 70.2706 46.3263 70.1953C46.3686 70.1458 46.3939 70.084 46.3985 70.019C46.3995 70.0059 46.3971 69.9927 46.3915 69.9807C46.3859 69.9688 46.3772 69.9585 46.3664 69.9509C46.3325 69.9404 46.2961 69.9404 46.2621 69.9509L46.0253 70.0271C45.9225 70.0744 45.809 70.0937 45.6963 70.0831C45.6536 70.0702 45.6168 70.0426 45.5926 70.0052C45.5683 69.9678 45.5582 69.923 45.5639 69.8787C45.5659 69.7959 45.5879 69.7148 45.6281 69.6423C45.6717 69.5487 45.733 69.4643 45.8087 69.3939C45.8926 69.3083 45.9886 69.2354 46.0935 69.1775C46.2079 69.0889 46.3504 69.0448 46.4948 69.0533C46.5871 69.0773 46.6353 69.1534 46.6393 69.2776L46.3464 69.462C46.3464 69.3979 46.3062 69.3618 46.2661 69.3538C46.1997 69.3535 46.135 69.3746 46.0815 69.4139C46.0039 69.4559 45.9356 69.5131 45.8809 69.5822C45.855 69.6142 45.8396 69.6534 45.8368 69.6944C45.8353 69.7076 45.8385 69.7208 45.8458 69.7318C45.8532 69.7428 45.8642 69.7509 45.8769 69.7545C45.97 69.7522 46.0616 69.7303 46.1457 69.6904C46.248 69.6517 46.3543 69.6248 46.4627 69.6103C46.4914 69.6048 46.5209 69.6062 46.5489 69.6146C46.5769 69.623 46.6024 69.638 46.6232 69.6584C46.6449 69.6843 46.6611 69.7144 46.6708 69.7468C46.6804 69.7792 46.6834 69.8131 46.6794 69.8467C46.6773 69.9402 46.654 70.032 46.6112 70.1152C46.5632 70.2163 46.4964 70.3073 46.4146 70.3837C46.3209 70.4757 46.2157 70.5552 46.1016 70.6201C45.9861 70.7065 45.8444 70.7503 45.7003 70.7443C45.5879 70.7203 45.5318 70.6321 45.5117 70.4879Z" fill="white"/>
<path d="M47.141 70.0031L46.7959 68.801L47.0929 68.6247L47.3136 69.4622L47.5784 68.3441L47.9235 68.1397L48.1803 68.9733L48.401 67.8633L48.698 67.6909L48.3448 69.2938L48.0358 69.4742L47.7469 68.5966L47.458 69.7988L47.141 70.0031Z" fill="white"/>
<path d="M48.7862 68.3399C48.7847 68.2036 48.8064 68.0681 48.8504 67.9391C48.8878 67.8458 48.9335 67.7559 48.9868 67.6707C49.0399 67.5845 49.1033 67.5051 49.1755 67.4342C49.2686 67.3416 49.3739 67.2621 49.4884 67.1978C49.5597 67.1425 49.6426 67.1041 49.7308 67.0853C49.8191 67.0666 49.9104 67.068 49.9981 67.0896C50.1265 67.1417 50.1907 67.286 50.1907 67.5144C50.1897 67.7416 50.1244 67.9639 50.0021 68.1555C49.8735 68.358 49.6971 68.5258 49.4884 68.6444C49.4175 68.7017 49.3339 68.7413 49.2446 68.7601C49.1554 68.7789 49.0629 68.7764 48.9748 68.7526C48.8625 68.7005 48.7862 68.5643 48.7862 68.3399ZM49.0872 68.1555C49.0872 68.3118 49.1233 68.412 49.1995 68.4481C49.2474 68.4662 49.2992 68.4717 49.3498 68.464C49.4004 68.4562 49.4482 68.4356 49.4884 68.404C49.6073 68.3333 49.7066 68.2342 49.7774 68.1155C49.8525 67.9837 49.8912 67.8343 49.8897 67.6826C49.8897 67.5224 49.8536 67.4222 49.7814 67.3861C49.7321 67.3695 49.6794 67.3655 49.6282 67.3746C49.577 67.3837 49.5289 67.4056 49.4884 67.4382C49.3678 67.5065 49.2679 67.6062 49.1995 67.7267C49.1225 67.8563 49.0835 68.0049 49.0872 68.1555Z" fill="white"/>
<path d="M50.4189 68.0792V66.6767L51.0369 66.3161C51.1409 66.2467 51.2545 66.1927 51.374 66.1558C51.4028 66.1469 51.4335 66.1455 51.463 66.1519C51.4925 66.1582 51.5198 66.1719 51.5425 66.1918C51.5644 66.217 51.581 66.2462 51.5913 66.2779C51.6017 66.3095 51.6056 66.343 51.6027 66.3761C51.6003 66.4879 51.5684 66.5971 51.5104 66.6927C51.4357 66.8105 51.3373 66.9115 51.2215 66.9893C51.2751 66.9866 51.3286 66.9962 51.378 67.0174C51.4398 67.0521 51.4966 67.0952 51.5465 67.1456L51.7231 67.3179L51.374 67.5223L51.1613 67.3419C51.1147 67.2963 51.062 67.2571 51.0048 67.2257C50.9776 67.2156 50.9477 67.2156 50.9205 67.2257C50.8689 67.2433 50.8191 67.2661 50.7721 67.2938L50.7119 67.3299V67.915L50.4189 68.0792ZM50.7119 67.0975L50.9286 66.9732C51.0202 66.9233 51.1075 66.8657 51.1894 66.8009C51.2241 66.7706 51.2528 66.7338 51.2737 66.6927C51.2924 66.6554 51.302 66.6142 51.3018 66.5725C51.3018 66.5244 51.3017 66.4924 51.2656 66.4803C51.2482 66.4715 51.229 66.467 51.2094 66.467C51.1899 66.467 51.1707 66.4715 51.1533 66.4803L50.9406 66.6006L50.7119 66.7328V67.0975Z" fill="white"/>
<path d="M51.8799 65.8233L52.4136 65.5108C52.5005 65.4562 52.5934 65.4118 52.6904 65.3785C52.7599 65.3504 52.8376 65.3504 52.9071 65.3785C52.9707 65.4089 53.0207 65.4617 53.0476 65.5267C53.0845 65.6239 53.1009 65.7276 53.0957 65.8313C53.096 65.9413 53.0798 66.0507 53.0476 66.1559C53.0144 66.2753 52.963 66.3888 52.8951 66.4925C52.8362 66.5777 52.7675 66.6557 52.6904 66.7249C52.6083 66.7917 52.5211 66.852 52.4296 66.9053L51.8799 67.2258V65.8233ZM52.1728 65.8914V66.8212L52.3895 66.6929C52.451 66.6584 52.51 66.6196 52.566 66.5767C52.6113 66.539 52.6517 66.496 52.6864 66.4484C52.721 66.3926 52.7466 66.3318 52.7627 66.2681C52.7838 66.1776 52.7933 66.0846 52.7908 65.9916C52.7954 65.9131 52.7859 65.8344 52.7627 65.7592C52.7554 65.74 52.7442 65.7225 52.7296 65.708C52.7151 65.6935 52.6976 65.6822 52.6784 65.675C52.6342 65.6597 52.5862 65.6597 52.542 65.675C52.4594 65.7119 52.3791 65.7534 52.3012 65.7993L52.1728 65.8914Z" fill="white"/>
<path fill-rule="evenodd" clip-rule="evenodd" d="M72.4131 61.167V65.6031L79.9089 61.2872V56.8511L72.4131 61.167Z" fill="#231F20"/>
<path fill-rule="evenodd" clip-rule="evenodd" d="M72.4136 61.1669L71.916 60.8623V65.2984L72.4136 65.603V61.1669Z" fill="url(#paint14_linear_673_3724)"/>
<path fill-rule="evenodd" clip-rule="evenodd" d="M79.9094 56.8508L72.4136 61.1667L71.916 60.8622L79.4118 56.5503L79.9094 56.8508Z" fill="url(#paint15_linear_673_3724)"/>
<path d="M73.2041 63.3871L73.4368 63.2268C73.4368 63.3109 73.477 63.359 73.5211 63.375C73.5502 63.3813 73.5802 63.3814 73.6093 63.3752C73.6384 63.369 73.6658 63.3566 73.6897 63.339C73.7594 63.3022 73.8187 63.2484 73.8622 63.1827C73.8977 63.1349 73.9186 63.0778 73.9224 63.0184C73.9232 63.0056 73.9211 62.9929 73.9162 62.9811C73.9113 62.9693 73.9039 62.9588 73.8943 62.9503C73.881 62.9446 73.8667 62.9418 73.8522 62.9418C73.8377 62.9418 73.8234 62.9446 73.81 62.9503L73.6214 62.9984C73.5385 63.0362 73.445 63.0447 73.3566 63.0224C73.3189 63.0023 73.2884 62.9712 73.269 62.9332C73.2496 62.8952 73.2424 62.8522 73.2483 62.81C73.2496 62.7337 73.2674 62.6585 73.3004 62.5896C73.334 62.5064 73.383 62.4302 73.4449 62.3652C73.5122 62.2946 73.5892 62.2339 73.6736 62.1849C73.8221 62.0967 73.9304 62.0687 74.0067 62.1007C74.0829 62.1328 74.119 62.2089 74.123 62.3331L73.8863 62.4814C73.8863 62.4173 73.8542 62.3812 73.8221 62.3692C73.7956 62.3659 73.7688 62.3681 73.7432 62.3757C73.7177 62.3833 73.694 62.3961 73.6736 62.4133C73.6107 62.4481 73.556 62.4959 73.5131 62.5535C73.4877 62.5839 73.4735 62.6222 73.473 62.6618C73.4713 62.6744 73.4739 62.6872 73.4805 62.6981C73.487 62.709 73.4971 62.7174 73.5091 62.7218C73.5832 62.7281 73.6577 62.7157 73.7258 62.6858C73.8086 62.6566 73.895 62.6391 73.9826 62.6337C74.0073 62.6345 74.0316 62.6407 74.0538 62.6518C74.0759 62.6628 74.0954 62.6785 74.111 62.6978C74.1458 62.7541 74.1613 62.8202 74.1551 62.8861C74.1541 62.9733 74.135 63.0592 74.099 63.1386C74.0622 63.2277 74.0091 63.3093 73.9425 63.379C73.8688 63.4582 73.7836 63.5257 73.6897 63.5794C73.6426 63.6176 73.5874 63.6448 73.5283 63.6586C73.4692 63.6725 73.4078 63.6728 73.3486 63.6596C73.2683 63.6142 73.2202 63.5233 73.2041 63.3871Z" fill="white"/>
<path d="M74.351 61.8001L74.5877 61.6638V62.3892C74.5807 62.4625 74.5807 62.5363 74.5877 62.6096C74.5886 62.6306 74.596 62.6507 74.6089 62.6672C74.6219 62.6838 74.6397 62.6959 74.6599 62.7017C74.6867 62.7062 74.7142 62.7049 74.7405 62.698C74.7668 62.6911 74.7913 62.6787 74.8124 62.6617C74.8736 62.6293 74.9259 62.5825 74.9649 62.5254C74.9978 62.4807 75.0186 62.4282 75.0251 62.3731C75.0307 62.2944 75.0307 62.2154 75.0251 62.1367V61.3833L75.2618 61.2471V61.9884C75.2638 62.1076 75.2571 62.2268 75.2418 62.3451C75.2291 62.4187 75.2061 62.4902 75.1736 62.5575C75.1357 62.6264 75.0884 62.6898 75.0331 62.7458C74.9673 62.8142 74.8915 62.8722 74.8084 62.9181C74.7327 62.9707 74.6464 63.0062 74.5556 63.0223C74.5316 63.0257 74.5072 63.0243 74.4837 63.0181C74.4603 63.0119 74.4383 63.0011 74.4192 62.9862C74.384 62.958 74.3598 62.9183 74.351 62.874C74.3317 62.7656 74.3236 62.6555 74.3269 62.5454L74.351 61.8001Z" fill="white"/>
<path d="M75.5352 61.1067L76.0048 60.8342L76.2094 60.726C76.2504 60.717 76.2928 60.717 76.3338 60.726C76.3521 60.7303 76.3693 60.7381 76.3844 60.7491C76.3996 60.7602 76.4124 60.7741 76.4221 60.7901C76.4487 60.8304 76.4614 60.8782 76.4582 60.9264C76.4566 60.9954 76.4416 61.0634 76.414 61.1267C76.3865 61.1967 76.3456 61.2607 76.2937 61.3151C76.3212 61.3055 76.3508 61.303 76.3796 61.3079C76.4083 61.3128 76.4354 61.325 76.4582 61.3431C76.4795 61.3661 76.4955 61.3934 76.5052 61.4231C76.5149 61.4529 76.518 61.4844 76.5144 61.5154C76.513 61.5837 76.5008 61.6513 76.4783 61.7158C76.4538 61.7867 76.42 61.8541 76.3779 61.9162C76.3337 61.977 76.2794 62.0299 76.2174 62.0725C76.1813 62.1005 76.085 62.1607 75.9325 62.2488L75.5312 62.4812L75.5352 61.1067ZM75.772 61.1949V61.5115L75.9285 61.4193L76.097 61.3151C76.1361 61.2875 76.1689 61.252 76.1933 61.2109C76.2168 61.1723 76.2293 61.1279 76.2295 61.0827C76.2308 61.0671 76.2285 61.0515 76.223 61.0369C76.2174 61.0224 76.2087 61.0093 76.1974 60.9985C76.1974 60.9985 76.1492 60.9985 76.1091 60.9985C76.069 60.9985 76.0168 61.0466 75.9084 61.1147L75.772 61.1949ZM75.772 61.7359V62.1005L75.9887 61.9723C76.0456 61.9409 76.1005 61.9061 76.1532 61.8681C76.1888 61.8401 76.2176 61.8045 76.2375 61.7639C76.2599 61.722 76.2709 61.6751 76.2696 61.6277C76.272 61.5964 76.2635 61.5652 76.2455 61.5395C76.2365 61.5299 76.2249 61.5229 76.2122 61.5194C76.1995 61.5159 76.186 61.5159 76.1733 61.5194C76.0996 61.5453 76.0295 61.5803 75.9646 61.6236L75.772 61.7359Z" fill="white"/>
<path d="M76.7109 61.7759V60.4215L77.0641 60.2131L77.2767 61.0145L77.4854 59.9646L77.8425 59.7603V61.1147L77.6218 61.243V60.177L77.3891 61.3792L77.1644 61.5115L76.9316 60.5818V61.6477L76.7109 61.7759Z" fill="white"/>
<path d="M78.0674 60.9825V59.624L78.3041 59.4878V60.8463L78.0674 60.9825Z" fill="white"/>
<path d="M78.7935 60.5579V59.4319L78.4443 59.6362V59.4038L79.3753 58.8628V59.0912L79.0302 59.2916V60.4217L78.7935 60.5579Z" fill="white"/>
<defs>
<linearGradient id="paint0_linear_673_3724" x1="0.00711937" y1="84.9141" x2="176.993" y2="84.9141" gradientUnits="userSpaceOnUse">
<stop stop-color="#BBBDBF"/>
<stop offset="0.48" stop-color="#D3D4D6"/>
<stop offset="1" stop-color="#F1F1F2"/>
</linearGradient>
<radialGradient id="paint1_radial_673_3724" cx="0" cy="0" r="1" gradientUnits="userSpaceOnUse" gradientTransform="translate(54.2834 106.337) rotate(118.262) scale(8.62383 38.2368)">
<stop stop-color="#A3A1A1"/>
<stop offset="0.3" stop-color="#C9C8C8"/>
<stop offset="0.58" stop-color="#E7E6E6"/>
<stop offset="0.83" stop-color="#F9F8F8"/>
<stop offset="1" stop-color="white"/>
</radialGradient>
<radialGradient id="paint2_radial_673_3724" cx="0" cy="0" r="1" gradientUnits="userSpaceOnUse" gradientTransform="translate(28298.3 665747) rotate(59.9664) scale(2365.77 2363)">
<stop stop-color="#A3A1A1"/>
<stop offset="0.3" stop-color="#C9C8C8"/>
<stop offset="0.58" stop-color="#E7E6E6"/>
<stop offset="0.83" stop-color="#F9F8F8"/>
<stop offset="1" stop-color="white"/>
</radialGradient>
<linearGradient id="paint3_linear_673_3724" x1="69.472" y1="90.7408" x2="69.472" y2="1.08488" gradientUnits="userSpaceOnUse">
<stop stop-color="#EEB24B"/>
<stop offset="1" stop-color="#F7E9CB"/>
</linearGradient>
<linearGradient id="paint4_linear_673_3724" x1="5720.69" y1="1498.82" x2="10245.6" y2="1498.82" gradientUnits="userSpaceOnUse">
<stop stop-color="#EFD48E"/>
<stop offset="0.42" stop-color="#F2D176"/>
<stop offset="1" stop-color="#F6CB4F"/>
</linearGradient>
<linearGradient id="paint5_linear_673_3724" x1="45.2354" y1="38.4692" x2="47.1695" y2="38.4692" gradientUnits="userSpaceOnUse">
<stop stop-color="#EEB24B"/>
<stop offset="1" stop-color="#F1E4C3"/>
</linearGradient>
<linearGradient id="paint6_linear_673_3724" x1="1802.01" y1="3574.87" x2="1811.33" y2="3574.87" gradientUnits="userSpaceOnUse">
<stop stop-color="#EFD48E"/>
<stop offset="0.42" stop-color="#F2D176"/>
<stop offset="1" stop-color="#F6CB4F"/>
</linearGradient>
<linearGradient id="paint7_linear_673_3724" x1="40.0629" y1="50.3669" x2="54.89" y2="50.3669" gradientUnits="userSpaceOnUse">
<stop stop-color="#808184"/>
<stop offset="1" stop-color="#A6A8AB"/>
</linearGradient>
<linearGradient id="paint8_linear_673_3724" x1="40.624" y1="50.5515" x2="55.1863" y2="50.5515" gradientUnits="userSpaceOnUse">
<stop stop-color="#BBBDBF"/>
<stop offset="0.44" stop-color="#A3A5A7"/>
<stop offset="1" stop-color="#808184"/>
</linearGradient>
<linearGradient id="paint9_linear_673_3724" x1="12466.7" y1="22415.9" x2="12956.1" y2="22415.9" gradientUnits="userSpaceOnUse">
<stop stop-color="#808184"/>
<stop offset="1" stop-color="#A6A8AB"/>
</linearGradient>
<linearGradient id="paint10_linear_673_3724" x1="12261.2" y1="21789.8" x2="12733" y2="21789.8" gradientUnits="userSpaceOnUse">
<stop stop-color="#BBBDBF"/>
<stop offset="0.44" stop-color="#A3A5A7"/>
<stop offset="1" stop-color="#808184"/>
</linearGradient>
<linearGradient id="paint11_linear_673_3724" x1="99.1584" y1="26.4032" x2="75.0859" y2="26.4032" gradientUnits="userSpaceOnUse">
<stop stop-color="white"/>
<stop offset="1" stop-color="#6D6E70"/>
</linearGradient>
<linearGradient id="paint12_linear_673_3724" x1="12210.3" y1="22228.4" x2="12679.4" y2="22228.4" gradientUnits="userSpaceOnUse">
<stop stop-color="#808184"/>
<stop offset="1" stop-color="#A6A8AB"/>
</linearGradient>
<linearGradient id="paint13_linear_673_3724" x1="12011.2" y1="21639.6" x2="12463.7" y2="21639.6" gradientUnits="userSpaceOnUse">
<stop stop-color="#BBBDBF"/>
<stop offset="0.44" stop-color="#A3A5A7"/>
<stop offset="1" stop-color="#808184"/>
</linearGradient>
<linearGradient id="paint14_linear_673_3724" x1="71.916" y1="63.2306" x2="72.4136" y2="63.2306" gradientUnits="userSpaceOnUse">
<stop stop-color="#BBBDBF"/>
<stop offset="1" stop-color="#D0D2D3"/>
</linearGradient>
<linearGradient id="paint15_linear_673_3724" x1="1504.33" y1="734.659" x2="1663.56" y2="734.659" gradientUnits="userSpaceOnUse">
<stop stop-color="#BBBDBF"/>
<stop offset="1" stop-color="#D0D2D3"/>
</linearGradient>
</defs>
</svg>
