<svg width="40" height="76" viewBox="0 0 40 76" fill="none" xmlns="http://www.w3.org/2000/svg">
<g clip-path="url(#clip0_673_2900)">
<path d="M21.5647 0L25.044 31.8537L40.0004 34.2063L25.1486 71.0793L19.7231 38.7359L5.65723 36.3544L21.5647 0Z" fill="#D39D37"/>
<path d="M15.9075 4.92188L19.3868 36.7756L34.3432 39.1282L19.4914 76L14.0659 43.6578L0 41.2762L15.9075 4.92188Z" fill="#FFD23F"/>
<path d="M15.9072 4.92186L21.5641 0L24.2924 24.9799L18.3859 27.6226L15.9072 4.92186Z" fill="#D39D37"/>
<path d="M19.3867 36.7754L25.0436 31.8535L40 34.2061L34.3431 39.128L19.3867 36.7754Z" fill="#FDB733"/>
<path d="M19.4912 76L25.1481 71.0793L29.6923 59.7964L24.9883 62.3536L19.4912 76Z" fill="#D39D37"/>
</g>
<defs>
<clipPath id="clip0_673_2900">
<rect width="40" height="76" fill="white"/>
</clipPath>
</defs>
</svg>
