<svg width="57" height="76" viewBox="0 0 57 76" fill="none" xmlns="http://www.w3.org/2000/svg">
<path d="M26.716 46.7398C26.8811 46.7398 27.0454 46.7398 27.2082 46.7314C27.3571 46.726 27.5053 46.7175 27.6542 46.7067C27.9386 46.6867 28.2202 46.6577 28.4989 46.6197L28.5892 46.6089C28.6949 46.5951 28.7998 46.582 28.904 46.5642C29.2465 46.5088 29.586 46.4387 29.9208 46.3571C29.9887 46.3448 30.0335 46.3355 30.0751 46.324C30.4701 46.2208 30.8521 46.1022 31.264 45.9535C31.3412 45.9266 31.5888 45.8249 31.5888 45.8249C31.8619 45.7187 32.1312 45.6034 32.3966 45.4791C32.4853 45.443 32.5331 45.4229 32.5794 45.4021C32.7407 45.3251 32.9019 45.2396 33.0616 45.1542L40.1302 41.3151L39.4134 39.9428C39.2213 40.0475 39.0485 40.1276 38.8734 40.2092L38.7962 40.2446C38.5658 40.3535 38.3295 40.4546 38.0872 40.5481L37.801 40.662C37.4368 40.793 37.1004 40.8985 36.7702 40.9832L36.6159 41.0179C36.3192 41.0902 36.0193 41.1516 35.7164 41.2019C35.6392 41.2142 35.3568 41.2496 35.3568 41.2496C35.1092 41.2828 34.86 41.3089 34.6085 41.3267C34.4773 41.3367 34.3454 41.3436 34.2135 41.3482C34.0816 41.3528 33.9311 41.3567 33.7884 41.3567C33.6672 41.3567 33.1365 41.3475 33.0616 41.3444C32.6358 41.322 32.2539 41.2866 31.8974 41.2366C31.504 41.1811 31.0912 41.101 30.5974 40.9824C30.4964 40.9593 30.2256 40.8854 30.2256 40.8854C29.9026 40.7991 29.5837 40.7021 29.2689 40.5943L28.9256 40.4772C28.4804 40.3124 28.0839 40.1468 27.7143 39.972C27.6626 39.9481 27.3919 39.8034 27.3919 39.8034C27.0833 39.6493 26.7685 39.4868 26.4661 39.309C26.3727 39.2543 26.2793 39.1934 26.1868 39.1326L26.0224 39.0271C25.7609 38.8623 25.5009 38.6975 25.2509 38.5188L24.9423 38.2878C24.6682 38.0824 24.3989 37.8688 24.1346 37.647C24.1346 37.647 23.9239 37.4722 23.8583 37.416C23.5266 37.1244 23.2051 36.8207 22.894 36.5049L22.7258 36.3255C22.4596 36.0475 22.2058 35.7618 21.9597 35.4691L21.7436 35.2111C21.459 34.86 21.1859 34.5019 20.9274 34.133L20.8078 33.9512C20.5872 33.6262 20.3768 33.2946 20.1767 32.9562L19.9777 32.612C19.8172 32.327 19.6691 32.0344 19.521 31.7395C19.521 31.7395 19.3397 31.3806 19.2895 31.2774C19.1306 30.9347 18.9863 30.5843 18.8474 30.23L18.7294 29.9404C18.6522 29.7317 18.5866 29.5223 18.5211 29.312L18.3729 28.85C18.3297 28.7198 18.2858 28.5904 18.2487 28.458C18.1855 28.2269 18.1345 27.9959 18.0836 27.7595L17.978 27.2974C17.9486 27.1803 17.9201 27.0664 17.9008 26.9455C17.846 26.6528 17.8105 26.3555 17.7743 26.0583L17.721 25.6732C17.7064 25.5823 17.6925 25.4915 17.684 25.3991C17.6339 24.8708 17.6069 24.3417 17.6069 23.8249C17.5968 18.5696 20.0348 14.106 24.1276 11.8835L23.3877 10.5234L16.3215 14.3563C11.7195 16.8554 8.97912 21.8265 8.99223 27.6601C8.99223 28.2246 9.02079 28.8014 9.07556 29.3752C9.08636 29.4969 9.10487 29.6201 9.12416 29.7433L9.17355 30.1014C9.21289 30.4233 9.25068 30.7445 9.31086 31.061C9.33863 31.2081 9.37335 31.3528 9.40884 31.4984L9.51225 31.952C9.56779 32.2054 9.62331 32.4587 9.69198 32.7075C9.73595 32.8661 9.78765 33.0209 9.83934 33.1765L9.9898 33.6447C10.0523 33.8519 10.1163 34.0583 10.1904 34.2608C10.2382 34.3833 10.3447 34.6312 10.3447 34.6312C10.4928 35.0163 10.6533 35.3921 10.8238 35.7649C10.8809 35.8881 10.9418 36.0098 11.0035 36.1307L11.1578 36.4518C11.225 36.5927 11.2928 36.7329 11.3669 36.8692C11.4063 36.9462 11.451 37.0186 11.4958 37.0941C11.4958 37.0941 11.7041 37.4576 11.7789 37.5823C11.9926 37.9451 12.2194 38.3024 12.4563 38.6513L12.5905 38.853C12.8991 39.2943 13.18 39.6609 13.4716 40.0205C13.4716 40.0205 13.9546 40.602 14.0255 40.6828C14.1598 40.8369 14.2986 40.9801 14.4375 41.1249L14.7168 41.4214C15.0084 41.7194 15.3055 42.0074 15.6125 42.2824L16.0669 42.6674C16.3565 42.9108 16.6504 43.1441 16.9487 43.3675C16.9487 43.3675 17.4472 43.7379 17.4958 43.771C17.6439 43.8727 17.7959 43.9666 17.9494 44.0614L18.2842 44.2716C18.3953 44.3432 18.5049 44.4141 18.6183 44.4811C18.9508 44.6759 19.2934 44.853 19.6367 45.0255L19.7632 45.0918C19.8403 45.1326 19.9129 45.1688 19.9893 45.2088C20.4182 45.4114 20.8379 45.587 21.3255 45.7656C21.4196 45.8011 21.7059 45.8966 21.7059 45.8966C22.053 46.0152 22.4054 46.1224 22.7628 46.2185C22.7628 46.2185 23.0629 46.2955 23.1756 46.3263C23.7079 46.4526 24.1785 46.545 24.619 46.6066C25.0202 46.6628 25.4461 46.7021 25.9214 46.7267C26.017 46.7321 26.1119 46.7337 26.206 46.7352C26.2037 46.7337 26.5825 46.7398 26.716 46.7398Z" fill="#B48D5E"/>
<path d="M32.2193 72.0668C32.2988 72.0237 32.3701 71.9668 32.4299 71.899C33.1513 71.0819 35.0893 68.8539 37.5735 65.7519C37.8821 65.3699 38.1974 64.9735 38.5194 64.5628C39.1652 63.7426 39.8417 62.8685 40.5376 61.9575C42.0729 59.9398 43.5265 57.9436 44.8581 56.0276C45.6064 54.9494 46.3378 53.8651 47.0314 52.8046C53.2945 43.2236 56.4654 35.5917 56.4546 30.1215C56.4546 29.6695 56.443 29.2159 56.4206 28.7646C56.4168 28.6729 56.3913 28.3379 56.3913 28.3379L56.3843 28.2286C56.3666 27.9583 56.3504 27.6895 56.3249 27.4184C56.3141 27.3021 56.2478 26.7253 56.2478 26.7253C56.2246 26.5104 56.2015 26.2956 56.1706 26.083C56.1529 25.9536 56.0765 25.4954 56.0765 25.4954L56.0426 25.2836C56.0156 25.1088 55.9886 24.9332 55.9562 24.7592C55.9315 24.626 55.9029 24.4943 55.8752 24.3626L55.798 23.9829C55.761 23.8042 55.7247 23.6256 55.6838 23.4492C55.6545 23.3191 55.6206 23.1889 55.5874 23.0595L55.4964 22.7014C55.4516 22.5204 55.4061 22.3387 55.356 22.1585C55.3181 22.0206 55.2788 21.8843 55.2348 21.748L55.1345 21.4138C55.0821 21.2367 55.0296 21.0595 54.9733 20.8839C54.9285 20.7438 54.8784 20.6021 54.8282 20.4596L54.704 20.0977C54.66 19.9667 54.6161 19.8366 54.5682 19.7072C54.3306 19.0703 54.0829 18.4658 53.7898 17.8058L53.6308 17.45C53.3593 16.8555 53.0676 16.2655 52.766 15.7003L52.7128 15.5917L52.5762 15.3545C52.3561 14.9556 52.1285 14.5615 51.8934 14.1724L51.679 13.8181C51.3835 13.3452 51.0772 12.8786 50.7585 12.4226L50.7138 12.3549L50.5595 12.1454C50.3126 11.7996 50.0573 11.4569 49.7949 11.1204L49.4987 10.743C49.2255 10.4034 48.9478 10.0715 48.6632 9.74186L48.5011 9.54933L48.4571 9.50235C48.1069 9.10805 47.7443 8.72222 47.377 8.34717L47.0923 8.06608C46.8007 7.77728 46.5052 7.49542 46.2028 7.21895C46.2028 7.21895 46.0531 7.07417 46.0076 7.03335L45.9058 6.94787C45.4429 6.54124 45.0193 6.17775 44.5819 5.83196L44.5047 5.77343C44.0565 5.42303 43.6422 5.11883 43.2225 4.82388C43.1214 4.74687 43.0805 4.7176 43.0381 4.68834C43.0381 4.68834 42.4664 4.3079 42.3206 4.21394C42.12 4.08379 41.9155 3.95672 41.7111 3.82888C41.5661 3.74032 41.421 3.65098 41.2721 3.56473C41.0607 3.43997 40.8439 3.31906 40.6264 3.1997L40.2075 2.96866C39.9667 2.84159 39.726 2.72299 39.4853 2.60439L39.0325 2.38106C39.007 2.36874 38.9646 2.35102 38.9221 2.33331C38.4353 2.11075 37.984 1.92053 37.5296 1.74032C37.3992 1.68872 37.2665 1.63635 37.133 1.58629C36.5582 1.37066 36.0421 1.19353 35.5537 1.04721L35.455 1.02488C34.9149 0.866235 34.4165 0.737626 33.912 0.622109C33.7708 0.588993 33.6281 0.557415 33.4861 0.527381C32.8504 0.39261 32.3227 0.296349 31.8258 0.227808C31.329 0.159267 30.819 0.106128 30.2057 0.0630012L29.8778 0.0406648C29.4401 0.016021 29.006 0.0034431 28.5755 0.00292969L28.0663 0.0121707C27.5887 0.0237225 27.1189 0.0491365 26.6521 0.0891827L26.4484 0.105357C25.9809 0.151564 25.4956 0.217794 24.9664 0.307128L24.6516 0.363345C24.1795 0.450368 23.7127 0.548178 23.2544 0.666006L23.1094 0.706049C22.621 0.83851 22.1836 0.97328 21.7539 1.1196L21.4599 1.21895C21.0078 1.38068 20.5611 1.55626 20.1236 1.74802L19.7479 1.91899C19.606 1.98291 19.464 2.04683 19.3252 2.1146C19.068 2.23936 18.8152 2.36976 18.5668 2.50582L11.499 6.3387L12.2396 7.69873C12.6346 7.48387 13.0405 7.28903 13.4525 7.10266L13.6762 6.99947C14.0846 6.82131 14.4973 6.65804 14.9144 6.50967L15.1868 6.41649C15.5826 6.28171 15.9861 6.15772 16.395 6.04837L16.4798 6.02372C16.9636 5.89742 17.4126 5.8027 17.8647 5.71567L18.1586 5.66331C18.6123 5.58629 19.0706 5.52238 19.5342 5.47617L19.7209 5.46231C20.1545 5.4238 20.5917 5.39813 21.0325 5.38529L21.5062 5.37682C21.9074 5.37682 22.3116 5.38863 22.719 5.41225L23.0276 5.43304C23.6031 5.47386 24.0838 5.52238 24.5367 5.58707C24.9996 5.65253 25.4949 5.74109 26.092 5.86816C26.2278 5.89666 26.3589 5.92669 26.4916 5.95672C26.963 6.06531 27.4313 6.18776 27.895 6.3233L27.9776 6.34564C28.476 6.49581 28.9605 6.66138 29.5051 6.86623L29.8346 6.99485C30.3075 7.18121 30.7303 7.36065 31.1461 7.55241L31.3699 7.65175L31.7147 7.82272C31.9462 7.93516 32.1722 8.04837 32.3991 8.16774L32.7956 8.38568C33.0016 8.49966 33.206 8.61287 33.4074 8.73146C33.5332 8.80848 33.6574 8.88087 33.7816 8.95711C34.013 9.09881 34.2067 9.21895 34.3988 9.34217C34.5361 9.43073 34.6719 9.52007 34.8069 9.61171C34.9566 9.71183 35.104 9.81579 35.2505 9.91976C35.6507 10.1996 36.0429 10.4891 36.4271 10.7885L36.4988 10.8431C36.9532 11.202 37.3575 11.5463 37.7556 11.899L38.0773 12.1908C38.3628 12.4511 38.6436 12.7184 38.9198 12.9925L39.1921 13.2605C39.5455 13.6199 39.8893 13.9873 40.2237 14.3626L40.4165 14.5874C40.6889 14.9001 40.9527 15.2159 41.212 15.5378L41.4951 15.8974C41.7435 16.2178 41.986 16.5433 42.2226 16.8739L42.4132 17.1373C42.7164 17.5717 43.0072 18.0152 43.2896 18.4665L43.4925 18.8023C43.7178 19.172 43.9343 19.547 44.1421 19.9275L44.3242 20.2571C44.6096 20.7908 44.8866 21.3522 45.1482 21.9244L45.2978 22.2594C45.5779 22.8924 45.814 23.4677 46.0184 24.0191C46.0778 24.1793 46.1334 24.3433 46.1897 24.5074C46.1897 24.5074 46.3849 25.0657 46.4212 25.1874C46.4698 25.3414 46.6194 25.8458 46.6194 25.8458C46.6194 25.8458 46.7475 26.2671 46.7837 26.398C46.8308 26.5682 46.874 26.7407 46.9165 26.9132L47.0044 27.2582C47.036 27.3791 47.0677 27.5 47.0962 27.6225C47.1333 27.785 47.1656 27.9459 47.198 28.1061L47.2837 28.5189C47.3084 28.6344 47.3339 28.7499 47.3547 28.8662C47.3879 29.0449 47.4156 29.222 47.4434 29.3999L47.5676 30.1354C47.5946 30.3248 47.6154 30.5204 47.637 30.713C47.637 30.713 47.7057 31.2975 47.7142 31.4015C47.7373 31.6525 47.7535 31.9067 47.769 32.1608L47.8037 32.6722C47.8245 33.1027 47.8369 33.5308 47.8369 33.9598C47.8623 47.5139 26.6205 71.9713 24.198 74.7153L25.1492 75.9067L32.2193 72.0668Z" fill="#B48D5E"/>
<path d="M16.6907 15.0365L23.7592 11.1982C19.5862 13.4639 16.8226 18.1008 16.8334 23.8205C16.8334 24.3719 16.862 24.9202 16.9106 25.4639C16.9276 25.6464 16.9631 25.8243 16.9877 26.003C17.0325 26.3627 17.0734 26.7238 17.142 27.0812C17.1822 27.2937 17.24 27.5017 17.2871 27.7127C17.3573 28.03 17.4213 28.3496 17.5077 28.663C17.5702 28.8871 17.6505 29.1043 17.7207 29.3253C17.814 29.6195 17.9004 29.916 18.0077 30.2048C18.0455 30.3072 18.0918 30.4065 18.1319 30.5128C18.2762 30.8809 18.4274 31.2467 18.5948 31.6049C18.6719 31.7658 18.7491 31.9237 18.8308 32.0823C18.9851 32.3904 19.1395 32.6938 19.3069 32.9911C19.3756 33.112 19.4442 33.2313 19.5152 33.3507C19.7209 33.7019 19.9393 34.0461 20.1702 34.3834C20.2126 34.4466 20.252 34.5121 20.2952 34.5737C20.5644 34.9587 20.8491 35.333 21.1438 35.6973C21.221 35.7881 21.2935 35.8775 21.3691 35.9668C21.6268 36.2749 21.8922 36.5706 22.1668 36.8578C22.2263 36.9202 22.2833 36.9857 22.3435 37.0473C22.6676 37.3769 23.0039 37.6926 23.3465 37.9968C23.4414 38.08 23.5393 38.1593 23.6365 38.2402C23.9112 38.4728 24.1925 38.6964 24.4806 38.911C24.5878 38.988 24.6951 39.0719 24.8039 39.1497C25.0677 39.3376 25.3393 39.5101 25.6116 39.6819C25.7659 39.7804 25.9202 39.8844 26.0791 39.9776C26.397 40.1632 26.7234 40.3326 27.0512 40.4966C27.1647 40.5536 27.2742 40.6183 27.3892 40.673C27.8058 40.8694 28.2317 41.0442 28.6629 41.2036C28.7817 41.2475 28.9021 41.286 29.0224 41.3268C29.3542 41.4408 29.69 41.5435 30.03 41.6349C30.1612 41.6695 30.2916 41.7057 30.4235 41.7373C30.8756 41.8451 31.3316 41.9391 31.7945 42.0045C32.2111 42.0631 32.6223 42.0977 33.0289 42.1185C33.1569 42.1254 33.2834 42.1247 33.4107 42.1278C33.6916 42.1339 33.9709 42.1347 34.2471 42.1239C34.3883 42.1185 34.5287 42.11 34.6683 42.1008C34.9368 42.0815 35.2014 42.0538 35.4637 42.0192C35.5918 42.0015 35.7206 41.9876 35.8495 41.9668C36.1735 41.9155 36.4924 41.8503 36.8061 41.7712C36.8625 41.7573 36.9196 41.7489 36.9751 41.7342C37.3493 41.6372 37.715 41.5209 38.0745 41.3915C38.1779 41.3538 38.2782 41.3099 38.3831 41.2698C38.64 41.1697 38.893 41.0627 39.1407 40.9456C39.3513 40.8463 39.562 40.7485 39.7664 40.6376L32.6979 44.4758C32.5482 44.5575 32.3962 44.6353 32.2435 44.7069C32.1879 44.7346 32.1277 44.7539 32.0714 44.7839C31.823 44.9017 31.5692 45.0088 31.3123 45.1097C31.2097 45.1497 31.1101 45.1928 31.0037 45.2306C30.6441 45.3599 30.2784 45.4762 29.9043 45.5733C29.8966 45.5733 29.8896 45.5787 29.8819 45.5802C29.8341 45.5925 29.7839 45.5987 29.7361 45.6102C29.4213 45.6872 29.1019 45.7524 28.7779 45.8058C28.6521 45.8266 28.524 45.8405 28.3967 45.8582C28.1337 45.8929 27.8683 45.9206 27.599 45.9398C27.4594 45.9499 27.3197 45.9576 27.1785 45.963C26.9023 45.9737 26.6231 45.973 26.3422 45.963C26.2149 45.963 26.0884 45.963 25.9603 45.9537C25.5522 45.9329 25.1418 45.8983 24.7259 45.8397C24.263 45.7743 23.8071 45.6803 23.355 45.5725C23.223 45.5409 23.0926 45.5047 22.9615 45.4701C22.622 45.3792 22.2862 45.2765 21.9539 45.162C21.8335 45.1212 21.7132 45.085 21.5944 45.0388C21.1762 44.8848 20.7635 44.7177 20.36 44.5282L20.3214 44.5082C20.2072 44.4543 20.0977 44.3888 19.9843 44.3326C19.6556 44.1678 19.3292 43.9991 19.0106 43.812C18.8524 43.7196 18.702 43.6164 18.5477 43.5186C18.344 43.39 18.1365 43.2698 17.9375 43.1335C17.8696 43.0866 17.8055 43.0342 17.7376 42.9864C17.6296 42.9094 17.5232 42.8324 17.4159 42.7485C17.1279 42.5339 16.845 42.31 16.5673 42.0769C16.4708 41.9953 16.3728 41.9167 16.2779 41.8336C16.2293 41.7904 16.1777 41.7512 16.1298 41.708C15.8351 41.4439 15.5504 41.169 15.2727 40.8832C15.2125 40.8224 15.1554 40.7577 15.096 40.6953C14.9317 40.5228 14.765 40.3519 14.6069 40.1724C14.5004 40.0531 14.4016 39.926 14.2983 39.8035C14.2211 39.7142 14.144 39.6249 14.073 39.534C13.7929 39.1882 13.5198 38.8363 13.2637 38.4712C13.2498 38.4512 13.2375 38.4304 13.2236 38.4112C13.1804 38.348 13.141 38.2826 13.0978 38.2194C12.8684 37.8826 12.6504 37.5389 12.4436 37.1882C12.3726 37.0688 12.3039 36.9487 12.2353 36.8278C12.1735 36.7184 12.1072 36.6129 12.0478 36.5028C11.9452 36.3118 11.8564 36.1177 11.76 35.9206C11.6829 35.7604 11.598 35.6033 11.5232 35.4408C11.3573 35.0827 11.2061 34.7184 11.0603 34.3496C11.0201 34.2471 10.9739 34.1486 10.9361 34.0415C10.9291 34.0246 10.9214 34.0084 10.9152 33.9915C10.8149 33.7196 10.737 33.4393 10.649 33.1628C10.5788 32.941 10.4986 32.7238 10.4369 32.4997C10.3497 32.1871 10.2864 31.8682 10.2155 31.5509C10.1692 31.3399 10.1105 31.1312 10.0704 30.9179C10.0048 30.5637 9.96471 30.204 9.91996 29.8451C9.89682 29.6626 9.86133 29.4832 9.84281 29.2999C9.79138 28.7562 9.76566 28.2084 9.76566 27.6565C9.75409 21.9391 12.5184 17.3022 16.6907 15.0365Z" fill="#B48D5E"/>
<path d="M48.5792 32.6375C48.5722 32.4989 48.5583 32.3618 48.5499 32.224C48.5306 31.9244 48.5136 31.624 48.485 31.3252C48.4688 31.1535 48.4449 30.9833 48.4256 30.8123C48.3963 30.549 48.3693 30.2856 48.3331 30.0245C48.3068 29.8389 48.2729 29.6556 48.2435 29.4708C48.2042 29.2251 48.1664 28.9795 48.1232 28.7353C48.0877 28.5451 48.046 28.3572 48.0059 28.1677C47.9573 27.9313 47.9118 27.6941 47.857 27.4592C47.8138 27.2698 47.7621 27.0826 47.7151 26.8947C47.6564 26.6637 47.6009 26.4327 47.5368 26.2016C47.4844 26.0114 47.4242 25.8235 47.3679 25.6341C47.3008 25.4092 47.2359 25.1835 47.1642 24.961C47.1017 24.7684 47.0331 24.5759 46.9667 24.388C46.8942 24.1785 46.824 23.9683 46.7476 23.7611C46.5215 23.1504 46.2731 22.5505 46.01 21.9575C45.9586 21.8425 45.9072 21.728 45.8557 21.614C45.5903 21.0349 45.3074 20.4645 45.0071 19.9028C44.9469 19.7896 44.8836 19.6787 44.8219 19.5663C44.6074 19.1766 44.3852 18.7915 44.1553 18.4111C44.0851 18.2964 44.0172 18.1801 43.9463 18.0661C43.6577 17.604 43.3581 17.1499 43.0475 16.7037C42.9842 16.6129 42.9178 16.5251 42.853 16.435C42.6108 16.0961 42.3621 15.7624 42.107 15.4338C42.0108 15.3096 41.9136 15.1866 41.8154 15.0649C41.5515 14.7348 41.2807 14.4106 41.003 14.0923C40.9359 14.0153 40.8711 13.9382 40.8032 13.8612C40.4596 13.4746 40.1067 13.098 39.7446 12.7315C39.6528 12.6383 39.5587 12.5482 39.4661 12.4565C39.1822 12.1752 38.8934 11.9003 38.5997 11.6317C38.4902 11.5316 38.3807 11.4315 38.2696 11.3329C37.8614 10.9702 37.4463 10.6167 37.0197 10.2794C36.9819 10.2494 36.9425 10.2216 36.9047 10.1924C36.5097 9.88434 36.1062 9.5863 35.6973 9.29905C35.543 9.19277 35.3934 9.0865 35.2399 8.98253C35.101 8.8896 34.9611 8.79718 34.8201 8.70528C34.6236 8.57796 34.4254 8.45371 34.2253 8.33255C34.0841 8.2463 33.9437 8.16004 33.8018 8.0761C33.5935 7.95442 33.3836 7.83736 33.173 7.72107C33.0357 7.64406 32.8999 7.56705 32.7618 7.4962C32.5303 7.37298 32.2935 7.25669 32.0574 7.1404C31.9386 7.08187 31.8213 7.02026 31.701 6.96405C31.6238 6.92862 31.5467 6.89704 31.4695 6.86162C31.04 6.66344 30.6046 6.4781 30.1633 6.30559C30.0345 6.25477 29.9057 6.20317 29.7776 6.15157C29.273 5.96212 28.7638 5.78345 28.2477 5.62712C28.2037 5.61403 28.159 5.60325 28.115 5.59016C27.6359 5.44845 27.1522 5.32446 26.6646 5.21202C26.5272 5.18071 26.3899 5.15016 26.2526 5.12038C25.7203 5.00717 25.1856 4.90628 24.644 4.83004C24.1178 4.75303 23.5971 4.70759 23.0794 4.6714C22.9729 4.6637 22.8657 4.65523 22.7592 4.64984C22.2588 4.6216 21.7624 4.60979 21.2702 4.61441C21.183 4.61441 21.0974 4.6198 21.0102 4.62211C20.5519 4.6329 20.0983 4.65857 19.6493 4.69913C19.5837 4.70452 19.5181 4.7076 19.4533 4.71376C18.9711 4.76151 18.4951 4.8285 18.0245 4.90783L17.7159 4.96251C17.2453 5.0503 16.7793 5.14887 16.3218 5.27055C16.2763 5.28211 16.2323 5.29597 16.1875 5.30829C15.7617 5.42227 15.3389 5.55165 14.9285 5.69335C14.8343 5.72492 14.7402 5.75573 14.6468 5.78884C14.2107 5.94287 13.782 6.11255 13.3607 6.29789C13.2836 6.33255 13.2065 6.37028 13.1255 6.40571C12.6973 6.59978 12.2768 6.80386 11.8633 7.0272L18.938 3.18122C19.1776 3.0503 19.4207 2.92477 19.667 2.80463C19.8422 2.71838 20.0219 2.6406 20.2001 2.55973C20.2773 2.52431 20.3544 2.48272 20.4355 2.45192C20.8567 2.26709 21.2841 2.09843 21.7215 1.94287C21.8149 1.90975 21.909 1.87895 22.0031 1.84737C22.4182 1.70644 22.8379 1.57629 23.2646 1.46231C23.3085 1.45076 23.3517 1.4369 23.3957 1.42535C23.4127 1.42073 23.4304 1.41457 23.4474 1.41072C23.8887 1.29674 24.3385 1.20355 24.7921 1.11961C24.8932 1.10113 24.9943 1.08265 25.0961 1.0657C25.5667 0.988692 26.0427 0.918609 26.5257 0.870862C26.5905 0.864701 26.6561 0.86162 26.7209 0.856229C27.1699 0.816183 27.6251 0.791539 28.0834 0.779217C28.1698 0.779217 28.2562 0.772288 28.3426 0.771518C28.8348 0.765357 29.3317 0.778445 29.8332 0.80617C29.9388 0.81233 30.0453 0.820805 30.151 0.828506C30.6694 0.864702 31.1902 0.913219 31.7164 0.98715C32.2564 1.06416 32.7926 1.16428 33.325 1.27749C33.4631 1.30675 33.5996 1.33755 33.737 1.36913C34.2246 1.48156 34.709 1.60556 35.1874 1.74803C35.2314 1.76035 35.2761 1.77113 35.3201 1.78422C35.8362 1.93825 36.3462 2.11922 36.8515 2.30944C36.9803 2.35719 37.1076 2.40802 37.2373 2.45885C37.6791 2.63289 38.1163 2.81901 38.5488 3.01718C38.6013 3.04106 38.6553 3.06031 38.7077 3.08495C38.7293 3.09574 38.751 3.10729 38.7733 3.1173C38.8952 3.17506 39.0148 3.23744 39.136 3.29674C39.3674 3.41226 39.6042 3.52778 39.8349 3.65022C39.973 3.72262 40.1088 3.79963 40.2461 3.8751C40.4567 3.99139 40.6666 4.10613 40.8749 4.23012C41.0168 4.31406 41.158 4.40032 41.2992 4.48657C41.4983 4.60825 41.6958 4.73147 41.8925 4.85854C42.0335 4.94993 42.1741 5.04286 42.3145 5.13732C42.4063 5.1997 42.5005 5.25823 42.5923 5.32138C42.6525 5.36297 42.7096 5.41072 42.7705 5.45307C43.1786 5.73956 43.5813 6.03528 43.9764 6.3441C44.0149 6.37491 44.0535 6.40263 44.0936 6.43343C44.5195 6.77074 44.9346 7.12654 45.3427 7.48695C45.389 7.52777 45.4376 7.56397 45.4839 7.60556C45.5479 7.66332 45.6089 7.72723 45.6729 7.78576C45.9666 8.05479 46.2556 8.32972 46.5401 8.61056C46.6319 8.70221 46.726 8.79154 46.8178 8.88472C47.1778 9.25181 47.5309 9.62866 47.8771 10.0153C47.8917 10.033 47.9087 10.0484 47.9241 10.0661C47.9758 10.1246 48.0237 10.1878 48.0784 10.2471C48.3557 10.5649 48.6267 10.8893 48.8916 11.2205C48.9904 11.3422 49.0868 11.4654 49.1833 11.5894C49.4378 11.918 49.6865 12.2517 49.9293 12.5905C49.9787 12.6591 50.0319 12.7245 50.0836 12.7931C50.099 12.8146 50.1121 12.8377 50.1276 12.8593C50.4362 13.3044 50.7355 13.7586 51.0256 14.2216C51.0966 14.3356 51.1645 14.4527 51.2347 14.5667C51.4646 14.9466 51.6868 15.3317 51.9013 15.7218C51.9437 15.7989 51.9907 15.8759 52.0324 15.9529C52.0517 15.9883 52.0679 16.026 52.0864 16.0615C52.3858 16.6221 52.6686 17.1925 52.9351 17.7727C52.9865 17.8866 53.0379 18.0011 53.0894 18.1161C53.3517 18.7091 53.6009 19.3091 53.8269 19.919C53.8331 19.9367 53.8416 19.9537 53.8478 19.9714C53.918 20.1608 53.9797 20.3564 54.0453 20.5443C54.1109 20.7322 54.181 20.9294 54.2443 21.1204C54.3145 21.3399 54.3778 21.5617 54.4441 21.7827C54.502 21.9752 54.5629 22.1677 54.6169 22.3618C54.6802 22.5928 54.735 22.82 54.7929 23.0495C54.8407 23.2397 54.8924 23.4292 54.9363 23.6202C54.9903 23.8512 55.0359 24.0884 55.0837 24.3225C55.1231 24.5143 55.167 24.7076 55.2025 24.897C55.2465 25.135 55.2797 25.3745 55.3198 25.614C55.3507 25.8042 55.3854 25.9945 55.4124 26.1862C55.4478 26.4434 55.4741 26.703 55.5034 26.9617C55.5235 27.1366 55.5482 27.3106 55.5644 27.4862C55.5929 27.785 55.6099 28.0853 55.6292 28.3849C55.6376 28.5228 55.6515 28.6598 55.6585 28.7977C55.6796 29.2377 55.6906 29.6782 55.6917 30.1192C55.7032 36.3456 51.3712 44.7638 46.3942 52.3757C45.6829 53.4631 44.9592 54.532 44.234 55.5809C42.7805 57.6733 41.3178 59.6625 39.9321 61.4854C39.2378 62.3965 38.5658 63.2644 37.9216 64.0807C37.5996 64.4915 37.2856 64.8865 36.9796 65.2659C34.2292 68.6991 32.1963 71.0041 31.8599 71.3845L24.7914 75.2228C25.9841 73.8712 48.6509 48.187 48.6247 33.9552C48.6159 33.5137 48.6008 33.0744 48.5792 32.6375Z" fill="#B48D5E"/>
<path d="M25.3617 75.7371C25.2848 75.8253 25.1888 75.8948 25.0809 75.9404C24.9731 75.986 24.8563 76.0065 24.7393 76.0003C24.6224 75.9942 24.5084 75.9615 24.4059 75.9048C24.3035 75.8482 24.2153 75.769 24.1481 75.6732C21.6793 72.2 0.0255133 41.3298 5.36232e-05 27.2489C-0.0130619 20.4233 2.38015 14.2631 6.73915 9.90427C10.6522 5.99052 15.9046 3.83496 21.5289 3.83496C22.6092 3.83699 23.6881 3.91419 24.7576 4.066C38.3122 5.96742 49.3617 19.3783 49.3879 33.9597C49.4157 48.0837 27.8236 72.9508 25.3617 75.7402V75.7371ZM14.3793 17.7233C11.8974 20.2062 10.5334 23.7302 10.5411 27.6578C10.5565 36.1569 16.9685 43.9697 24.834 45.0733C25.4426 45.1586 26.0564 45.2018 26.671 45.2027C29.8426 45.2027 32.8029 43.9897 35.0032 41.7864C37.4844 39.3036 38.8484 35.7741 38.8407 31.8519C38.8245 23.3521 32.4156 15.5408 24.554 14.4372C23.9451 14.3516 23.3311 14.3083 22.7162 14.3078C19.5461 14.3047 16.5843 15.5184 14.3793 17.7233Z" fill="#FDB733"/>
<path d="M0.771858 27.2441C0.802718 41.4759 23.5806 73.5391 24.7826 75.2225C25.7516 74.1236 40.9009 56.9515 46.539 42.9284C47.8259 39.6939 48.6221 36.6211 48.6167 33.9588C48.5858 19.7262 37.8635 6.67885 24.653 4.82902C13.6822 3.28878 4.46427 9.93645 1.64982 20.3693C1.05469 22.6122 0.759476 24.9239 0.771858 27.2441ZM11.4009 35.1686C10.3348 32.8085 9.77759 30.2512 9.76527 27.6623C9.74907 18.7774 16.4172 12.5094 24.6661 13.67C32.915 14.8306 39.5978 22.9646 39.6217 31.8448C39.6294 34.7243 38.9312 37.3319 37.6984 39.499C35.1478 44.0112 30.2919 46.6188 24.7278 45.8371C18.9138 45.0208 13.8666 40.7412 11.4009 35.1686Z" fill="#FDB733"/>
</svg>
