<svg width="83" height="76" viewBox="0 0 83 76" fill="none" xmlns="http://www.w3.org/2000/svg">
<g style="mix-blend-mode:multiply">
<g style="mix-blend-mode:multiply">
<path d="M0 55.994L34.5029 75.9998L58.252 62.2354L23.7492 42.2295L0 55.994Z" fill="#E8E8E8"/>
</g>
</g>
<path d="M57.5084 21.6221L52.681 18.8247L41.6609 12.4272L14.4492 28.209L25.4804 34.6176L30.2968 37.3928L42.2602 44.3363L69.4607 28.5545L57.5084 21.6221Z" fill="#FFDDA8"/>
<path d="M41.6608 12.873L15.1816 28.209L42.2601 43.8125L68.7393 28.5657L41.6608 12.873Z" fill="#DDA866"/>
<path d="M41.6611 12.873V40.558L44.9905 42.2744L68.7729 28.5545L41.6611 12.873Z" fill="#AA6838"/>
<path d="M42.2602 44.3364V71.5198L30.319 64.6543L25.4804 61.8791L14.4492 55.5263V28.2202L25.4804 34.6176L30.319 37.4151L42.2602 44.3364Z" fill="#BC7C46"/>
<path d="M42.2598 44.3472V71.5195L69.4603 55.838V28.5654L42.2598 44.3472Z" fill="#DDA866"/>
<path d="M41.2168 12.6279L30.9292 0.412598L4.15039 15.548V16.1609L14.4491 28.2202L15.004 28.2759L41.2279 13.0848L41.2168 12.6279Z" fill="#BC7C46"/>
<path d="M4.15039 15.5477L15.004 28.2646L41.6386 12.8394V12.3825L31.2955 0L4.15039 15.5477Z" fill="#EDC893"/>
<path d="M55.3219 0.769208L42.1045 12.8842L68.7391 28.6437L69.5048 28.5545L82.5558 16.4284L82.356 15.9937L55.7214 0.535156L55.3219 0.769208Z" fill="#BC7C46"/>
<path d="M68.7392 28.6435L82.3561 15.9824L55.2887 0.256348L54.9003 0.501546L41.583 12.7614L68.7392 28.6435Z" fill="#EDC893"/>
<path d="M45.9117 65.3226L45.7119 65.4341V62.0905L45.9117 61.979V65.3226Z" fill="#4F2E16"/>
<path d="M46.5882 62.3134L46.455 62.5474L45.8114 62.1128L45.1677 63.2942L45.0234 63.2273L45.8114 61.7896L46.5882 62.3134Z" fill="#4F2E16"/>
<path d="M47.8205 64.2083L47.6318 64.3198V60.9762L47.8205 60.8647V64.2083Z" fill="#4F2E16"/>
<path d="M48.5081 61.1991L48.3639 61.4332L47.7313 61.0097L47.0876 62.1799L46.9434 62.113L47.7313 60.6753L48.5081 61.1991Z" fill="#4F2E16"/>
<path d="M48.5523 63.8962L44.9788 65.9692C44.9233 65.9692 44.8789 65.9692 44.8789 65.9692C44.881 65.9354 44.8912 65.9025 44.9085 65.8734C44.9259 65.8443 44.95 65.8198 44.9788 65.802L48.5523 63.729C48.6077 63.729 48.641 63.729 48.641 63.729C48.6402 63.7619 48.6317 63.7941 48.6163 63.8231C48.6009 63.8521 48.579 63.8772 48.5523 63.8962Z" fill="#4F2E16"/>
<path d="M48.5198 64.799L45.0129 66.8386C44.6356 67.0503 44.3359 66.8386 44.3359 66.4485V62.3804C44.3558 62.1549 44.4272 61.9369 44.5446 61.7436C44.662 61.5503 44.8223 61.3868 45.0129 61.2659L48.5198 59.2263C48.886 59.0145 49.1856 59.2263 49.1856 59.6164V63.6956C49.1646 63.918 49.0939 64.1328 48.9785 64.3239C48.8632 64.5149 48.7064 64.6773 48.5198 64.799ZM45.0129 61.4554C44.8741 61.5488 44.7581 61.6725 44.6736 61.8172C44.589 61.962 44.5381 62.124 44.5246 62.2913V66.3705C44.5246 66.6825 44.7466 66.8051 45.0129 66.6491L48.5198 64.6095C48.6552 64.5161 48.7682 64.3936 48.8507 64.251C48.9332 64.1084 48.9832 63.9491 48.997 63.7848V59.6833C48.997 59.3712 48.7862 59.2486 48.5198 59.4046L45.0129 61.4554Z" fill="#4F2E16"/>
<path d="M54.135 61.5335L50.6282 63.562C50.2508 63.7849 49.9512 63.562 49.9512 63.183V59.1038C49.9734 58.8789 50.0458 58.6619 50.163 58.469C50.2802 58.276 50.4392 58.1121 50.6282 57.9893L54.135 55.9609C54.5124 55.7379 54.8009 55.9608 54.8009 56.3398V60.419C54.7807 60.6431 54.7103 60.8598 54.595 61.0528C54.4797 61.2458 54.3225 61.4101 54.135 61.5335ZM50.6282 58.1899C50.4914 58.2845 50.3776 58.4087 50.295 58.5534C50.2124 58.6981 50.1632 58.8595 50.151 59.0258V63.027C50.151 63.3279 50.3618 63.4505 50.6282 63.3056L54.135 61.266C54.2738 61.1726 54.3898 61.0489 54.4744 60.9042C54.5589 60.7594 54.6099 60.5974 54.6233 60.4301V56.3955C54.6233 56.0946 54.4014 55.972 54.135 56.1169L50.6282 58.1899Z" fill="#4F2E16"/>
<path d="M52.3811 61.4331H52.2812V58.4685C52.2813 58.4341 52.2905 58.4004 52.3081 58.371C52.3257 58.3415 52.351 58.3174 52.3811 58.3013C52.4366 58.3013 52.4699 58.3013 52.4699 58.3013V61.2213C52.4824 61.2615 52.4802 61.3048 52.464 61.3435C52.4478 61.3822 52.4184 61.414 52.3811 61.4331Z" fill="#4F2E16"/>
<path d="M52.8141 61.1877L51.9485 61.6892C51.893 61.6892 51.8486 61.6892 51.8486 61.6892C51.8516 61.6556 51.8621 61.6231 51.8794 61.5941C51.8967 61.5651 51.9203 61.5405 51.9485 61.5221L52.8141 61.0205H52.914C52.9111 61.0542 52.9005 61.0867 52.8832 61.1157C52.8659 61.1446 52.8423 61.1692 52.8141 61.1877Z" fill="#4F2E16"/>
<path d="M53.3022 57.4541V58.825C53.2943 59.0238 53.2387 59.2179 53.1401 59.3905C53.0416 59.5632 52.903 59.7095 52.7362 59.8169L52.0259 60.2293C51.7152 60.4188 51.46 60.2293 51.46 59.8949V58.5686L51.804 58.368V59.8281C51.8015 59.8393 51.8025 59.8511 51.8069 59.8617C51.8114 59.8724 51.819 59.8814 51.8287 59.8875C51.8385 59.8936 51.8499 59.8966 51.8613 59.8959C51.8728 59.8952 51.8838 59.891 51.8928 59.8838C51.9209 59.8653 51.9446 59.8407 51.9619 59.8117C51.9792 59.7828 51.9897 59.7502 51.9926 59.7166V58.2566L53.3022 57.4541Z" fill="#4F2E16"/>
<path d="M41.6611 40.3574L39.0088 41.9066L42.3381 43.8013L45.0016 42.2744L41.6611 40.3574Z" fill="#C68B51"/>
<path d="M0.676758 24.0737L15.0483 28.309L42.26 43.801V44.3136L27.7441 40.7137L0.676758 24.5641V24.0737Z" fill="#DDA866"/>
<path d="M15.1038 28.2086L0.676758 24.0737L27.7552 40.2122L42.2711 43.801L15.1038 28.2086Z" fill="#EDC893"/>
<path d="M69.1385 29L42.2598 43.801V44.3583L55.8989 47.7019L82.9885 32.1987V31.7417L69.1385 29Z" fill="#BC7C46"/>
<path d="M68.739 28.5542L42.2598 43.801L55.91 47.2449L82.9996 31.7529L69.4714 28.5542H68.739Z" fill="#EDC893"/>
</svg>
