<svg width="34" height="29" viewBox="0 0 34 29" fill="none" xmlns="http://www.w3.org/2000/svg">
<g clip-path="url(#clip0_652_2723)">
<path d="M15.5952 14.4605C15.6913 14.5389 15.7692 14.6375 15.8236 14.7493C15.878 14.8611 15.9075 14.9835 15.9101 15.108H16.688C16.6862 14.8708 16.6329 14.6369 16.5317 14.4226C16.4306 14.2083 16.2842 14.0189 16.1027 13.8677C15.8309 13.6387 15.5025 13.4882 15.1525 13.4324V12.3755H14.3752V13.4324C14.0251 13.4882 13.6968 13.6387 13.425 13.8677C13.2424 14.018 13.0953 14.2072 12.9943 14.4218C12.8932 14.6364 12.8408 14.8708 12.8408 15.1083C12.8408 15.3458 12.8932 15.5803 12.9943 15.7948C13.0953 16.0094 13.2424 16.1986 13.425 16.3489C13.7991 16.6673 14.2743 16.8398 14.7641 16.8351C15.0674 16.8304 15.3623 16.9355 15.5952 17.1312C15.6932 17.2079 15.7725 17.3061 15.827 17.4184C15.8816 17.5307 15.9099 17.654 15.9099 17.779C15.9099 17.904 15.8816 18.0273 15.827 18.1396C15.7725 18.2518 15.6932 18.3501 15.5952 18.4268C15.1563 18.8085 14.3724 18.8085 13.9335 18.4268C13.8377 18.3481 13.7599 18.2494 13.7056 18.1375C13.6513 18.0256 13.6219 17.9032 13.6192 17.7787H12.8413C12.8426 18.0163 12.8955 18.2508 12.9964 18.4656C13.0972 18.6805 13.2435 18.8705 13.425 19.0223C13.6961 19.2551 14.0242 19.4104 14.3752 19.472V20.514H15.1536V19.4693C15.5039 19.4082 15.8316 19.2539 16.1027 19.0223C16.2861 18.8721 16.434 18.6826 16.5356 18.4675C16.6372 18.2525 16.6899 18.0174 16.6899 17.7793C16.6899 17.5411 16.6372 17.306 16.5356 17.091C16.434 16.8759 16.2861 16.6864 16.1027 16.5362C15.7286 16.2173 15.2531 16.0446 14.763 16.0495C14.4599 16.0542 14.1652 15.9493 13.9324 15.7539C13.8345 15.6771 13.7553 15.5789 13.7009 15.4666C13.6464 15.3543 13.6181 15.231 13.6181 15.1061C13.6181 14.9812 13.6464 14.8579 13.7009 14.7456C13.7553 14.6333 13.8345 14.5351 13.9324 14.4583C14.3724 14.0788 15.1563 14.0788 15.5952 14.4605Z" fill="white" stroke="white" stroke-width="0.5" stroke-miterlimit="10"/>
<path d="M29.5158 16.3594V8.32802C29.5158 8.08459 29.4198 7.85113 29.2489 7.67894C29.0781 7.50676 28.8463 7.40996 28.6046 7.40981H27.3626L26.7624 3.90048C26.739 3.7636 26.689 3.63271 26.6153 3.51528C26.5417 3.39785 26.4457 3.29619 26.3331 3.21611C26.2204 3.13602 26.0931 3.07907 25.9586 3.04853C25.824 3.01798 25.6848 3.01442 25.5489 3.03807L23.834 3.33585L22.9014 0.815459C22.7901 0.514526 22.5665 0.269285 22.2782 0.132021C21.9899 -0.00524277 21.6598 -0.0236712 21.3582 0.0806659L0.276446 7.36506L0.29071 7.40815H0.0136719V24.4526C0.0136718 24.7243 0.120811 24.9849 0.311536 25.1771C0.502261 25.3692 0.76096 25.4773 1.03076 25.4774H21.8629C23.168 28.0188 26.0904 29.5856 29.2546 28.7674C30.3403 28.4853 31.3313 27.9159 32.1248 27.1181C32.9183 26.3204 33.4854 25.3234 33.7674 24.2305C34.6868 20.6438 32.606 17.3544 29.5158 16.3594ZM26.5731 7.40926H4.94605L25.9494 3.76292L26.5731 7.40926ZM23.0539 3.47066L4.74965 6.64684L22.0215 0.680102L23.0539 3.47066ZM0.791573 24.694V8.19377H28.7379V16.1649C28.027 16.0244 27.2968 16.0145 26.5825 16.1356V12.6523H26.1935C25.6944 12.6515 25.216 12.4515 24.8632 12.0961C24.5103 11.7406 24.3119 11.2588 24.3113 10.7562V10.3644H5.22035V10.7562C5.22035 11.2589 5.02206 11.7411 4.66909 12.0967C4.31612 12.4523 3.83738 12.6521 3.33813 12.6523H2.94863V20.2377H3.33813C3.83715 20.2383 4.31556 20.4382 4.66842 20.7936C5.02127 21.1489 5.21976 21.6307 5.22035 22.1333V22.525H21.1432C21.1462 23.2656 21.2761 24.0001 21.5272 24.6962L0.791573 24.694ZM21.1942 21.7394H5.96807C5.88349 21.1706 5.61992 20.6442 5.21613 20.2376C4.81234 19.8309 4.28963 19.5655 3.72489 19.4803V13.4069C4.28967 13.3218 4.81241 13.0564 5.21622 12.6498C5.62003 12.2431 5.88357 11.7166 5.96807 11.1479H23.5636C23.6479 11.7166 23.9113 12.2431 24.315 12.6498C24.7187 13.0565 25.2415 13.3219 25.8062 13.4069V16.3047C24.5927 16.6547 23.5083 17.3567 22.6882 18.3231C21.8681 19.2895 21.3485 20.4776 21.1942 21.7394ZM27.7515 28.1989C26.9795 28.2237 26.2107 28.0888 25.4926 27.8027C24.7744 27.5165 24.1221 27.0851 23.5759 26.5351C23.0298 25.9851 22.6014 25.3282 22.3173 24.6049C22.0331 23.8816 21.8992 23.1074 21.9238 22.33C22.0176 19.4361 24.5022 16.9323 27.3774 16.8384C28.1493 16.8136 28.918 16.9486 29.6361 17.2348C30.3543 17.521 31.0065 17.9524 31.5526 18.5024C32.0986 19.0524 32.527 19.7093 32.8111 20.4325C33.0952 21.1557 33.2291 21.9299 33.2045 22.7073C33.109 25.6012 30.625 28.105 27.7515 28.1989Z" fill="white" stroke="white" stroke-width="0.5" stroke-miterlimit="10"/>
<path d="M27.9532 19.219H27.1753V22.1272H24.2881V22.9106H27.1753V25.8189H27.9532V22.9106H30.841V22.1272H27.9532V19.219Z" fill="white" stroke="white" stroke-width="0.5" stroke-miterlimit="10"/>
</g>
<defs>
<clipPath id="clip0_652_2723">
<rect width="34" height="29" fill="white"/>
</clipPath>
</defs>
</svg>
