<svg width="62" height="76" viewBox="0 0 62 76" fill="none" xmlns="http://www.w3.org/2000/svg">
<path d="M38.8289 75.8196L35.0049 69.5518L35.8802 69.0402C36.1757 68.9084 36.5003 68.8558 36.8222 68.8873C37.144 68.9189 37.4523 69.0336 37.7169 69.2204C38.4765 69.7016 39.1131 70.3551 39.5754 71.1284C40.0377 71.9017 40.3128 72.7732 40.3786 73.6727C40.4082 73.9841 40.3578 74.298 40.2322 74.5843C40.1066 74.8706 39.91 75.1198 39.6612 75.3081H39.6253H39.5894L38.8289 75.8196Z" fill="black"/>
<path d="M35.6865 69.9118L37.2506 68.9824C37.4119 69.0408 37.5679 69.1132 37.7169 69.1986C38.4766 69.6798 39.1132 70.3333 39.5755 71.1066C40.0377 71.8799 40.3129 72.7514 40.3787 73.6509C40.3853 73.921 40.3514 74.1906 40.2782 74.4506L39.3168 75.0197C39.0666 74.9508 38.8257 74.8517 38.5994 74.7244C38.3218 74.5683 38.0619 74.3823 37.8245 74.1696L35.8085 70.8772C35.7343 70.5606 35.6934 70.237 35.6865 69.9118Z" fill="#1F1F1F"/>
<path d="M34.3089 71.2015C34.3747 72.101 34.6498 72.9725 35.1121 73.7458C35.5744 74.5191 36.211 75.1726 36.9706 75.6538C38.4056 76.468 39.5822 75.7979 39.5606 74.1553C39.4982 73.255 39.2245 72.3822 38.7619 71.6084C38.2993 70.8346 37.6609 70.1816 36.8989 69.703C35.4855 68.8817 34.2874 69.5589 34.3089 71.2015Z" fill="#2A2A2A"/>
<path d="M34.4095 71.2589C34.4709 72.1243 34.7348 72.9629 35.1799 73.7065C35.625 74.4502 36.2386 75.0778 36.9708 75.5383C38.3627 76.3236 39.4819 75.6752 39.4604 74.0974C39.4007 73.2316 39.1375 72.3923 38.6922 71.6484C38.247 70.9045 37.6325 70.2772 36.8991 69.818C35.4857 69.0327 34.388 69.6739 34.4095 71.2589Z" fill="#1D1D1D"/>
<path d="M34.9758 71.5761C35.0229 72.2478 35.2275 72.8988 35.5729 73.476C35.9183 74.0532 36.3946 74.5402 36.9631 74.8973C38.0465 75.5097 38.9146 75.0054 38.9002 73.7807C38.8484 73.1093 38.641 72.4594 38.2947 71.8828C37.9484 71.3062 37.4728 70.8188 36.9057 70.4594C35.8224 69.847 34.9614 70.3514 34.9758 71.5761Z" fill="#3B3B3B"/>
<path d="M35.1047 71.6485C35.1485 72.2756 35.3398 72.8833 35.6628 73.4218C35.9858 73.9603 36.4314 74.4142 36.9629 74.7464C37.9673 75.3155 38.778 74.8472 38.7637 73.7089C38.7154 73.0876 38.5236 72.4861 38.2035 71.9522C37.8835 71.4182 37.444 70.9664 36.9198 70.6326C35.9011 70.0419 35.0903 70.503 35.1047 71.6485Z" fill="#F0B340"/>
<path d="M36.9203 70.6323C37.444 70.9687 37.8821 71.4234 38.1998 71.96C38.5174 72.4966 38.7058 73.1003 38.7498 73.723C38.7511 73.8706 38.7367 74.018 38.7067 74.1625L37.401 74.955C37.2477 74.9116 37.1006 74.8486 36.9633 74.7677C36.4398 74.4412 35.9997 73.9962 35.6783 73.4683C35.3568 72.9403 35.163 72.3441 35.1123 71.7274L36.9203 70.6323Z" fill="#C18F31"/>
<path d="M37.9394 71.5396C38.2982 72.0091 38.5548 72.5491 38.6927 73.1245L36.5404 74.4285C36.0864 74.0313 35.7241 73.5396 35.4785 72.9876L37.9394 71.5396Z" fill="#E9EAE7"/>
<path d="M37.9394 71.5396C38.2982 72.0091 38.5548 72.5491 38.6927 73.1245L36.5404 74.4285C36.0864 74.0313 35.7241 73.5396 35.4785 72.9876L37.9394 71.5396Z" fill="#C18F31"/>
<path d="M35.485 71.7129C35.5209 72.2523 35.6841 72.7753 35.961 73.2388C36.238 73.7023 36.6207 74.093 37.0777 74.3786C37.953 74.8685 38.6418 74.465 38.6346 73.4852C38.5967 72.9446 38.432 72.4206 38.154 71.9561C37.8759 71.4916 37.4924 71.0997 37.0347 70.8124C36.1307 70.3225 35.4348 70.7259 35.485 71.7129Z" fill="#C18F31"/>
<path d="M35.4856 72.1304C35.5144 72.5576 35.644 72.9717 35.8635 73.3387C36.0831 73.7057 36.3863 74.0151 36.7483 74.2413C37.4658 74.6304 37.9895 74.3134 37.9752 73.5209C37.9463 73.0928 37.8168 72.6776 37.5973 72.3094C37.3778 71.9413 37.0746 71.6306 36.7124 71.4028C35.9878 71.0281 35.4354 71.3523 35.4856 72.1304Z" fill="#FFC75F"/>
<path d="M37.6372 68.3916L37.1709 73.6292L38.1682 72.9232L40.3851 69.8757L37.6372 68.3916Z" fill="#C4C4C4"/>
<path d="M36.6477 69.105L36.1455 72.7576L37.1715 73.6294L39.3884 70.5819L36.6477 69.105Z" fill="#828282"/>
<path d="M52.7898 67.7073L48.9658 61.4394L49.8411 60.9279C50.1358 60.7975 50.4589 60.7455 50.7794 60.777C51.0999 60.8086 51.4068 60.9226 51.6706 61.108C52.4325 61.5892 53.0711 62.2435 53.5347 63.0182C53.9983 63.7929 54.2741 64.6662 54.3396 65.5676C54.37 65.8781 54.3199 66.1912 54.1942 66.4765C54.0685 66.7618 53.8714 67.0096 53.6221 67.1958H53.579L52.7898 67.7073Z" fill="black"/>
<path d="M49.6475 61.8288L51.2187 60.8994C51.3775 60.9554 51.5312 61.0253 51.6779 61.1083C52.4398 61.5895 53.0783 62.2438 53.542 63.0185C54.0056 63.7932 54.2813 64.6665 54.3468 65.5679C54.3508 65.8383 54.3145 66.1079 54.2392 66.3676L53.2778 66.9295C53.0271 66.8653 52.7859 66.7684 52.5603 66.6413C52.2848 66.4792 52.0254 66.291 51.7855 66.0794L49.7766 62.787C49.7031 62.4725 49.6598 62.1516 49.6475 61.8288Z" fill="#1F1F1F"/>
<path d="M48.2706 63.0892C48.3372 63.9893 48.6134 64.8612 49.077 65.6345C49.5406 66.4079 50.1786 67.0611 50.9395 67.5415C52.3745 68.3556 53.5511 67.6856 53.5296 66.043C53.4649 65.1422 53.1903 64.2693 52.7279 63.4947C52.2656 62.7201 51.6284 62.0654 50.8678 61.5834C49.4114 60.7693 48.2563 61.4393 48.2706 63.0892Z" fill="#2A2A2A"/>
<path d="M48.3996 63.1394C48.4561 64.0119 48.7176 64.8585 49.1629 65.6099C49.6081 66.3613 50.2243 66.996 50.961 67.4621C52.3959 68.2474 53.472 67.599 53.4577 66.0212C53.4012 65.1487 53.1397 64.3021 52.6945 63.5507C52.2493 62.7993 51.633 62.1646 50.8964 61.6985C49.4686 60.9133 48.3566 61.5616 48.3996 63.1394Z" fill="#1D1D1D"/>
<path d="M48.9377 63.4638C48.9854 64.1353 49.1903 64.7861 49.5356 65.3632C49.8809 65.9403 50.357 66.4274 50.925 66.785C52.0084 67.3974 52.8765 66.8931 52.8621 65.6683C52.8121 64.9964 52.6064 64.3455 52.2614 63.7676C51.9163 63.1897 51.4415 62.7008 50.8748 62.3399C49.7915 61.7347 48.9233 62.2318 48.9377 63.4638Z" fill="#3B3B3B"/>
<path d="M49.0734 63.5359C49.1171 64.1622 49.3075 64.7693 49.6292 65.3076C49.9508 65.846 50.3947 66.3004 50.9245 66.6338C51.9361 67.2029 52.7396 66.7346 52.7253 65.5891C52.6817 64.9628 52.4912 64.3557 52.1696 63.8174C51.8479 63.279 51.404 62.8246 50.8743 62.4912C49.8339 61.9221 49.0591 62.3904 49.0734 63.5359Z" fill="#F0B340"/>
<path d="M50.8956 62.5059C51.4155 62.8427 51.8498 63.2969 52.1637 63.8323C52.4777 64.3677 52.6625 64.9694 52.7036 65.5893C52.7085 65.7395 52.694 65.8896 52.6605 66.036L51.3476 66.8213C51.1927 66.7762 51.0434 66.7134 50.9028 66.634C50.3819 66.3046 49.9439 65.8589 49.6228 65.3315C49.3017 64.8041 49.1063 64.2094 49.0518 63.5937L50.8956 62.5059Z" fill="#C18F31"/>
<path d="M51.9007 63.4277C52.2495 63.9014 52.4941 64.4441 52.6182 65.0199L50.4658 66.3239C50.0161 65.9245 49.6566 65.4332 49.4111 64.883L51.9007 63.4277Z" fill="#E9EAE7"/>
<path d="M51.9007 63.4277C52.2495 63.9014 52.4941 64.4441 52.6182 65.0199L50.4658 66.3239C50.0161 65.9245 49.6566 65.4332 49.4111 64.883L51.9007 63.4277Z" fill="#C18F31"/>
<path d="M49.4112 63.5936C49.4491 64.1343 49.6138 64.6582 49.8918 65.1228C50.1699 65.5873 50.5534 65.9792 51.0111 66.2665C51.8792 66.7564 52.5751 66.3529 52.5608 65.3659C52.5243 64.8267 52.3609 64.3039 52.084 63.8405C51.8071 63.3771 51.4247 62.9863 50.9681 62.7003C50.0928 62.2104 49.404 62.6138 49.4112 63.5936Z" fill="#C18F31"/>
<path d="M49.4112 64.0187C49.4412 64.4456 49.5712 64.8593 49.7906 65.2261C50.0101 65.5929 50.3127 65.9025 50.6739 66.1296C51.3914 66.5186 51.9151 66.2016 51.9079 65.4091C51.8763 64.9827 51.7455 64.5697 51.5263 64.2031C51.307 63.8365 51.0052 63.5266 50.6452 63.2982C49.9565 62.9164 49.404 63.2334 49.4112 64.0187Z" fill="#FFC75F"/>
<path d="M29.7029 51.7928L25.8789 45.525L26.7542 45.0135C27.0496 44.8809 27.3743 44.8279 27.6963 44.8595C28.0183 44.891 28.3266 45.0062 28.5909 45.1936C29.3529 45.6722 29.9913 46.3251 30.4539 47.0989C30.9165 47.8728 31.1902 48.7455 31.2526 49.6459C31.2844 49.9576 31.2349 50.2721 31.1091 50.5588C30.9834 50.8455 30.7856 51.0945 30.5352 51.2813H30.4993L29.7029 51.7928Z" fill="black"/>
<path d="M26.5596 45.9137L28.1308 44.9844C28.2898 45.0429 28.4435 45.1152 28.59 45.2005C29.352 45.6792 29.9904 46.3321 30.453 47.1059C30.9156 47.8797 31.1893 48.7525 31.2517 49.6528C31.272 49.9239 31.2478 50.1965 31.18 50.4597L30.2186 51.0289C29.9684 50.96 29.7275 50.8608 29.5011 50.7335C29.2246 50.5757 28.965 50.3898 28.7263 50.1788L26.7031 46.8575C26.62 46.5494 26.5718 46.2328 26.5596 45.9137Z" fill="#1F1F1F"/>
<path d="M25.1829 47.1742C25.2487 48.0737 25.5238 48.9451 25.9861 49.7184C26.4484 50.4917 27.085 51.1453 27.8447 51.6265C29.2796 52.4406 30.4562 51.7706 30.4418 50.128C30.3752 49.2278 30.099 48.3559 29.6354 47.5826C29.1719 46.8093 28.5339 46.1561 27.7729 45.6756C26.3237 44.8543 25.1614 45.5315 25.1829 47.1742Z" fill="#2A2A2A"/>
<path d="M25.2833 47.232C25.3464 48.097 25.6111 48.935 26.056 49.6783C26.5009 50.4217 27.1136 51.0496 27.8447 51.5114C29.2437 52.2967 30.3557 51.6483 30.3342 50.0706C30.2742 49.2057 30.0116 48.3672 29.5677 47.6236C29.1239 46.8799 28.5114 46.252 27.7801 45.7911C26.3811 45.0058 25.269 45.647 25.2833 47.232Z" fill="#1D1D1D"/>
<path d="M25.8498 47.5779C25.897 48.2496 26.1016 48.9006 26.4469 49.4777C26.7923 50.0549 27.2687 50.542 27.8371 50.8991C28.9205 51.5115 29.7886 51.0072 29.7743 49.7824C29.7271 49.1107 29.5225 48.4597 29.1771 47.8826C28.8317 47.3054 28.3554 46.8183 27.7869 46.4612C26.7035 45.82 25.8354 46.3243 25.8498 47.5779Z" fill="#3B3B3B"/>
<path d="M25.9865 47.6211C26.0279 48.248 26.2173 48.8559 26.5392 49.3947C26.8611 49.9334 27.3062 50.3874 27.8375 50.719C28.8491 51.2881 29.6527 50.8199 29.6384 49.6816C29.5947 49.0543 29.4043 48.4462 29.0827 47.9067C28.7611 47.3672 28.3173 46.9114 27.7873 46.5765C26.7757 46.0145 25.9722 46.4756 25.9865 47.6211Z" fill="#FF4F4F"/>
<path d="M27.8083 46.5908C28.332 46.9272 28.7701 47.3818 29.0878 47.9185C29.4054 48.4551 29.5938 49.0588 29.6378 49.6815C29.6391 49.8291 29.6247 49.9765 29.5948 50.121L28.3105 50.9063C28.1545 50.8643 28.0048 50.8013 27.8657 50.719C27.3433 50.3913 26.9041 49.9459 26.5828 49.4182C26.2615 48.8905 26.067 48.295 26.0146 47.6787L27.8083 46.5908Z" fill="#D12700"/>
<path d="M28.8134 47.5059C29.1708 47.979 29.4272 48.521 29.5667 49.098L27.4144 50.402C26.9641 50.0015 26.6023 49.5107 26.3525 48.9612L28.8134 47.5059Z" fill="#E9EAE7"/>
<path d="M28.8134 47.5059C29.1708 47.979 29.4272 48.521 29.5667 49.098L27.4144 50.402C26.9641 50.0015 26.6023 49.5107 26.3525 48.9612L28.8134 47.5059Z" fill="#FFC123"/>
<path d="M26.3235 47.6861C26.3607 48.2259 26.5253 48.7491 26.8034 49.2126C27.0816 49.676 27.4654 50.0665 27.9234 50.3517C28.7915 50.8416 29.4874 50.4382 29.4731 49.4584C29.4348 48.9187 29.2708 48.3955 28.9941 47.9312C28.7174 47.4669 28.3359 47.0745 27.8803 46.7855C27.005 46.2956 26.3091 46.6991 26.3235 47.6861Z" fill="#B01300"/>
<path d="M26.3233 48.1041C26.353 48.5319 26.4836 48.9464 26.7044 49.3135C26.9252 49.6806 27.2299 49.9896 27.5932 50.215C28.3106 50.604 28.8344 50.287 28.8272 49.4945C28.7953 49.0663 28.6637 48.6516 28.4432 48.2838C28.2226 47.9159 27.9192 47.6051 27.5573 47.3764C26.8757 47.0018 26.3161 47.326 26.3233 48.1041Z" fill="#D92800"/>
<path d="M11.3002 62.3255L7.50488 56.0504L8.38018 55.5389C8.6745 55.407 8.99791 55.3543 9.31866 55.3859C9.63941 55.4174 9.94646 55.5322 10.2097 55.719C10.9707 56.1994 11.6087 56.8526 12.0722 57.626C12.5358 58.3993 12.812 59.2712 12.8786 60.1713C12.9089 60.4829 12.8588 60.797 12.7332 61.0834C12.6075 61.3698 12.4105 61.6189 12.1611 61.8067H12.1181L11.3002 62.3255Z" fill="black"/>
<path d="M8.15723 56.4395L9.72845 55.5029C9.88747 55.5614 10.0411 55.6338 10.1876 55.7191C10.9486 56.1995 11.5866 56.8527 12.0502 57.626C12.5137 58.3994 12.7899 59.2712 12.8565 60.1714C12.8605 60.4442 12.8242 60.7161 12.7489 60.9783L11.7875 61.5402C11.5378 61.47 11.297 61.3709 11.0701 61.2449C10.7947 61.0853 10.5352 60.8995 10.2952 60.6901L8.28636 57.3977C8.21285 57.0832 8.16961 56.7623 8.15723 56.4395Z" fill="#1F1F1F"/>
<path d="M6.78711 57.7004C6.8537 58.6006 7.12992 59.4724 7.5935 60.2458C8.05708 61.0191 8.69505 61.6723 9.45604 62.1527C10.8909 62.974 12.0676 62.2968 12.046 60.6542C11.9762 59.7578 11.6984 58.8903 11.235 58.1209C10.7716 57.3516 10.1353 56.7018 9.3771 56.2235C7.92067 55.3878 6.78711 56.0578 6.78711 57.7004Z" fill="#2A2A2A"/>
<path d="M6.88002 57.758C6.94195 58.6233 7.20614 59.4617 7.65116 60.2052C8.09618 60.9488 8.70949 61.5765 9.44133 62.0374C10.8404 62.8227 11.9524 62.1815 11.9381 60.5966C11.875 59.7316 11.6103 58.8936 11.1654 58.1502C10.7205 57.4069 10.1078 56.7789 9.37674 56.3171C7.97771 55.503 6.86567 56.1802 6.88002 57.758Z" fill="#1D1D1D"/>
<path d="M7.44744 58.075C7.49743 58.7469 7.70316 59.3978 8.04822 59.9757C8.39327 60.5537 8.8681 61.0426 9.43478 61.4034C10.5181 62.0086 11.3863 61.5115 11.3719 60.2795C11.3269 59.6053 11.1234 58.9515 10.7779 58.3716C10.4324 57.7918 9.9549 57.3025 9.38455 56.9439C8.3012 56.3459 7.43309 56.8502 7.44744 58.075Z" fill="#3B3B3B"/>
<path d="M7.5832 58.154C7.62739 58.7802 7.81805 59.3871 8.13968 59.9253C8.4613 60.4636 8.90484 60.9181 9.43424 61.2519C10.4458 61.8139 11.2494 61.3528 11.2351 60.2073C11.1926 59.5807 11.0026 58.9732 10.6808 58.4346C10.359 57.8961 9.91459 57.4419 9.38401 57.1094C8.3724 56.5402 7.56885 57.0085 7.5832 58.154Z" fill="#F0B340"/>
<path d="M9.40535 57.124C9.92966 57.458 10.3684 57.9111 10.6862 58.4467C11.004 58.9824 11.192 59.5855 11.2349 60.2075C11.2394 60.3576 11.225 60.5077 11.1918 60.6542L9.87887 61.4323C9.72307 61.393 9.57339 61.3324 9.43405 61.2522C8.91392 60.922 8.47643 60.476 8.15545 59.9488C7.83447 59.4216 7.63859 58.8273 7.58301 58.2119L9.40535 57.124Z" fill="#C18F31"/>
<path d="M10.4107 58.0391C10.7736 58.5088 11.0307 59.052 11.164 59.6313L9.01169 60.928C8.56138 60.5292 8.2017 60.0378 7.95703 59.4872L10.4107 58.0391Z" fill="#E9EAE7"/>
<path d="M10.4107 58.0391C10.7736 58.5088 11.0307 59.052 11.164 59.6313L9.01169 60.928C8.56138 60.5292 8.2017 60.0378 7.95703 59.4872L10.4107 58.0391Z" fill="#C18F31"/>
<path d="M7.92095 58.212C7.95884 58.7526 8.12356 59.2766 8.40161 59.7411C8.67967 60.2056 9.0632 60.5975 9.52088 60.8848C10.389 61.3747 11.0849 60.9713 11.0706 59.9843C11.034 59.4441 10.8707 58.9203 10.5938 58.4558C10.317 57.9912 9.93458 57.5991 9.47784 57.3114C8.60254 56.8215 7.91378 57.225 7.92095 58.212Z" fill="#C18F31"/>
<path d="M7.92097 58.6295C7.95099 59.0573 8.08096 59.4721 8.30034 59.84C8.51972 60.208 8.82235 60.519 9.18369 60.7476C9.90114 61.1294 10.4249 60.8125 10.4177 60.0272C10.3866 59.5996 10.2561 59.1854 10.0369 58.8175C9.81759 58.4497 9.51555 58.1386 9.15499 57.9091C8.46623 57.5344 7.91379 57.8514 7.92097 58.6295Z" fill="#FFC75F"/>
<path d="M10.0152 54.9121L9.54883 60.1497L10.5461 59.4437L12.763 56.3962L10.0152 54.9121Z" fill="#C4C4C4"/>
<path d="M9.01848 55.6255L8.52344 59.2781L9.5494 60.1499L11.7663 57.1096L9.01848 55.6255Z" fill="#828282"/>
<path d="M51.5919 59.4146L50.6592 59.7604L52.0582 64.4432L54.2751 61.403L51.5919 59.4146Z" fill="#C4C4C4"/>
<path d="M50.5948 60.1211L50.0352 64.2853L51.0611 65.157L53.278 62.1095L50.5948 60.1211Z" fill="#828282"/>
<path d="M40.2134 70.7907C39.6055 70.791 39.0051 70.6557 38.4556 70.3945L9.42745 56.7061C9.1656 56.5836 8.94226 56.3913 8.78174 56.1501C8.62123 55.9089 8.5297 55.6282 8.51712 55.3384C8.50454 55.0486 8.5714 54.7609 8.71041 54.5066C8.84942 54.2523 9.05526 54.0412 9.30549 53.8963L25.4051 44.5306C26.079 44.1424 26.8479 43.9522 27.6242 43.9815C28.4005 44.0108 29.153 44.2584 29.796 44.6963L53.6226 61.0215C53.8427 61.1736 54.0209 61.379 54.1408 61.6188C54.2606 61.8585 54.3182 62.1248 54.3082 62.3929C54.2982 62.6609 54.2209 62.9221 54.0834 63.1522C53.946 63.3822 53.753 63.5737 53.5221 63.7088L42.2796 70.1928C41.6548 70.5701 40.9424 70.7763 40.2134 70.7907ZM27.4714 45.287C26.968 45.2857 26.4732 45.4174 26.0365 45.6689L9.93686 55.0346C9.89177 55.0607 9.85458 55.0986 9.82931 55.1443C9.80403 55.19 9.79161 55.2418 9.79336 55.294C9.79675 55.3449 9.81392 55.394 9.84299 55.4359C9.87207 55.4778 9.91196 55.5109 9.95838 55.5317L38.9865 69.2202C39.4002 69.4122 39.8535 69.5026 40.3089 69.4838C40.7643 69.4651 41.2086 69.3376 41.6052 69.1121L52.8549 62.6281C52.896 62.6035 52.9301 62.5687 52.9539 62.5271C52.9778 62.4854 52.9906 62.4384 52.9912 62.3903C52.9943 62.3433 52.9846 62.2964 52.9631 62.2545C52.9416 62.2126 52.9092 62.1774 52.8692 62.1526L29.0641 45.7769C28.5931 45.4591 28.0389 45.2886 27.4714 45.287Z" fill="#C4C4C4"/>
<path d="M40.4649 70.3732C39.9018 70.3715 39.346 70.2461 38.8363 70.0058L9.80095 56.3174C9.5884 56.2176 9.40713 56.0613 9.27683 55.8653C9.14652 55.6694 9.07215 55.4414 9.0618 55.206C9.05145 54.9706 9.10551 54.7369 9.21811 54.5302C9.3307 54.3235 9.49754 54.1518 9.70049 54.0336L25.8073 44.6678C26.3868 44.3299 27.0456 44.1533 27.7158 44.1563C28.4829 44.1571 29.2324 44.3879 29.8681 44.8191L53.6947 61.1515C53.8714 61.274 54.0145 61.4392 54.1108 61.6319C54.207 61.8246 54.2534 62.0385 54.2455 62.2539C54.2377 62.4694 54.1758 62.6793 54.0658 62.8644C53.9557 63.0495 53.801 63.2037 53.6158 63.3129L42.3661 69.7969C41.7941 70.1541 41.1382 70.3529 40.4649 70.3732ZM27.7158 44.8695C27.1693 44.8695 26.6325 45.0136 26.1589 45.2874L10.0592 54.6531C9.96756 54.705 9.89253 54.782 9.84297 54.8751C9.7934 54.9683 9.77136 55.0738 9.77943 55.1791C9.783 55.2827 9.81504 55.3833 9.87202 55.4698C9.929 55.5562 10.0087 55.6252 10.1023 55.669L39.1376 69.3574C39.5535 69.5513 40.0064 69.6521 40.4649 69.6528C41.0113 69.6528 41.5482 69.5087 42.0218 69.2349L53.2714 62.7509C53.3549 62.702 53.4247 62.6326 53.4744 62.5494C53.5241 62.4661 53.552 62.3715 53.5556 62.2745C53.5592 62.1775 53.5383 62.0812 53.4949 61.9944C53.4515 61.9077 53.387 61.8333 53.3073 61.7783L29.4735 45.4171C28.9561 45.0605 28.3433 44.8696 27.7158 44.8695Z" fill="#E0E0E0"/>
<path d="M27.4423 44.8545L26.9473 48.5071L27.9732 49.3789L30.1902 46.3386L27.4423 44.8545Z" fill="#828282"/>
<path d="M41.8637 70.3366C41.0242 70.3366 40.2709 69.3064 39.5965 68.3698C39.2858 67.8722 38.9011 67.4251 38.4558 67.0442L11.3217 54.2203L9.95852 55.0128C9.58545 55.2361 9.01865 56.4537 8.78189 56.1223C7.77028 54.5877 10.145 52.3183 10.554 52.5201L11.2715 52.7578L25.4412 44.552C25.9163 44.1471 26.3318 43.6765 26.6752 43.1543C27.5505 41.9872 28.641 40.5319 29.832 41.346L53.6227 57.664C54.4909 58.2548 54.4047 61.1366 54.3976 61.4608C54.3402 63.0529 54.0101 63.4492 53.6801 63.6221L42.4304 70.1061C42.2665 70.2343 42.0702 70.3141 41.8637 70.3366ZM12.692 53.4278L39.0082 65.8627C39.6796 66.3122 40.2412 66.9082 40.6512 67.6062C40.9818 68.1294 41.388 68.6004 41.8565 69.0038L52.9483 62.5703C53.1882 61.2895 53.1465 59.9716 52.8263 58.7087L29.0643 42.4267C28.7845 42.4627 28.067 43.4209 27.6796 43.9396C27.2484 44.6143 26.6991 45.205 26.0581 45.6831L12.692 53.4278Z" fill="#C4C4C4"/>
<path d="M42.071 69.9119C41.3536 69.9119 40.6361 68.9321 40.0406 68.0676C39.7125 67.5148 39.2871 67.0266 38.7851 66.6267L11.6653 53.8676C11.5439 53.8142 11.4085 53.8014 11.2793 53.8313C11.1501 53.8611 11.0339 53.932 10.9479 54.0333L10.46 54.6241C10.3668 54.6817 9.85019 55.9857 9.74257 55.9857C9.54364 55.9568 9.35967 55.8632 9.21884 55.7192C8.83859 55.2869 10.7972 52.6141 10.8833 52.6573L11.4932 52.9815L25.7561 44.6964C26.2671 44.2869 26.7123 43.8009 27.0762 43.2555C27.7148 42.391 28.5111 41.3247 29.286 41.3247C29.4825 41.3297 29.6729 41.3951 29.8313 41.512L53.6651 57.8373C54.1601 58.1759 54.3825 59.8761 54.3036 61.3818C54.2462 63.0317 53.8875 63.2334 53.7512 63.3126L42.5015 69.7966C42.3711 69.8736 42.2223 69.9135 42.071 69.9119ZM29.2286 42.0091C28.9273 42.0091 28.5112 42.4342 27.643 43.6373C27.2349 44.2758 26.7176 44.8368 26.1149 45.2944L12.268 53.3417L39.0721 66.0287C39.6949 66.4605 40.2164 67.0235 40.6002 67.6785C40.9518 68.2608 41.4065 68.7735 41.9419 69.1915L42.0854 69.2563L53.4211 62.7075V62.6138C53.6948 61.2533 53.6506 59.8477 53.292 58.5073L53.2561 58.4352L29.3362 42.0235L29.2286 42.0091Z" fill="#E0E0E0"/>
<path d="M13.9976 54.0624C13.9976 54.0624 13.7752 54.365 13.2443 54.1705C12.7133 53.976 12.6918 53.7382 12.6918 53.7382L14.3491 46.7067L12.247 45.7917L10.7547 52.7872L10.0875 53.6374L9.24805 53.4861L11.2785 43.897L15.9132 45.9142L13.9976 54.0624Z" fill="#828282"/>
<path d="M13.7539 54.1991C13.6994 54.2088 13.6435 54.2088 13.5889 54.1991C13.4763 54.1716 13.3785 54.1017 13.3157 54.0038C13.2529 53.9059 13.23 53.7876 13.2517 53.6732L14.8947 46.6849L12.2832 45.5538L10.7335 52.7871L10.2097 53.4571L9.80078 53.385L11.702 44.3867L15.8345 46.1878L13.9692 54.1127C13.9095 54.1656 13.8335 54.1962 13.7539 54.1991Z" fill="#B8B8B8"/>
<path d="M31.3387 45.9067C31.2728 46.0316 31.1618 46.1266 31.0284 46.1721C30.895 46.2177 30.7494 46.2103 30.6213 46.1516C30.4471 46.1025 30.2978 45.9891 30.2033 45.8341C30.1088 45.6791 30.0762 45.494 30.1119 45.3159L31.7118 38.5437L29.6025 37.6288L28.1102 44.6315L27.4429 45.4744L26.6035 45.3303L28.6339 35.7412L33.2758 37.7585L31.3387 45.9067Z" fill="#828282"/>
<path d="M28.2176 17.1396C27.7999 16.8929 27.3476 16.7108 26.876 16.5993L26.5603 11.3473L26.5244 10.7277L28.3037 10.6196L28.4041 12.2983L28.7055 17.399L28.2176 17.1396Z" fill="#B8B8B8"/>
<path d="M29.0283 23.1265L28.3109 22.7231C27.9557 22.5147 27.5745 22.3548 27.1773 22.2476L26.876 17.5791C27.18 17.6565 27.4704 17.7804 27.7369 17.9465L28.7198 18.5157L29.0283 23.1265Z" fill="#B8B8B8"/>
<path d="M29.3512 28.998L28.4687 28.4865C28.3616 28.4279 28.2514 28.375 28.1387 28.328C27.9351 28.2296 27.724 28.1477 27.5074 28.0831L27.2275 23.2417C27.4415 23.3159 27.648 23.4099 27.8446 23.5227L29.0786 24.2431L29.3512 28.998Z" fill="#B8B8B8"/>
<path d="M29.66 34.0769L27.8664 34.185L27.5938 29.041C27.7486 29.1067 27.8995 29.1813 28.0457 29.2644L28.2179 29.3652L29.452 30.0857L29.66 34.0769Z" fill="#B8B8B8"/>
<path d="M56.8656 49.653L56.7938 49.6962L56.6575 49.7755L53.9312 51.3532H53.8738L51.2192 52.9094L51.1044 52.9598C51.0831 52.9636 51.0612 52.9636 51.0398 52.9598L48.5288 54.4007L48.292 54.5232L48.0696 54.6313C47.4613 54.9001 46.8043 55.0399 46.1396 55.0419C45.6705 55.0471 45.2033 54.9791 44.755 54.8402L44.4608 54.7393L13.5888 43.2555C13.2235 43.1274 12.8985 42.9047 12.6465 42.61C12.3945 42.3152 12.2246 41.9588 12.1539 41.5768C12.1284 41.3711 12.1284 41.163 12.1539 40.9573L12.2471 40.0207C12.2471 39.8262 12.283 39.6316 12.3117 39.4299L13.5673 38.7095C13.5314 39.2066 13.4812 39.6821 13.4381 40.1504L13.3664 40.8708V41.0509C13.3414 41.2754 13.3922 41.5017 13.5106 41.6937C13.6289 41.8857 13.8081 42.0323 14.0193 42.11L44.8697 53.6947C45.3878 53.8954 45.9467 53.9671 46.4984 53.9036C46.9021 53.862 47.2954 53.7499 47.6606 53.5722L47.797 53.5074L47.9189 53.4425L48.1557 53.3128L50.552 51.9008H50.5878L51.0973 51.6054L53.4218 50.251L54.0388 49.8907L56.2916 48.6156L56.8656 49.653Z" fill="#828282"/>
<path d="M57.1018 49.5233H57.0372L56.9296 49.6025L56.822 49.6674L56.7502 49.7106H56.6928L54.1602 51.1515L51.5415 52.6788L51.2473 52.8301L51.1326 52.8806C51.1112 52.8843 51.0893 52.8843 51.068 52.8806L50.9819 52.9166L50.8599 52.967C50.3107 53.1698 49.7304 53.2747 49.1452 53.2768C48.825 53.2749 48.5055 53.2436 48.191 53.1831C48.0415 53.1567 47.8949 53.1157 47.7534 53.0607C47.6599 53.0443 47.5685 53.0177 47.4807 52.9814L16.6302 41.3895C16.1696 41.2205 15.7783 40.9019 15.5184 40.4843C15.2585 40.0667 15.1448 39.5739 15.1953 39.0841L15.2814 38.1835C15.2814 37.9674 15.3245 37.7513 15.346 37.5495L16.6159 36.8291C16.5728 37.3334 16.5226 37.8377 16.4724 38.3348L16.4006 39.0553V39.2498C16.3777 39.473 16.4285 39.6976 16.5452 39.8889C16.6619 40.0803 16.838 40.2279 17.0464 40.3088L47.8968 51.9008C48.3973 52.0921 48.9353 52.1637 49.4681 52.1097C49.8281 52.0805 50.1815 51.9955 50.5156 51.8575L50.5514 51.9008H50.5873L50.8169 51.7927H50.8886L51.1326 51.6486L53.6365 50.2077L54.0813 49.9412L56.2336 48.6804L56.4991 48.5291H56.578V49.019L57.1018 49.5233Z" fill="#828282"/>
<path d="M57.1527 49.4224L57.1957 49.4944L56.8657 49.6889L56.7294 49.7682L54.5053 51.0722C54.3941 51.1346 54.2791 51.19 54.1609 51.2379C54.1023 51.2739 54.0397 51.3029 53.9744 51.3243H53.917H53.8524H53.7878C53.2647 51.51 52.714 51.605 52.1592 51.6053C51.8404 51.6058 51.5227 51.5695 51.2121 51.4972C51.2121 51.4972 51.2122 51.4972 51.1763 51.4972C51.0552 51.4753 50.9354 51.4464 50.8176 51.4108H50.7673L50.5234 51.3315L19.6729 39.7468C19.2996 39.6193 18.9684 39.3913 18.7153 39.0877C18.4623 38.784 18.2972 38.4164 18.238 38.025C18.2162 37.8335 18.2162 37.6401 18.238 37.4486L18.3456 36.3823C18.3456 36.2094 18.3456 36.0437 18.3887 35.8708L19.6442 35.1504C19.6083 35.6043 19.5653 36.0581 19.5222 36.5048L19.4433 37.3405V37.5639C19.4192 37.7891 19.4703 38.016 19.5884 38.209C19.7066 38.4019 19.8852 38.5501 20.0962 38.6301L50.9467 50.2149C51.4408 50.4014 51.9708 50.4728 52.4964 50.4238C52.8307 50.4018 53.1597 50.3289 53.4721 50.2076L53.5582 50.1716H53.6515L53.7448 50.1356C53.8309 50.1356 53.9098 50.0492 53.9959 50.0059L54.2111 49.869L56.3635 48.6227L56.6433 48.4642H56.7007L56.9446 48.4065V48.9757L57.5186 49.2495L57.1527 49.4224Z" fill="#828282"/>
<path d="M57.1522 49.4223L57.1953 49.4943L56.9298 49.6888H56.7863L56.7505 49.7321H56.5926C56.1284 49.8804 55.6448 49.9581 55.1577 49.9626C54.8366 49.9631 54.5165 49.9268 54.2035 49.8545H54.1389C53.9954 49.8545 53.8519 49.7825 53.7085 49.7393C53.6132 49.7513 53.5167 49.7513 53.4215 49.7393L22.571 38.1185C22.1967 37.9905 21.8648 37.7614 21.6117 37.4564C21.3586 37.1513 21.194 36.7822 21.1361 36.3895C21.1109 36.2054 21.1109 36.0188 21.1361 35.8347L21.2222 34.9414C21.2222 34.7036 21.2652 34.4731 21.2939 34.2209L22.5566 33.5005C22.5064 34.0264 22.4562 34.5379 22.4131 35.0494L22.3486 35.6906V35.9356C22.3245 36.1608 22.3755 36.3877 22.4937 36.5807C22.6118 36.7736 22.7904 36.9218 23.0014 37.0018L53.8519 48.5866C54.3282 48.7653 54.8371 48.839 55.3442 48.8027C55.6196 48.7858 55.8919 48.735 56.155 48.6514L56.2267 48.5866L56.5567 48.4929H56.6141H56.6572H56.858V49.0621L57.432 49.3358L57.1522 49.4223Z" fill="#828282"/>
<path d="M59.1041 48.1685C58.7607 48.2491 58.4093 48.2902 58.0567 48.291C57.5695 48.2875 57.0857 48.2097 56.6218 48.0604L56.4137 47.9884L25.5632 36.4036C25.1841 36.2673 24.8507 36.027 24.6008 35.7098C24.351 35.3927 24.1947 35.0116 24.1498 34.6097C24.1245 34.4305 24.1245 34.2486 24.1498 34.0694L24.2144 33.5003C24.2503 33.1905 24.2861 32.8735 24.3148 32.5709C24.7035 32.4317 25.1088 32.3445 25.5202 32.3115C25.5202 32.7582 25.4413 33.1977 25.3982 33.6371L25.3408 34.1487V34.1919C25.3158 34.4163 25.3666 34.6427 25.485 34.8347C25.6034 35.0267 25.7825 35.1733 25.9937 35.2509L56.8442 46.8357C57.3014 47.0105 57.7909 47.0842 58.2791 47.0518C58.4822 47.0469 58.6842 47.0203 58.8817 46.9725H59.0181V47.5921L59.1041 48.1685Z" fill="#828282"/>
<path d="M46.2976 54.6962C45.855 54.6992 45.4146 54.6336 44.9919 54.5017L44.712 54.4081L13.8615 42.8233C13.5492 42.711 13.2713 42.5192 13.055 42.2666C12.8386 42.014 12.6914 41.7094 12.6275 41.3825C12.602 41.1984 12.602 41.0117 12.6275 40.8277L12.7567 39.4445L13.4741 39.041L13.2445 40.8709C13.2169 41.1533 13.2828 41.4369 13.4319 41.6779C13.5811 41.9188 13.8052 42.1037 14.0696 42.2038L44.9201 53.7885C45.3489 53.951 45.8035 54.0339 46.2617 54.0334C46.398 54.0406 46.5345 54.0406 46.6707 54.0334C47.1066 53.9861 47.5312 53.8643 47.9262 53.6732L48.0554 53.6156C48.1077 53.5933 48.1581 53.5668 48.2061 53.5363L56.3276 48.8246L56.6576 49.3938L54.0102 50.9283H53.9744L53.917 50.986L51.2696 52.5349L51.1476 52.5853H51.0902L48.5791 54.0262L48.3495 54.1487L48.1415 54.2496C47.5651 54.5273 46.9367 54.6795 46.2976 54.6962Z" fill="#E0E0E0"/>
<path d="M49.2747 52.9815C48.971 52.9814 48.6681 52.95 48.3707 52.8879C48.2362 52.8638 48.1042 52.8277 47.9761 52.7798C47.8843 52.7662 47.795 52.7395 47.7107 52.7006L16.8315 41.0942C16.5222 40.9792 16.2475 40.7863 16.034 40.534C15.8204 40.2816 15.675 39.9784 15.6118 39.6533C15.5903 39.4715 15.5903 39.2877 15.6118 39.1058L15.6979 38.2124C15.6979 38.0467 15.7338 37.8738 15.7481 37.7081L16.4656 37.3047C16.4656 37.6289 16.4082 37.9603 16.3723 38.2845L16.279 39.185C16.2514 39.4674 16.3173 39.751 16.4664 39.992C16.6156 40.2329 16.8397 40.4178 17.1041 40.5179L47.9546 52.1098C48.3754 52.2741 48.8232 52.3572 49.2747 52.3547H49.6478C50.0318 52.321 50.4088 52.2312 50.767 52.0882L51.1401 51.9081L51.4486 51.728L53.9453 50.2871L56.5497 48.7669V49.0407L56.8439 49.3505H56.8008L56.7147 49.4297L54.1821 50.8706H54.1104V50.9211L51.549 52.3619C51.482 52.4043 51.4125 52.4428 51.341 52.4772L51.1975 52.5421L51.1042 52.5997L50.9105 52.6717C50.3882 52.8727 49.8341 52.9776 49.2747 52.9815Z" fill="#E0E0E0"/>
<path d="M52.2739 51.2739C51.9867 51.2752 51.7003 51.2438 51.4201 51.1802H51.2694L50.9824 51.101H50.9323H50.8318L50.6739 51.0361L19.8235 39.4514C19.4997 39.3355 19.2133 39.1335 18.9948 38.8671C18.7762 38.6007 18.6336 38.2798 18.5823 37.9385C18.5611 37.7711 18.5611 37.6016 18.5823 37.4342C18.5823 37.4342 18.7186 36.1158 18.7258 35.9933L19.4432 35.5898C19.4432 35.8708 19.2782 37.2613 19.2782 37.2613V37.4846C19.2468 37.7703 19.3109 38.0583 19.4602 38.3034C19.6095 38.5486 19.8357 38.737 20.1033 38.839L50.9538 50.4166C51.3678 50.5782 51.8081 50.6613 52.2524 50.6615C52.3766 50.6689 52.5012 50.6689 52.6254 50.6615C52.985 50.6444 53.3391 50.5664 53.6729 50.431L53.8021 50.3733H53.8594L53.9097 50.3301H54.0029L54.2325 50.2148L54.4119 50.0996L56.801 48.7163V49.0765L57.0808 49.2134L56.9732 49.2783L57.0163 49.3431L54.5482 50.784L54.2469 50.9353H54.1751L54.1106 51.0001H54.0532L53.9169 51.065H53.8451C53.3368 51.2227 52.8056 51.2934 52.2739 51.2739Z" fill="#E0E0E0"/>
<path d="M55.266 49.5593C54.9643 49.5582 54.6636 49.5244 54.3692 49.4584C54.2084 49.4299 54.0501 49.3889 53.8956 49.336C53.8244 49.3208 53.7548 49.2991 53.6876 49.2711L22.8371 37.6864C22.5107 37.5727 22.222 37.3705 22.0029 37.1022C21.7838 36.8339 21.643 36.51 21.5959 36.1663C21.5748 36.0012 21.5748 35.8342 21.5959 35.6692L21.7394 34.2283L22.4568 33.832L22.299 35.5035V35.7412C22.2701 36.0265 22.3351 36.3134 22.4842 36.5581C22.6332 36.8027 22.858 36.9915 23.1241 37.0956L53.9746 48.6732C54.4005 48.8368 54.8529 48.9199 55.309 48.9181H55.5745C55.8714 48.895 56.1648 48.8394 56.4497 48.7524H56.5071L56.5789 48.6948L56.7941 48.6299H56.8372V49.0046L57.117 49.1414L57.0094 49.2063L57.0596 49.2855H56.9878L56.9233 49.3288L56.8874 49.3648H56.8444C56.3316 49.5119 55.799 49.5775 55.266 49.5593Z" fill="#E0E0E0"/>
<path d="M58.2362 47.8448C57.7705 47.8441 57.3078 47.7687 56.8658 47.6215L56.6792 47.5567L25.8288 35.9719C25.5002 35.8542 25.2107 35.6469 24.9928 35.3734C24.7749 35.0998 24.637 34.7707 24.5948 34.423C24.5726 34.2653 24.5726 34.1052 24.5948 33.9475L24.7454 32.6147C24.9615 32.5483 25.1821 32.4977 25.4055 32.4634C25.4055 32.6939 25.3624 32.9173 25.3409 33.1406L25.2548 33.9691C25.2159 34.2529 25.2734 34.5416 25.4179 34.7886C25.5623 35.0356 25.7854 35.2266 26.0512 35.3307L56.9017 46.9155C57.3192 47.0727 57.7615 47.1533 58.2074 47.1532H58.4442C58.5985 47.1515 58.7523 47.1346 58.9034 47.1028V47.4126L58.9823 47.7584C58.7367 47.8096 58.4869 47.8386 58.2362 47.8448Z" fill="#E0E0E0"/>
<path d="M30.0778 34.1056L12.6406 44.7183L13.2579 45.741L30.6952 35.1283L30.0778 34.1056Z" fill="#AEAEAE"/>
<path d="M32.9764 35.1513L15.541 45.7671L16.1585 46.7897L33.5939 36.174L32.9764 35.1513Z" fill="#AEAEAE"/>
<path d="M36.5808 36.2857L19.1436 46.8984L19.7609 47.9212L37.1981 37.3085L36.5808 36.2857Z" fill="#AEAEAE"/>
<path d="M39.2995 37.6305L21.8623 48.2432L22.4796 49.2659L39.9168 38.6532L39.2995 37.6305Z" fill="#AEAEAE"/>
<path d="M42.6444 38.5654L25.209 49.1812L25.8265 50.2038L43.2618 39.588L42.6444 38.5654Z" fill="#AEAEAE"/>
<path d="M45.6306 39.8526L28.1934 50.4653L28.8107 51.4881L46.2479 40.8754L45.6306 39.8526Z" fill="#AEAEAE"/>
<path d="M48.5867 41.3891L31.1514 52.0049L31.7689 53.0275L49.2042 42.4117L48.5867 41.3891Z" fill="#AEAEAE"/>
<path d="M51.9284 42.4381L34.4912 53.0508L35.1085 54.0735L52.5457 43.4608L51.9284 42.4381Z" fill="#AEAEAE"/>
<path d="M55.2332 43.3989L37.7979 54.0146L38.4153 55.0373L55.8507 44.4215L55.2332 43.3989Z" fill="#AEAEAE"/>
<path d="M29.8724 34.2035L12.8936 44.5332L13.2319 45.0939L30.2107 34.7643L29.8724 34.2035Z" fill="#E0E0E0"/>
<path d="M32.7943 35.3002L15.8154 45.6299L16.1537 46.1906L33.1326 35.8609L32.7943 35.3002Z" fill="#E0E0E0"/>
<path d="M36.3812 36.3886L19.4023 46.7183L19.7407 47.279L36.7195 36.9493L36.3812 36.3886Z" fill="#E0E0E0"/>
<path d="M39.1146 37.7553L22.1357 48.085L22.474 48.6457L39.4529 38.316L39.1146 37.7553Z" fill="#E0E0E0"/>
<path d="M42.4632 38.7182L25.4844 49.0479L25.8227 49.6086L42.8015 39.2789L42.4632 38.7182Z" fill="#E0E0E0"/>
<path d="M45.4388 39.9496L28.46 50.2793L28.7983 50.84L45.7771 40.5104L45.4388 39.9496Z" fill="#E0E0E0"/>
<path d="M48.4124 41.54L31.4336 51.8696L31.7719 52.4304L48.7508 42.1007L48.4124 41.54Z" fill="#E0E0E0"/>
<path d="M51.7308 42.5473L34.752 52.877L35.0903 53.4377L52.0691 43.108L51.7308 42.5473Z" fill="#E0E0E0"/>
<path d="M55.0453 43.5414L38.0664 53.8711L38.4047 54.4318L55.3836 44.1021L55.0453 43.5414Z" fill="#E0E0E0"/>
<path d="M33.7422 35.7342L32.8525 35.6693L34.309 15.2231L35.1986 15.288L33.7422 35.7342Z" fill="#828282"/>
<path d="M37.4846 17.2691L36.0312 36.8613L36.9256 36.9282L38.3789 17.336L37.4846 17.2691Z" fill="#828282"/>
<path d="M40.6125 19.3021L39.1504 38.041L40.0445 38.1114L41.5066 19.3724L40.6125 19.3021Z" fill="#828282"/>
<path d="M43.774 21.3402L42.3096 39.2261L43.2034 39.2999L44.6678 21.414L43.774 21.3402Z" fill="#828282"/>
<path d="M46.9393 23.375L45.4756 40.415L46.3691 40.4924L47.8328 23.4524L46.9393 23.375Z" fill="#828282"/>
<path d="M50.0671 25.4096L48.6143 41.5972L49.5075 41.678L50.9603 25.4904L50.0671 25.4096Z" fill="#828282"/>
<path d="M53.2322 27.4493L51.7646 42.7817L52.6574 42.8679L54.1249 27.5355L53.2322 27.4493Z" fill="#828282"/>
<path d="M56.3726 29.4939L54.9307 43.9746L55.823 44.0642L57.2649 29.5835L56.3726 29.4939Z" fill="#828282"/>
<path d="M59.5797 31.5413L58.1123 45.1719L59.0039 45.2687L60.4713 31.6381L59.5797 31.5413Z" fill="#828282"/>
<path d="M30.9743 13.2249L29.9746 34.5913L30.8704 34.6336L31.8701 13.2672L30.9743 13.2249Z" fill="#828282"/>
<path d="M34.7846 15.556L33.3672 35.4614L33.725 35.4871L35.1424 15.5817L34.7846 15.556Z" fill="#B8B8B8"/>
<path d="M36.5186 36.6485L37.9319 17.5928L38.2907 17.6216L36.8773 36.6773L36.5186 36.6485Z" fill="#B8B8B8"/>
<path d="M41.0837 19.6406L39.6699 37.8413L40.0276 37.8693L41.4413 19.6686L41.0837 19.6406Z" fill="#B8B8B8"/>
<path d="M42.832 39.0265L44.2454 21.6782L44.6041 21.707L43.1908 39.0553L42.832 39.0265Z" fill="#B8B8B8"/>
<path d="M45.9961 40.2154L47.4023 23.7173L47.761 23.7461L46.3476 40.2515L45.9961 40.2154Z" fill="#B8B8B8"/>
<path d="M49.1523 41.4039L50.5585 25.7559L50.9173 25.7919L49.5039 41.4399L49.1523 41.4039Z" fill="#B8B8B8"/>
<path d="M53.6835 27.7882L52.2803 42.584L52.6374 42.6181L54.0406 27.8223L53.6835 27.7882Z" fill="#B8B8B8"/>
<path d="M56.8368 29.8239L55.4355 43.7729L55.7925 43.8091L57.1937 29.8601L56.8368 29.8239Z" fill="#B8B8B8"/>
<path d="M60.0193 31.8775L58.6211 44.9722L58.9778 45.0106L60.376 31.916L60.0193 31.8775Z" fill="#B8B8B8"/>
<path d="M30.4346 34.3724L31.4318 13.5444L31.7906 13.5588L30.7933 34.3869L30.4346 34.3724Z" fill="#B8B8B8"/>
<path d="M48.4855 40.4384L46.4766 41.6055L34.7319 37.1892L27.873 32.708L48.4855 40.4384Z" fill="#C4C4C4"/>
<path d="M58.4439 44.163V44.516L58.3363 45.6327L58.2932 46.0938C58.216 46.01 58.1202 45.9458 58.0134 45.9065L48.6865 42.4124L50.6882 41.2524L58.4439 44.163Z" fill="#C4C4C4"/>
<path d="M26.9618 28.681C26.4352 28.4628 25.8658 28.3688 25.2974 28.4063C24.729 28.4438 24.1767 28.6117 23.683 28.8972L10.9339 36.2961L10.2165 36.6996C10.0813 36.7767 9.96284 36.8802 9.86798 37.0039C9.77312 37.1276 9.70379 37.2691 9.66403 37.42C9.68556 37.2068 9.68556 36.992 9.66403 36.7788C9.62098 36.2889 9.14746 36.4546 9.14746 36.4546C9.31719 36.2257 9.53212 36.0344 9.77882 35.8927L10.8335 35.2803L23.2311 28.0759C23.7825 27.7575 24.3938 27.5579 25.0262 27.4897C25.6586 27.4215 26.2983 27.4862 26.9044 27.6796L26.9618 28.681Z" fill="#828282"/>
<path d="M10.2097 36.3754C10.1775 36.2551 10.1069 36.1489 10.0088 36.0728L10.2312 35.9215L23.6763 28.1263C24.3331 27.7541 25.0744 27.5581 25.8286 27.5571C26.2086 27.558 26.587 27.6064 26.955 27.7012V28.0686C26.4351 27.9187 25.8905 27.8746 25.3533 27.9389C24.8162 28.0033 24.2972 28.1747 23.8269 28.4433L10.4106 36.2385L10.2097 36.3754Z" fill="#C4C4C4"/>
<path d="M26.6679 22.9177C26.1413 22.6995 25.5719 22.6055 25.0035 22.643C24.435 22.6804 23.8828 22.8484 23.3891 23.1338L10.64 30.5328L9.92251 30.9362C9.7858 31.0114 9.66613 31.1142 9.57103 31.2382C9.47594 31.3623 9.40752 31.5047 9.37008 31.6567C9.39162 31.4459 9.39162 31.2335 9.37008 31.0227C9.32704 30.5256 8.85352 30.6985 8.85352 30.6985C9.02296 30.4674 9.23785 30.2736 9.48488 30.1293L10.5395 29.5242L22.9371 22.3197C23.4897 22.0043 24.1012 21.8069 24.7333 21.7399C25.3654 21.673 26.0045 21.7379 26.6105 21.9307L26.6679 22.9177Z" fill="#828282"/>
<path d="M9.91573 30.6044C9.88166 30.487 9.81131 30.3835 9.71484 30.309C9.78437 30.252 9.85882 30.2014 9.93727 30.1577L23.3823 22.3625C24.038 21.9866 24.7797 21.788 25.5347 21.7861C25.9152 21.7858 26.294 21.8367 26.6611 21.9374V22.3049C26.1419 22.1495 25.5964 22.1026 25.0584 22.167C24.5205 22.2315 24.0013 22.4059 23.533 22.6795L10.1166 30.4747C10.0455 30.5111 9.97822 30.5545 9.91573 30.6044Z" fill="#C4C4C4"/>
<path d="M26.5243 17.4134C25.9978 17.1952 25.4284 17.1012 24.8599 17.1387C24.2915 17.1762 23.7392 17.3441 23.2456 17.6296L10.4964 25.0285L9.77898 25.432C9.64383 25.5092 9.52536 25.6126 9.4305 25.7363C9.33565 25.86 9.26629 26.0015 9.22653 26.1524C9.24801 25.9392 9.24801 25.7244 9.22653 25.5112C9.18348 25.0141 8.70996 25.187 8.70996 25.187C8.87969 24.9581 9.09462 24.7668 9.34132 24.6251L10.396 24.0127L22.7936 16.8083C23.345 16.49 23.9563 16.2904 24.5887 16.2221C25.2211 16.1539 25.8608 16.2186 26.4669 16.412L26.5243 17.4134Z" fill="#828282"/>
<path d="M9.7712 25.1075C9.73899 24.9873 9.66843 24.881 9.57031 24.8049C9.63984 24.748 9.71427 24.6974 9.79272 24.6537L23.2378 16.8513C23.8935 16.4753 24.6351 16.2767 25.3901 16.2749C25.7707 16.2746 26.1495 16.3255 26.5166 16.4262V16.7936C25.9966 16.6437 25.452 16.5996 24.9149 16.6639C24.3777 16.7283 23.8587 16.8997 23.3885 17.1683L9.97208 24.9707C9.90083 25.0096 9.83355 25.0554 9.7712 25.1075Z" fill="#C4C4C4"/>
<path d="M50.7382 51.5189H50.688L49.4396 52.2393C49.7997 52.2102 50.153 52.1251 50.4871 51.9872L50.5517 51.9007H50.5876L51.0826 51.6053C50.9663 51.5828 50.8514 51.554 50.7382 51.5189ZM50.7382 51.5189H50.688L49.4396 52.2393C49.7997 52.2102 50.153 52.1251 50.4871 51.9872L50.5517 51.9007H50.5876L51.0826 51.6053C50.9656 51.5861 50.8505 51.5572 50.7382 51.5189ZM50.7382 51.5189H50.688L49.4396 52.2393C49.7997 52.2102 50.153 52.1251 50.4871 51.9872L50.5517 51.9007H50.5876L51.0826 51.6053C50.9656 51.5861 50.8505 51.5572 50.7382 51.5189ZM50.7382 51.5189H50.688L49.4396 52.2393C49.7997 52.2102 50.153 52.1251 50.4871 51.9872L50.5517 51.9007H50.5876L51.0826 51.6053C50.9656 51.5861 50.8505 51.5572 50.7382 51.5189ZM50.7382 51.5189H50.688L49.4396 52.2393C49.7997 52.2102 50.153 52.1251 50.4871 51.9872L50.5517 51.9007H50.5876L51.0826 51.6053C50.9656 51.5861 50.8505 51.5572 50.7382 51.5189ZM50.7382 51.5189H50.688L49.4396 52.2393C49.7997 52.2102 50.153 52.1251 50.4871 51.9872L50.5517 51.9007H50.5876L51.0826 51.6053C50.9663 51.5828 50.8514 51.554 50.7382 51.5189ZM48.4782 40.4385L46.4766 41.6056L48.6289 42.4125L50.6306 41.2526L48.4782 40.4385ZM50.7382 51.5189H50.688L49.4396 52.2393C49.7997 52.2102 50.153 52.1251 50.4871 51.9872L50.5517 51.9007H50.5876L51.0826 51.6053C50.9656 51.5861 50.8505 51.5572 50.7382 51.5189ZM50.7382 51.5189H50.688L49.4396 52.2393C49.7997 52.2102 50.153 52.1251 50.4871 51.9872L50.5517 51.9007H50.5876L51.0826 51.6053C50.9656 51.5861 50.8505 51.5572 50.7382 51.5189ZM50.7382 51.5189H50.688L49.4396 52.2393C49.7997 52.2102 50.153 52.1251 50.4871 51.9872L50.5517 51.9007H50.5876L51.0826 51.6053C50.9656 51.5861 50.8505 51.5572 50.7382 51.5189ZM50.7382 51.5189H50.688L49.4396 52.2393C49.7997 52.2102 50.153 52.1251 50.4871 51.9872L50.5517 51.9007H50.5876L51.0826 51.6053C50.9663 51.5828 50.8514 51.554 50.7382 51.5189Z" fill="#C4C4C4"/>
<path d="M58.9529 48.7667L45.6656 56.4754C45.02 56.8533 44.2985 57.0817 43.5538 57.144C42.8091 57.2064 42.0599 57.101 41.3609 56.8357L10.5104 45.2509C10.0666 45.081 9.67979 44.7884 9.39452 44.4071C9.10924 44.0258 8.93717 43.5712 8.89816 43.0959C8.85915 42.6206 8.95479 42.1439 9.17406 41.7208C9.39332 41.2978 9.72728 40.9456 10.1373 40.7049L12.3399 39.4298L13.5955 38.7093L15.3245 37.7151L16.5944 36.9947L18.3163 35.9932L19.5718 35.2728L21.3009 34.2642L22.5636 33.5437L23.4102 33.0538C23.6908 32.8815 23.9922 32.746 24.307 32.6504H24.3931L27.0477 34.3939C26.5004 34.1871 25.906 34.1396 25.333 34.257C24.9719 34.3211 24.6248 34.4479 24.307 34.6316L24.1635 34.7181L22.3556 35.7627L21.1574 36.4831L19.371 37.5134L18.1728 38.2338L16.3648 39.2857L15.181 40.0061L13.3802 41.0508L12.1964 41.7712L11.0198 42.4916C10.8983 42.5586 10.7988 42.6595 10.7332 42.7821C10.6676 42.9046 10.6388 43.0436 10.6501 43.1823C10.6615 43.321 10.7127 43.4534 10.7973 43.5635C10.882 43.6736 10.9967 43.7567 11.1274 43.8029L41.9779 55.3876C42.4255 55.5532 42.9034 55.6196 43.379 55.5823C43.8545 55.545 44.3164 55.4048 44.7329 55.1714H44.7688L46.4835 54.1772L47.7032 53.4568L49.4251 52.4626C49.7851 52.4334 50.1385 52.3483 50.4726 52.2104L50.5515 51.9006H50.5873L51.0824 51.6052C50.9613 51.5833 50.8415 51.5544 50.7237 51.5188H50.6734L52.3881 50.5246L53.6365 49.8041L55.3297 48.8243L56.6068 48.1039L58.0417 47.261C58.0697 47.2442 58.0961 47.2249 58.1206 47.2033C58.1581 47.1856 58.1902 47.1583 58.2139 47.1241C58.2819 47.0499 58.3336 46.9622 58.3658 46.8666C58.3979 46.7711 58.4097 46.6698 58.4004 46.5694C58.3882 46.4083 58.3225 46.2561 58.2139 46.1371L58.2569 45.676L58.3645 44.5593V44.2063L58.5295 44.2711C58.8741 44.3935 59.1866 44.5925 59.4438 44.8533C59.701 45.114 59.8961 45.4297 60.0147 45.7769C60.0927 45.9826 60.141 46.1986 60.1582 46.4181C60.1949 46.8834 60.1016 47.3498 59.8886 47.7648C59.6757 48.1797 59.3516 48.5267 58.9529 48.7667Z" fill="#C4C4C4"/>
<path d="M50.4365 42.2684L28.8267 29.7255L27.5927 29.005L27.4205 28.9042C27.2726 28.8197 27.1192 28.745 26.9614 28.6808L26.9111 27.7227C27.1258 27.7861 27.3347 27.868 27.5353 27.9676C27.6481 28.0145 27.7582 28.0675 27.8654 28.1261L28.755 28.6376L50.953 41.5263C51.0678 41.5912 50.4939 42.3044 50.4365 42.2684Z" fill="#828282"/>
<path d="M27.5932 28.486C27.4784 28.4211 27.0982 28.169 26.9834 28.1185V27.7295C27.0551 27.7295 27.6004 28.0825 27.6004 28.0825L27.7869 28.169L50.6952 41.4611C50.6307 41.5548 50.5374 41.6701 50.4656 41.7565L27.5932 28.486Z" fill="#C4C4C4"/>
<path d="M27.593 16.7793C27.1653 16.5269 26.7003 16.3445 26.2155 16.239L25.907 10.9869L25.8711 10.3673L27.6504 10.2593L27.7508 11.9379L28.0522 17.0386L27.593 16.7793Z" fill="#828282"/>
<path d="M28.0742 17.0388L27.615 16.7794C27.3653 16.6251 27.0979 16.5018 26.8186 16.412L26.5173 11.3689L26.4814 10.7493L27.7011 10.6772L27.7729 11.9596L28.0742 17.0388Z" fill="#9E9E9E"/>
<path d="M28.4111 22.7662L27.6937 22.3627C27.3373 22.1568 26.9564 21.9971 26.5601 21.8872L26.2803 17.2188C26.5834 17.2988 26.8734 17.4226 27.1412 17.5862L28.1241 18.1625L28.4111 22.7662Z" fill="#828282"/>
<path d="M28.4113 22.7663L27.6939 22.3628C27.5149 22.2592 27.3305 22.1654 27.1414 22.0819L26.876 17.5791C27.1796 17.6578 27.4698 17.7816 27.7369 17.9465L28.1315 18.1771L28.4113 22.7663Z" fill="#9E9E9E"/>
<path d="M28.7558 28.6377L27.8662 28.1262C27.7591 28.0675 27.6489 28.0146 27.5362 27.9677C27.3355 27.8681 27.1267 27.7861 26.912 27.7227L26.625 22.8813C26.84 22.9528 27.0469 23.047 27.242 23.1623L28.476 23.8828L28.7558 28.6377Z" fill="#828282"/>
<path d="M28.7554 28.6377L27.8658 28.1262C27.7586 28.0675 27.6485 28.0146 27.5358 27.9677H27.4927L27.2129 23.2632C27.4291 23.3315 27.6362 23.4259 27.8299 23.5442L28.4756 23.9188L28.7554 28.6377Z" fill="#9E9E9E"/>
<path d="M29.0276 33.7243L27.2411 33.8251L26.9326 28.6812C27.0904 28.7453 27.2438 28.82 27.3918 28.9045L27.564 29.0054L28.798 29.7258L29.0276 33.7243Z" fill="#828282"/>
<path d="M29.0287 33.7239L27.8018 33.7887L27.5938 29.041C27.7486 29.1067 27.8995 29.1813 28.0457 29.2644L28.2179 29.3652L28.8636 29.7398L29.0287 33.7239Z" fill="#9E9E9E"/>
<path d="M13.5673 38.695L12.3118 39.4155C12.5131 37.7833 12.554 36.1351 12.4337 34.4948L10.7549 17.3555L11.9459 17.2402L13.6247 34.3796C13.7431 35.8166 13.7238 37.2617 13.5673 38.695Z" fill="#9E9E9E"/>
<path d="M16.5663 36.9585L15.2964 37.6789C15.5154 36.0074 15.5731 34.3185 15.4686 32.6358L13.9619 15.5109L15.1529 15.4028L16.6739 32.571C16.7746 34.0336 16.7386 35.5026 16.5663 36.9585Z" fill="#9E9E9E"/>
<path d="M19.5578 35.2296L18.3023 35.95C18.5021 34.2914 18.5526 32.618 18.453 30.9502L16.9248 13.7892L18.1158 13.6812L19.644 30.8493C19.7447 32.3091 19.7159 33.775 19.5578 35.2296Z" fill="#9E9E9E"/>
<path d="M22.571 33.4935L21.3083 34.2139C21.4976 32.6217 21.5337 31.0149 21.4159 29.4158L19.6797 12.1972L20.8707 12.0747L22.571 29.3005C22.7003 30.6951 22.7003 32.0988 22.571 33.4935Z" fill="#9E9E9E"/>
<path d="M25.4985 32.3411C25.0871 32.3741 24.6819 32.4613 24.2932 32.6005C24.3254 32.1376 24.3254 31.673 24.2932 31.2101L22.3848 10.6198L23.5757 10.5117L25.5057 31.1164C25.5321 31.5243 25.5297 31.9336 25.4985 32.3411Z" fill="#9E9E9E"/>
<path d="M12.8929 38.9759C13.0591 37.4976 13.0855 36.0068 12.9718 34.5236L11.3145 17.6508L11.9673 17.5859L13.6247 34.4659C13.7374 35.8331 13.723 37.2079 13.5816 38.5724L12.8929 38.9759Z" fill="#B1B1B1"/>
<path d="M15.884 37.2401C16.0632 35.7341 16.1017 34.2145 15.9988 32.7013L14.4922 15.7997L15.1523 15.7349L16.6445 32.6365C16.7508 34.038 16.7292 35.4463 16.58 36.8438L15.884 37.2401Z" fill="#B1B1B1"/>
<path d="M18.8837 35.5031C19.0468 34.0104 19.0804 32.5062 18.9842 31.0076L17.4775 14.106L18.1304 14.0483L19.6371 30.9499C19.7357 32.347 19.7117 33.7501 19.5653 35.1429L18.8837 35.5031Z" fill="#B1B1B1"/>
<path d="M21.8539 33.7746C22.0108 32.3389 22.0324 30.8916 21.9185 29.4519L20.2109 12.4999L20.8638 12.4351L22.5714 29.3727C22.6912 30.7052 22.6912 32.0458 22.5714 33.3783L21.8539 33.7746Z" fill="#B1B1B1"/>
<path d="M24.8528 32.2688C24.8743 31.9233 24.8743 31.5768 24.8528 31.2313L22.9443 10.9004L23.6044 10.8428L25.5057 31.1809C25.5238 31.5 25.5238 31.8199 25.5057 32.1391C25.2852 32.1667 25.067 32.21 24.8528 32.2688Z" fill="#B1B1B1"/>
<path d="M49.6491 40.7149L48.4873 53.6592L49.3805 53.74L50.5423 40.7957L49.6491 40.7149Z" fill="#9E9E9E"/>
<path d="M53.7975 38.2236L52.6357 51.168L53.5289 51.2488L54.6907 38.3045L53.7975 38.2236Z" fill="#9E9E9E"/>
<path d="M57.2585 36.419L56.0967 49.3633L56.9899 49.4441L58.1517 36.4998L57.2585 36.419Z" fill="#9E9E9E"/>
<path d="M46.5485 43.1546L46.2615 46.3966L46.1539 47.5277L45.7737 51.8504L45.6804 52.9382L45.5297 54.905C45.5071 55.1667 45.3992 55.4137 45.2229 55.6077C45.0465 55.8017 44.8115 55.932 44.554 55.9785C44.4626 56.0023 44.3674 56.0078 44.2739 55.9946C44.1804 55.9814 44.0904 55.9498 44.0091 55.9016C43.9278 55.8534 43.8568 55.7896 43.8001 55.7138C43.7434 55.6379 43.7021 55.5516 43.6787 55.4598L43.8652 53.3417L43.9585 52.3979L44.3388 48.0752L44.4248 47.1242L44.7979 42.9673L46.5485 43.1546Z" fill="#9E9E9E"/>
<path d="M61.0261 34.9847L60.445 41.5263L60.1723 44.4945L60.0575 45.7337L59.9714 46.7567C59.9714 46.7567 59.9141 47.7293 59.1177 47.7293C58.9175 47.7349 58.7196 47.6847 58.5461 47.5843C58.3726 47.4838 58.2302 47.337 58.1348 47.1602L58.228 46.0939L58.2711 45.6328L58.3787 44.5161V44.1631L58.6298 41.3894L58.7159 40.3808L59.2181 34.8262L61.0261 34.9847Z" fill="#9E9E9E"/>
<path d="M58.7448 40.3737L58.6587 41.3823L28.4755 23.8755L27.2415 23.1551C27.0463 23.0397 26.8395 22.9455 26.6244 22.8741L26.5742 21.8799C26.9705 21.9897 27.3514 22.1495 27.7078 22.3554L28.4253 22.7588L58.7448 40.3737Z" fill="#828282"/>
<path d="M27.3783 22.7445C27.0809 22.5761 26.7743 22.4245 26.46 22.2907V21.8584C26.7039 21.9521 27.3639 22.2763 27.5935 22.4059L28.311 22.8166L58.444 40.3738V40.7844L27.3783 22.7445Z" fill="#C4C4C4"/>
<path d="M58.4438 34.6605L57.5183 35.2008L28.1386 18.1624L27.1557 17.586C26.8879 17.4224 26.5979 17.2986 26.2947 17.2186L26.2373 16.2388C26.7221 16.3443 27.1871 16.5267 27.6148 16.7791L28.074 17.0385L58.4438 34.6605Z" fill="#828282"/>
<path d="M28.268 17.7375L27.2851 17.1684C26.9538 17.0024 26.6079 16.8673 26.252 16.7649V16.3398C26.6828 16.4662 27.1028 16.6276 27.5075 16.8225L27.9595 17.0819L57.9204 34.4806L57.5257 34.7039L28.268 17.7375Z" fill="#C4C4C4"/>
<path d="M60.919 36.0509V36.3247C60.6105 36.6303 60.4133 37.0312 60.3593 37.463C60.3593 38.0321 59.1396 36.1734 59.1396 36.1734V36.0653L59.2401 35.0423V34.8838L60.919 36.0509Z" fill="#9E9E9E"/>
<path d="M15.8769 45.9712C15.4464 46.0721 15.3604 45.5101 15.3604 45.5101L16.7307 26.2671L17.6203 26.3319L16.25 45.5389C16.25 45.5389 16.3002 45.8775 15.8769 45.9712Z" fill="#828282"/>
<path d="M18.984 47.0449C18.8694 47.0259 18.7626 46.9744 18.6762 46.8965C18.5898 46.8187 18.5273 46.7177 18.4961 46.6054L19.8593 28.3062L20.7489 28.3782L19.3857 46.6847C19.3917 46.7373 19.3849 46.7906 19.3661 46.8401C19.3473 46.8896 19.3169 46.9338 19.2776 46.9691C19.2382 47.0044 19.191 47.0297 19.14 47.0428C19.0889 47.056 19.0354 47.0567 18.984 47.0449Z" fill="#828282"/>
<path d="M22.205 48.241C21.8678 48.3131 21.6885 47.7943 21.6885 47.7943L23.0445 30.3452L23.9341 30.4173L22.571 47.9024C22.571 47.9024 22.5709 48.1546 22.205 48.241Z" fill="#828282"/>
<path d="M25.376 49.5233C24.9455 49.6818 24.8379 49.163 24.8379 49.163L26.201 32.3911L27.0907 32.4632L25.7419 49.0334C25.7419 49.0334 25.8136 49.3648 25.376 49.5233Z" fill="#828282"/>
<path d="M28.5762 50.7621C27.9449 50.9062 27.9951 50.4019 27.9951 50.4019L29.3582 34.4297L30.2479 34.5017L28.8991 50.3515C28.8991 50.3515 28.8776 50.6901 28.5762 50.7621Z" fill="#828282"/>
<path d="M31.6686 51.9006C31.3457 51.9006 31.1592 51.5404 31.1592 51.5404L32.5152 36.4688L33.4048 36.548L32.0488 51.5981C32.0488 51.5981 32.0416 51.8574 31.6686 51.9006Z" fill="#828282"/>
<path d="M34.7676 52.9887C34.7087 52.9978 34.6484 52.9926 34.5919 52.9735C34.5354 52.9544 34.4842 52.9219 34.4428 52.8789C34.4013 52.8358 34.3708 52.7834 34.3536 52.7261C34.3365 52.6687 34.3333 52.6081 34.3443 52.5492L35.6788 38.5078L36.5684 38.5943L35.2268 52.6213C35.2092 52.7288 35.1525 52.8259 35.0676 52.8938C34.9828 52.9617 34.8759 52.9955 34.7676 52.9887Z" fill="#828282"/>
<path d="M38.0678 54.2492C37.9953 54.2692 37.9189 54.2707 37.8457 54.2536C37.7724 54.2365 37.7046 54.2013 37.6483 54.1512C37.5921 54.1012 37.5491 54.0378 37.5234 53.9668C37.4976 53.8959 37.49 53.8196 37.501 53.7449L38.8283 40.5464L39.7179 40.6328L38.3906 53.8097C38.3906 53.8097 38.3906 54.206 38.0678 54.2492Z" fill="#828282"/>
<path d="M41.2253 55.5031C41.1617 55.5166 41.096 55.5164 41.0326 55.5026C40.9691 55.4887 40.9093 55.4614 40.8571 55.4226C40.8048 55.3838 40.7614 55.3343 40.7297 55.2774C40.6979 55.2205 40.6786 55.1575 40.6729 55.0925L42.0073 42.564L42.8969 42.6576L41.5768 55.0348C41.5768 55.0348 41.5338 55.5031 41.2253 55.5031Z" fill="#828282"/>
<path d="M12.7131 44.7396C12.4835 44.7396 12.4189 44.3434 12.4189 44.3434L13.3731 24.2646L14.27 24.3079L13.3014 44.4803C13.2302 44.5665 13.1399 44.6348 13.0378 44.6798C12.9357 44.7248 12.8245 44.7453 12.7131 44.7396Z" fill="#828282"/>
<path d="M15.9205 45.7264C15.8201 45.7264 15.7627 45.5103 15.7627 45.4743L17.1115 26.5698H17.4702L16.1142 45.5319C16.1142 45.6472 16.064 45.6976 15.9492 45.7192L15.9205 45.7264Z" fill="#B8B8B8"/>
<path d="M19.1844 46.7857C19.1225 46.7748 19.0648 46.7468 19.0179 46.7048C18.971 46.6628 18.9367 46.6084 18.9189 46.5479L20.2678 28.6089H20.6265L19.2849 46.62V46.7208H19.1987L19.1844 46.7857Z" fill="#B8B8B8"/>
<path d="M22.277 47.9885C22.234 47.9885 22.1479 47.8805 22.0977 47.7652L23.425 30.6475H23.7837L22.4492 47.8588C22.4492 47.8588 22.399 47.9309 22.277 47.9597V47.9885Z" fill="#B8B8B8"/>
<path d="M25.3616 49.2927C25.297 49.2927 25.2468 49.1558 25.2324 49.1126L26.5812 32.6865H26.94L25.6127 49.019C25.6127 49.1342 25.5696 49.1991 25.4261 49.2495L25.3616 49.2927Z" fill="#B8B8B8"/>
<path d="M28.5041 50.5317C28.4761 50.5411 28.4459 50.5411 28.418 50.5317L29.7453 34.7324H30.104L28.7767 50.2724C28.7767 50.2724 28.7767 50.4597 28.6619 50.4813L28.5041 50.5317Z" fill="#B8B8B8"/>
<path d="M31.7611 51.6486C31.6893 51.6486 31.6176 51.5622 31.5674 51.4901L32.8947 36.7715H33.2462L31.8974 51.5838C31.8974 51.5838 31.8544 51.6342 31.7539 51.6414L31.7611 51.6486Z" fill="#B8B8B8"/>
<path d="M34.8975 52.729C34.8186 52.729 34.7755 52.729 34.7612 52.693C34.7528 52.6648 34.7528 52.6347 34.7612 52.6065L36.0741 38.8101H36.4257L35.0984 52.6209C35.084 52.6858 35.0194 52.729 34.8975 52.729Z" fill="#B8B8B8"/>
<path d="M38.0891 53.9971C38.0636 53.9998 38.0377 53.9974 38.0131 53.99C37.9884 53.9826 37.9655 53.9703 37.9456 53.9539C37.9151 53.9016 37.9002 53.8415 37.9026 53.781L39.2084 40.813H39.5599L38.2613 53.7161C38.2613 53.7161 38.2613 53.9034 38.168 53.9179L38.0891 53.9971Z" fill="#B8B8B8"/>
<path d="M41.2608 55.2726C41.0814 55.2726 41.0527 55.1573 41.0527 55.1069L42.3585 42.8594L42.7172 42.9026L41.4258 55.0132C41.4258 55.0132 41.4258 55.2294 41.311 55.2366L41.2608 55.2726Z" fill="#B8B8B8"/>
<path d="M12.8496 44.4803C12.8496 44.4803 12.8496 44.3722 12.8496 44.3074L13.7966 24.5601H14.1554L13.2083 44.3794C13.1148 44.4409 13.0043 44.4712 12.8927 44.4659L12.8496 44.4803Z" fill="#B8B8B8"/>
<path d="M60.524 31.2166L27.9731 9.93468C27.1707 9.40315 26.2363 9.10733 25.2754 9.0806C24.3145 9.05387 23.3653 9.29728 22.5348 9.78339L8.65926 17.8235C8.28052 18.0445 7.96438 18.3591 7.74085 18.7374C7.51733 19.1157 7.39386 19.5451 7.38219 19.9849C7.36798 20.4251 7.46756 20.8616 7.67125 21.2517C7.87494 21.6418 8.1758 21.9724 8.54449 22.211L10.8475 23.7168L11.7156 24.2859L24.3787 32.571L27.0332 34.3145L41.081 43.5001C41.8876 44.0249 42.8227 44.3161 43.7835 44.3415C44.7443 44.3669 45.6935 44.1256 46.5265 43.6442L48.6788 42.4123L50.6805 41.2523L59.3258 36.2092L60.2513 35.6689L60.4379 35.5608C60.8144 35.3373 61.1287 35.0221 61.3519 34.6443C61.5751 34.2666 61.6999 33.8385 61.7149 33.3995C61.72 32.9635 61.6131 32.5336 61.4045 32.1512C61.1959 31.7688 60.8926 31.4469 60.524 31.2166ZM59.5123 34.0335L58.429 34.6603L57.5035 35.2006L48.4779 40.4382L46.4762 41.6054L45.6368 42.0881C45.0887 42.408 44.4626 42.568 43.8289 42.5502C43.1952 42.5324 42.579 42.3374 42.0495 41.9872L34.7172 37.189L27.8583 32.7079L13.459 23.2773L12.5837 22.7081L9.52021 20.6981C9.40659 20.6308 9.31365 20.5333 9.25163 20.4163C9.1896 20.2994 9.16091 20.1676 9.16867 20.0353C9.16572 19.9006 9.20046 19.7677 9.26895 19.6518C9.33743 19.5359 9.4369 19.4416 9.55608 19.3797L23.4316 11.3323C24.1863 10.8922 25.0832 10.768 25.9284 10.9865C26.3086 11.0695 26.6708 11.2208 26.9974 11.4332L27.7722 11.9375L59.5411 32.7151C59.653 32.7866 59.7447 32.8858 59.8075 33.0031C59.8703 33.1204 59.9021 33.2519 59.8998 33.3851C59.8935 33.5169 59.8548 33.6451 59.7872 33.7582C59.7196 33.8713 59.6252 33.9659 59.5123 34.0335Z" fill="#C4C4C4"/>
<path d="M60.9261 42.8732C60.9268 43.1824 60.8597 43.488 60.7295 43.7681C60.5993 44.0483 60.4092 44.2962 60.1727 44.4942C60.0795 44.576 59.9786 44.6484 59.8714 44.7104L58.2715 45.6325L46.0748 52.7001C45.9389 52.7821 45.7975 52.8543 45.6515 52.9162C45.0698 53.1758 44.4438 53.3201 43.8076 53.3413L43.9009 52.3975C44.5047 52.377 45.0939 52.2062 45.6156 51.9004L45.7447 51.8283L58.3504 44.5158L59.3835 43.9107C59.5682 43.8088 59.7218 43.6585 59.828 43.4758C59.9341 43.293 59.9888 43.0848 59.9862 42.8732C59.983 42.7663 59.9685 42.6601 59.9432 42.5562C59.9495 42.3625 59.9947 42.172 60.0761 41.9962C60.1574 41.8205 60.2733 41.663 60.4167 41.5332C60.7392 41.9052 60.9197 42.3801 60.9261 42.8732Z" fill="#C4C4C4"/>
<path d="M44.1732 52.3764C44.7389 52.322 45.2867 52.1476 45.7803 51.8649L59.5482 43.868C59.8381 43.7154 60.0673 43.4678 60.1978 43.1664C60.3283 42.8651 60.3522 42.5279 60.2657 42.211C60.2738 42.0196 60.3416 41.8357 60.4594 41.6851C60.6708 42.0627 60.7442 42.5026 60.6669 42.9288C60.5896 43.355 60.3665 43.7407 60.0361 44.0193C59.952 44.0878 59.8633 44.1503 59.7706 44.2066L58.1707 45.1288L45.974 52.1963C45.8478 52.2735 45.7159 52.3409 45.5794 52.3981C45.1251 52.603 44.6404 52.732 44.1445 52.7799L44.1732 52.3764Z" fill="#E0E0E0"/>
<path d="M61.2486 37.5349C61.2537 37.9118 61.1579 38.2832 60.9711 38.6102C60.7843 38.9372 60.5134 39.2078 60.1868 39.3936L46.2467 47.4842C46.2194 47.5057 46.1875 47.5205 46.1534 47.5274C45.5848 47.8449 44.9571 48.0411 44.3096 48.1038L44.3957 47.1528C44.8839 47.0875 45.3545 46.9259 45.7804 46.6773L46.261 46.3964L59.7205 38.5867C59.9055 38.4829 60.0596 38.3313 60.1668 38.1477C60.274 37.964 60.3304 37.755 60.3303 37.5421C60.3843 37.1103 60.5814 36.7094 60.8899 36.4038C61.1182 36.737 61.243 37.1306 61.2486 37.5349Z" fill="#C4C4C4"/>
<path d="M44.6401 47.1095C45.0901 47.027 45.5223 46.8661 45.9171 46.6341L59.8788 38.5435C60.1009 38.4147 60.2847 38.2285 60.4109 38.0042C60.537 37.78 60.6011 37.5258 60.5962 37.2683C60.6078 37.0086 60.6951 36.7581 60.8473 36.5479C61.0163 36.9659 61.0287 37.4312 60.8823 37.8577C60.7359 38.2842 60.4405 38.643 60.0509 38.8677L46.1108 46.9799H46.075H46.0247C45.5777 47.2254 45.0926 47.3934 44.5898 47.477L44.6401 47.1095Z" fill="#E0E0E0"/>
<path d="M11.2206 39.3L10.9336 36.2957L10.8403 35.3304V34.9845L10.7327 33.8607L10.374 30.7051L10.2736 29.6965V29.3939L10.1659 28.2628L9.88614 25.381L9.80005 24.358L9.65655 22.9459L8.53015 22.2255C8.1901 21.9987 7.90756 21.6953 7.70508 21.3394L8.10685 25.6116L8.35078 28.1764L8.60189 30.842L8.88887 33.8318L9.13998 36.4975L9.39828 39.2424L9.8431 43.2264C9.8431 43.2264 10.087 44.3575 10.8547 44.3575C11.0251 44.3487 11.1891 44.2892 11.3258 44.1865C11.4625 44.0839 11.5657 43.9428 11.6224 43.7812L11.3282 40.3735L11.2206 39.3Z" fill="#828282"/>
<path d="M11.0269 44.1556C10.4888 44.1556 10.2736 43.2479 10.2664 43.2407L9.82877 39.2782L8.22168 22.2686C8.32298 22.3605 8.4309 22.4447 8.54454 22.5207L9.56331 23.1835L9.68529 24.4299L9.77138 25.4529L10.1875 29.7756L10.2808 30.7842L10.7184 35.395L10.8117 36.3748L11.2063 40.4814L11.5148 43.781C11.4772 43.8834 11.4113 43.973 11.325 44.0393C11.2386 44.1057 11.1352 44.146 11.0269 44.1556Z" fill="#B8B8B8"/>
<path d="M32.4286 51.6051C32.1097 51.4777 31.761 51.4452 31.4242 51.5115C31.2638 51.5747 31.1349 51.699 31.0654 51.8573L11.3283 40.3734L9.78578 39.4801C9.65029 39.4023 9.52497 39.308 9.41271 39.1991C9.20478 39.0051 9.03933 38.7698 8.92693 38.508C8.81453 38.2463 8.75762 37.964 8.75983 37.679C8.75972 37.2392 8.8978 36.8106 9.15442 36.4542C9.15442 36.4542 9.62794 36.2885 9.67098 36.7784C9.69252 36.9916 9.69252 37.2064 9.67098 37.4196C9.67098 37.4196 9.67098 37.4773 9.67098 37.5133C9.66318 37.5634 9.66318 37.6144 9.67098 37.6646C9.66882 37.8715 9.72152 38.0753 9.82364 38.2551C9.92576 38.4349 10.0736 38.5841 10.2521 38.6876L11.2422 39.2567L32.4286 51.6051Z" fill="#828282"/>
<path d="M9.99451 39.0982C9.87696 39.0307 9.76846 38.9484 9.67165 38.8533C9.4891 38.6833 9.3438 38.477 9.24498 38.2475C9.14617 38.0181 9.09601 37.7704 9.0977 37.5204C9.0988 37.1764 9.19571 36.8395 9.37749 36.5479C9.44206 36.5479 9.45642 36.5479 9.45642 36.6487C9.4768 36.8427 9.4768 37.0383 9.45642 37.2323C9.44654 37.3281 9.44654 37.4246 9.45642 37.5204C9.45415 37.7756 9.51937 38.0267 9.64542 38.2482C9.77147 38.4697 9.95384 38.6537 10.1739 38.7812L11.164 39.3504L31.3818 51.0864C31.2628 51.1422 31.1557 51.2205 31.0661 51.3169L9.99451 39.0982Z" fill="#C4C4C4"/>
<path d="M43.9297 52.3978L43.8364 53.3416H43.7288C42.8971 53.3414 42.0802 53.1202 41.3612 52.7004L10.8049 34.9631L9.19059 34.0193C9.08984 33.9597 8.99389 33.8922 8.90361 33.8176C8.47912 33.4538 8.21191 32.9387 8.15837 32.3809C8.10483 31.8231 8.26913 31.2662 8.61661 30.8278C8.61661 30.8278 9.09013 30.6621 9.13318 31.152C9.15823 31.3336 9.15823 31.5179 9.13318 31.6995C9.07271 31.8532 9.0411 32.0169 9.03993 32.1822C9.03836 32.3936 9.09264 32.6017 9.19724 32.7852C9.30185 32.9687 9.45304 33.1211 9.6354 33.2268L10.6901 33.8392L41.8204 51.9007C42.4577 52.2756 43.1928 52.4489 43.9297 52.3978Z" fill="#828282"/>
<path d="M44.138 52.7796C43.2575 52.7939 42.3834 52.6272 41.5695 52.2897L9.39173 33.6014L9.14062 33.4285C8.77764 33.1245 8.54369 32.693 8.48637 32.2219C8.42906 31.7508 8.5527 31.2754 8.83212 30.8926C8.88951 30.8926 8.90385 30.8926 8.91103 30.9934C8.93304 31.1536 8.93304 31.316 8.91103 31.4761C8.84106 31.6424 8.80684 31.8216 8.81059 32.0021C8.80575 32.2596 8.86975 32.5137 8.99593 32.738C9.12212 32.9623 9.30587 33.1485 9.52805 33.2772L41.6986 51.9511C42.4646 52.2662 43.2894 52.4112 44.1165 52.3762L44.138 52.7796Z" fill="#C4C4C4"/>
<path d="M44.3963 47.1532L44.3102 48.1042C44.1525 48.1152 43.9944 48.1152 43.8367 48.1042C42.9952 48.1024 42.1689 47.8788 41.4404 47.4558L10.2814 29.3943L8.84649 28.573C8.65731 28.4623 8.48564 28.3239 8.33711 28.1623C8.02768 27.8177 7.83688 27.3823 7.79295 26.9204C7.74902 26.4585 7.85429 25.9947 8.09318 25.5976C8.09318 25.5976 8.65279 25.403 8.69584 25.9001C8.72232 26.1588 8.72232 26.4195 8.69584 26.6782C8.69393 26.8925 8.74871 27.1035 8.8546 27.2895C8.96048 27.4756 9.11366 27.6301 9.29849 27.7373L10.1307 28.2272L41.9426 46.6777C42.6848 47.1066 43.5485 47.274 44.3963 47.1532Z" fill="#828282"/>
<path d="M43.9083 47.6786C43.1144 47.6787 42.3345 47.4674 41.6484 47.0662L9.08318 28.1618C8.79922 27.9963 8.56356 27.7588 8.39986 27.473C8.23616 27.1873 8.15015 26.8633 8.15048 26.5336C8.14751 26.2248 8.22151 25.9202 8.36573 25.6475H8.42311C8.50921 25.6475 8.51639 25.6475 8.52357 25.7411C8.54716 25.9807 8.54716 26.222 8.52357 26.4616C8.51152 26.7321 8.57167 27.001 8.69781 27.2404C8.82394 27.4798 9.01148 27.681 9.24102 27.8232L41.8062 46.7276C42.4326 47.0899 43.1425 47.2811 43.8653 47.2824C43.9514 47.2824 44.5182 47.1167 44.5827 47.1095V47.5201C44.5325 47.5201 43.9873 47.6786 43.9083 47.6786Z" fill="#C4C4C4"/>
<path d="M43.9298 43.4787C43.0058 43.4796 42.1013 43.2119 41.3255 42.7078L27.2778 33.515L8.789 21.4115C8.48819 21.2138 8.24269 20.9422 8.07584 20.6224C7.90899 20.3026 7.82633 19.9452 7.83567 19.5843C7.84502 19.2234 7.94607 18.8709 8.12924 18.5603C8.31242 18.2496 8.57164 17.9911 8.88227 17.8093L22.765 9.75478C23.5221 9.30806 24.3891 9.08402 25.2669 9.10822C26.1448 9.13242 26.9982 9.40389 27.7298 9.89167L60.2806 31.1736C60.5843 31.3695 60.8324 31.641 61.0008 31.9616C61.1693 32.2822 61.2523 32.6411 61.242 33.0035C61.229 33.367 61.1249 33.7213 60.9393 34.0336C60.7537 34.3459 60.4925 34.6061 60.1801 34.7902L46.3046 42.8375C45.5816 43.2541 44.7634 43.475 43.9298 43.4787ZM25.1039 10.0141C24.439 10.0164 23.7861 10.1927 23.2098 10.5257L9.33425 18.573C9.1502 18.678 8.99695 18.8299 8.88989 19.0132C8.78284 19.1966 8.72578 19.4051 8.72443 19.6176C8.71467 19.8264 8.76157 20.0338 8.86014 20.2178C8.95871 20.4018 9.10524 20.5554 9.28405 20.6623L12.3404 22.6723L13.2229 23.2343L27.5934 32.6649L34.4523 37.146L41.7847 41.9514C42.4127 42.3606 43.1453 42.5783 43.894 42.5782C44.5734 42.5759 45.2408 42.3972 45.8311 42.0594L46.6705 41.5767L48.6722 40.4096L59.7066 34.0049C59.8875 33.9008 60.0386 33.7516 60.1453 33.5717C60.252 33.3918 60.3108 33.1874 60.3158 32.9781C60.3209 32.7688 60.2721 32.5617 60.1741 32.3768C60.0762 32.192 59.9325 32.0356 59.7569 31.9228L27.2419 10.6409C26.8697 10.3973 26.4564 10.224 26.0222 10.1294C25.7225 10.0504 25.4137 10.0116 25.1039 10.0141Z" fill="#E0E0E0"/>
<path d="M27.3565 10.7062C27.0237 10.658 26.7116 10.515 26.4573 10.2941C26.2029 10.0732 26.017 9.78363 25.9216 9.45981L24.4078 6.5132L19.0699 3.86197L18.7256 0.67041L25.5701 5.07232L25.814 5.27404L28.2318 10.2235C28.2318 10.2235 28.3108 10.8359 27.3565 10.7062Z" fill="#828282"/>
<path d="M2.28109 14.8555L0.939453 12.5213L19.1843 1.92358C19.2855 1.86411 19.3974 1.82532 19.5136 1.80944C19.6297 1.79355 19.7479 1.80088 19.8613 1.83101C19.9746 1.86114 20.0809 1.91347 20.174 1.985C20.2672 2.05652 20.3453 2.14583 20.404 2.24778L20.5188 2.45671C20.6261 2.63512 20.6967 2.83339 20.7263 3.03973C20.7559 3.24607 20.7439 3.45627 20.691 3.65787C20.6382 3.85947 20.5455 4.04834 20.4185 4.21328C20.2916 4.37822 20.1329 4.51586 19.952 4.61804L2.28109 14.8555Z" fill="#F8CD41"/>
<path d="M6.20564 17.19L5.71777 16.3399L24.3716 5.53324C24.4469 5.49129 24.5357 5.48061 24.6188 5.5035C24.7019 5.52638 24.7728 5.58102 24.8164 5.65572L24.8594 5.72776C24.8967 5.79255 24.9209 5.86409 24.9306 5.93828C24.9403 6.01247 24.9354 6.08786 24.9161 6.16013C24.8968 6.2324 24.8634 6.30013 24.818 6.35945C24.7726 6.41877 24.7159 6.46852 24.6514 6.50584L6.20564 17.19Z" fill="url(#paint0_linear_673_2906)"/>
<path d="M18.7256 0.670012L19.6726 0L25.814 5.28085L25.1253 5.6915L18.7256 0.670012Z" fill="#E0E0E0"/>
<path d="M27.3563 10.7056L25.125 5.66249L25.8425 5.24463L28.2603 10.1941C28.2603 10.1941 28.3105 10.8353 27.3563 10.7056Z" fill="#B8B8B8"/>
<path d="M9.01121 20.2015C9.01121 20.3167 8.97534 20.7634 8.34398 20.6914C8.29438 20.6802 8.24291 20.6802 8.1933 20.6914C7.68391 20.7634 7.71978 21.5919 7.71978 21.5919L5.67506 17.4061L0.330022 14.7765L0 11.5562L6.85167 15.9797L7.08126 16.1814L7.16017 16.3399L9.01121 20.2015Z" fill="#828282"/>
<path d="M0 11.5993L0.947038 10.9365L7.08844 16.2174L6.39968 16.628L0 11.5993Z" fill="#E0E0E0"/>
<path d="M9.01128 20.2011C9.01128 20.3164 8.97541 20.763 8.34405 20.691C8.29444 20.6798 8.24298 20.6798 8.19337 20.691L6.39258 16.6421L7.11003 16.2314L9.01128 20.2011Z" fill="#B8B8B8"/>
<defs>
<linearGradient id="paint0_linear_673_2906" x1="15.1738" y1="10.8573" x2="15.6791" y2="11.72" gradientUnits="userSpaceOnUse">
<stop offset="0.13" stop-color="#DBDBDB"/>
<stop offset="0.44" stop-color="#A9AAAB"/>
<stop offset="0.84" stop-color="#7E7F80"/>
</linearGradient>
</defs>
</svg>
