<svg width="190" height="47" viewBox="0 0 190 47" fill="none" xmlns="http://www.w3.org/2000/svg">
<g clip-path="url(#clip0_673_3880)">
<path opacity="0.92" d="M190 13.4313L175.107 19.6112L177.5 4.2793L190 13.4313Z" fill="#FFD23F"/>
<path opacity="0.92" d="M190 13.4316L187.607 28.7569L175.107 19.6116L190 13.4316Z" fill="#FFD23F"/>
<path d="M187.607 28.7566L172.715 34.9365L175.107 19.6113L187.607 28.7566Z" fill="#FDB733"/>
<path d="M177.5 4.2793L175.108 19.6112L162.614 10.4593L177.5 4.2793Z" fill="#FDB733"/>
<path d="M9.40189 19.6321H1.00806V12.7041H22.1237L12.668 28.3393H21.7876V35.2202H0L9.40189 19.6321Z" fill="black"/>
<path d="M28.4538 9.67097C27.8049 9.67756 27.161 9.5562 26.5587 9.31378C25.9843 9.08167 25.4613 8.73814 25.0197 8.30289C24.5827 7.86374 24.2417 7.33814 24.0183 6.75958C23.5342 5.53909 23.5342 4.17909 24.0183 2.9586C24.2434 2.38289 24.5842 1.85983 25.0197 1.42204C25.4654 0.985039 25.987 0.633325 26.5587 0.384187C27.1585 0.130627 27.8029 0 28.4538 0C29.1048 0 29.7492 0.130627 30.349 0.384187C30.9196 0.63174 31.4392 0.983688 31.8812 1.42204C32.3227 1.86176 32.6743 2.38372 32.9162 2.9586C33.2928 3.85171 33.3954 4.83707 33.2111 5.78895C33.0268 6.74082 32.5638 7.61603 31.8812 8.30289C31.4433 8.73951 30.9222 9.08329 30.349 9.31378C29.7467 9.5562 29.1028 9.67756 28.4538 9.67097ZM24.0385 12.7037H32.8692V35.2265H24.0385V12.7037Z" fill="black"/>
<path d="M60.6989 18.8636C61.2048 20.5318 61.4475 22.2691 61.418 24.0124C61.4396 25.6603 61.1968 27.3009 60.6989 28.8715C60.2097 30.2179 59.4961 31.4712 58.5887 32.5781C57.7217 33.6026 56.6412 34.4239 55.4233 34.984C54.1833 35.5333 52.8407 35.8113 51.4852 35.7995C50.4945 35.8052 49.5088 35.6597 48.5618 35.3682C47.5736 35.0501 46.648 34.5621 45.8266 33.926V43.7384L37.043 45.0391V12.6904H45.8266V14.5167C46.5894 13.8244 47.4443 13.2415 48.3669 12.7847C49.3492 12.3537 50.4132 12.1422 51.4852 12.1647C52.836 12.1536 54.1752 12.4149 55.4233 12.933C56.6437 13.3976 57.7309 14.1569 58.5887 15.1435C59.5101 16.2457 60.225 17.5061 60.6989 18.8636ZM49.1061 28.5817C49.6575 28.6108 50.208 28.5088 50.7125 28.2839C51.2171 28.0591 51.6615 27.7177 52.0094 27.2877C52.7201 26.348 53.0857 25.1911 53.0443 24.0124C53.0838 22.8278 52.7186 21.6651 52.0094 20.7169C51.6473 20.3019 51.2009 19.9693 50.7002 19.7415C50.1995 19.5136 49.656 19.3957 49.1061 19.3957C48.5563 19.3957 48.0128 19.5136 47.512 19.7415C47.0113 19.9693 46.565 20.3019 46.2029 20.7169C45.496 21.666 45.1333 22.8286 45.1747 24.0124C45.1308 25.1904 45.4941 26.3474 46.2029 27.2877C46.5508 27.7177 46.9952 28.0591 47.4998 28.2839C48.0043 28.5088 48.5548 28.6108 49.1061 28.5817Z" fill="black"/>
<path d="M72.628 25.555V35.2259H63.7705V0.579102H72.628V21.5586L77.9506 12.7031H87.9506L80.3229 23.048L89.6307 35.2259H79.4627L72.628 25.555Z" fill="black"/>
<path d="M99.5094 35.9948C97.7597 36.02 96.0228 35.6922 94.4019 35.031C92.9472 34.4341 91.6315 33.5415 90.5377 32.4095C89.4847 31.3068 88.6601 30.0057 88.1116 28.5815C86.9914 25.6041 86.9914 22.3194 88.1116 19.3419C88.6618 17.9206 89.4862 16.6221 90.5377 15.5207C91.6315 14.3887 92.9472 13.4961 94.4019 12.8991C97.6887 11.6143 101.337 11.6143 104.624 12.8991C106.054 13.4858 107.35 14.3602 108.431 15.4683C109.511 16.5763 110.354 17.8947 110.907 19.3419C112.027 22.3194 112.027 25.6041 110.907 28.5815C110.356 30.0304 109.513 31.3504 108.432 32.4598C107.352 33.5691 106.055 34.4443 104.624 35.031C103 35.6917 101.261 36.0194 99.5094 35.9948ZM99.5094 28.5343C100.059 28.5656 100.608 28.4637 101.109 28.2373C101.611 28.0109 102.051 27.6666 102.393 27.2337C103.085 26.2889 103.438 25.1368 103.394 23.9651C103.44 22.7993 103.087 21.6529 102.393 20.7168C102.027 20.3152 101.582 19.9945 101.087 19.775C100.591 19.5556 100.055 19.4422 99.5128 19.4422C98.9708 19.4422 98.4348 19.5556 97.939 19.775C97.4431 19.9945 96.9984 20.3152 96.6331 20.7168C95.9339 21.6507 95.5778 22.7982 95.625 23.9651C95.5803 25.1379 95.9359 26.291 96.6331 27.2337C96.9728 27.6665 97.4117 28.0108 97.9124 28.2372C98.4132 28.4637 98.961 28.5656 99.5094 28.5343Z" fill="black"/>
<path d="M128.501 33.5883C127.741 34.2774 126.874 34.8374 125.934 35.2462C124.933 35.6379 123.863 35.8257 122.789 35.7988C121.441 35.8094 120.103 35.5576 118.851 35.0575C117.64 34.5618 116.558 33.7967 115.685 32.82C114.743 31.7421 114.034 30.48 113.602 29.1134C113.077 27.449 112.825 25.71 112.856 23.9645C112.837 22.3214 113.089 20.6864 113.602 19.1257C114.044 17.7577 114.752 16.491 115.685 15.3989C116.559 14.3885 117.638 13.5774 118.851 13.0199C120.086 12.4518 121.43 12.1641 122.789 12.1775C123.797 12.1699 124.801 12.3153 125.766 12.6088C126.759 12.9371 127.686 13.4415 128.501 14.0982V0.579102H137.325V35.2259H128.501V33.5883ZM125.141 28.581C125.697 28.6054 126.251 28.4958 126.756 28.2613C127.261 28.0268 127.703 27.6742 128.044 27.2331C128.751 26.284 129.114 25.1214 129.073 23.9376C129.116 22.7596 128.753 21.6026 128.044 20.6623C127.678 20.2549 127.23 19.9293 126.73 19.7064C126.229 19.4835 125.688 19.3683 125.141 19.3683C124.594 19.3683 124.053 19.4835 123.553 19.7064C123.052 19.9293 122.605 20.2549 122.238 20.6623C121.524 21.6004 121.158 22.7584 121.203 23.9376C121.161 25.1226 121.526 26.2862 122.238 27.2331C122.578 27.6755 123.019 28.029 123.525 28.2636C124.03 28.4983 124.585 28.6071 125.141 28.581Z" fill="black"/>
<path d="M147.836 26.2763C148.261 27.1829 148.969 27.9259 149.852 28.3925C150.811 28.8833 151.874 29.1309 152.95 29.1136C154.157 29.1407 155.36 28.9955 156.526 28.6823C157.454 28.3947 158.354 28.0225 159.214 27.5703L161.949 33.1572C160.705 33.9068 159.396 34.5429 158.038 35.0577C156.17 35.7279 154.194 36.0456 152.211 35.9944C150.417 36.0239 148.634 35.7129 146.956 35.0779C145.49 34.5322 144.16 33.676 143.054 32.5676C141.949 31.4592 141.095 30.1248 140.551 28.6553C139.961 27.0952 139.667 25.438 139.684 23.7693C139.681 22.2533 139.94 20.7483 140.45 19.3214C140.955 17.923 141.727 16.6366 142.722 15.5339C143.744 14.4157 144.987 13.523 146.371 12.9123C147.954 12.2319 149.663 11.8965 151.385 11.9283C153.109 11.8847 154.819 12.2471 156.378 12.9864C157.719 13.6397 158.904 14.5753 159.852 15.7293C160.761 16.8652 161.445 18.1644 161.868 19.5572C162.312 20.9658 162.538 22.4338 162.541 23.9108C162.541 24.2613 162.541 24.6522 162.541 25.0902C162.541 25.5283 162.5 25.9124 162.473 26.2696L147.836 26.2763ZM151.291 18.0476C150.442 18.0167 149.615 18.3189 148.985 18.89C148.34 19.5157 147.875 20.3053 147.641 21.1747H154.987C154.834 20.2858 154.406 19.4677 153.764 18.8361C153.066 18.2743 152.184 17.9932 151.291 18.0476Z" fill="black"/>
<path d="M64.1536 45.5912L64.4694 45.6856C64.5789 45.6965 64.6892 45.6965 64.7987 45.6856C64.9614 45.6878 65.123 45.6604 65.2759 45.6047C65.418 45.5425 65.5344 45.433 65.6052 45.2947L65.6925 45.1329L64.2006 41.1904H65.7665L66.3982 43.1381L67.0299 41.1904H68.5353L66.9627 45.4025C66.8109 45.8502 66.5444 46.2499 66.1899 46.5617C65.8337 46.84 65.391 46.9832 64.9399 46.966C64.7389 46.9669 64.5384 46.9466 64.3417 46.9054C64.148 46.864 63.9572 46.81 63.7705 46.7436L64.1536 45.5912Z" fill="black"/>
<path d="M70.4702 45.3086C70.164 45.314 69.8598 45.2567 69.5764 45.1401C69.3224 45.0372 69.0932 44.8809 68.9044 44.6819C68.7201 44.4876 68.5762 44.2585 68.481 44.0079C68.2837 43.4869 68.2837 42.9115 68.481 42.3905C68.5758 42.1352 68.7229 41.9025 68.9127 41.7076C69.1025 41.5126 69.3309 41.3595 69.5831 41.2583C70.1603 41.0337 70.8004 41.0337 71.3775 41.2583C71.6302 41.3637 71.8589 41.5197 72.0495 41.7166C72.4217 42.1201 72.6285 42.6496 72.6285 43.1992C72.6285 43.7489 72.4217 44.2783 72.0495 44.6819C71.8607 44.8809 71.6315 45.0372 71.3775 45.1401C71.0898 45.2581 70.781 45.3155 70.4702 45.3086ZM70.4702 44.0012C70.5675 44.0071 70.6647 43.9893 70.7536 43.9494C70.8425 43.9095 70.9205 43.8487 70.981 43.7721C71.1011 43.6059 71.1626 43.4043 71.1557 43.1992C71.1616 42.9942 71.1002 42.793 70.981 42.6264C70.9179 42.5535 70.84 42.4951 70.7524 42.4551C70.6649 42.4151 70.5698 42.3944 70.4736 42.3944C70.3774 42.3944 70.2823 42.4151 70.1948 42.4551C70.1072 42.4951 70.0293 42.5535 69.9662 42.6264C69.847 42.793 69.7856 42.9942 69.7915 43.1992C69.7846 43.4043 69.8461 43.6059 69.9662 43.7721C70.026 43.8477 70.1029 43.908 70.1906 43.9478C70.2782 43.9877 70.3741 44.006 70.4702 44.0012Z" fill="black"/>
<path d="M72.9634 41.2246H74.5158V43.3677C74.5089 43.5189 74.5463 43.6689 74.6233 43.799C74.6681 43.8517 74.7238 43.8939 74.7864 43.9229C74.8491 43.9518 74.9173 43.9669 74.9862 43.9669C75.0552 43.9669 75.1234 43.9518 75.186 43.9229C75.2487 43.8939 75.3043 43.8517 75.3491 43.799C75.4262 43.6689 75.4636 43.5189 75.4567 43.3677V41.2246H77.0091V43.3677C77.0247 43.6273 76.9847 43.8873 76.892 44.1302C76.7993 44.3731 76.6559 44.5934 76.4715 44.7762C76.0446 45.0993 75.5244 45.2741 74.9896 45.2741C74.4548 45.2741 73.9346 45.0993 73.5077 44.7762C73.321 44.5948 73.1756 44.3749 73.0817 44.1318C72.9877 43.8886 72.9474 43.628 72.9634 43.3677V41.2246Z" fill="black"/>
<path d="M77.6475 41.2247H79.1999V41.8986C79.3054 41.6932 79.4439 41.5065 79.6098 41.346C79.684 41.2721 79.7721 41.2138 79.8691 41.1744C79.966 41.1351 80.0698 41.1155 80.1744 41.1169C80.286 41.1043 80.3987 41.1043 80.5104 41.1169C80.5865 41.1344 80.6607 41.1593 80.7321 41.191L80.5641 42.6198L80.376 42.5591L80.1878 42.5187C80.1163 42.5117 80.0442 42.5117 79.9727 42.5187C79.8788 42.5121 79.7845 42.5121 79.6905 42.5187C79.5989 42.5381 79.5136 42.5797 79.4418 42.64C79.3607 42.7071 79.3001 42.7959 79.2671 42.8961C79.2165 43.0316 79.1936 43.176 79.1999 43.3206V45.1874H77.6475V41.2247Z" fill="black"/>
<path d="M82.2646 41.2246H83.8574L84.4757 42.9297L85.1074 41.2246H86.6531L84.9394 45.1873H83.938L82.2646 41.2246Z" fill="black"/>
<path d="M87.6477 40.6916C87.4225 40.6912 87.2061 40.6044 87.0428 40.449C86.9658 40.3729 86.9062 40.2809 86.8681 40.1794C86.822 40.0755 86.7991 39.9628 86.8009 39.8492C86.8012 39.6234 86.8878 39.4063 87.0428 39.2426C87.1213 39.1669 87.2123 39.1054 87.3116 39.0607C87.4176 39.0145 87.5322 38.9915 87.6477 38.9933C87.761 38.9915 87.8734 39.0145 87.977 39.0607C88.0773 39.1037 88.1685 39.1654 88.2458 39.2426C88.3256 39.3177 88.3876 39.4099 88.4272 39.5122C88.4733 39.6185 88.4961 39.7333 88.4944 39.8492C88.4962 39.9628 88.4733 40.0755 88.4272 40.1794C88.3896 40.2828 88.3273 40.3753 88.2458 40.449C88.1699 40.5262 88.0782 40.586 87.977 40.6242C87.8734 40.6704 87.761 40.6934 87.6477 40.6916ZM86.8681 41.224H88.4205V45.1867H86.8681V41.224Z" fill="black"/>
<path d="M89.1328 41.2244H90.6852V41.8984C90.7931 41.6943 90.9313 41.508 91.0952 41.3458C91.2463 41.1983 91.4489 41.1161 91.6597 41.1166C91.7736 41.1044 91.8885 41.1044 92.0024 41.1166C92.0761 41.1352 92.148 41.16 92.2175 41.1907L92.0495 42.6195L91.8613 42.5588L91.6731 42.5184C91.6016 42.5114 91.5296 42.5114 91.4581 42.5184C91.3641 42.5118 91.2698 42.5118 91.1758 42.5184C91.0786 42.5389 90.9884 42.5846 90.9142 42.6508C90.8399 42.7169 90.7842 42.8014 90.7524 42.8958C90.7018 43.0314 90.679 43.1758 90.6852 43.3204V45.1872H89.1328V41.2244Z" fill="black"/>
<path d="M92.2108 41.2312H92.9366V40.227L94.4353 39.9844V41.2312H95.739V42.451H94.4353V43.1653C94.4353 43.2058 94.4353 43.2529 94.4353 43.2866C94.4353 43.3203 94.4353 43.354 94.4353 43.3877V43.4754C94.4324 43.5112 94.4324 43.5473 94.4353 43.5832C94.4498 43.6486 94.4724 43.712 94.5025 43.7719C94.5581 43.8406 94.629 43.8954 94.7096 43.9316C94.7901 43.9679 94.878 43.9848 94.9662 43.9808C95.1549 43.9772 95.3398 43.9263 95.5038 43.8325L95.9877 44.8232C95.5928 45.103 95.1266 45.2643 94.6436 45.2882H94.5697C94.1528 45.2956 93.7472 45.152 93.4272 44.8839C93.2455 44.7135 93.1059 44.5029 93.0196 44.2689C92.9333 44.0349 92.9025 43.784 92.9299 43.536V42.3971H92.2041L92.2108 41.2312Z" fill="black"/>
<path d="M96.0683 41.2246H97.614V43.3677C97.609 43.5196 97.6488 43.6696 97.7282 43.799C97.7674 43.8579 97.822 43.9048 97.886 43.9345C97.95 43.9643 98.021 43.9757 98.0911 43.9675C98.1602 43.9752 98.2301 43.9635 98.2929 43.9337C98.3558 43.904 98.4092 43.8574 98.4473 43.799C98.5267 43.6696 98.5664 43.5196 98.5615 43.3677V41.2246H100.107V43.3677C100.123 43.6273 100.083 43.8873 99.9902 44.1302C99.8975 44.3731 99.7541 44.5934 99.5696 44.7762C99.1428 45.0993 98.6225 45.2741 98.0878 45.2741C97.553 45.2741 97.0327 45.0993 96.6059 44.7762C96.4204 44.5942 96.2763 44.3741 96.1835 44.1309C96.0907 43.8878 96.0514 43.6275 96.0683 43.3677V41.2246Z" fill="black"/>
<path d="M103.199 44.8908C103.065 45.0099 102.913 45.1076 102.749 45.1806C102.574 45.2504 102.386 45.2826 102.198 45.275C101.968 45.2754 101.74 45.2319 101.526 45.1469C101.315 45.0601 101.126 44.9265 100.975 44.756C100.803 44.5614 100.677 44.3313 100.605 44.0821C100.514 43.7901 100.47 43.485 100.477 43.179C100.473 42.8909 100.516 42.6039 100.605 42.3299C100.681 42.0821 100.806 41.8527 100.975 41.6559C101.127 41.4795 101.315 41.3371 101.526 41.2381C101.736 41.1404 101.966 41.0898 102.198 41.0898C102.375 41.0894 102.552 41.1144 102.722 41.164C102.895 41.2236 103.056 41.3125 103.199 41.4268V41.1842H104.751V45.1873H103.199V44.8908ZM102.608 44.008C102.705 44.0138 102.802 43.9961 102.891 43.9562C102.98 43.9163 103.058 43.8555 103.118 43.7788C103.243 43.6119 103.307 43.4075 103.3 43.1993C103.308 42.9929 103.244 42.7902 103.118 42.6264C103.055 42.5536 102.977 42.4952 102.89 42.4551C102.802 42.4151 102.707 42.3944 102.611 42.3944C102.515 42.3944 102.42 42.4151 102.332 42.4551C102.245 42.4952 102.167 42.5536 102.104 42.6264C101.978 42.7902 101.914 42.9929 101.922 43.1993C101.915 43.4075 101.979 43.6119 102.104 43.7788C102.163 43.8545 102.24 43.9147 102.328 43.9546C102.416 43.9945 102.511 44.0127 102.608 44.008Z" fill="black"/>
<path d="M105.464 39.1221H107.016V45.1874H105.464V39.1221Z" fill="black"/>
<path d="M111.956 44.8908C111.822 45.0113 111.67 45.1092 111.505 45.1806C111.33 45.2505 111.143 45.2826 110.954 45.275C110.724 45.2764 110.496 45.2329 110.282 45.1469C110.069 45.0621 109.878 44.9283 109.725 44.7561C109.556 44.5596 109.43 44.3301 109.355 44.0821C109.264 43.7901 109.22 43.485 109.227 43.1791C109.223 42.8909 109.266 42.6039 109.355 42.3299C109.434 42.0836 109.559 41.8548 109.725 41.656C109.878 41.4778 110.068 41.3352 110.282 41.2381C110.493 41.1396 110.722 41.0889 110.954 41.0899C111.132 41.0894 111.308 41.1144 111.479 41.164C111.651 41.2236 111.813 41.3125 111.956 41.4268V41.1842H113.508V45.1874H111.956V44.8908ZM111.371 44.008C111.468 44.0133 111.565 43.9953 111.654 43.9554C111.743 43.9156 111.821 43.855 111.882 43.7789C112.006 43.612 112.07 43.4075 112.063 43.1993C112.071 42.9929 112.007 42.7902 111.882 42.6264C111.821 42.5502 111.743 42.4897 111.654 42.4498C111.565 42.41 111.468 42.392 111.371 42.3973C111.274 42.3914 111.177 42.4092 111.088 42.4491C110.999 42.489 110.921 42.5498 110.86 42.6264C110.735 42.7902 110.671 42.9929 110.679 43.1993C110.672 43.4075 110.736 43.612 110.86 43.7789C110.921 43.8555 110.999 43.9163 111.088 43.9562C111.177 43.9961 111.274 44.0139 111.371 44.008Z" fill="black"/>
<path d="M116.674 44.8909C116.54 45.0114 116.388 45.1093 116.223 45.1807C116.048 45.2505 115.861 45.2827 115.672 45.2751C115.442 45.2755 115.214 45.232 115 45.147C114.789 45.0602 114.601 44.9266 114.449 44.7561C114.278 44.5615 114.152 44.3314 114.08 44.0822C113.988 43.7902 113.945 43.4851 113.952 43.1791C113.947 42.891 113.99 42.604 114.08 42.33C114.155 42.0822 114.281 41.8527 114.449 41.656C114.602 41.4796 114.789 41.3372 115 41.2382C115.211 41.1405 115.44 41.0899 115.672 41.0899C115.85 41.0895 116.026 41.1145 116.196 41.1641C116.369 41.2237 116.531 41.3126 116.674 41.4269V39.1221H118.226V45.1874H116.674V44.8909ZM116.089 44.0081C116.185 44.0128 116.281 43.9946 116.369 43.9547C116.456 43.9148 116.533 43.8546 116.593 43.7789C116.717 43.612 116.781 43.4076 116.774 43.1994C116.783 42.993 116.718 42.7903 116.593 42.6265C116.53 42.5537 116.452 42.4953 116.364 42.4552C116.277 42.4152 116.182 42.3945 116.086 42.3945C115.989 42.3945 115.894 42.4152 115.807 42.4552C115.719 42.4953 115.641 42.5537 115.578 42.6265C115.453 42.7903 115.389 42.993 115.397 43.1994C115.39 43.4076 115.454 43.612 115.578 43.7789C115.639 43.8556 115.717 43.9164 115.806 43.9563C115.895 43.9962 115.992 44.0139 116.089 44.0081Z" fill="black"/>
<path d="M121.391 44.8909C121.257 45.0099 121.105 45.1077 120.941 45.1807C120.766 45.2505 120.578 45.2827 120.39 45.2751C120.16 45.2755 119.932 45.232 119.718 45.147C119.506 45.062 119.317 44.928 119.167 44.7561C118.996 44.5615 118.87 44.3314 118.797 44.0822C118.706 43.7902 118.663 43.4851 118.67 43.1791C118.665 42.891 118.708 42.604 118.797 42.33C118.873 42.0822 118.999 41.8527 119.167 41.656C119.32 41.4762 119.511 41.3324 119.726 41.2346C119.941 41.1367 120.174 41.0874 120.41 41.0899C120.588 41.0905 120.764 41.1154 120.934 41.1641C121.107 41.2237 121.269 41.3126 121.412 41.4269V39.1221H122.964V45.1874H121.412L121.391 44.8909ZM120.8 44.0081C120.897 44.0139 120.994 43.9962 121.083 43.9563C121.172 43.9164 121.25 43.8556 121.311 43.7789C121.435 43.612 121.499 43.4076 121.492 43.1994C121.5 42.993 121.436 42.7903 121.311 42.6265C121.25 42.5499 121.172 42.489 121.083 42.4492C120.994 42.4093 120.897 42.3915 120.8 42.3974C120.704 42.3915 120.607 42.4092 120.52 42.4492C120.432 42.4891 120.355 42.55 120.296 42.6265C120.171 42.7903 120.106 42.993 120.115 43.1994C120.108 43.4076 120.172 43.612 120.296 43.7789C120.355 43.8555 120.432 43.9163 120.52 43.9563C120.607 43.9962 120.704 44.014 120.8 44.0081Z" fill="black"/>
<path d="M123.656 41.2247H125.209V41.8986C125.314 41.6932 125.453 41.5065 125.619 41.346C125.693 41.2721 125.781 41.2138 125.878 41.1744C125.975 41.1351 126.079 41.1155 126.183 41.1169C126.295 41.1043 126.408 41.1043 126.519 41.1169C126.595 41.1344 126.67 41.1593 126.741 41.191L126.573 42.6198L126.385 42.5591L126.197 42.5187C126.125 42.5117 126.053 42.5117 125.982 42.5187C125.888 42.5121 125.793 42.5121 125.699 42.5187C125.608 42.5381 125.522 42.5797 125.451 42.64C125.369 42.7071 125.309 42.7959 125.276 42.8961C125.225 43.0316 125.202 43.176 125.209 43.3206V45.1874H123.656V41.2247Z" fill="black"/>
<path d="M128.084 43.6031C128.162 43.7633 128.289 43.8936 128.447 43.9738C128.612 44.0627 128.798 44.1068 128.985 44.1018C129.198 44.1058 129.41 44.0809 129.617 44.0277C129.781 43.9754 129.94 43.91 130.094 43.8322L130.571 44.8094C130.358 44.9423 130.133 45.0551 129.899 45.1464C129.571 45.2627 129.225 45.3175 128.878 45.3081C128.562 45.3115 128.248 45.259 127.95 45.1531C127.695 45.0535 127.463 44.9013 127.269 44.7063C127.076 44.5113 126.926 44.2778 126.828 44.0209C126.726 43.7473 126.676 43.4571 126.68 43.1651C126.677 42.8984 126.723 42.6335 126.814 42.3833C126.896 42.1337 127.028 41.904 127.204 41.7094C127.382 41.511 127.599 41.3525 127.843 41.2443C128.121 41.1266 128.421 41.0692 128.723 41.0759C129.024 41.068 129.323 41.1302 129.597 41.2578C129.831 41.3758 130.04 41.541 130.208 41.7431C130.371 41.9425 130.494 42.1712 130.571 42.417C130.646 42.6662 130.684 42.925 130.685 43.1853C130.685 43.2459 130.685 43.3133 130.685 43.3942C130.685 43.4751 130.685 43.5357 130.685 43.5964L128.084 43.6031ZM128.696 42.1609C128.545 42.154 128.398 42.2074 128.286 42.3092C128.175 42.4194 128.094 42.5563 128.051 42.7068H129.341C129.316 42.5518 129.241 42.4096 129.126 42.3024C129.006 42.2018 128.852 42.1512 128.696 42.1609Z" fill="black"/>
<path d="M131.203 43.839C131.38 43.9449 131.567 44.033 131.761 44.1018C131.977 44.1767 132.204 44.2154 132.433 44.2164C132.504 44.2319 132.577 44.2319 132.648 44.2164C132.669 44.2022 132.685 44.1829 132.696 44.1605C132.706 44.138 132.711 44.1131 132.709 44.0883C132.709 44.0605 132.702 44.0332 132.688 44.0093C132.673 43.9855 132.653 43.9662 132.628 43.9535L132.406 43.8659L132.01 43.7177C131.848 43.6634 131.69 43.5958 131.539 43.5155C131.41 43.4491 131.292 43.3627 131.19 43.2594C131.093 43.1562 131.018 43.0348 130.968 42.9022C130.917 42.7434 130.892 42.5772 130.894 42.4102C130.893 42.2342 130.932 42.0602 131.007 41.9014C131.083 41.7426 131.194 41.6032 131.331 41.4937C131.478 41.3734 131.647 41.284 131.828 41.2308C132.046 41.1623 132.273 41.1304 132.5 41.1365C132.793 41.1292 133.084 41.1748 133.361 41.2713C133.567 41.3552 133.769 41.4497 133.966 41.5543L133.522 42.5181L133.327 42.4372L133.078 42.3428L132.83 42.2687C132.754 42.2599 132.677 42.2599 132.601 42.2687C132.529 42.2608 132.455 42.2774 132.393 42.3159C132.374 42.3315 132.359 42.3511 132.349 42.3732C132.338 42.3953 132.333 42.4195 132.332 42.4439C132.332 42.4736 132.339 42.5029 132.353 42.5289C132.367 42.555 132.388 42.5768 132.413 42.5922C132.485 42.6346 132.562 42.6685 132.642 42.6933L132.957 42.7944C133.132 42.8483 133.3 42.9089 133.455 42.9696C133.595 43.0244 133.726 43.0993 133.845 43.192C133.953 43.2791 134.04 43.3897 134.1 43.5155C134.165 43.6616 134.197 43.8204 134.194 43.9805C134.194 44.1665 134.162 44.3511 134.1 44.5264C134.034 44.6938 133.931 44.8438 133.798 44.9644C133.651 45.1007 133.477 45.2041 133.287 45.2677C133.054 45.3514 132.808 45.3902 132.561 45.3823C132.215 45.387 131.87 45.337 131.539 45.234C131.271 45.1577 131.012 45.0515 130.767 44.9173L131.203 43.839Z" fill="black"/>
<path d="M134.664 43.839C134.841 43.9449 135.028 44.033 135.222 44.1018C135.438 44.1766 135.665 44.2153 135.894 44.2164C135.963 44.2313 136.034 44.2313 136.102 44.2164C136.123 44.2022 136.139 44.1829 136.15 44.1605C136.16 44.138 136.165 44.1131 136.163 44.0883C136.163 44.0605 136.156 44.0332 136.142 44.0093C136.128 43.9855 136.107 43.9662 136.082 43.9535L135.86 43.8659L135.464 43.7177C135.302 43.6622 135.145 43.5946 134.994 43.5155C134.864 43.4491 134.746 43.3627 134.644 43.2594C134.547 43.1562 134.472 43.0348 134.422 42.9022C134.371 42.7434 134.346 42.5772 134.348 42.4102C134.347 42.2342 134.386 42.0602 134.461 41.9014C134.537 41.7426 134.648 41.6032 134.785 41.4937C134.932 41.3734 135.101 41.284 135.283 41.2308C135.5 41.1623 135.727 41.1304 135.955 41.1365C136.247 41.1292 136.538 41.1748 136.815 41.2713C137.021 41.3552 137.223 41.4497 137.42 41.5543L136.976 42.5181L136.781 42.4372L136.539 42.3428L136.284 42.2687C136.208 42.2599 136.131 42.2599 136.055 42.2687C135.983 42.2608 135.909 42.2774 135.847 42.3159C135.828 42.3315 135.813 42.3511 135.803 42.3732C135.792 42.3953 135.787 42.4195 135.787 42.4439C135.786 42.4736 135.793 42.5029 135.807 42.5289C135.821 42.555 135.842 42.5768 135.867 42.5922C135.939 42.6346 136.016 42.6685 136.096 42.6933L136.412 42.7944C136.586 42.8483 136.754 42.9089 136.909 42.9696C137.049 43.0244 137.18 43.0993 137.299 43.192C137.407 43.2791 137.494 43.3897 137.554 43.5155C137.619 43.6616 137.652 43.8204 137.648 43.9805C137.648 44.1665 137.616 44.3511 137.554 44.5264C137.488 44.6938 137.385 44.8438 137.252 44.9644C137.105 45.1007 136.931 45.2041 136.741 45.2677C136.508 45.3514 136.262 45.3902 136.015 45.3823C135.669 45.387 135.324 45.337 134.994 45.234C134.725 45.1577 134.466 45.0515 134.221 44.9173L134.664 43.839Z" fill="black"/>
<path d="M138.857 45.2743C138.742 45.2754 138.627 45.2525 138.521 45.2069C138.418 45.1665 138.324 45.1045 138.246 45.0249C138.166 44.9434 138.102 44.8473 138.058 44.7419C138.011 44.6358 137.988 44.5208 137.99 44.4049C137.988 44.2781 138.011 44.1521 138.058 44.0343C138.1 43.9259 138.164 43.8273 138.246 43.7445C138.322 43.6608 138.416 43.5961 138.521 43.5558C138.627 43.5102 138.742 43.4873 138.857 43.4884C138.973 43.4866 139.087 43.5096 139.193 43.5558C139.3 43.5977 139.396 43.6621 139.476 43.7445C139.553 43.8294 139.614 43.9276 139.657 44.0343C139.704 44.1521 139.727 44.2781 139.724 44.4049C139.727 44.5208 139.704 44.6358 139.657 44.7419C139.613 44.8457 139.551 44.9413 139.476 45.0249C139.394 45.1031 139.298 45.1648 139.193 45.2069C139.087 45.2531 138.973 45.276 138.857 45.2743Z" fill="black"/>
</g>
<defs>
<clipPath id="clip0_673_3880">
<rect width="190" height="47" fill="white"/>
</clipPath>
</defs>
</svg>
