<svg width="23" height="33" viewBox="0 0 23 33" fill="none" xmlns="http://www.w3.org/2000/svg">
<path d="M20.7647 1H2.23529C1.55306 1 1 1.59265 1 2.32372V30.1219C1 30.8529 1.55306 31.4456 2.23529 31.4456H20.7647C21.4469 31.4456 22 30.8529 22 30.1219V2.32372C22 1.59265 21.4469 1 20.7647 1Z" stroke="white" stroke-width="1.5" stroke-linecap="round" stroke-linejoin="round"/>
<path d="M15.6439 4.97119H7.35057C5.88843 4.97119 4.70312 6.15649 4.70312 7.61863C4.70312 9.08078 5.88843 10.2661 7.35057 10.2661H15.6439C17.1061 10.2661 18.2914 9.08078 18.2914 7.61863C18.2914 6.15649 17.1061 4.97119 15.6439 4.97119Z" stroke="white" stroke-width="1.5" stroke-linecap="round" stroke-linejoin="round"/>
<path d="M5.94043 14.2373V19.5322" stroke="white" stroke-width="1.5" stroke-linecap="round" stroke-linejoin="round"/>
<path d="M3.46875 16.8848H8.40993" stroke="white" stroke-width="1.5" stroke-linecap="round" stroke-linejoin="round"/>
<path d="M13.6963 16.8848H18.6375" stroke="white" stroke-width="1.5" stroke-linecap="round" stroke-linejoin="round"/>
<path d="M13.6963 24.8271H18.6375" stroke="#F8CD41" stroke-width="1.5" stroke-linecap="round" stroke-linejoin="round"/>
<path d="M13.6963 27.6865H18.6375" stroke="#F8CD41" stroke-width="1.5" stroke-linecap="round" stroke-linejoin="round"/>
<path d="M4.55762 24.4565L8.11526 28.2689" stroke="white" stroke-width="1.5" stroke-linecap="round" stroke-linejoin="round"/>
<path d="M8.11526 24.4565L4.55762 28.2689" stroke="white" stroke-width="1.5" stroke-linecap="round" stroke-linejoin="round"/>
</svg>
