<svg width="202" height="144" viewBox="0 0 202 144" fill="none" xmlns="http://www.w3.org/2000/svg">
<path d="M33.4178 89.7406C42.4329 69.0182 86.2006 64.9772 86.2006 64.9772C86.2006 64.9772 110.089 42.4987 119.204 34.2931C131.11 23.5749 145.948 9.26337 168.091 26.4387C177.505 35.0573 224.967 61.4726 188.296 84.642C179.884 90.7788 139.293 99.216 133.799 111.659C122.888 124.527 111.462 136.064 78.7371 136.473C50.1983 136.102 28.4537 106.171 33.4178 89.7406Z" fill="url(#paint0_linear_673_3457)"/>
<path opacity="0.02" d="M193.089 62.4994L139.161 93.4575C138.624 93.7675 138.014 93.9307 137.393 93.9307C136.772 93.9307 136.162 93.7675 135.625 93.4575L88.2009 66.1429C87.7741 65.8979 87.4196 65.545 87.1731 65.1198C86.9266 64.6946 86.7969 64.2121 86.7969 63.721C86.7969 63.2298 86.9266 62.7473 87.1731 62.3221C87.4196 61.8969 87.7741 61.544 88.2009 61.299L142.241 30.422C142.778 30.1138 143.388 29.9517 144.007 29.9517C144.627 29.9517 145.236 30.1138 145.774 30.422L193.086 57.671C193.509 57.9166 193.86 58.2688 194.104 58.6922C194.349 59.1156 194.478 59.5955 194.478 60.0841C194.478 60.5726 194.35 61.0528 194.107 61.4766C193.863 61.9004 193.512 62.253 193.089 62.4994Z" fill="#FBFBFC"/>
<path opacity="0.04" d="M192.823 62.4958L139.169 93.2996C138.634 93.6078 138.027 93.7701 137.409 93.7701C136.791 93.7701 136.184 93.6078 135.648 93.2996L88.4448 66.1239C88.0204 65.8802 87.6681 65.5293 87.423 65.1065C87.1779 64.6837 87.0488 64.2039 87.0488 63.7155C87.0488 63.2271 87.1779 62.7473 87.423 62.3245C87.6681 61.9016 88.0204 61.5507 88.4448 61.3071L142.226 30.5689C142.761 30.2618 143.367 30.1001 143.984 30.1001C144.602 30.1001 145.208 30.2618 145.743 30.5689L192.815 57.679C193.24 57.922 193.593 58.2724 193.838 58.6948C194.084 59.1172 194.214 59.5968 194.215 60.0852C194.216 60.5736 194.087 61.0536 193.843 61.4768C193.598 61.9 193.246 62.2515 192.823 62.4958Z" fill="#F8F8F9"/>
<path opacity="0.06" d="M192.559 62.4915L139.165 93.1408C138.633 93.447 138.029 93.6082 137.415 93.6082C136.8 93.6082 136.196 93.447 135.664 93.1408L88.7157 66.1234C88.2938 65.8806 87.9435 65.5312 87.6999 65.1104C87.4564 64.6897 87.3281 64.2124 87.3281 63.7266C87.3281 63.2407 87.4564 62.7634 87.6999 62.3427C87.9435 61.922 88.2938 61.5726 88.7157 61.3297L142.21 30.746C142.741 30.4434 143.341 30.2842 143.951 30.2842C144.562 30.2842 145.162 30.4434 145.693 30.746L192.528 57.721C192.947 57.9619 193.296 58.308 193.539 58.7249C193.783 59.1418 193.912 59.615 193.915 60.0974C193.918 60.5798 193.795 61.0546 193.557 61.4746C193.319 61.8946 192.975 62.2452 192.559 62.4915Z" fill="#F4F4F6"/>
<path opacity="0.08" d="M192.28 62.4918L139.173 92.9829C138.643 93.2878 138.043 93.4483 137.431 93.4483C136.82 93.4483 136.22 93.2878 135.69 92.9829L88.9859 66.0813C88.5655 65.8406 88.2162 65.4934 87.9733 65.075C87.7304 64.6565 87.6025 64.1815 87.6025 63.6979C87.6025 63.2144 87.7304 62.7394 87.9733 62.321C88.2162 61.9025 88.5655 61.5554 88.9859 61.3147L142.206 30.8853C142.735 30.5804 143.336 30.4199 143.947 30.4199C144.558 30.4199 145.159 30.5804 145.688 30.8853L192.28 57.7252C192.7 57.9667 193.048 58.3141 193.29 58.7325C193.532 59.1509 193.66 59.6254 193.66 60.1085C193.66 60.5916 193.532 61.0662 193.29 61.4845C193.048 61.9029 192.7 62.2503 192.28 62.4918Z" fill="#F1F1F3"/>
<path opacity="0.1" d="M192.029 62.4881L139.192 92.821C138.664 93.1281 138.063 93.29 137.451 93.29C136.839 93.29 136.238 93.1281 135.71 92.821L89.2415 66.0621C88.8237 65.8217 88.4767 65.4757 88.2354 65.059C87.9941 64.6424 87.8672 64.1697 87.8672 63.6885C87.8672 63.2073 87.9941 62.7345 88.2354 62.3179C88.4767 61.9012 88.8237 61.5552 89.2415 61.3148L142.191 31.0437C142.717 30.7431 143.313 30.585 143.92 30.585C144.527 30.585 145.123 30.7431 145.65 31.0437L192.01 57.7408C192.429 57.9795 192.777 58.3241 193.02 58.7398C193.263 59.1555 193.392 59.6277 193.394 60.1088C193.396 60.59 193.271 61.0633 193.031 61.4809C192.791 61.8986 192.446 62.2459 192.029 62.4881Z" fill="#EDEDF0"/>
<path opacity="0.12" d="M191.763 62.4841L139.201 92.6625C138.676 92.964 138.081 93.1226 137.475 93.1226C136.869 93.1226 136.274 92.964 135.749 92.6625L89.5246 66.0311C89.1092 65.792 88.7642 65.448 88.5243 65.0337C88.2845 64.6194 88.1582 64.1493 88.1582 63.6709C88.1582 63.1925 88.2845 62.7225 88.5243 62.3082C88.7642 61.8939 89.1092 61.5499 89.5246 61.3108L142.199 31.2056C142.723 30.9049 143.317 30.7466 143.921 30.7466C144.525 30.7466 145.119 30.9049 145.643 31.2056L191.759 57.7676C192.175 58.0058 192.52 58.3492 192.76 58.763C193.001 59.1768 193.127 59.6465 193.128 60.1247C193.128 60.603 193.002 61.0729 192.762 61.4871C192.523 61.9013 192.178 62.2452 191.763 62.4841Z" fill="#E9E9ED"/>
<path opacity="0.14" d="M191.507 62.4801L139.216 92.5042C138.694 92.8039 138.102 92.9616 137.5 92.9616C136.898 92.9616 136.306 92.8039 135.784 92.5042L89.7877 66.0309C89.3718 65.795 89.0259 65.4534 88.7853 65.0409C88.5448 64.6283 88.418 64.1596 88.418 63.6824C88.418 63.2051 88.5448 62.7363 88.7853 62.3238C89.0259 61.9113 89.3718 61.5697 89.7877 61.3337L142.191 31.3753C142.712 31.0766 143.303 30.9194 143.903 30.9194C144.504 30.9194 145.094 31.0766 145.615 31.3753L191.507 57.7868C191.922 58.0229 192.267 58.3644 192.507 58.7765C192.747 59.1887 192.873 59.6568 192.873 60.1334C192.873 60.61 192.747 61.0781 192.507 61.4903C192.267 61.9024 191.922 62.2439 191.507 62.4801Z" fill="#E6E6EB"/>
<path opacity="0.16" d="M191.236 62.4804L139.215 92.3424C138.697 92.6412 138.108 92.7984 137.509 92.7984C136.91 92.7984 136.322 92.6412 135.803 92.3424L90.0541 65.9927C89.6446 65.7549 89.3047 65.4141 89.0685 65.0044C88.8323 64.5946 88.708 64.1302 88.708 63.6576C88.708 63.1849 88.8323 62.7205 89.0685 62.3107C89.3047 61.901 89.6446 61.5603 90.0541 61.3225L142.187 31.5184C142.705 31.2207 143.292 31.064 143.889 31.064C144.487 31.064 145.074 31.2207 145.592 31.5184L191.248 57.8025C191.658 58.0408 191.999 58.3826 192.235 58.7937C192.472 59.2049 192.596 59.6708 192.594 60.1448C192.593 60.6188 192.467 61.0841 192.229 61.4941C191.99 61.904 191.648 62.2442 191.236 62.4804Z" fill="#E2E2E8"/>
<path opacity="0.18" d="M190.969 62.4761L139.223 92.1953C138.707 92.4919 138.121 92.6481 137.525 92.6481C136.928 92.6481 136.343 92.4919 135.826 92.1953L90.3172 65.9845C89.9109 65.7489 89.5737 65.411 89.3393 65.0046C89.1049 64.5982 88.9814 64.1376 88.9814 63.6687C88.9814 63.1999 89.1049 62.7392 89.3393 62.3328C89.5737 61.9264 89.9109 61.5885 90.3172 61.3529L142.164 31.7032C142.679 31.4073 143.264 31.2515 143.858 31.2515C144.453 31.2515 145.038 31.4073 145.553 31.7032L190.954 57.8523C191.359 58.087 191.696 58.4235 191.93 58.8283C192.165 59.2332 192.289 59.6922 192.29 60.1597C192.292 60.6273 192.171 61.0871 191.939 61.4935C191.707 61.8998 191.373 62.2386 190.969 62.4761Z" fill="#DFDFE5"/>
<path opacity="0.2" d="M190.706 62.4723L139.246 92.0255C138.732 92.3205 138.15 92.4757 137.557 92.4757C136.964 92.4757 136.382 92.3205 135.868 92.0255L90.5994 65.9537C90.19 65.7205 89.8498 65.3834 89.6132 64.9767C89.3765 64.57 89.252 64.1082 89.252 63.6379C89.252 63.1677 89.3765 62.7058 89.6132 62.2991C89.8498 61.8924 90.19 61.5554 90.5994 61.3222L142.183 31.8307C142.696 31.5357 143.277 31.3804 143.87 31.3804C144.462 31.3804 145.044 31.5357 145.557 31.8307L190.721 57.8408C191.13 58.0754 191.469 58.4136 191.704 58.821C191.939 59.2285 192.062 59.6908 192.061 60.161C192.059 60.6313 191.933 61.0927 191.695 61.4986C191.457 61.9045 191.116 62.2404 190.706 62.4723Z" fill="#DBDBE2"/>
<path opacity="0.22" d="M190.439 62.4688L139.235 91.8676C138.724 92.1605 138.145 92.3147 137.556 92.3147C136.967 92.3147 136.388 92.1605 135.877 91.8676L90.8478 65.9347C90.4428 65.7018 90.1064 65.3665 89.8726 64.9627C89.6387 64.5589 89.5156 64.1008 89.5156 63.6344C89.5156 63.1681 89.6387 62.7099 89.8726 62.3061C90.1064 61.9023 90.4428 61.567 90.8478 61.334L142.156 32.0008C142.667 31.7079 143.245 31.5537 143.834 31.5537C144.422 31.5537 145.001 31.7079 145.511 32.0008L190.436 57.8604C190.845 58.0909 191.185 58.4255 191.422 58.8301C191.659 59.2348 191.784 59.6949 191.784 60.1635C191.785 60.6321 191.66 61.0924 191.424 61.4974C191.188 61.9024 190.848 62.2376 190.439 62.4688Z" fill="#D8D8DF"/>
<path opacity="0.24" d="M190.176 62.4685L139.242 91.7052C138.735 91.9972 138.159 92.1509 137.573 92.1509C136.987 92.1509 136.411 91.9972 135.903 91.7052L91.1103 65.9074C90.7077 65.6758 90.3734 65.3425 90.1409 64.941C89.9085 64.5396 89.7861 64.0842 89.7861 63.6206C89.7861 63.157 89.9085 62.7015 90.1409 62.3001C90.3734 61.8987 90.7077 61.5654 91.1103 61.3337L142.148 32.1549C142.656 31.8637 143.232 31.7104 143.818 31.7104C144.404 31.7104 144.979 31.8637 145.487 32.1549L190.172 57.891C190.576 58.122 190.911 58.4551 191.144 58.8568C191.378 59.2584 191.501 59.7144 191.501 60.1786C191.502 60.6429 191.379 61.099 191.147 61.501C190.914 61.9031 190.579 62.2368 190.176 62.4685Z" fill="#D4D4DC"/>
<path opacity="0.25" d="M189.909 62.4648L139.25 91.5471C138.744 91.8374 138.171 91.9901 137.588 91.9901C137.005 91.9901 136.432 91.8374 135.926 91.5471L91.3771 65.8883C90.9761 65.6583 90.643 65.3268 90.4113 64.9273C90.1796 64.5279 90.0576 64.0745 90.0576 63.613C90.0576 63.1515 90.1796 62.6982 90.4113 62.2988C90.643 61.8993 90.9761 61.5678 91.3771 61.3378L142.14 32.3133C142.645 32.0242 143.218 31.8721 143.8 31.8721C144.383 31.8721 144.955 32.0242 145.46 32.3133L189.912 57.9259C190.311 58.157 190.641 58.4884 190.871 58.8869C191.1 59.2853 191.22 59.7369 191.22 60.1965C191.22 60.656 191.098 61.1073 190.868 61.5054C190.638 61.9035 190.307 62.2343 189.909 62.4648Z" fill="#D0D0D9"/>
<path opacity="0.27" d="M189.646 62.4608L139.258 91.4081C138.756 91.6974 138.186 91.8497 137.606 91.8497C137.026 91.8497 136.456 91.6974 135.954 91.4081L91.6406 65.8882C91.242 65.6595 90.9109 65.33 90.6806 64.9329C90.4503 64.5358 90.3291 64.0852 90.3291 63.6265C90.3291 63.1677 90.4503 62.7171 90.6806 62.32C90.9109 61.9229 91.242 61.5934 91.6406 61.3647L142.133 32.4985C142.635 32.2103 143.204 32.0586 143.783 32.0586C144.362 32.0586 144.931 32.2103 145.433 32.4985L189.642 57.9721C190.034 58.2019 190.359 58.5298 190.584 58.9232C190.81 59.3167 190.929 59.762 190.929 60.2154C190.93 60.6687 190.812 61.1143 190.587 61.5081C190.361 61.9019 190.037 62.2303 189.646 62.4608Z" fill="#CDCDD6"/>
<path opacity="0.29" d="M189.383 62.4569L139.274 91.2305C138.773 91.5177 138.206 91.6688 137.629 91.6688C137.052 91.6688 136.485 91.5177 135.985 91.2305L91.9154 65.8496C91.5182 65.6225 91.1882 65.2948 90.9588 64.8997C90.7293 64.5046 90.6084 64.056 90.6084 63.5994C90.6084 63.1427 90.7293 62.6942 90.9588 62.2991C91.1882 61.904 91.5182 61.5763 91.9154 61.3492L142.137 32.6374C142.636 32.3509 143.203 32.2002 143.779 32.2002C144.356 32.2002 144.922 32.3509 145.422 32.6374L189.387 57.9605C189.783 58.1882 190.112 58.516 190.34 58.9109C190.569 59.3058 190.689 59.7538 190.688 60.2098C190.688 60.6658 190.567 61.1136 190.338 61.5082C190.109 61.9027 189.779 62.2299 189.383 62.4569Z" fill="#C9C9D3"/>
<path opacity="0.31" d="M189.115 62.4571L139.273 91.0724C138.776 91.3579 138.212 91.5082 137.638 91.5082C137.065 91.5082 136.501 91.3579 136.004 91.0724L92.1701 65.8266C91.7754 65.6008 91.4475 65.2751 91.2194 64.8824C90.9913 64.4897 90.8711 64.0438 90.8711 63.5899C90.8711 63.1361 90.9913 62.6902 91.2194 62.2975C91.4475 61.9048 91.7754 61.579 92.1701 61.3533L142.117 32.792C142.614 32.5076 143.177 32.3579 143.75 32.3579C144.323 32.3579 144.885 32.5076 145.382 32.792L189.104 57.9799C189.499 58.2052 189.828 58.5305 190.057 58.9229C190.286 59.3153 190.407 59.7611 190.408 60.2152C190.409 60.6692 190.29 61.1156 190.063 61.5092C189.836 61.9028 189.509 62.2298 189.115 62.4571Z" fill="#C6C6D0"/>
<path opacity="0.33" d="M188.852 62.453L139.273 90.9101C138.778 91.1946 138.217 91.3444 137.646 91.3444C137.075 91.3444 136.514 91.1946 136.019 90.9101L92.4256 65.8225C92.0335 65.597 91.7078 65.2724 91.4814 64.8815C91.2549 64.4905 91.1357 64.047 91.1357 63.5955C91.1357 63.1439 91.2549 62.7004 91.4814 62.3095C91.7078 61.9185 92.0335 61.594 92.4256 61.3685L142.102 32.9693C142.595 32.6858 143.155 32.5366 143.725 32.5366C144.294 32.5366 144.854 32.6858 145.348 32.9693L188.841 58.0144C189.23 58.2399 189.553 58.5632 189.778 58.9519C190.003 59.3407 190.122 59.7815 190.123 60.2304C190.124 60.6793 190.008 61.1207 189.785 61.5107C189.562 61.9006 189.24 62.2255 188.852 62.453Z" fill="#C2C2CD"/>
<path opacity="0.35" d="M188.586 62.449L139.274 90.7517C138.782 91.0353 138.224 91.1846 137.656 91.1846C137.089 91.1846 136.531 91.0353 136.039 90.7517L92.7048 65.7838C92.314 65.5604 91.9894 65.2381 91.7636 64.8494C91.5378 64.4607 91.4189 64.0195 91.4189 63.5703C91.4189 63.121 91.5378 62.6798 91.7636 62.2911C91.9894 61.9024 92.314 61.5801 92.7048 61.3568L142.106 33.1158C142.597 32.8333 143.153 32.6846 143.719 32.6846C144.286 32.6846 144.842 32.8333 145.333 33.1158L188.586 58.0259C188.976 58.2495 189.3 58.5717 189.525 58.96C189.75 59.3483 189.868 59.7889 189.868 60.2375C189.868 60.686 189.75 61.1266 189.525 61.5149C189.3 61.9032 188.976 62.2254 188.586 62.449Z" fill="#BEBECA"/>
<path opacity="0.37" d="M188.323 62.4454L139.297 90.5937C138.808 90.8752 138.254 91.0234 137.689 91.0234C137.125 91.0234 136.57 90.8752 136.082 90.5937L92.964 65.7647C92.5767 65.5414 92.2552 65.2203 92.0316 64.8338C91.8081 64.4473 91.6904 64.009 91.6904 63.5628C91.6904 63.1166 91.8081 62.6782 92.0316 62.2917C92.2552 61.9052 92.5767 61.5842 92.964 61.3609L142.102 33.2743C142.59 32.9935 143.144 32.8457 143.708 32.8457C144.271 32.8457 144.825 32.9935 145.313 33.2743L188.327 58.0455C188.714 58.2686 189.035 58.5895 189.258 58.9759C189.482 59.3623 189.599 59.8006 189.599 60.2466C189.598 60.6926 189.48 61.1306 189.256 61.5166C189.032 61.9026 188.71 62.2229 188.323 62.4454Z" fill="#BBBBC7"/>
<path opacity="0.39" d="M188.055 62.4455L139.304 90.4355C138.817 90.7153 138.266 90.8626 137.704 90.8626C137.143 90.8626 136.591 90.7153 136.104 90.4355L93.2303 65.7339C92.8445 65.5127 92.5241 65.1939 92.3012 64.8096C92.0783 64.4254 91.9609 63.9894 91.9609 63.5455C91.9609 63.1016 92.0783 62.6655 92.3012 62.2813C92.5241 61.8971 92.8445 61.5783 93.2303 61.3571L142.09 33.4249C142.575 33.1462 143.126 32.9995 143.686 32.9995C144.246 32.9995 144.796 33.1462 145.282 33.4249L188.055 58.0609C188.443 58.2816 188.765 58.6007 188.989 58.9857C189.213 59.3707 189.331 59.808 189.331 60.2532C189.331 60.6984 189.213 61.1357 188.989 61.5208C188.765 61.9058 188.443 62.2248 188.055 62.4455Z" fill="#B7B7C5"/>
<path opacity="0.41" d="M187.793 62.4415L139.313 90.2733C138.829 90.5522 138.281 90.699 137.722 90.699C137.164 90.699 136.616 90.5522 136.132 90.2733L93.4943 65.7183C93.111 65.4979 92.7926 65.1807 92.5713 64.7985C92.3499 64.4164 92.2334 63.9828 92.2334 63.5415C92.2334 63.1002 92.3499 62.6666 92.5713 62.2844C92.7926 61.9023 93.111 61.5851 93.4943 61.3647L142.075 33.5753C142.558 33.2976 143.106 33.1514 143.663 33.1514C144.221 33.1514 144.769 33.2976 145.252 33.5753L187.789 58.0724C188.176 58.2914 188.498 58.6088 188.723 58.9923C188.947 59.3759 189.065 59.8118 189.065 60.2558C189.066 60.6998 188.948 61.1359 188.725 61.5199C188.501 61.9038 188.18 62.2218 187.793 62.4415Z" fill="#B4B4C2"/>
<path opacity="0.43" d="M187.529 62.4377L139.32 90.1152C138.839 90.3919 138.293 90.5375 137.737 90.5375C137.182 90.5375 136.636 90.3919 136.155 90.1152L93.7607 65.6953C93.3788 65.477 93.0614 65.1619 92.8408 64.7821C92.6201 64.4022 92.5039 63.971 92.5039 63.5319C92.5039 63.0929 92.6201 62.6616 92.8408 62.2817C93.0614 61.9019 93.3788 61.5869 93.7607 61.3686L142.071 33.7452C142.552 33.4703 143.097 33.3257 143.651 33.3257C144.206 33.3257 144.751 33.4703 145.232 33.7452L187.525 58.1033C187.908 58.3215 188.227 58.6368 188.448 59.0172C188.67 59.3975 188.787 59.8295 188.787 60.2694C188.787 60.7093 188.671 61.1415 188.45 61.5223C188.229 61.903 187.912 62.2188 187.529 62.4377Z" fill="#B0B0BF"/>
<path opacity="0.45" d="M187.251 62.4378L139.328 89.9609C138.85 90.2367 138.307 90.3819 137.755 90.3819C137.203 90.3819 136.66 90.2367 136.182 89.9609L94.0085 65.6838C93.6292 65.4658 93.3142 65.1519 93.0951 64.7739C92.8761 64.3958 92.7607 63.9668 92.7607 63.5301C92.7607 63.0934 92.8761 62.6645 93.0951 62.2864C93.3142 61.9083 93.6292 61.5944 94.0085 61.3764L142.044 33.9152C142.522 33.6412 143.063 33.4971 143.615 33.4971C144.166 33.4971 144.708 33.6412 145.186 33.9152L187.243 58.1382C187.622 58.3553 187.937 58.668 188.156 59.045C188.375 59.422 188.491 59.85 188.492 60.2858C188.493 60.7216 188.378 61.15 188.161 61.5277C187.943 61.9055 187.629 62.2194 187.251 62.4378Z" fill="#ACACBC"/>
<path opacity="0.47" d="M186.999 62.4341L139.335 89.7989C138.859 90.0722 138.319 90.216 137.77 90.216C137.221 90.216 136.681 90.0722 136.205 89.7989L94.2866 65.6453C93.9097 65.4286 93.5967 65.1167 93.3791 64.741C93.1615 64.3653 93.0469 63.939 93.0469 63.5051C93.0469 63.0712 93.1615 62.645 93.3791 62.2693C93.5967 61.8936 93.9097 61.5817 94.2866 61.365L142.051 34.0581C142.526 33.7858 143.064 33.6426 143.612 33.6426C144.16 33.6426 144.698 33.7858 145.174 34.0581L186.995 58.1422C187.374 58.3585 187.689 58.6708 187.908 59.0474C188.127 59.424 188.243 59.8516 188.243 60.287C188.243 60.7224 188.129 61.1503 187.91 61.5272C187.692 61.9042 187.377 62.2171 186.999 62.4341Z" fill="#A9A9B9"/>
<path opacity="0.49" d="M186.733 62.4299L139.343 89.6364C138.873 89.9074 138.339 90.0501 137.796 90.0501C137.252 90.0501 136.719 89.9074 136.248 89.6364L94.5542 65.6449C94.1815 65.4291 93.8723 65.1194 93.6573 64.7468C93.4423 64.3743 93.3291 63.952 93.3291 63.5222C93.3291 63.0923 93.4423 62.67 93.6573 62.2975C93.8723 61.9249 94.1815 61.6152 94.5542 61.3994L142.044 34.2468C142.516 33.9788 143.049 33.8379 143.592 33.8379C144.134 33.8379 144.668 33.9788 145.139 34.2468L186.717 58.1958C187.088 58.4111 187.396 58.7193 187.61 59.0899C187.825 59.4605 187.938 59.8805 187.94 60.3085C187.942 60.7364 187.831 61.1573 187.619 61.5294C187.407 61.9015 187.102 62.2119 186.733 62.4299Z" fill="#A5A5B6"/>
<path opacity="0.51" d="M186.477 62.4261L139.355 89.4782C138.884 89.7493 138.35 89.8919 137.807 89.8919C137.264 89.8919 136.73 89.7493 136.259 89.4782L94.8208 65.6103C94.4442 65.3976 94.1308 65.089 93.9129 64.7161C93.6949 64.3432 93.5801 63.9192 93.5801 63.4875C93.5801 63.0558 93.6949 62.6318 93.9129 62.2588C94.1308 61.8859 94.4442 61.5774 94.8208 61.3647L142.024 34.3473C142.495 34.0763 143.029 33.9336 143.572 33.9336C144.115 33.9336 144.649 34.0763 145.12 34.3473L186.477 58.1998C186.849 58.4138 187.158 58.7218 187.373 59.0927C187.588 59.4637 187.701 59.8845 187.701 60.313C187.701 60.7414 187.588 61.1622 187.373 61.5331C187.158 61.9041 186.849 62.2121 186.477 62.4261Z" fill="#A2A2B3"/>
<path opacity="0.53" d="M186.206 62.4263L139.355 89.3202C138.888 89.5895 138.358 89.7313 137.819 89.7313C137.279 89.7313 136.749 89.5895 136.282 89.3202L95.0839 65.595C94.7134 65.3821 94.4057 65.0756 94.1918 64.7063C93.9779 64.337 93.8652 63.918 93.8652 63.4915C93.8652 63.065 93.9779 62.646 94.1918 62.2768C94.4057 61.9075 94.7134 61.6009 95.0839 61.388L142.032 34.5481C142.499 34.2799 143.028 34.1387 143.566 34.1387C144.105 34.1387 144.634 34.2799 145.1 34.5481L186.202 58.2193C186.573 58.4319 186.881 58.7381 187.095 59.1072C187.309 59.4763 187.422 59.8952 187.423 60.3217C187.423 60.7482 187.311 61.1672 187.097 61.5367C186.884 61.9062 186.576 62.213 186.206 62.4263Z" fill="#9E9EB0"/>
<path opacity="0.55" d="M185.939 62.4222L139.363 89.1618C138.898 89.4283 138.372 89.5686 137.836 89.5686C137.301 89.5686 136.774 89.4283 136.31 89.1618L95.3474 65.5717C94.9794 65.3601 94.6737 65.0555 94.4612 64.6886C94.2487 64.3217 94.1367 63.9055 94.1367 63.4817C94.1367 63.058 94.2487 62.6417 94.4612 62.2748C94.6737 61.9079 94.9794 61.6033 95.3474 61.3917L142.021 34.7062C142.485 34.4396 143.01 34.2993 143.545 34.2993C144.08 34.2993 144.606 34.4396 145.07 34.7062L185.936 58.25C186.302 58.4617 186.606 58.7658 186.818 59.1317C187.03 59.4976 187.141 59.9125 187.142 60.335C187.142 60.7574 187.031 61.1726 186.82 61.5389C186.609 61.9052 186.306 62.2098 185.939 62.4222Z" fill="#9B9BAD"/>
<path opacity="0.57" d="M185.676 62.4185L139.37 88.9997C138.908 89.2653 138.384 89.4051 137.851 89.4051C137.318 89.4051 136.794 89.2653 136.333 88.9997L95.6137 65.5486C95.2473 65.3381 94.9429 65.035 94.7313 64.6697C94.5196 64.3045 94.4082 63.8901 94.4082 63.4683C94.4082 63.0464 94.5196 62.632 94.7313 62.2668C94.9429 61.9016 95.2473 61.5984 95.6137 61.3879L142.016 34.8607C142.478 34.5962 143.001 34.457 143.533 34.457C144.065 34.457 144.588 34.5962 145.05 34.8607L185.676 58.2578C186.043 58.4675 186.348 58.7704 186.561 59.1357C186.773 59.501 186.885 59.9158 186.885 60.3381C186.885 60.7604 186.773 61.1752 186.561 61.5405C186.348 61.9058 186.043 62.2087 185.676 62.4185Z" fill="#9797AA"/>
<path opacity="0.59" d="M185.409 62.4146L139.366 88.8415C138.907 89.1049 138.387 89.2436 137.857 89.2436C137.328 89.2436 136.807 89.1049 136.348 88.8415L95.8655 65.5254C95.5005 65.317 95.1972 65.0161 94.9862 64.6532C94.7752 64.2902 94.6641 63.8781 94.6641 63.4586C94.6641 63.039 94.7752 62.6269 94.9862 62.264C95.1972 61.9011 95.5005 61.6002 95.8655 61.3918L141.993 35.0189C142.452 34.7554 142.971 34.6167 143.5 34.6167C144.029 34.6167 144.549 34.7554 145.007 35.0189L185.393 58.2771C185.76 58.4838 186.066 58.7837 186.279 59.1462C186.492 59.5088 186.605 59.9211 186.606 60.3413C186.608 60.7616 186.498 61.1747 186.287 61.5388C186.077 61.9029 185.774 62.2051 185.409 62.4146Z" fill="#9393A7"/>
<path opacity="0.61" d="M185.146 62.4144L139.386 88.683C138.929 88.9448 138.411 89.0825 137.884 89.0825C137.358 89.0825 136.84 88.9448 136.383 88.683L96.1441 65.5252C95.7816 65.3176 95.4804 65.0183 95.2709 64.6575C95.0615 64.2966 94.9512 63.887 94.9512 63.47C94.9512 63.053 95.0615 62.6434 95.2709 62.2826C95.4804 61.9217 95.7816 61.6224 96.1441 61.4148L142.001 35.2001C142.456 34.9375 142.973 34.7993 143.498 34.7993C144.024 34.7993 144.541 34.9375 144.996 35.2001L185.15 58.3116C185.51 58.5201 185.809 58.8194 186.017 59.1797C186.225 59.54 186.334 59.9484 186.334 60.3641C186.334 60.7798 186.224 61.188 186.015 61.5479C185.807 61.9078 185.507 62.2066 185.146 62.4144Z" fill="#9090A4"/>
<path opacity="0.63" d="M184.879 62.4106L139.394 88.5249C138.94 88.7857 138.426 88.923 137.902 88.923C137.379 88.923 136.864 88.7857 136.411 88.5249L96.4076 65.4867C96.0475 65.2805 95.7483 64.9831 95.5402 64.6246C95.3322 64.2661 95.2227 63.8593 95.2227 63.445C95.2227 63.0308 95.3322 62.6239 95.5402 62.2654C95.7483 61.9069 96.0475 61.6095 96.4076 61.4033L141.982 35.3392C142.436 35.0795 142.95 34.9429 143.474 34.9429C143.997 34.9429 144.511 35.0795 144.965 35.3392L184.883 58.3117C185.246 58.518 185.547 58.8165 185.757 59.1766C185.966 59.5368 186.076 59.9459 186.076 60.3623C186.075 60.7787 185.965 61.1876 185.754 61.5473C185.544 61.9071 185.242 62.205 184.879 62.4106Z" fill="#8C8CA2"/>
<path opacity="0.65" d="M184.616 62.4066L139.401 88.3665C138.95 88.6256 138.438 88.762 137.918 88.762C137.397 88.762 136.885 88.6256 136.434 88.3665L96.6706 65.4674C96.3129 65.2619 96.016 64.966 95.8095 64.6096C95.6029 64.2532 95.4941 63.8489 95.4941 63.4372C95.4941 63.0255 95.6029 62.6211 95.8095 62.2647C96.016 61.9083 96.3129 61.6125 96.6706 61.407L141.978 35.5012C142.429 35.2432 142.94 35.1074 143.46 35.1074C143.98 35.1074 144.491 35.2432 144.942 35.5012L184.612 58.3502C184.97 58.5548 185.268 58.8499 185.475 59.2058C185.682 59.5617 185.791 59.9658 185.791 60.3773C185.792 60.7888 185.683 61.1931 185.477 61.5494C185.271 61.9057 184.974 62.2014 184.616 62.4066Z" fill="#89899F"/>
<path opacity="0.67" d="M184.353 62.4027L139.409 88.2044C138.961 88.4621 138.453 88.5978 137.935 88.5978C137.418 88.5978 136.909 88.4621 136.461 88.2044L96.9377 65.4325C96.5786 65.2311 96.2796 64.938 96.0716 64.5832C95.8636 64.2285 95.7539 63.8249 95.7539 63.414C95.7539 63.003 95.8636 62.5994 96.0716 62.2447C96.2796 61.8899 96.5786 61.5968 96.9377 61.3954L141.982 35.6555C142.43 35.3985 142.938 35.2632 143.454 35.2632C143.971 35.2632 144.479 35.3985 144.927 35.6555L184.357 58.3617C184.717 58.5632 185.016 58.8567 185.225 59.212C185.433 59.5674 185.543 59.9717 185.542 60.3834C185.542 60.795 185.431 61.1991 185.222 61.5541C185.013 61.909 184.713 62.2019 184.353 62.4027Z" fill="#85859C"/>
<path opacity="0.69" d="M184.086 62.403L139.417 88.031C138.971 88.287 138.465 88.4218 137.95 88.4218C137.436 88.4218 136.93 88.287 136.484 88.031L97.2004 65.4058C96.8468 65.2028 96.5531 64.9104 96.3488 64.558C96.1446 64.2057 96.0371 63.8059 96.0371 63.3989C96.0371 62.9918 96.1446 62.592 96.3488 62.2396C96.5531 61.8873 96.8468 61.5949 97.2004 61.3918L141.962 35.8025C142.408 35.5464 142.913 35.4116 143.427 35.4116C143.941 35.4116 144.446 35.5464 144.891 35.8025L184.082 58.3736C184.439 58.5752 184.737 58.8678 184.944 59.2216C185.151 59.5753 185.26 59.9775 185.261 60.3872C185.261 60.7968 185.153 61.1993 184.946 61.5534C184.74 61.9076 184.443 62.2007 184.086 62.403Z" fill="#818199"/>
<path opacity="0.71" d="M183.822 62.3989L139.424 87.8725C138.981 88.1276 138.479 88.2619 137.967 88.2619C137.456 88.2619 136.954 88.1276 136.511 87.8725L97.4633 65.3863C97.116 65.1815 96.8282 64.8899 96.6283 64.5403C96.4283 64.1908 96.3232 63.7953 96.3232 63.3928C96.3232 62.9904 96.4283 62.5948 96.6283 62.2453C96.8282 61.8957 97.116 61.6041 97.4633 61.3993L141.958 35.9643C142.401 35.7103 142.903 35.5767 143.413 35.5767C143.924 35.5767 144.425 35.7103 144.868 35.9643L183.819 58.4004C184.169 58.6041 184.459 58.8958 184.662 59.2464C184.864 59.5969 184.97 59.9941 184.971 60.3985C184.971 60.8029 184.865 61.2004 184.664 61.5513C184.462 61.9023 184.172 62.1945 183.822 62.3989Z" fill="#7E7E96"/>
<path opacity="0.73" d="M183.556 62.3951L139.448 87.7297C139.008 87.9827 138.509 88.1159 138.001 88.1159C137.493 88.1159 136.994 87.9827 136.554 87.7297L97.7464 65.3824C97.3967 65.1823 97.1063 64.8937 96.9042 64.5457C96.7022 64.1977 96.5957 63.8027 96.5957 63.4006C96.5957 62.9984 96.7022 62.6033 96.9042 62.2554C97.1063 61.9074 97.3967 61.6188 97.7464 61.4186L141.963 36.138C142.403 35.8857 142.901 35.7529 143.408 35.7529C143.915 35.7529 144.414 35.8857 144.853 36.138L183.568 58.4351C183.916 58.6365 184.205 58.9259 184.405 59.2741C184.606 59.6223 184.711 60.017 184.709 60.4184C184.708 60.8199 184.601 61.2141 184.399 61.5611C184.196 61.9081 183.906 62.1957 183.556 62.3951Z" fill="#7A7A93"/>
<path opacity="0.75" d="M183.292 62.3913L139.44 87.5678C139.002 87.8198 138.506 87.9525 138 87.9525C137.495 87.9525 136.999 87.8198 136.561 87.5678L97.9934 65.3556C97.6461 65.1568 97.3576 64.8701 97.1569 64.5245C96.9563 64.1789 96.8506 63.7866 96.8506 63.3872C96.8506 62.9878 96.9563 62.5954 97.1569 62.2498C97.3576 61.9042 97.6461 61.6175 97.9934 61.4188L141.939 36.2925C142.376 36.0423 142.871 35.9106 143.375 35.9106C143.878 35.9106 144.373 36.0423 144.81 36.2925L183.289 58.4545C183.636 58.653 183.925 58.9394 184.126 59.2848C184.327 59.6302 184.433 60.0225 184.433 60.4219C184.434 60.8213 184.328 61.2137 184.128 61.5595C183.928 61.9053 183.639 62.1922 183.292 62.3913Z" fill="#777790"/>
<path opacity="0.76" d="M183.025 62.3913L139.447 87.4095C139.012 87.6598 138.519 87.7916 138.017 87.7916C137.516 87.7916 137.023 87.6598 136.588 87.4095L98.2602 65.3362C97.9154 65.1382 97.629 64.8531 97.4299 64.5096C97.2307 64.166 97.126 63.7762 97.126 63.3794C97.126 62.9825 97.2307 62.5927 97.4299 62.2492C97.629 61.9057 97.9154 61.6205 98.2602 61.4226L141.935 36.4507C142.369 36.2015 142.862 36.0703 143.363 36.0703C143.864 36.0703 144.356 36.2015 144.79 36.4507L183.025 58.4506C183.377 58.6467 183.669 58.9326 183.873 59.2789C184.076 59.6253 184.183 60.0195 184.183 60.421C184.183 60.8224 184.076 61.2166 183.873 61.563C183.669 61.9093 183.377 62.1952 183.025 62.3913Z" fill="#73738D"/>
<path opacity="0.78" d="M182.763 62.3875L139.456 87.2589C139.024 87.5083 138.533 87.6396 138.034 87.6396C137.535 87.6396 137.044 87.5083 136.612 87.2589L98.5241 65.3247C98.1819 65.1275 97.8977 64.8439 97.7001 64.5025C97.5024 64.161 97.3984 63.7737 97.3984 63.3794C97.3984 62.9851 97.5024 62.5978 97.7001 62.2563C97.8977 61.9149 98.1819 61.6313 98.5241 61.4341L141.924 36.6244C142.356 36.3769 142.845 36.2466 143.342 36.2466C143.84 36.2466 144.329 36.3769 144.76 36.6244L182.759 58.5085C183.1 58.7054 183.383 58.988 183.58 59.3281C183.776 59.6683 183.88 60.0541 183.881 60.4469C183.881 60.8397 183.778 61.2256 183.582 61.5662C183.386 61.9068 183.103 62.19 182.763 62.3875Z" fill="#6F6F8A"/>
<path opacity="0.8" d="M182.5 62.3838L139.464 87.0854C139.034 87.3327 138.547 87.4628 138.051 87.4628C137.556 87.4628 137.068 87.3327 136.639 87.0854L98.7912 65.29C98.4523 65.0939 98.1708 64.8125 97.9753 64.4738C97.7797 64.1351 97.6768 63.7511 97.6768 63.3602C97.6768 62.9693 97.7797 62.5853 97.9753 62.2467C98.1708 61.908 98.4523 61.6265 98.7912 61.4304L141.92 36.775C142.349 36.5296 142.835 36.4004 143.329 36.4004C143.823 36.4004 144.309 36.5296 144.737 36.775L182.496 58.5203C182.836 58.7158 183.119 58.9971 183.315 59.336C183.512 59.6748 183.615 60.0594 183.616 60.4509C183.616 60.8424 183.513 61.2271 183.317 61.5664C183.122 61.9057 182.84 62.1876 182.5 62.3838Z" fill="#6C6C87"/>
<path opacity="0.82" d="M182.221 62.3798L139.455 86.9309C139.029 87.1765 138.545 87.3058 138.053 87.3058C137.56 87.3058 137.077 87.1765 136.65 86.9309L99.0422 65.2707C98.6993 65.0778 98.4139 64.7974 98.2153 64.4583C98.0168 64.1192 97.9121 63.7336 97.9121 63.3409C97.9121 62.9481 98.0168 62.5625 98.2153 62.2234C98.4139 61.8843 98.6993 61.6039 99.0422 61.411L141.897 36.9101C142.323 36.6663 142.806 36.5381 143.297 36.5381C143.789 36.5381 144.272 36.6663 144.698 36.9101L182.229 58.5241C182.57 58.7179 182.854 58.9987 183.052 59.3378C183.249 59.6769 183.352 60.0621 183.352 60.4542C183.351 60.8462 183.246 61.231 183.047 61.5694C182.848 61.9077 182.563 62.1873 182.221 62.3798Z" fill="#686884"/>
<path opacity="0.84" d="M181.969 62.38L139.474 86.7729C139.051 87.0164 138.57 87.1446 138.081 87.1446C137.593 87.1446 137.112 87.0164 136.689 86.7729L99.3205 65.2593C98.9846 65.0659 98.7057 64.7877 98.5118 64.4527C98.3179 64.1176 98.2158 63.7376 98.2158 63.3507C98.2158 62.9639 98.3179 62.5838 98.5118 62.2488C98.7057 61.9137 98.9846 61.6356 99.3205 61.4421L141.908 37.084C142.331 36.8412 142.811 36.7134 143.299 36.7134C143.787 36.7134 144.267 36.8412 144.69 37.084L181.969 58.5551C182.308 58.7472 182.589 59.0254 182.785 59.3613C182.981 59.6972 183.084 60.0789 183.084 60.4676C183.084 60.8562 182.981 61.2379 182.785 61.5739C182.589 61.9098 182.308 62.1879 181.969 62.38Z" fill="#656581"/>
<path opacity="0.86" d="M181.702 62.3757L139.482 86.6142C139.061 86.856 138.583 86.9832 138.097 86.9832C137.611 86.9832 137.133 86.856 136.712 86.6142L99.5683 65.228C99.2348 65.0359 98.9581 64.7596 98.7655 64.427C98.573 64.0943 98.4717 63.717 98.4717 63.3329C98.4717 62.9488 98.573 62.5715 98.7655 62.2388C98.9581 61.9062 99.2348 61.6299 99.5683 61.4378L141.877 37.2495C142.298 37.0077 142.775 36.8804 143.261 36.8804C143.746 36.8804 144.223 37.0077 144.644 37.2495L181.687 58.5817C182.022 58.7721 182.301 59.0474 182.495 59.3796C182.69 59.7119 182.793 60.0895 182.795 60.4742C182.796 60.859 182.696 61.2374 182.504 61.5712C182.313 61.905 182.036 62.1825 181.702 62.3757Z" fill="#61617E"/>
<path opacity="0.88" d="M181.447 62.3721L139.498 86.4562C139.079 86.6964 138.605 86.8227 138.122 86.8227C137.639 86.8227 137.165 86.6964 136.747 86.4562L99.8544 65.209C99.5224 65.019 99.2465 64.745 99.0546 64.4146C98.8628 64.0842 98.7617 63.7092 98.7617 63.3274C98.7617 62.9456 98.8628 62.5705 99.0546 62.2402C99.2465 61.9098 99.5224 61.6358 99.8544 61.4458L141.889 37.4119C142.307 37.1718 142.781 37.0454 143.264 37.0454C143.747 37.0454 144.221 37.1718 144.64 37.4119L181.443 58.609C181.774 58.7994 182.049 59.0734 182.241 59.4035C182.432 59.7336 182.533 60.1081 182.534 60.4894C182.534 60.8708 182.434 61.2455 182.243 61.576C182.052 61.9065 181.778 62.181 181.447 62.3721Z" fill="#5E5E7C"/>
<path opacity="0.9" d="M181.172 62.3685L139.498 86.2982C139.081 86.5362 138.61 86.6614 138.13 86.6614C137.65 86.6614 137.179 86.5362 136.762 86.2982L100.114 65.1898C99.7844 65.0002 99.5108 64.7273 99.3206 64.3987C99.1304 64.0701 99.0303 63.6974 99.0303 63.3179C99.0303 62.9385 99.1304 62.5658 99.3206 62.2372C99.5108 61.9086 99.7844 61.6357 100.114 61.446L141.877 37.5703C142.293 37.3323 142.764 37.207 143.243 37.207C143.722 37.207 144.193 37.3323 144.609 37.5703L181.172 58.6285C181.502 58.8176 181.775 59.0901 181.966 59.4184C182.156 59.7467 182.256 60.1193 182.256 60.4985C182.256 60.8777 182.156 61.2502 181.966 61.5785C181.775 61.9068 181.502 62.1793 181.172 62.3685Z" fill="#5A5A79"/>
<path opacity="0.92" d="M180.91 62.368L139.51 86.1356C139.098 86.3728 138.631 86.4976 138.156 86.4976C137.68 86.4976 137.213 86.3728 136.801 86.1356L100.389 65.1624C100.061 64.9748 99.7884 64.7042 99.5989 64.3779C99.4094 64.0516 99.3096 63.6812 99.3096 63.304C99.3096 62.9269 99.4094 62.5564 99.5989 62.2301C99.7884 61.9038 100.061 61.6331 100.389 61.4456L141.878 37.7243C142.289 37.4872 142.757 37.3623 143.232 37.3623C143.707 37.3623 144.174 37.4872 144.586 37.7243L180.914 58.6435C181.242 58.8316 181.515 59.1031 181.705 59.4303C181.895 59.7575 181.994 60.1289 181.994 60.5069C181.993 60.8849 181.893 61.2561 181.703 61.5829C181.512 61.9097 181.239 62.1805 180.91 62.368Z" fill="#565676"/>
<path opacity="0.94" d="M180.646 62.3646L139.514 85.9778C139.102 86.2149 138.635 86.3398 138.159 86.3398C137.684 86.3398 137.217 86.2149 136.805 85.9778L100.632 65.1358C100.307 64.949 100.037 64.68 99.8486 64.3557C99.6606 64.0315 99.5615 63.6635 99.5615 63.289C99.5615 62.9144 99.6606 62.5464 99.8486 62.2222C100.037 61.8979 100.307 61.6289 100.632 61.4421L141.85 37.8791C142.262 37.6419 142.729 37.5171 143.205 37.5171C143.68 37.5171 144.147 37.6419 144.559 37.8791L180.646 58.6632C180.974 58.8494 181.246 59.1187 181.435 59.4437C181.624 59.7688 181.724 60.138 181.724 60.5139C181.724 60.8897 181.624 61.259 181.435 61.584C181.246 61.909 180.974 62.1783 180.646 62.3646Z" fill="#535373"/>
<path opacity="0.96" d="M180.379 62.3605L139.521 85.8193C139.113 86.0537 138.651 86.1771 138.18 86.1771C137.709 86.1771 137.247 86.0537 136.839 85.8193L100.907 65.124C100.584 64.9385 100.315 64.6715 100.129 64.3496C99.942 64.0277 99.8438 63.6625 99.8438 63.2906C99.8438 62.9188 99.942 62.5536 100.129 62.2317C100.315 61.9098 100.584 61.6427 100.907 61.4573L141.85 38.0486C142.257 37.8146 142.719 37.6914 143.189 37.6914C143.659 37.6914 144.12 37.8146 144.527 38.0486L180.375 58.6938C180.698 58.8789 180.967 59.1457 181.154 59.4674C181.341 59.789 181.439 60.1542 181.44 60.526C181.44 60.8978 181.342 61.2632 181.156 61.5853C180.97 61.9073 180.702 62.1747 180.379 62.3605Z" fill="#929496"/>
<path opacity="0.98" d="M180.116 62.3605L139.528 85.6611C139.123 85.8934 138.665 86.0157 138.197 86.0157C137.73 86.0157 137.271 85.8934 136.866 85.6611L101.174 65.1047C100.853 64.92 100.587 64.6545 100.402 64.3347C100.217 64.0149 100.119 63.6522 100.119 63.2829C100.119 62.9137 100.217 62.5509 100.402 62.2311C100.587 61.9113 100.853 61.6458 101.174 61.4612L141.846 38.2069C142.251 37.9757 142.709 37.854 143.175 37.854C143.641 37.854 144.1 37.9757 144.504 38.2069L180.1 58.717C180.422 58.9002 180.689 59.1646 180.875 59.4836C181.062 59.8026 181.161 60.165 181.162 60.5343C181.164 60.9035 181.068 61.2667 180.884 61.5873C180.701 61.9078 180.435 62.1745 180.116 62.3605Z" fill="#929496"/>
<path d="M179.849 62.3566L139.536 85.5144C139.134 85.7457 138.678 85.8675 138.213 85.8675C137.749 85.8675 137.292 85.7457 136.89 85.5144L101.437 65.093C101.118 64.9106 100.853 64.6472 100.668 64.3297C100.484 64.0122 100.387 63.6518 100.387 63.2848C100.387 62.9179 100.484 62.5574 100.668 62.2399C100.853 61.9224 101.118 61.659 101.437 61.4766L141.839 38.3767C142.24 38.1471 142.695 38.0264 143.158 38.0264C143.621 38.0264 144.076 38.1471 144.477 38.3767L179.849 58.7478C180.165 58.9316 180.428 59.1949 180.61 59.5116C180.793 59.8282 180.889 60.187 180.889 60.5522C180.889 60.9174 180.793 61.2762 180.61 61.5928C180.428 61.9095 180.165 62.1728 179.849 62.3566Z" fill="#929496"/>
<path d="M92.0928 30.3447V63.0358L137.501 89.1887V56.4976L92.0928 30.3447Z" fill="#F1E4C3"/>
<path d="M137.502 89.1886L188.756 59.6702V27.0254L137.502 56.4976V89.1886Z" fill="#F7E9CB"/>
<path d="M95.0264 64.6842V38.8169L134.569 61.5926V87.456L95.0264 64.6842Z" fill="white"/>
<path d="M95.0264 42.333V38.8169L134.569 61.5926V65.1087L95.0264 42.333Z" fill="#808184"/>
<path d="M95.0186 45.8955V42.3794L134.561 65.1512V68.6673L95.0186 45.8955Z" fill="#6D6E70"/>
<path d="M140.756 69.1996V74.1245L161.32 62.2291V57.3042L140.756 69.1996Z" fill="#929496"/>
<path d="M140.756 69.1996V69.8634L160.856 58.2344V62.4993L161.32 62.2291V57.3042L140.756 69.1996Z" fill="#929496"/>
<path d="M164.88 55.3168V60.2417L185.448 48.3463V43.4214L164.88 55.3168Z" fill="#929496"/>
<path d="M90.2666 30.4839L137.393 57.6248L113.822 30.4877L90.2666 30.4839Z" fill="#EFD48E"/>
<path opacity="0.3" d="M137.502 58.9716L188.756 29.5033V27.0254L137.502 56.4976V58.9716Z" fill="#929496"/>
<path opacity="0.3" d="M113.823 30.4877L90.426 30.4839L90.3486 30.5302L92.2948 31.6495L112.403 31.6881L137.502 59.6743L137.394 57.6248L113.823 30.4877Z" fill="#929496"/>
<path d="M137.393 57.6248L190.582 27.0411L166.845 0.000488281L113.822 30.4877L137.393 57.6248Z" fill="#404041"/>
<path d="M90.2666 30.4839L143.282 0.000488281H166.845L113.822 30.4877L90.2666 30.4839Z" fill="#6D6E70"/>
<path d="M164.88 55.3168V55.9806L184.98 44.3516V48.6165L185.448 48.3463V43.4214L164.88 55.3168Z" fill="#929496"/>
<path d="M88.3012 58.7827L87.6976 63.7423L85.3955 62.0441L85.8792 58.9989L88.3012 58.7827Z" fill="black"/>
<path d="M84.4861 46.5863C84.8921 46.5863 85.2213 46.258 85.2213 45.853C85.2213 45.448 84.8921 45.1196 84.4861 45.1196C84.0801 45.1196 83.751 45.448 83.751 45.853C83.751 46.258 84.0801 46.5863 84.4861 46.5863Z" fill="#929496"/>
<path d="M84.6609 47.5243C85.0669 47.5243 85.396 47.196 85.396 46.791C85.396 46.3859 85.0669 46.0576 84.6609 46.0576C84.2549 46.0576 83.9258 46.3859 83.9258 46.791C83.9258 47.196 84.2549 47.5243 84.6609 47.5243Z" fill="#929496"/>
<path d="M87.1056 45.7256L87.0515 47.3274C87.0618 47.5649 87.0035 47.8003 86.8834 48.0056C86.7634 48.2109 86.5867 48.3774 86.3744 48.4853C86.1544 48.6113 85.9054 48.6783 85.6517 48.68C85.3981 48.6816 85.1484 48.6177 84.9267 48.4946C84.7051 48.3714 84.5192 48.1932 84.3871 47.9772C84.255 47.7611 84.1812 47.5147 84.1729 47.2618V45.7372C84.1746 45.4874 84.2433 45.2425 84.3719 45.028C84.5005 44.8136 84.6842 44.6373 84.9041 44.5176C85.1228 44.3909 85.3706 44.3228 85.6234 44.3199C85.8762 44.317 86.1255 44.3794 86.3471 44.5009C86.5686 44.6225 86.755 44.7992 86.8879 45.0138C87.0208 45.2284 87.0957 45.4736 87.1056 45.7256Z" fill="#929496"/>
<path d="M91.4939 56.8067C91.6273 56.8052 91.7566 56.7607 91.8626 56.6799C91.9686 56.5991 92.0456 56.4863 92.0822 56.3583C92.1187 56.2304 92.1128 56.0941 92.0653 55.9697C92.0179 55.8453 91.9315 55.7396 91.819 55.6682L87.1063 52.731V51.4032C87.094 51.2484 87.0236 51.1038 86.9093 50.9984C86.7949 50.893 86.6449 50.8345 86.4892 50.8345C86.3335 50.8345 86.1835 50.893 86.0691 50.9984C85.9547 51.1038 85.8844 51.2484 85.8721 51.4032V53.4103L91.165 56.7141C91.2643 56.774 91.3779 56.8061 91.4939 56.8067Z" fill="#F2B1B5"/>
<path d="M82.7839 71.8862L82.397 72.2181C82.3264 72.28 82.2357 72.3141 82.1417 72.3141C82.0477 72.3141 81.9569 72.28 81.8863 72.2181L81.8205 72.1641C81.6305 72.0071 81.5018 71.7885 81.4568 71.5465L80.9229 68.6016L81.4839 68.123L81.9907 71.6314L82.7839 71.8862Z" fill="#929496"/>
<path d="M83.5309 68.451L82.7068 69.8096L82.9505 71.3766C82.9701 71.4756 82.9634 71.5779 82.9308 71.6734C82.8982 71.7689 82.841 71.8542 82.7649 71.9207C82.6889 71.9871 82.5967 72.0325 82.4975 72.0522C82.3983 72.0718 82.2957 72.0652 82.1999 72.0328C82.1034 72.0017 82.0167 71.9457 81.9488 71.8704C81.8808 71.7952 81.834 71.7034 81.813 71.6043L81.2598 68.343L82.4205 67.1851L83.5309 68.451Z" fill="#929496"/>
<path d="M91.8886 76.7995V77.3669C91.8879 77.4748 91.8485 77.5788 91.7776 77.6603C91.7066 77.7417 91.6087 77.7951 91.5017 77.8107H91.4089C91.1286 77.8531 90.8423 77.7957 90.6002 77.6486L87.5049 75.8423L87.7564 74.9546L91.0645 77.2704L91.8886 76.7995Z" fill="#929496"/>
<path d="M89.66 74.2134L90.0469 75.2902L91.5752 76.2783C91.6793 76.3352 91.7662 76.4189 91.8267 76.5208C91.8873 76.6226 91.9191 76.7389 91.9191 76.8573C91.9191 76.9757 91.8873 77.0919 91.8267 77.1938C91.7662 77.2956 91.6793 77.3794 91.5752 77.4362C91.4753 77.4942 91.3619 77.5247 91.2464 77.5247C91.1308 77.5247 91.0173 77.4942 90.9175 77.4362L87.7061 75.4253L87.9499 74.2366L89.66 74.2134Z" fill="#929496"/>
<path d="M84.4599 58.4585L88.9907 65.0507L89.66 74.2135C89.6594 74.3646 89.619 74.5129 89.543 74.6436C89.467 74.7743 89.3578 74.8829 89.2266 74.9584C89.0956 75.0335 88.947 75.0729 88.7959 75.0726C88.6448 75.0724 88.4964 75.0326 88.3655 74.9572C88.2347 74.8817 88.126 74.7733 88.0503 74.6428C87.9746 74.5123 87.9347 74.3643 87.9344 74.2135L86.7465 66.2357L83.2256 61.8511L84.4599 58.4585Z" fill="black"/>
<path d="M88.3014 51.4263V58.7828C88.3025 58.9878 88.2491 59.1895 88.1464 59.3672C88.0438 59.5448 87.8956 59.6921 87.7172 59.794L83.9447 61.967C83.8559 62.0177 83.7553 62.0442 83.653 62.0439C83.5506 62.0437 83.4501 62.0165 83.3615 61.9653C83.273 61.9141 83.1995 61.8407 83.1484 61.7522C83.0973 61.6637 83.0704 61.5635 83.0703 61.4614V54.1049C83.0699 53.9005 83.1237 53.6996 83.2264 53.5227C83.329 53.3457 83.4767 53.199 83.6546 53.0975L87.427 50.9245C87.5153 50.8727 87.6158 50.8452 87.7183 50.8447C87.8208 50.8443 87.9216 50.8709 88.0105 50.9219C88.0993 50.9728 88.1729 51.0464 88.224 51.135C88.2752 51.2236 88.3019 51.3241 88.3014 51.4263Z" fill="#808184"/>
<path d="M88.541 49.998V55.9148C88.541 56.7215 88.5991 57.9874 87.9027 58.3888C87.9027 58.3888 85.5115 60.5927 82.8728 60.419C82.8728 60.419 82.1725 53.8576 82.8728 51.4145C82.9115 51.2717 82.9734 51.0748 83.0507 50.8741C83.1609 50.5875 83.3271 50.3256 83.5397 50.1036C83.7522 49.8816 84.0069 49.704 84.2888 49.5811L86.3009 48.7089C86.5278 48.5781 86.7852 48.5093 87.0473 48.5093C87.3094 48.5092 87.5668 48.5779 87.7938 48.7086C88.0208 48.8392 88.2094 49.0271 88.3406 49.2535C88.4717 49.4798 88.5408 49.7365 88.541 49.998Z" fill="#808184"/>
<path d="M88.8466 58.3888C88.9598 58.3885 89.0708 58.3575 89.1676 58.299C89.2644 58.2405 89.3434 58.1568 89.3961 58.0569C89.4647 57.9133 89.4769 57.7493 89.4303 57.5972C89.3838 57.445 89.2818 57.3158 89.1446 57.2348L84.4591 54.3131V53.0124C84.4618 52.8667 84.4139 52.7245 84.3237 52.6099C84.2335 52.4953 84.1064 52.4152 83.9638 52.3833C83.8741 52.3656 83.7815 52.368 83.6928 52.3903C83.6041 52.4125 83.5215 52.4541 83.4508 52.512C83.3801 52.57 83.3231 52.6428 83.2841 52.7253C83.245 52.8078 83.2247 52.898 83.2248 52.9892V54.2513C83.2213 54.4826 83.278 54.7108 83.3892 54.9137C83.5004 55.1166 83.6624 55.2873 83.8593 55.4092L88.5023 58.3155C88.608 58.3715 88.7272 58.3969 88.8466 58.3888Z" fill="#F2B1B5"/>
<path d="M83.7824 54.641C84.1693 54.641 84.7883 54.34 84.7883 53.9656L84.4595 51.4646C84.4466 51.2937 84.3694 51.1341 84.2435 51.0176C84.1175 50.9012 83.9521 50.8364 83.7804 50.8364C83.6087 50.8364 83.4433 50.9012 83.3174 51.0176C83.1914 51.1341 83.1143 51.2937 83.1014 51.4646L82.7764 53.9656C82.7841 54.34 83.4071 54.641 83.7824 54.641Z" fill="#808184"/>
<path d="M85.4072 50.519C85.5697 50.519 85.7256 50.4549 85.8409 50.3406C85.9561 50.2264 86.0214 50.0712 86.0224 49.9092L86.0456 47.9408C86.0523 47.8558 86.0414 47.7704 86.0134 47.6899C85.9855 47.6094 85.9411 47.5355 85.8832 47.4729C85.8252 47.4103 85.7549 47.3604 85.6766 47.3262C85.5983 47.2921 85.5139 47.2744 85.4284 47.2744C85.343 47.2744 85.2586 47.2921 85.1803 47.3262C85.102 47.3604 85.0318 47.4103 84.9738 47.4729C84.9158 47.5355 84.8714 47.6094 84.8435 47.6899C84.8155 47.7704 84.8046 47.8558 84.8113 47.9408L84.7881 49.913C84.7871 50.0761 84.8508 50.2331 84.9653 50.3495C85.0798 50.4659 85.2359 50.5324 85.3994 50.5344L85.4072 50.519Z" fill="#F2B1B5"/>
<path opacity="0.3" d="M84.8076 49.1028V47.9256C84.8009 47.8406 84.8118 47.7553 84.8397 47.6747C84.8677 47.5942 84.9121 47.5203 84.9701 47.4577C85.028 47.3951 85.0983 47.3452 85.1766 47.3111C85.2548 47.2769 85.3393 47.2593 85.4247 47.2593C85.5101 47.2593 85.5946 47.2769 85.6729 47.3111C85.7511 47.3452 85.8215 47.3951 85.8795 47.4577C85.9374 47.5203 85.9818 47.5942 86.0097 47.6747C86.0377 47.7553 86.0486 47.8406 86.0418 47.9256V49.261C85.8445 49.3189 85.655 49.1761 85.419 49.1761L84.8076 49.1028Z" fill="#231F20"/>
<path d="M84.8075 49.1027H86.1927C86.5631 49.1027 86.9183 48.9558 87.1803 48.6946C87.4422 48.4333 87.5894 48.0789 87.5894 47.7093V45.3936H86.0417C85.7109 45.3936 85.3937 45.5244 85.1594 45.7573C84.9252 45.9903 84.793 46.3064 84.792 46.6363L84.8075 49.1027Z" fill="#F2B1B5"/>
<path d="M84.4864 46.3819C84.4856 46.4463 84.5041 46.5096 84.5395 46.5635C84.5749 46.6174 84.6256 46.6595 84.6852 46.6845C84.7447 46.7095 84.8104 46.7163 84.8738 46.7039C84.9372 46.6915 84.9955 46.6606 85.0412 46.615C85.0869 46.5694 85.1179 46.5113 85.1303 46.448C85.1427 46.3848 85.136 46.3193 85.1109 46.2599C85.0859 46.2005 85.0436 46.1499 84.9895 46.1146C84.9355 46.0792 84.8721 46.0608 84.8075 46.0615C84.7223 46.0615 84.6407 46.0953 84.5804 46.1554C84.5202 46.2154 84.4864 46.2969 84.4864 46.3819Z" fill="#FFCEBD"/>
<path d="M85.3493 46.7905H85.0166C84.9981 46.7905 84.9803 46.7832 84.9673 46.7702C84.9542 46.7572 84.9468 46.7395 84.9468 46.7211V44.9765C84.9468 44.9591 84.9538 44.9424 84.9661 44.9301C84.9785 44.9178 84.9952 44.9109 85.0127 44.9109H85.3454C85.3628 44.9109 85.3795 44.9178 85.3919 44.9301C85.4042 44.9424 85.4111 44.9591 85.4111 44.9765V46.7095C85.4111 46.7279 85.4038 46.7456 85.3907 46.7586C85.3777 46.7717 85.36 46.779 85.3415 46.779L85.3493 46.7905Z" fill="#929496"/>
<path d="M86.201 45.5326C86.4937 45.5326 86.7311 45.2959 86.7311 45.0039C86.7311 44.7118 86.4937 44.4751 86.201 44.4751C85.9082 44.4751 85.6709 44.7118 85.6709 45.0039C85.6709 45.2959 85.9082 45.5326 86.201 45.5326Z" fill="#929496"/>
<path d="M84.8965 45.2085C84.8957 45.3133 84.9262 45.4159 84.984 45.5033C85.0417 45.5908 85.1243 45.6592 85.2211 45.6998C85.3179 45.7404 85.4245 45.7514 85.5276 45.7315C85.6307 45.7115 85.7255 45.6614 85.8 45.5876C85.8745 45.5138 85.9254 45.4196 85.9461 45.317C85.9669 45.2143 85.9567 45.1078 85.9167 45.0109C85.8767 44.9141 85.8087 44.8313 85.7214 44.773C85.6342 44.7147 85.5316 44.6836 85.4266 44.6836C85.2867 44.6836 85.1524 44.7388 85.0531 44.8371C84.9538 44.9355 84.8975 45.069 84.8965 45.2085Z" fill="#929496"/>
<path d="M84.6609 45.6483C85.0669 45.6483 85.396 45.32 85.396 44.915C85.396 44.51 85.0669 44.1816 84.6609 44.1816C84.2549 44.1816 83.9258 44.51 83.9258 44.915C83.9258 45.32 84.2549 45.6483 84.6609 45.6483Z" fill="#929496"/>
<path d="M84.1736 63.0283L83.7867 65.2129L82.4441 67.1736C82.3046 67.3298 82.2275 67.5317 82.2275 67.741C82.2275 67.9502 82.3046 68.1521 82.4441 68.3083C82.5223 68.3914 82.6162 68.4582 82.7205 68.5046C82.8249 68.551 82.9374 68.5763 83.0516 68.5788C83.1658 68.5813 83.2795 68.5611 83.3857 68.5193C83.492 68.4774 83.5889 68.4149 83.6706 68.3353L85.5394 66.309L86.0307 65.1203L84.1736 63.0283Z" fill="black"/>
<path d="M89.4853 46.347L87.8795 47.2694C87.7835 47.3243 87.6749 47.3531 87.5642 47.3531C87.4536 47.3531 87.3449 47.3243 87.2489 47.2694L83.8789 45.3396V44.8533C83.8779 44.4707 83.9779 44.0945 84.169 43.7628C84.3601 43.431 84.6355 43.1553 84.9674 42.9636C85.2993 42.7718 85.676 42.6707 86.0596 42.6704C86.4431 42.6701 86.82 42.7707 87.1522 42.9621C87.4523 43.1331 87.7016 43.3803 87.8749 43.6786C88.0482 43.9768 88.1393 44.3155 88.1388 44.6603V45.2508L89.4853 46.0228C89.5143 46.0388 89.5385 46.0622 89.5554 46.0907C89.5722 46.1193 89.5811 46.1517 89.5811 46.1848C89.5811 46.2179 89.5722 46.2504 89.5554 46.2789C89.5385 46.3074 89.5143 46.3309 89.4853 46.347Z" fill="#808184"/>
<path d="M87.1056 44.3515C87.2643 44.2627 87.392 44.3515 87.392 44.5174C87.387 44.6165 87.3584 44.713 87.3086 44.7989C87.2589 44.8849 87.1892 44.9577 87.1056 45.0115C86.947 45.1003 86.8193 45.0115 86.8193 44.8455C86.8264 44.7469 86.8559 44.6512 86.9055 44.5656C86.9551 44.48 87.0235 44.4068 87.1056 44.3515Z" fill="url(#paint1_linear_673_3457)"/>
<path d="M95.6524 50.7894L90.1582 47.6245L84.6602 50.7894L90.1582 53.9543L95.6524 50.7894Z" fill="url(#paint2_linear_673_3457)"/>
<path d="M95.6524 50.7896V57.1464L90.1582 60.3113V53.9544L95.6524 50.7896Z" fill="url(#paint3_linear_673_3457)"/>
<path d="M95.3979 51.3569V51.9552L94.0127 52.7541V52.1559L95.3979 51.3569Z" fill="white"/>
<path d="M90.1582 60.3113L84.6602 57.1464V50.7896L90.1582 53.9544V60.3113Z" fill="url(#paint4_linear_673_3457)"/>
<path d="M93.4553 58.412V52.0552L92.3564 52.6882V59.045L93.4553 58.412Z" fill="white"/>
<path d="M93.4549 52.0552L87.9569 48.9019L86.8193 49.5194L92.3561 52.6882L93.4549 52.0552Z" fill="white"/>
<g style="mix-blend-mode:multiply" opacity="0.4">
<g style="mix-blend-mode:multiply" opacity="0.02">
<path d="M51.2889 90.9912L0.970703 120.815L40.4204 143.424L90.7463 113.605L51.2889 90.9912Z" fill="#FBFBFC"/>
</g>
<g style="mix-blend-mode:multiply" opacity="0.04">
<path d="M51.2894 90.9912L1.94238 120.24L41.3921 142.849L90.7469 113.605L51.2894 90.9912Z" fill="#F8F8F9"/>
</g>
<g style="mix-blend-mode:multiply" opacity="0.06">
<path d="M51.2889 90.9912L2.91309 119.664L42.3628 142.274L90.7464 113.605L51.2889 90.9912Z" fill="#F4F4F6"/>
</g>
<g style="mix-blend-mode:multiply" opacity="0.08">
<path d="M51.2895 90.9912L3.88477 119.089L43.3345 141.699L90.7469 113.605L51.2895 90.9912Z" fill="#F1F1F3"/>
</g>
<g style="mix-blend-mode:multiply" opacity="0.1">
<path d="M51.289 90.9912L4.85938 118.514L44.3091 141.124L90.7465 113.605L51.289 90.9912Z" fill="#EDEDF0"/>
</g>
<g style="mix-blend-mode:multiply" opacity="0.12">
<path d="M51.2896 90.9912L5.83105 117.935L45.2808 140.549L90.747 113.605L51.2896 90.9912Z" fill="#E9E9ED"/>
</g>
<g style="mix-blend-mode:multiply" opacity="0.14">
<path d="M51.2891 90.9912L6.80176 117.36L46.2515 139.974L90.7466 113.605L51.2891 90.9912Z" fill="#E6E6EB"/>
</g>
<g style="mix-blend-mode:multiply" opacity="0.16">
<path d="M51.2896 90.9912L7.77344 116.785L47.2232 139.399L90.7471 113.605L51.2896 90.9912Z" fill="#E2E2E8"/>
</g>
<g style="mix-blend-mode:multiply" opacity="0.18">
<path d="M51.2892 90.9912L8.74414 116.21L48.1939 138.82L90.7467 113.605L51.2892 90.9912Z" fill="#DFDFE5"/>
</g>
<g style="mix-blend-mode:multiply" opacity="0.2">
<path d="M51.2897 90.9912L9.71582 115.635L49.1656 138.245L90.7472 113.605L51.2897 90.9912Z" fill="#DBDBE2"/>
</g>
<g style="mix-blend-mode:multiply" opacity="0.22">
<path d="M51.2893 90.9912L10.6865 115.06L50.1363 137.67L90.7467 113.605L51.2893 90.9912Z" fill="#D8D8DF"/>
</g>
<g style="mix-blend-mode:multiply" opacity="0.24">
<path d="M51.2898 90.9912L11.6582 114.485L51.1079 137.095L90.7473 113.605L51.2898 90.9912Z" fill="#D4D4DC"/>
</g>
<g style="mix-blend-mode:multiply" opacity="0.25">
<path d="M51.2894 90.9912L12.6328 113.91L52.0826 136.519L90.7469 113.605L51.2894 90.9912Z" fill="#D0D0D9"/>
</g>
<g style="mix-blend-mode:multiply" opacity="0.27">
<path d="M51.2889 90.9912L13.6035 113.335L53.0532 135.944L90.7464 113.605L51.2889 90.9912Z" fill="#CDCDD6"/>
</g>
<g style="mix-blend-mode:multiply" opacity="0.29">
<path d="M51.2895 90.9912L14.5752 112.76L54.0249 135.369L90.7469 113.605L51.2895 90.9912Z" fill="#C9C9D3"/>
</g>
<g style="mix-blend-mode:multiply" opacity="0.31">
<path d="M51.289 90.9912L15.5459 112.184L54.9956 134.794L90.7465 113.605L51.289 90.9912Z" fill="#C6C6D0"/>
</g>
<g style="mix-blend-mode:multiply" opacity="0.33">
<path d="M51.2895 90.9912L16.5176 111.609L55.9673 134.219L90.747 113.605L51.2895 90.9912Z" fill="#C2C2CD"/>
</g>
<g style="mix-blend-mode:multiply" opacity="0.35">
<path d="M51.2891 90.9912L17.4883 111.03L56.938 133.644L90.7466 113.605L51.2891 90.9912Z" fill="#BEBECA"/>
</g>
<g style="mix-blend-mode:multiply" opacity="0.37">
<path d="M51.2896 90.9912L18.46 110.455L57.9097 133.065L90.7471 113.605L51.2896 90.9912Z" fill="#BBBBC7"/>
</g>
<g style="mix-blend-mode:multiply" opacity="0.39">
<path d="M51.2892 90.9912L19.4307 109.88L58.8804 132.49L90.7466 113.605L51.2892 90.9912Z" fill="#B7B7C5"/>
</g>
<g style="mix-blend-mode:multiply" opacity="0.41">
<path d="M51.2897 90.9912L20.4023 109.305L59.8559 131.915L90.7471 113.605L51.2897 90.9912Z" fill="#B4B4C2"/>
</g>
<g style="mix-blend-mode:multiply" opacity="0.43">
<path d="M51.2892 90.9912L21.373 108.73L60.8266 131.34L90.7467 113.605L51.2892 90.9912Z" fill="#B0B0BF"/>
</g>
<g style="mix-blend-mode:multiply" opacity="0.45">
<path d="M51.2888 90.9912L22.3477 108.155L61.7974 130.765L90.7463 113.605L51.2888 90.9912Z" fill="#ACACBC"/>
</g>
<g style="mix-blend-mode:multiply" opacity="0.47">
<path d="M51.2893 90.9912L23.3193 107.58L62.7691 130.19L90.7468 113.605L51.2893 90.9912Z" fill="#A9A9B9"/>
</g>
<g style="mix-blend-mode:multiply" opacity="0.49">
<path d="M51.2889 90.9912L24.29 107.005L63.7398 129.615L90.7464 113.605L51.2889 90.9912Z" fill="#A5A5B6"/>
</g>
<g style="mix-blend-mode:multiply" opacity="0.51">
<path d="M51.2894 90.9912L25.2617 106.43L64.7115 129.039L90.7469 113.605L51.2894 90.9912Z" fill="#A2A2B3"/>
</g>
<g style="mix-blend-mode:multiply" opacity="0.53">
<path d="M51.289 90.9912L26.2324 105.855L65.6822 128.464L90.7464 113.605L51.289 90.9912Z" fill="#9E9EB0"/>
</g>
<g style="mix-blend-mode:multiply" opacity="0.55">
<path d="M51.2895 90.9912L27.2041 105.276L66.6538 127.889L90.747 113.605L51.2895 90.9912Z" fill="#9B9BAD"/>
</g>
<g style="mix-blend-mode:multiply" opacity="0.57">
<path d="M51.289 90.9912L28.1748 104.701L67.6245 127.314L90.7465 113.605L51.289 90.9912Z" fill="#9797AA"/>
</g>
<g style="mix-blend-mode:multiply" opacity="0.59">
<path d="M51.2896 90.9912L29.1465 104.126L68.6001 126.739L90.747 113.605L51.2896 90.9912Z" fill="#9393A7"/>
</g>
<g style="mix-blend-mode:multiply" opacity="0.61">
<path d="M51.2892 90.9912L30.1211 103.55L69.5708 126.164L90.7466 113.605L51.2892 90.9912Z" fill="#9090A4"/>
</g>
<g style="mix-blend-mode:multiply" opacity="0.63">
<path d="M51.2897 90.9912L31.0928 102.975L70.5425 125.585L90.7472 113.605L51.2897 90.9912Z" fill="#8C8CA2"/>
</g>
<g style="mix-blend-mode:multiply" opacity="0.65">
<path d="M51.2892 90.9912L32.0635 102.4L71.5132 125.01L90.7467 113.605L51.2892 90.9912Z" fill="#89899F"/>
</g>
<g style="mix-blend-mode:multiply" opacity="0.67">
<path d="M51.2898 90.9912L33.0352 101.825L72.4849 124.435L90.7472 113.605L51.2898 90.9912Z" fill="#85859C"/>
</g>
<g style="mix-blend-mode:multiply" opacity="0.69">
<path d="M51.2893 90.9912L34.0059 101.25L73.4556 123.86L90.7468 113.605L51.2893 90.9912Z" fill="#818199"/>
</g>
<g style="mix-blend-mode:multiply" opacity="0.71">
<path d="M51.2888 90.9912L34.9766 100.675L74.4263 123.285L90.7463 113.605L51.2888 90.9912Z" fill="#7E7E96"/>
</g>
<g style="mix-blend-mode:multiply" opacity="0.73">
<path d="M51.2894 90.9912L35.9482 100.1L75.398 122.71L90.7469 113.605L51.2894 90.9912Z" fill="#7A7A93"/>
</g>
<g style="mix-blend-mode:multiply" opacity="0.75">
<path d="M51.2889 90.9912L36.9189 99.5249L76.3687 122.135L90.7464 113.605L51.2889 90.9912Z" fill="#777790"/>
</g>
<g style="mix-blend-mode:multiply" opacity="0.76">
<path d="M51.2895 90.9912L37.8945 98.9498L77.3443 121.56L90.747 113.605L51.2895 90.9912Z" fill="#73738D"/>
</g>
<g style="mix-blend-mode:multiply" opacity="0.78">
<path d="M51.289 90.9912L38.8652 98.3747L78.315 120.984L90.7465 113.605L51.289 90.9912Z" fill="#6F6F8A"/>
</g>
<g style="mix-blend-mode:multiply" opacity="0.8">
<path d="M51.2896 90.9912L39.8369 97.7957L79.2867 120.409L90.747 113.605L51.2896 90.9912Z" fill="#6C6C87"/>
</g>
<g style="mix-blend-mode:multiply" opacity="0.82">
<path d="M51.2891 90.9912L40.8076 97.2207L80.2573 119.834L90.7466 113.605L51.2891 90.9912Z" fill="#686884"/>
</g>
<g style="mix-blend-mode:multiply" opacity="0.84">
<path d="M51.2896 90.9912L41.7793 96.6456L81.229 119.259L90.7471 113.605L51.2896 90.9912Z" fill="#656581"/>
</g>
<g style="mix-blend-mode:multiply" opacity="0.86">
<path d="M51.2892 90.9912L42.75 96.0705L82.1997 118.68L90.7467 113.605L51.2892 90.9912Z" fill="#61617E"/>
</g>
<g style="mix-blend-mode:multiply" opacity="0.88">
<path d="M51.2897 90.9912L43.7217 95.4954L83.1714 118.105L90.7472 113.605L51.2897 90.9912Z" fill="#5E5E7C"/>
</g>
<g style="mix-blend-mode:multiply" opacity="0.9">
<path d="M51.2893 90.9912L44.6924 94.9203L84.1421 117.53L90.7467 113.605L51.2893 90.9912Z" fill="#5A5A79"/>
</g>
<g style="mix-blend-mode:multiply" opacity="0.92">
<path d="M51.2888 90.9912L45.667 94.3452L85.1167 116.955L90.7463 113.605L51.2888 90.9912Z" fill="#565676"/>
</g>
<g style="mix-blend-mode:multiply" opacity="0.94">
<path d="M51.2894 90.9912L46.6387 93.7701L86.0884 116.38L90.7469 113.605L51.2894 90.9912Z" fill="#535373"/>
</g>
<g style="mix-blend-mode:multiply" opacity="0.96">
<path d="M51.2889 90.9912L47.6094 93.1951L87.0591 115.805L90.7464 113.605L51.2889 90.9912Z" fill="#929496"/>
</g>
<g style="mix-blend-mode:multiply" opacity="0.98">
<path d="M51.2895 90.9912L48.5811 92.62L88.0308 115.23L90.7469 113.605L51.2895 90.9912Z" fill="#929496"/>
</g>
<g style="mix-blend-mode:multiply" opacity="0.4">
<path d="M51.289 90.9912L49.5518 92.0449L89.0015 114.655L90.7465 113.605L51.289 90.9912Z" fill="#929496"/>
</g>
</g>
<path d="M70.9218 55.2202L75.9555 63.6651L81.9952 67.8953L81.8211 87.2204L70.3375 73.9317L70.2988 55.5328L70.9218 55.2202Z" fill="url(#paint5_linear_673_3457)"/>
<path d="M70.2988 55.5327L75.9555 65.0158L81.9952 69.246L81.8211 88.5712L70.3375 75.2825L70.2988 55.5327Z" fill="#E6E7E7"/>
<path d="M102.021 78.0073L115.52 80.0684L115.346 100.243L114.894 100.694L102.06 97.7571L101.568 78.4589L102.021 78.0073Z" fill="url(#paint6_linear_673_3457)"/>
<path d="M101.568 78.459L115.068 80.52L114.894 100.694L101.607 98.2087L101.568 78.459Z" fill="#E6E7E7"/>
<path d="M32.2959 113.574L49.4555 103.712L70.8596 116.036L53.7 125.898L32.2959 113.574Z" fill="#BF9105"/>
<path d="M63.2678 125.292L52.4652 131.073L51.4824 116.291H61.0082L60.9889 121.803L62.0413 122.092L63.2678 125.292Z" fill="#929496"/>
<path d="M96.8294 105.878L86.1621 112.273L85.0439 96.8809H94.5698L95.0534 101.208L95.6028 102.682L96.8294 105.878Z" fill="#929496"/>
<path d="M82.6993 111.833L78.4355 109.355V99.5132L82.6993 101.702V111.833Z" fill="#1E327A"/>
<path d="M85.7364 100.305C83.1131 101.818 80.9619 105.53 80.9619 108.556C80.9619 111.582 83.1131 112.868 85.7364 111.416C88.3597 109.965 90.5148 106.248 90.5148 103.164C90.5148 100.081 88.3635 98.7916 85.7364 100.305Z" fill="#2842A2"/>
<path d="M53.7072 134.254L49.4473 131.776V121.938L53.7072 124.126V134.254Z" fill="#929496"/>
<path d="M87.8956 114.427L84.9358 112.706C84.5397 112.476 84.2108 112.146 83.982 111.75C83.7532 111.354 83.6325 110.905 83.6318 110.448V102.111L87.8879 104.295L87.8956 114.427Z" fill="#929496"/>
<path d="M90.9367 102.898C88.3095 104.411 86.1621 108.124 86.1621 111.15C86.1621 114.176 88.3095 115.461 90.9367 114.01C93.5638 112.559 95.7111 108.842 95.7111 105.758C95.7111 102.674 93.5638 101.385 90.9367 102.898Z" fill="black"/>
<path d="M90.9369 105.399C90.1784 105.895 89.547 106.562 89.0934 107.345C88.6399 108.129 88.3768 109.008 88.3252 109.911C88.3252 111.567 89.4859 112.269 90.9369 111.455C92.3878 110.64 93.5485 108.63 93.5485 106.943C93.5485 105.256 92.3723 104.581 90.9369 105.399Z" fill="white"/>
<path d="M65.9607 98.9923L101.638 78.459L75.9547 63.665L40.2773 84.1983L65.9607 98.9923Z" fill="#E6E7E7"/>
<path d="M65.9607 98.9922V118.754L40.2773 103.96V84.1982L65.9607 98.9922Z" fill="url(#paint7_linear_673_3457)"/>
<path d="M65.9609 118.754L101.638 98.2203V78.459L65.9609 98.9922V118.754Z" fill="url(#paint8_linear_673_3457)"/>
<path d="M65.9609 111.918L101.638 91.682V89.2466L65.9609 109.479V111.918Z" fill="#929496"/>
<path d="M65.9609 111.899L46.2051 100.66V98.2202L65.9609 109.463V111.899Z" fill="#929496"/>
<path d="M21.2842 120.004V123.551L43.8877 136.523V132.934L21.2842 120.004Z" fill="#808184"/>
<path d="M43.8954 136.524L50.3453 132.934V129.217L43.8877 132.934L43.8954 136.524Z" fill="#ADB9E0"/>
<path d="M22.4834 99.5903L43.8875 111.918V131.641L22.4834 119.313V99.5903Z" fill="url(#paint9_linear_673_3457)"/>
<path d="M22.4834 101.03L42.4366 112.463V125.026L22.4834 113.593V101.03Z" fill="#808184"/>
<path d="M38.3086 124.431L43.0057 127.125V130.082L38.3086 127.391V124.431Z" fill="white"/>
<path d="M29.0459 119.657L37.3259 124.589V125.705L29.0459 120.772V119.657Z" fill="#929496"/>
<path d="M23.4238 115.762L28.1248 118.456V121.413L23.4238 118.723V115.762Z" fill="white"/>
<path d="M51.2933 132.382C51.2424 132.056 51.2177 131.727 51.2197 131.398C51.2197 127.924 53.6998 123.62 56.7293 121.876C58.4395 120.892 59.9756 120.938 60.9854 121.803L61.0435 102.057L43.8877 111.918V132.934L50.3453 129.217V132.934L51.2933 132.382Z" fill="url(#paint10_linear_673_3457)"/>
<path d="M56.7295 122.729C54.1024 124.242 51.9512 127.955 51.9512 130.981C51.9512 134.007 54.1024 135.292 56.7295 133.837C59.3566 132.382 61.5041 128.673 61.5041 125.589C61.5041 122.505 59.3566 121.224 56.7295 122.729Z" fill="black"/>
<path d="M56.7289 125.238C55.9691 125.733 55.3368 126.399 54.8831 127.183C54.4294 127.967 54.167 128.846 54.1172 129.75C54.1172 131.406 55.2779 132.108 56.7289 131.313C58.1798 130.518 59.3405 128.488 59.3405 126.801C59.3405 125.114 58.1643 124.412 56.7289 125.238Z" fill="white"/>
<path d="M22.4834 99.5904L39.643 89.729L61.0471 102.057L43.8875 111.918L22.4834 99.5904Z" fill="url(#paint11_linear_673_3457)"/>
<path d="M45.3691 113.25L59.5611 105.256V113.412L52.4845 117.495L52.4651 123.269L45.4272 127.33L45.3691 113.25Z" fill="#808184"/>
<path d="M94.6318 102.238L94.6705 102.412C95.4211 103.088 95.9318 104.207 95.9318 105.724C95.9318 105.963 95.9318 106.206 95.8931 106.453L100.203 103.944V99.0117L94.6318 102.238Z" fill="#FFCD39"/>
<path d="M85.9259 112.184C85.8849 111.897 85.8641 111.606 85.864 111.316C85.9246 109.608 86.4114 107.942 87.2801 106.468L60.9893 121.71V121.86C61.7399 122.536 62.2467 123.655 62.2467 125.172C62.2467 125.411 62.2352 125.654 62.212 125.901L85.9259 112.184Z" fill="url(#paint12_linear_673_3457)"/>
<path d="M22.4836 119.313L21.2842 120.004L43.8877 132.934L45.1026 132.236L22.4836 119.313Z" fill="#D3DAED"/>
<path d="M50.3456 129.221L49.3203 128.619L43.0059 132.278L44.035 132.868L50.3456 129.221Z" fill="#D3DAED"/>
<path d="M36.3468 108.973L34.4897 107.908L26.4883 115.886L28.3493 116.951L36.3468 108.973Z" fill="#C2CAE8"/>
<path d="M27.1612 103.709L22.4834 108.375V113.593L24.801 114.921L32.8024 106.939L27.1612 103.709Z" fill="#C2CAE8"/>
<path d="M52.2217 109.39L50.9217 110.123L45.4043 121.32L45.412 123.211L52.2217 109.39Z" fill="#C2CAE8"/>
<path d="M45.373 113.871L45.3963 119.603L49.7413 110.787L45.7987 113.01L45.373 113.871Z" fill="#C2CAE8"/>
<path d="M49.057 89.2934L54.0869 92.3579L74.2064 80.6323L78.7372 83.2415C78.7875 83.2696 78.8443 83.2841 78.902 83.2837C78.9597 83.2833 79.0163 83.268 79.0663 83.2392C79.1162 83.2104 79.1578 83.1691 79.1869 83.1194C79.216 83.0698 79.2317 83.0134 79.2324 82.9559V74.2485C79.232 74.2036 79.2224 74.1592 79.2043 74.1181C79.1861 74.077 79.1597 74.0399 79.1268 74.0093C79.0939 73.9786 79.0551 73.9549 79.0127 73.9396C78.9703 73.9244 78.9253 73.9178 78.8804 73.9204L65.2455 74.7734C65.1744 74.7773 65.1064 74.804 65.0519 74.8497C64.9973 74.8953 64.9591 74.9575 64.943 75.0266C64.9268 75.0958 64.9337 75.1684 64.9624 75.2334C64.9912 75.2984 65.0402 75.3524 65.1023 75.3871L69.1804 77.7338L49.057 89.2934Z" fill="#929496"/>
<defs>
<linearGradient id="paint0_linear_673_3457" x1="35.3497" y1="104.445" x2="201.509" y2="56.5275" gradientUnits="userSpaceOnUse">
<stop stop-color="#BBBDBF"/>
<stop offset="0.48" stop-color="#D3D4D6"/>
<stop offset="1" stop-color="#F1F1F2"/>
</linearGradient>
<linearGradient id="paint1_linear_673_3457" x1="86.8193" y1="44.6834" x2="87.392" y2="44.6834" gradientUnits="userSpaceOnUse">
<stop offset="0.15" stop-color="#FF9800"/>
<stop offset="1" stop-color="#FFC107"/>
</linearGradient>
<linearGradient id="paint2_linear_673_3457" x1="14480.6" y1="9825.55" x2="14168.3" y2="9825.55" gradientUnits="userSpaceOnUse">
<stop offset="0.15" stop-color="#FF9800"/>
<stop offset="1" stop-color="#FFC107"/>
</linearGradient>
<linearGradient id="paint3_linear_673_3457" x1="6973.69" y1="15169.8" x2="6895.67" y2="15169.8" gradientUnits="userSpaceOnUse">
<stop offset="0.15" stop-color="#FF9800"/>
<stop offset="1" stop-color="#FFC107"/>
</linearGradient>
<linearGradient id="paint4_linear_673_3457" x1="6906.4" y1="15169.8" x2="6828.27" y2="15169.8" gradientUnits="userSpaceOnUse">
<stop offset="0.15" stop-color="#FF9800"/>
<stop offset="1" stop-color="#FFC107"/>
</linearGradient>
<linearGradient id="paint5_linear_673_3457" x1="70.3027" y1="71.2223" x2="81.9952" y2="71.2223" gradientUnits="userSpaceOnUse">
<stop stop-color="#D0D2D3"/>
<stop offset="0.2" stop-color="#DADCDC"/>
<stop offset="0.53" stop-color="#E3E4E4"/>
<stop offset="1" stop-color="#E6E7E7"/>
</linearGradient>
<linearGradient id="paint6_linear_673_3457" x1="3764.14" y1="5330.03" x2="4267.25" y2="5330.03" gradientUnits="userSpaceOnUse">
<stop stop-color="#D0D2D3"/>
<stop offset="0.2" stop-color="#DADCDC"/>
<stop offset="0.53" stop-color="#E3E4E4"/>
<stop offset="1" stop-color="#E6E7E7"/>
</linearGradient>
<linearGradient id="paint7_linear_673_3457" x1="2713.91" y1="9169.13" x2="4418.77" y2="9169.13" gradientUnits="userSpaceOnUse">
<stop stop-color="#D0D2D3"/>
<stop offset="0.2" stop-color="#DADCDC"/>
<stop offset="0.53" stop-color="#E3E4E4"/>
<stop offset="1" stop-color="#E6E7E7"/>
</linearGradient>
<linearGradient id="paint8_linear_673_3457" x1="6148.23" y1="10372.9" x2="9438.04" y2="10372.9" gradientUnits="userSpaceOnUse">
<stop stop-color="#D0D2D3"/>
<stop offset="0.2" stop-color="#DADCDC"/>
<stop offset="0.53" stop-color="#E3E4E4"/>
<stop offset="1" stop-color="#E6E7E7"/>
</linearGradient>
<linearGradient id="paint9_linear_673_3457" x1="22.4834" y1="115.616" x2="43.8875" y2="115.616" gradientUnits="userSpaceOnUse">
<stop offset="0.48" stop-color="#FFC107"/>
<stop offset="1" stop-color="#FF9800"/>
</linearGradient>
<linearGradient id="paint10_linear_673_3457" x1="34946.8" y1="55969.2" x2="35707.5" y2="55969.2" gradientUnits="userSpaceOnUse">
<stop offset="0.48" stop-color="#FFC107"/>
<stop offset="1" stop-color="#FF9800"/>
</linearGradient>
<linearGradient id="paint11_linear_673_3457" x1="2263.42" y1="5885.95" x2="6107.06" y2="5885.95" gradientUnits="userSpaceOnUse">
<stop offset="0.48" stop-color="#FFC107"/>
<stop offset="1" stop-color="#FF9800"/>
</linearGradient>
<linearGradient id="paint12_linear_673_3457" x1="54711.1" y1="35201.9" x2="56497.5" y2="35201.9" gradientUnits="userSpaceOnUse">
<stop offset="0.48" stop-color="#FFC107"/>
<stop offset="1" stop-color="#FF9800"/>
</linearGradient>
</defs>
</svg>
