<svg width="1206" height="339" viewBox="0 0 1206 339" fill="none" xmlns="http://www.w3.org/2000/svg">
<path d="M655.464 306.68C654.725 306.299 580.957 268.254 516.375 204.832L518.951 202.295C583.163 265.32 656.46 303.128 657.181 303.509L655.464 306.68Z" fill="black"/>
<path d="M650.853 318.84C650.14 318.527 578.879 287.213 516.443 234.987L518.787 232.264C580.802 284.152 651.608 315.272 652.321 315.584L650.853 318.84Z" fill="black"/>
<path d="M650.913 326.975C650.183 326.687 577.608 297.589 514.022 249.058L516.238 246.242C579.428 294.443 651.54 323.381 652.261 323.668L650.913 326.975Z" fill="black"/>
<path d="M524.927 188.096H523.115V317.859H524.927V188.096Z" fill="black"/>
<path d="M529.073 190.118V195.243V317.851H527.262V193.399V188.241L529.073 190.118Z" fill="black"/>
<path d="M533.211 194.354V317.817H531.408V192.511L533.211 194.354Z" fill="black"/>
<path d="M537.359 198.473V203.488V317.851H535.547V201.72V196.68L537.359 198.473Z" fill="black"/>
<path d="M541.506 202.523V207.487V317.851H539.694V205.754V200.781L541.506 202.523Z" fill="black"/>
<path d="M545.652 206.489V211.411V317.851H543.841V209.702V204.772L545.652 206.489Z" fill="black"/>
<path d="M549.791 210.362V317.859H547.979V208.688C548.589 209.254 549.181 209.812 549.791 210.362Z" fill="black"/>
<path d="M553.938 214.184V317.859H552.135V212.527L553.938 214.184Z" fill="black"/>
<path d="M558.085 217.905V317.859H556.273V216.29C556.866 216.831 557.475 217.372 558.085 217.905Z" fill="black"/>
<path d="M562.223 221.575V317.859H560.411V219.985L562.223 221.575Z" fill="black"/>
<path d="M566.369 225.169V317.859H564.566V223.604L566.369 225.169Z" fill="black"/>
<path d="M570.517 228.704V317.859H568.705V227.156L570.517 228.704Z" fill="black"/>
<path d="M574.655 232.154V236.805V317.851H572.844V235.308V230.649L574.655 232.154Z" fill="black"/>
<path d="M577.901 234.835V317.859H576.089V233.363L577.901 234.835Z" fill="black"/>
<path d="M582.949 238.928V317.859H581.111V237.465L582.949 238.928Z" fill="black"/>
<path d="M587.121 242.209V317.859H585.31V240.78C585.885 241.27 586.494 241.735 587.121 242.209Z" fill="black"/>
<path d="M592.144 246.158V250.657V317.851H590.332V249.27V244.746L592.144 246.158Z" fill="black"/>
<path d="M595.381 248.636V253.126V317.851H593.569V251.756V247.257L595.381 248.636Z" fill="black"/>
<path d="M599.52 251.764V256.238V317.851H597.717V254.885V250.403L599.52 251.764Z" fill="black"/>
<path d="M602.765 254.191V317.859H600.962V252.813L602.765 254.191Z" fill="black"/>
<path d="M607.813 257.878V262.301V317.85H606.001V260.99V256.567L607.813 257.878Z" fill="black"/>
<path d="M611.951 260.872V317.859H610.148V259.578L611.951 260.872Z" fill="black"/>
<path d="M616.106 263.806V317.851H614.295V262.529C614.896 262.961 615.505 263.392 616.106 263.806Z" fill="black"/>
<path d="M620.245 266.69V271.036V317.851H618.434V269.793V265.447L620.245 266.69Z" fill="black"/>
<path d="M624.383 269.531V273.853V317.851H622.58V272.618V268.305L624.383 269.531Z" fill="black"/>
<path d="M628.539 272.33V317.859H626.728V271.121L628.539 272.33Z" fill="black"/>
<path d="M632.677 275.07V317.859H630.908V273.886L632.677 275.07Z" fill="black"/>
<path d="M636.816 277.759V317.859H635.013V276.592C635.622 276.998 636.223 277.379 636.816 277.759Z" fill="black"/>
<path d="M640.971 280.414V284.634V317.85H639.159V283.492V279.264L640.971 280.414Z" fill="black"/>
<path d="M645.109 283.002V317.859H643.298V281.877L645.109 283.002Z" fill="black"/>
<path d="M649.247 285.539V317.859H647.444V284.439L649.247 285.539Z" fill="black"/>
<path d="M655.412 293.294C654.708 292.896 583.936 253.549 521.947 187.86L524.592 185.433C586.203 250.691 656.477 289.793 657.181 290.182L655.412 293.294Z" fill="black"/>
<path d="M215.36 257.76L214.785 254.242C331.989 235.892 437.456 196.621 438.512 196.223L439.799 199.555C438.769 199.952 332.985 239.35 215.36 257.76Z" fill="black"/>
<path d="M216.219 264.652L215.635 261.143C332.795 242.386 438.305 202.794 439.361 202.371L440.658 205.694C439.619 206.075 333.757 245.828 216.219 264.652Z" fill="black"/>
<path d="M319.325 232.518V325.892H317.53V232.966L319.325 232.518Z" fill="black"/>
<path d="M323.772 231.359V325.893H321.969V231.824L323.772 231.359Z" fill="black"/>
<path d="M328.228 230.209V325.893H326.416V230.675L328.228 230.209Z" fill="black"/>
<path d="M332.675 229.042V325.892H330.863V229.49L332.675 229.042Z" fill="black"/>
<path d="M337.131 227.85V325.892H335.319V228.332L337.131 227.85Z" fill="black"/>
<path d="M341.57 226.598V325.892H339.767V227.131L341.57 226.598Z" fill="black"/>
<path d="M346.026 225.423V229.118V325.884H344.223V229.609V225.913L346.026 225.423Z" fill="black"/>
<path d="M350.474 224.188V227.892V325.884H348.671V228.382V224.678L350.474 224.188Z" fill="black"/>
<path d="M354.921 222.928V325.893H353.118V223.444L354.921 222.928Z" fill="black"/>
<path d="M359.377 221.668V325.893H357.565V222.184L359.377 221.668Z" fill="black"/>
<path d="M363.833 220.383V325.893H362.021V220.899L363.833 220.383Z" fill="black"/>
<path d="M368.28 219.072V222.784V325.884H366.469V223.317V219.605L368.28 219.072Z" fill="black"/>
<path d="M372.728 217.761V325.892H370.925V218.302L372.728 217.761Z" fill="black"/>
<path d="M377.175 216.425V220.146V325.884H375.372V220.696V216.967L377.175 216.425Z" fill="black"/>
<path d="M381.622 215.081V218.801V325.884H379.819V219.359V215.63L381.622 215.081Z" fill="black"/>
<path d="M386.087 213.71V325.892H384.275V214.269L386.087 213.71Z" fill="black"/>
<path d="M390.509 212.341V325.892H388.697V212.899L390.509 212.341Z" fill="black"/>
<path d="M394.982 210.945V325.892H393.17V211.503L394.982 210.945Z" fill="black"/>
<path d="M399.429 209.525V213.263V325.884H397.617V213.838V210.091L399.429 209.525Z" fill="black"/>
<path d="M403.876 208.096V325.893H402.073V208.68L403.876 208.096Z" fill="black"/>
<path d="M408.332 206.642V325.876H406.529V207.225L408.332 206.642Z" fill="black"/>
<path d="M412.831 205.17V325.893H411.02V205.813C411.595 205.576 412.187 205.364 412.831 205.17Z" fill="black"/>
<path d="M221.422 253.185V325.91H219.653V253.473L221.422 253.185Z" fill="black"/>
<path d="M225.869 252.441V325.893H224.058V252.745C224.667 252.652 225.268 252.551 225.869 252.441Z" fill="black"/>
<path d="M230.316 251.688V255.299V325.884H228.505V255.603V251.984L230.316 251.688Z" fill="black"/>
<path d="M234.764 250.902V254.53V325.884H232.961V254.843V251.223L234.764 250.902Z" fill="black"/>
<path d="M239.211 250.099V325.893H237.408V250.428C238.009 250.327 238.619 250.217 239.211 250.099Z" fill="black"/>
<path d="M243.693 249.278V325.893H241.882V249.608C242.474 249.507 243.067 249.431 243.693 249.278Z" fill="black"/>
<path d="M248.123 248.432V252.068V325.884H246.312V252.407V248.779L248.123 248.432Z" fill="black"/>
<path d="M252.57 247.57V325.893H250.759V247.934L252.57 247.57Z" fill="black"/>
<path d="M257.018 246.699V325.893H255.206V247.063L257.018 246.699Z" fill="black"/>
<path d="M261.465 245.811V325.893H259.662V246.175C260.263 246.048 260.864 245.921 261.465 245.811Z" fill="black"/>
<path d="M265.921 244.881V325.893H264.118V245.253L265.921 244.881Z" fill="black"/>
<path d="M270.378 243.951V325.893H268.592V244.357L270.378 243.951Z" fill="black"/>
<path d="M274.824 242.995V325.867H273.013V243.384L274.824 242.995Z" fill="black"/>
<path d="M279.272 242.031V325.893H277.46V242.42L279.272 242.031Z" fill="black"/>
<path d="M283.72 241.033V325.893H281.908V241.439L283.72 241.033Z" fill="black"/>
<path d="M288.167 240.027V325.892H286.355V240.483L288.167 240.027Z" fill="black"/>
<path d="M292.631 239.004V325.893H290.828V239.427L292.631 239.004Z" fill="black"/>
<path d="M297.071 237.964V325.91H295.268V238.387L297.071 237.964Z" fill="black"/>
<path d="M301.526 236.907V325.893H299.715V237.338L301.526 236.907Z" fill="black"/>
<path d="M305.974 235.824V325.893H304.162V236.256L305.974 235.824Z" fill="black"/>
<path d="M310.421 234.742V325.893H308.609V235.181L310.421 234.742Z" fill="black"/>
<path d="M314.877 233.626V325.893H313.065V234.083L314.877 233.626Z" fill="black"/>
<path d="M417.236 203.682V325.893H415.407V204.29L417.236 203.682Z" fill="black"/>
<path d="M421.684 202.168V325.893H419.872V202.794L421.684 202.168Z" fill="black"/>
<path d="M426.131 200.646V325.892H424.319V201.271L426.131 200.646Z" fill="black"/>
<path d="M430.578 199.098V325.892H428.775V199.732L430.578 199.098Z" fill="black"/>
<path d="M435.034 197.508V325.892H433.231V198.151L435.034 197.508Z" fill="black"/>
<path d="M518.977 176.63L518.668 176.706L514.907 162.753L510.615 178.82L495.298 182.794L491.468 168.605L487.107 184.917L472.691 188.655L468.939 174.744L464.647 190.735L450.746 194.337L446.926 180.088L442.822 195.411H437.979L433.231 200.088V206.692L438.992 212.375V318.848H447.578V300.845L458.877 297.285V335.761H467.695V223.605L477.645 209.686L488.91 218.742V324.531H498.174V314.62L509.481 311.06V324.531H520.711V200.781L523.115 190.633V181.602L518.977 176.63ZM446.565 195.403H446.514L448.548 194.887L446.565 195.403ZM458.843 293.556L447.544 297.116V274.909L458.843 271.349V293.556ZM458.843 268.017L447.544 271.578V249.38L458.843 245.82V268.017ZM458.843 242.082L447.544 245.65V223.444L458.843 219.884V242.082ZM509.498 307.339L498.191 310.899V288.702L509.498 285.133V307.339ZM509.498 281.404L498.174 284.947V262.766L509.481 259.206L509.498 281.404ZM509.498 255.874L498.191 259.434V237.236L509.498 233.668V255.874ZM509.498 229.939L498.191 233.499V211.301L509.498 207.732V229.939Z" fill="black"/>
<g filter="url(#filter0_d_734_6988)">
<path d="M1190.56 319.924V298.205H1163.94V319.924H1134.89V326.008H1127.45V341.843H1115.82V332.44H1112.38V312.04L1100.47 294.088H1087.48L1080.35 300.985V207.741H990.792V247.163H967.61C967.61 247.163 958.312 248.549 958.312 256.708V265.422H954.877V244.258H950.293V231.95H954.732V228.49H945.433V196.396H942.711V184.777H940.994V170.253H938.848V157.389H936.418V144.251H933.267V132.632H930.837V119.211H927.832V97.6329H926.115V70.2449H921.247V97.6329H919.53V119.211H916.525V132.632H914.095V144.251H910.944V157.389H908.515V170.253H906.368V184.777H904.651V196.396H901.929V228.49H892.631V231.95H897.061V244.258H892.485L892.597 321.999H889.162V284.925H880.577V267.497H883.719V260.301H876.85L857.284 241.354H830.814V228.763L802.052 200.96L771.572 230.423V183.947H741.231V255.878H719.483V297.101H709.755L692.292 276.9H678.271V265.837H673.403V250.358L662.955 240.258L655.665 159.605L650.368 240.009L640.331 249.703V264.492H635.017V306.919L616.669 317.501V290.735H532.744V296.404H528.451V278.145H522.157V303.184H516.86V310.098H506.274V316.322H470.497V329.186H458.477V308.164H434.437V304.155H416.768V282.436H408.68V265.629H367.898V273.929H347.936V310.861H340.424V317.708H325.613V306.919H313.808V241.769H299.856L280.856 260.135H268.948V301.317L259.435 310.512V288.801H228.38L228.131 251.039H223.409V231.95H218.687V214.654H213.784C213.784 214.654 210.35 203.035 210.35 198.471C210.35 197.491 210.135 194.321 213.501 194.321V180.627C213.501 180.627 214.643 180.353 214.643 177.448V144.525C214.643 144.525 219.94 143.421 219.94 136.781V127.237C219.94 127.237 227.805 125.021 227.805 118.937V107.177C227.805 104.646 225.092 101.368 220.936 101.368C215.124 101.368 214.36 108.422 214.36 108.422C212.906 108.062 211.62 107.239 210.71 106.085C209.801 104.932 209.32 103.515 209.345 102.065V95.9731C209.345 95.9731 210.204 92.9355 203.765 87.9558C197.325 82.9762 197.755 78.6854 197.755 66.9252L209.208 64.7175L198.184 63.0576L209.225 56.2521L196.896 58.4266L202.46 47.9113L193.531 55.7708L190.028 54.9408L187.744 42.2843L186.31 54.8911L182.807 55.5135L171.714 47.8366L179.725 57.8705L173.217 57.5137C171.826 50.9654 168.924 48.2432 168.924 45.3882C168.924 36.8813 166.031 25.3618 166.031 23.0794C166.031 20.7971 170.323 22.2495 170.323 16.2324C170.024 15.0774 169.331 14.0536 168.356 13.3263C167.381 12.599 166.18 12.2106 164.949 12.2238V9.11156C164.949 9.11156 170.675 3.30199 166.778 0.737475C164.528 -0.731519 160.27 -0.922408 160.27 9.11156V12.257C160.27 12.257 149.821 14.3983 158.475 22.7641C158.475 22.7641 160.45 39.3629 161.265 43.7948C162.983 52.8826 158.784 53.754 163.343 58.1776C163.343 58.1776 163.412 65.0578 163.412 70.1453C163.412 75.2329 159.48 74.5689 159.48 83.0758C159.48 91.5827 166.46 87.6405 166.46 92.4126C166.46 97.1848 164.09 107.874 169.783 107.874C175.475 107.874 170.323 107.974 170.323 107.974V114.099C170.323 122.041 169.662 120.149 166.992 125.61C165.017 129.66 165.807 131.835 169.783 131.835C169.783 131.835 171.731 135.735 169.139 141.794C164.631 152.334 169.036 154.351 169.036 154.351L168.28 214.688H162.699V224.481H159.119V237.76H151.392V250.342H145.099V285.614H119.127V320.198H107.965C107.965 320.198 109.253 292.602 107.965 292.602H78.13V258.367H14.5957V293.225H0V369H1202V319.924H1190.56ZM179.656 72.4609C179.656 73.3406 174.135 76.9841 173.938 65.506C176.685 66.0454 179.699 66.6928 179.69 66.9252C179.673 70.6184 179.656 71.9878 179.656 72.4609ZM173.921 63.9457C173.921 62.6925 173.809 61.5306 173.689 60.4516L179.699 62.983L173.921 63.9457Z" fill="black"/>
</g>
<defs>
<filter id="filter0_d_734_6988" x="-4" y="0" width="1210" height="377" filterUnits="userSpaceOnUse" color-interpolation-filters="sRGB">
<feFlood flood-opacity="0" result="BackgroundImageFix"/>
<feColorMatrix in="SourceAlpha" type="matrix" values="0 0 0 0 0 0 0 0 0 0 0 0 0 0 0 0 0 0 127 0" result="hardAlpha"/>
<feOffset dy="4"/>
<feGaussianBlur stdDeviation="2"/>
<feComposite in2="hardAlpha" operator="out"/>
<feColorMatrix type="matrix" values="0 0 0 0 0 0 0 0 0 0 0 0 0 0 0 0 0 0 0.25 0"/>
<feBlend mode="normal" in2="BackgroundImageFix" result="effect1_dropShadow_734_6988"/>
<feBlend mode="normal" in="SourceGraphic" in2="effect1_dropShadow_734_6988" result="shape"/>
</filter>
</defs>
</svg>
