<svg width="122" height="105" viewBox="0 0 122 105" fill="none" xmlns="http://www.w3.org/2000/svg">
<path d="M48.3824 61.6281L105.611 28.7513C107.245 27.8127 107.87 25.8539 107.013 24.3736C106.153 22.8947 104.135 22.4562 102.502 23.3928L53.7238 44.7682C53.7238 44.7682 48.6831 46.443 50.3593 51.6071C50.3593 51.6071 50.6238 53.327 49.4416 54.0735L45.3592 56.4205L48.3824 61.6281Z" fill="#C9C9C9"/>
<path d="M35.7818 83.1775C40.1187 80.6878 42.5233 76.2336 42.3311 71.9038C42.2629 69.5632 43.5648 67.1721 45.9056 65.8306L47.676 64.8136C50.6446 63.1098 51.5142 60.4474 49.969 57.7813L48.5433 55.3241C46.9975 52.66 44.2449 52.0801 41.2763 53.7838L25.5959 62.792C25.4189 62.8937 25.2482 63.0035 25.081 63.1164C24.8345 63.2378 24.5864 63.3652 24.3476 63.5057C18.3511 66.9506 16.0455 74.15 19.1979 79.5861C22.3504 85.0223 29.7868 86.6249 35.7818 83.1775ZM33.274 79.544C29.2123 81.8774 24.2893 80.9567 22.2711 77.4843C20.2529 74.0118 21.9186 69.3127 25.9799 66.9728C30.0412 64.6329 34.5241 62.6126 37.9303 68.4832C39.9489 71.9622 37.3352 77.2126 33.276 79.5446L33.274 79.544Z" fill="#FDB733"/>
<path d="M45.4846 40.4662L109.371 57.5845C111.194 58.0729 112.315 59.8051 111.874 61.4511C111.432 63.101 109.596 64.0365 107.773 63.5481L55.0567 55.3885C55.0567 55.3885 49.7484 55.0591 50.0165 49.6426C50.0165 49.6426 49.8207 47.9133 48.4861 47.496L43.9282 46.2748L45.4846 40.4662Z" fill="#E6E7E8"/>
<path d="M12.6095 30.5896C10.9865 36.6466 15.0992 43.0112 21.7953 44.8054C22.0648 44.8776 22.3355 44.9373 22.6013 44.9915C22.7962 45.0629 22.9812 45.1231 23.1808 45.1766L40.6817 49.8659C43.9958 50.754 46.5029 49.4869 47.2965 46.525L48.0305 43.7857C48.8257 40.8178 47.2865 38.4729 43.9724 37.5849L41.9899 37.0537C39.3746 36.3529 37.4906 34.3759 36.9452 32.0991C35.9951 27.8667 32.5062 24.1813 27.6648 22.884C20.9759 21.079 14.232 24.5345 12.6095 30.5896ZM33.596 36.509C31.843 43.0511 26.9829 42.2389 22.449 41.024C17.9151 39.8092 15.0811 35.692 16.1171 31.8256C17.1531 27.9592 21.6685 25.8091 26.2005 27.0234C30.7324 28.2378 34.6346 32.6327 33.596 36.509Z" fill="#FDB733"/>
<path d="M55.5511 51.7899C55.139 51.6799 54.7686 51.4507 54.4869 51.1312C54.2052 50.8116 54.0247 50.4163 53.9684 49.995C53.9121 49.5738 53.9824 49.1457 54.1705 48.7648C54.3586 48.3839 54.656 48.0675 55.0251 47.8554C55.3941 47.6434 55.8183 47.5454 56.2438 47.5737C56.6693 47.6021 57.0771 47.7555 57.4156 48.0147C57.754 48.2738 58.0079 48.627 58.1451 49.0295C58.2824 49.4321 58.2967 49.8658 58.1864 50.276C58.0387 50.825 57.6783 51.2928 57.1842 51.5767C56.6901 51.8605 56.1028 51.9372 55.5511 51.7899Z" fill="#AAAAAA"/>
<path d="M56.4245 47.5838L55.3145 51.7266L55.7856 51.8528L56.8956 47.7101L56.4245 47.5838Z" fill="#999999"/>
</svg>
