<svg width="230" height="57" viewBox="0 0 230 57" fill="none" xmlns="http://www.w3.org/2000/svg">
<g clip-path="url(#clip0_673_2618)">
<path d="M230 16.2892L211.973 23.784L214.869 5.18994L230 16.2892Z" fill="#FFD23F"/>
<path d="M230 16.2893L227.104 34.8752L211.973 23.7841L230 16.2893Z" fill="#FFD23F"/>
<path d="M227.104 34.875L209.076 42.3698L211.972 23.7839L227.104 34.875Z" fill="#FDB733"/>
<path d="M214.868 5.18994L211.972 23.784L196.849 12.6848L214.868 5.18994Z" fill="#FDB733"/>
<path d="M11.3812 23.8086H1.22029V15.4065H26.7813L15.335 34.3683H26.3745V42.7132H0L11.3812 23.8086Z" fill="white"/>
<path d="M34.4445 11.7286C33.659 11.7366 32.8795 11.5894 32.1504 11.2954C31.4551 11.0139 30.822 10.5973 30.2874 10.0695C29.7584 9.53688 29.3456 8.89945 29.0753 8.19778C28.4892 6.71761 28.4892 5.06826 29.0753 3.58809C29.3476 2.88988 29.7603 2.25553 30.2874 1.7246C30.827 1.19462 31.4583 0.768075 32.1504 0.465929C32.8765 0.15842 33.6565 0 34.4445 0C35.2325 0 36.0125 0.15842 36.7387 0.465929C37.4294 0.766153 38.0584 1.19298 38.5935 1.7246C39.1279 2.25788 39.5535 2.8909 39.8463 3.58809C40.3022 4.67122 40.4265 5.86624 40.2033 7.02064C39.9802 8.17504 39.4197 9.23647 38.5935 10.0695C38.0633 10.599 37.4325 11.0159 36.7387 11.2954C36.0096 11.5894 35.2301 11.7366 34.4445 11.7286ZM29.0997 15.4066H39.7894V42.7214H29.0997V15.4066Z" fill="white"/>
<path d="M73.4779 22.8769C74.0904 24.9 74.3841 27.0069 74.3484 29.1212C74.3745 31.1197 74.0806 33.1094 73.4779 35.0141C72.8857 36.6469 72.022 38.1669 70.9234 39.5094C69.874 40.7518 68.566 41.7479 67.0917 42.4272C65.5906 43.0933 63.9654 43.4305 62.3245 43.4162C61.1253 43.423 59.932 43.2467 58.7856 42.8931C57.5894 42.5073 56.469 41.9155 55.4746 41.144V53.0442L44.8418 54.6217V15.3902H55.4746V17.6052C56.398 16.7655 57.4329 16.0585 58.5497 15.5046C59.7388 14.9819 61.0268 14.7254 62.3245 14.7527C63.9596 14.7392 65.5808 15.0561 67.0917 15.6845C68.5689 16.2479 69.8851 17.1687 70.9234 18.3653C72.0388 19.702 72.9043 21.2305 73.4779 22.8769ZM59.4446 34.6627C60.112 34.698 60.7784 34.5743 61.3892 34.3016C61.9999 34.0288 62.5379 33.6148 62.959 33.0934C63.8194 31.9538 64.2619 30.5507 64.2118 29.1212C64.2596 27.6845 63.8176 26.2745 62.959 25.1245C62.5207 24.6212 61.9804 24.2179 61.3743 23.9415C60.7681 23.6652 60.1102 23.5222 59.4446 23.5222C58.779 23.5222 58.121 23.6652 57.5149 23.9415C56.9088 24.2179 56.3684 24.6212 55.9301 25.1245C55.0745 26.2755 54.6354 27.6855 54.6855 29.1212C54.6324 30.5498 55.0721 31.953 55.9301 33.0934C56.3513 33.6148 56.8892 34.0288 57.5 34.3016C58.1108 34.5743 58.7771 34.698 59.4446 34.6627Z" fill="white"/>
<path d="M87.9176 30.9928V42.7214H77.1953V0.702881H87.9176V26.1461L94.3607 15.4065H106.466L97.2325 27.9524L108.5 42.7214H96.1911L87.9176 30.9928Z" fill="white"/>
<path d="M120.459 43.6531C118.341 43.6836 116.238 43.2862 114.276 42.4843C112.515 41.7603 110.922 40.6778 109.598 39.3049C108.324 37.9676 107.325 36.3898 106.662 34.6625C105.306 31.0516 105.306 27.068 106.662 23.4571C107.328 21.7333 108.326 20.1585 109.598 18.8228C110.922 17.45 112.515 16.3675 114.276 15.6435C118.255 14.0853 122.671 14.0853 126.65 15.6435C128.382 16.355 129.95 17.4154 131.258 18.7592C132.566 20.103 133.587 21.7019 134.256 23.4571C135.612 27.068 135.612 31.0516 134.256 34.6625C133.588 36.4197 132.569 38.0206 131.26 39.3659C129.952 40.7113 128.383 41.7727 126.65 42.4843C124.685 43.2855 122.58 43.683 120.459 43.6531ZM120.459 34.6053C121.124 34.6432 121.788 34.5196 122.396 34.245C123.003 33.9705 123.536 33.553 123.949 33.0279C124.787 31.8821 125.214 30.4849 125.161 29.0639C125.217 27.6501 124.789 26.2597 123.949 25.1244C123.507 24.6374 122.968 24.2484 122.368 23.9823C121.768 23.7162 121.119 23.5787 120.463 23.5787C119.807 23.5787 119.158 23.7162 118.558 23.9823C117.958 24.2484 117.419 24.6374 116.977 25.1244C116.131 26.2571 115.7 27.6487 115.757 29.0639C115.703 30.4862 116.133 31.8846 116.977 33.0279C117.388 33.5529 117.92 33.9704 118.526 34.245C119.132 34.5196 119.795 34.6432 120.459 34.6053Z" fill="white"/>
<path d="M155.554 40.7353C154.634 41.571 153.585 42.2502 152.447 42.7459C151.234 43.2209 149.94 43.4488 148.639 43.4161C147.007 43.429 145.388 43.1237 143.872 42.5171C142.407 41.9159 141.097 40.988 140.04 39.8035C138.9 38.4963 138.041 36.9657 137.518 35.3083C136.883 33.2898 136.578 31.1808 136.615 29.0639C136.592 27.0712 136.898 25.0883 137.518 23.1956C138.054 21.5365 138.911 20.0003 140.04 18.6758C141.098 17.4505 142.405 16.4667 143.872 15.7906C145.367 15.1016 146.995 14.7528 148.639 14.769C149.86 14.7598 151.075 14.9361 152.243 15.2921C153.446 15.6902 154.567 16.302 155.554 17.0983V0.702881H166.236V42.7214H155.554V40.7353ZM151.487 34.6626C152.16 34.6923 152.83 34.5593 153.442 34.2749C154.053 33.9905 154.588 33.5629 155.001 33.0279C155.857 31.8769 156.296 30.467 156.246 29.0312C156.299 27.6027 155.859 26.1995 155.001 25.0591C154.557 24.565 154.015 24.1701 153.41 23.8998C152.804 23.6295 152.149 23.4898 151.487 23.4898C150.824 23.4898 150.169 23.6295 149.564 23.8998C148.958 24.1701 148.416 24.565 147.972 25.0591C147.108 26.1968 146.665 27.6012 146.719 29.0312C146.668 30.4684 147.111 31.8795 147.972 33.0279C148.384 33.5644 148.918 33.9931 149.53 34.2777C150.142 34.5623 150.813 34.6943 151.487 34.6626Z" fill="white"/>
<path d="M178.96 31.8675C179.474 32.9669 180.331 33.8679 181.4 34.4339C182.56 35.0291 183.848 35.3294 185.151 35.3084C186.611 35.3413 188.068 35.1652 189.479 34.7853C190.602 34.4365 191.691 33.9851 192.733 33.4367L196.044 40.2123C194.537 41.1214 192.953 41.8928 191.309 42.5172C189.048 43.33 186.657 43.7152 184.256 43.6532C182.084 43.689 179.926 43.3118 177.894 42.5417C176.12 41.8799 174.509 40.8415 173.171 39.4973C171.833 38.1531 170.8 36.5347 170.141 34.7526C169.426 32.8605 169.07 30.8507 169.092 28.827C169.087 26.9885 169.401 25.1632 170.019 23.4327C170.63 21.7368 171.564 20.1767 172.769 18.8394C174.006 17.4833 175.51 16.4006 177.186 15.66C179.102 14.8349 181.171 14.4281 183.255 14.4667C185.342 14.4137 187.412 14.8532 189.3 15.7499C190.923 16.5422 192.358 17.6768 193.506 19.0764C194.605 20.454 195.434 22.0295 195.946 23.7188C196.483 25.427 196.757 27.2074 196.76 28.9987C196.76 29.4237 196.76 29.8977 196.76 30.429C196.76 30.9602 196.711 31.4261 196.678 31.8593L178.96 31.8675ZM183.141 21.888C182.114 21.8504 181.113 22.2169 180.351 22.9096C179.569 23.6684 179.007 24.626 178.724 25.6803H187.616C187.43 24.6023 186.913 23.6102 186.135 22.8442C185.29 22.1629 184.223 21.822 183.141 21.888Z" fill="white"/>
<path d="M77.659 55.2917L78.0414 55.4061C78.1739 55.4194 78.3075 55.4194 78.44 55.4061C78.6369 55.4088 78.8326 55.3756 79.0176 55.308C79.1897 55.2327 79.3305 55.0998 79.4162 54.9321L79.522 54.7359L77.716 49.9546H79.6115L80.3762 52.3166L81.1409 49.9546H82.9632L81.0596 55.0628C80.8758 55.6058 80.5532 56.0906 80.124 56.4686C79.6929 56.8062 79.157 56.9798 78.6108 56.959C78.3676 56.9601 78.1249 56.9354 77.8868 56.8855C77.6523 56.8353 77.4213 56.7698 77.1953 56.6893L77.659 55.2917Z" fill="white"/>
<path d="M85.3059 54.9484C84.9352 54.955 84.567 54.8854 84.2239 54.7441C83.9164 54.6192 83.639 54.4297 83.4104 54.1883C83.1873 53.9527 83.0131 53.6749 82.8979 53.371C82.659 52.7392 82.659 52.0413 82.8979 51.4094C83.0127 51.0998 83.1907 50.8176 83.4205 50.5812C83.6502 50.3447 83.9267 50.1591 84.2321 50.0363C84.9307 49.7639 85.7055 49.7639 86.4042 50.0363C86.7101 50.1642 86.9869 50.3533 87.2177 50.5921C87.6683 51.0815 87.9185 51.7236 87.9185 52.3902C87.9185 53.0568 87.6683 53.6989 87.2177 54.1883C86.9891 54.4297 86.7117 54.6192 86.4042 54.7441C86.0559 54.8872 85.6821 54.9567 85.3059 54.9484ZM85.3059 53.3628C85.4236 53.37 85.5413 53.3484 85.649 53.3C85.7566 53.2516 85.851 53.1779 85.9242 53.0849C86.0696 52.8834 86.144 52.639 86.1357 52.3902C86.1428 52.1416 86.0685 51.8976 85.9242 51.6955C85.8478 51.6072 85.7535 51.5363 85.6475 51.4878C85.5416 51.4392 85.4265 51.4141 85.31 51.4141C85.1935 51.4141 85.0784 51.4392 84.9724 51.4878C84.8665 51.5363 84.7721 51.6072 84.6958 51.6955C84.5515 51.8976 84.4772 52.1416 84.4843 52.3902C84.4759 52.639 84.5504 52.8834 84.6958 53.0849C84.7681 53.1767 84.8612 53.2498 84.9674 53.2981C85.0735 53.3464 85.1896 53.3686 85.3059 53.3628Z" fill="white"/>
<path d="M88.3245 49.9956H90.2037V52.5947C90.1953 52.7781 90.2406 52.9599 90.3339 53.1178C90.3881 53.1816 90.4555 53.2328 90.5313 53.268C90.6071 53.3031 90.6897 53.3213 90.7732 53.3213C90.8567 53.3213 90.9392 53.3031 91.0151 53.268C91.0909 53.2328 91.1582 53.1816 91.2125 53.1178C91.3058 52.9599 91.351 52.7781 91.3426 52.5947V49.9956H93.2219V52.5947C93.2407 52.9096 93.1924 53.2248 93.0802 53.5194C92.9679 53.814 92.7944 54.0811 92.5711 54.3029C92.0544 54.6947 91.4246 54.9067 90.7773 54.9067C90.1299 54.9067 89.5001 54.6947 88.9834 54.3029C88.7574 54.0828 88.5814 53.8162 88.4676 53.5213C88.3539 53.2265 88.3051 52.9103 88.3245 52.5947V49.9956Z" fill="white"/>
<path d="M93.9951 49.9955H95.8744V50.8128C96.0021 50.5636 96.1698 50.3372 96.3706 50.1426C96.4604 50.053 96.5671 49.9823 96.6844 49.9345C96.8018 49.8868 96.9274 49.8631 97.054 49.8648C97.1891 49.8494 97.3256 49.8494 97.4607 49.8648C97.5529 49.886 97.6428 49.9162 97.7292 49.9547L97.5258 51.6874L97.298 51.6138L97.0702 51.5648C96.9837 51.5564 96.8965 51.5564 96.8099 51.5648C96.6962 51.5568 96.582 51.5568 96.4682 51.5648C96.3574 51.5883 96.2541 51.6388 96.1672 51.7119C96.069 51.7933 95.9957 51.901 95.9557 52.0225C95.8945 52.1869 95.8668 52.362 95.8744 52.5374V54.8014H93.9951V49.9955Z" fill="white"/>
<path d="M99.584 49.9956H101.512L102.26 52.0634L103.025 49.9956H104.896L102.822 54.8015H101.61L99.584 49.9956Z" fill="white"/>
<path d="M106.1 49.3498C105.828 49.3494 105.566 49.2441 105.368 49.0556C105.275 48.9633 105.203 48.8517 105.157 48.7287C105.101 48.6027 105.073 48.466 105.075 48.3282C105.076 48.0544 105.181 47.7911 105.368 47.5926C105.463 47.5008 105.573 47.4261 105.694 47.3719C105.822 47.3159 105.961 47.2881 106.1 47.2902C106.238 47.288 106.374 47.3159 106.499 47.3719C106.62 47.4241 106.731 47.4989 106.824 47.5926C106.921 47.6837 106.996 47.7954 107.044 47.9195C107.1 48.0484 107.127 48.1877 107.125 48.3282C107.128 48.466 107.1 48.6027 107.044 48.7287C106.999 48.854 106.923 48.9663 106.824 49.0556C106.733 49.1493 106.622 49.2218 106.499 49.2681C106.374 49.3241 106.238 49.352 106.1 49.3498ZM105.157 49.9955H107.036V54.8013H105.157V49.9955Z" fill="white"/>
<path d="M107.897 49.9954H109.777V50.8127C109.907 50.5653 110.075 50.3393 110.273 50.1426C110.456 49.9638 110.701 49.864 110.956 49.8647C111.094 49.8498 111.233 49.8498 111.371 49.8647C111.46 49.8872 111.547 49.9173 111.632 49.9546L111.428 51.6873L111.2 51.6137L110.973 51.5647C110.886 51.5563 110.799 51.5563 110.712 51.5647C110.599 51.5567 110.484 51.5567 110.371 51.5647C110.253 51.5896 110.144 51.6449 110.054 51.7252C109.964 51.8055 109.897 51.9079 109.858 52.0224C109.797 52.1868 109.769 52.3619 109.777 52.5373V54.8013H107.897V49.9954Z" fill="white"/>
<path d="M111.624 50.0037H112.503V48.7859L114.317 48.4917V50.0037H115.895V51.4831H114.317V52.3495C114.317 52.3985 114.317 52.4557 114.317 52.4966C114.317 52.5374 114.317 52.5783 114.317 52.6192V52.7254C114.314 52.769 114.314 52.8127 114.317 52.8562C114.335 52.9356 114.362 53.0124 114.398 53.085C114.466 53.1684 114.552 53.2348 114.649 53.2788C114.747 53.3228 114.853 53.3432 114.96 53.3384C115.188 53.3341 115.412 53.2723 115.611 53.1586L116.196 54.3601C115.718 54.6994 115.154 54.895 114.569 54.924H114.48C113.975 54.933 113.484 54.7589 113.097 54.4336C112.877 54.227 112.708 53.9716 112.603 53.6878C112.499 53.4041 112.462 53.0997 112.495 52.799V51.4177H111.616L111.624 50.0037Z" fill="white"/>
<path d="M116.294 49.9956H118.165V52.5947C118.159 52.7789 118.207 52.9608 118.303 53.1178C118.35 53.1892 118.417 53.2461 118.494 53.2821C118.572 53.3182 118.658 53.332 118.742 53.3221C118.826 53.3314 118.911 53.3172 118.987 53.2811C119.063 53.2451 119.127 53.1885 119.174 53.1178C119.27 52.9608 119.318 52.7789 119.312 52.5947V49.9956H121.183V52.5947C121.202 52.9096 121.154 53.2248 121.041 53.5194C120.929 53.814 120.755 54.0811 120.532 54.3029C120.015 54.6947 119.386 54.9067 118.738 54.9067C118.091 54.9067 117.461 54.6947 116.944 54.3029C116.72 54.0821 116.545 53.8151 116.433 53.5203C116.321 53.2255 116.273 52.9097 116.294 52.5947V49.9956Z" fill="white"/>
<path d="M124.925 54.4417C124.762 54.5861 124.578 54.7046 124.379 54.7932C124.168 54.8779 123.94 54.9169 123.712 54.9076C123.434 54.9081 123.158 54.8554 122.899 54.7523C122.644 54.6471 122.416 54.485 122.232 54.2783C122.025 54.0422 121.872 53.7631 121.784 53.4609C121.674 53.1068 121.622 52.7368 121.63 52.3657C121.624 52.0162 121.677 51.6682 121.784 51.3359C121.876 51.0354 122.028 50.7571 122.232 50.5186C122.416 50.3045 122.644 50.1319 122.899 50.0119C123.154 49.8933 123.431 49.832 123.712 49.832C123.927 49.8315 124.141 49.8618 124.347 49.9219C124.556 49.9943 124.752 50.1021 124.925 50.2407V49.9465H126.804V54.8014H124.925V54.4417ZM124.209 53.371C124.326 53.3782 124.444 53.3566 124.552 53.3082C124.659 53.2599 124.754 53.1861 124.827 53.0932C124.978 52.8908 125.055 52.6428 125.047 52.3903C125.056 52.14 124.979 51.8942 124.827 51.6955C124.751 51.6072 124.656 51.5364 124.55 51.4878C124.444 51.4393 124.329 51.4142 124.213 51.4142C124.096 51.4142 123.981 51.4393 123.875 51.4878C123.769 51.5364 123.675 51.6072 123.598 51.6955C123.447 51.8942 123.369 52.14 123.379 52.3903C123.37 52.6428 123.448 52.8908 123.598 53.0932C123.671 53.1849 123.764 53.258 123.87 53.3063C123.976 53.3546 124.092 53.3768 124.209 53.371Z" fill="white"/>
<path d="M127.667 47.4456H129.546V54.8014H127.667V47.4456Z" fill="white"/>
<path d="M135.525 54.4417C135.364 54.5879 135.18 54.7066 134.98 54.7932C134.768 54.8779 134.541 54.9169 134.313 54.9076C134.035 54.9094 133.758 54.8566 133.5 54.7523C133.241 54.6495 133.01 54.4871 132.825 54.2783C132.621 54.04 132.468 53.7617 132.377 53.461C132.267 53.1068 132.214 52.7368 132.223 52.3658C132.217 52.0163 132.269 51.6683 132.377 51.3359C132.473 51.0372 132.625 50.7598 132.825 50.5186C133.01 50.3025 133.241 50.1296 133.5 50.0119C133.754 49.8923 134.032 49.8309 134.313 49.832C134.528 49.8315 134.742 49.8618 134.948 49.922C135.157 49.9943 135.352 50.1021 135.525 50.2407V49.9465H137.405V54.8014H135.525V54.4417ZM134.818 53.3711C134.935 53.3775 135.053 53.3556 135.16 53.3073C135.268 53.259 135.362 53.1856 135.436 53.0932C135.587 52.8908 135.664 52.6428 135.656 52.3903C135.666 52.14 135.588 51.8942 135.436 51.6955C135.362 51.6031 135.268 51.5297 135.16 51.4814C135.053 51.4331 134.935 51.4112 134.818 51.4177C134.7 51.4105 134.582 51.4321 134.475 51.4804C134.367 51.5288 134.273 51.6026 134.199 51.6955C134.048 51.8942 133.97 52.14 133.98 52.3903C133.971 52.6428 134.049 52.8908 134.199 53.0932C134.273 53.1861 134.367 53.2599 134.475 53.3083C134.582 53.3566 134.7 53.3782 134.818 53.3711Z" fill="white"/>
<path d="M141.236 54.4418C141.075 54.5879 140.89 54.7066 140.691 54.7933C140.479 54.878 140.252 54.917 140.024 54.9077C139.745 54.9082 139.469 54.8555 139.21 54.7524C138.955 54.6472 138.727 54.4851 138.543 54.2784C138.336 54.0423 138.183 53.7632 138.096 53.461C137.985 53.1069 137.933 52.7369 137.941 52.3658C137.936 52.0163 137.988 51.6683 138.096 51.336C138.187 51.0355 138.34 50.7572 138.543 50.5187C138.728 50.3046 138.955 50.132 139.21 50.0119C139.465 49.8934 139.743 49.8321 140.024 49.8321C140.239 49.8316 140.452 49.8619 140.658 49.922C140.868 49.9943 141.063 50.1022 141.236 50.2408V47.4456H143.115V54.8014H141.236V54.4418ZM140.528 53.3711C140.645 53.3769 140.761 53.3547 140.867 53.3064C140.973 53.2581 141.066 53.185 141.138 53.0932C141.289 52.8908 141.367 52.6429 141.358 52.3904C141.368 52.1401 141.29 51.8943 141.138 51.6956C141.062 51.6073 140.968 51.5365 140.862 51.4879C140.756 51.4394 140.641 51.4142 140.524 51.4142C140.408 51.4142 140.293 51.4394 140.187 51.4879C140.081 51.5365 139.986 51.6073 139.91 51.6956C139.758 51.8943 139.68 52.1401 139.69 52.3904C139.682 52.6429 139.759 52.8908 139.91 53.0932C139.983 53.1862 140.078 53.26 140.185 53.3083C140.293 53.3567 140.411 53.3783 140.528 53.3711Z" fill="white"/>
<path d="M146.947 54.4418C146.784 54.5862 146.6 54.7047 146.402 54.7933C146.19 54.878 145.963 54.917 145.735 54.9077C145.456 54.9082 145.18 54.8555 144.921 54.7524C144.665 54.6492 144.436 54.4868 144.254 54.2784C144.047 54.0423 143.894 53.7632 143.807 53.461C143.696 53.1069 143.644 52.7369 143.652 52.3658C143.647 52.0163 143.699 51.6683 143.807 51.336C143.898 51.0355 144.051 50.7572 144.254 50.5187C144.44 50.3006 144.671 50.1261 144.931 50.0075C145.191 49.8889 145.474 49.829 145.759 49.8321C145.974 49.8328 146.187 49.863 146.394 49.922C146.603 49.9943 146.798 50.1022 146.971 50.2408V47.4456H148.851V54.8014H146.971L146.947 54.4418ZM146.231 53.3711C146.349 53.3783 146.466 53.3567 146.574 53.3083C146.682 53.26 146.776 53.1862 146.849 53.0932C147 52.8908 147.077 52.6429 147.069 52.3904C147.079 52.1401 147.001 51.8943 146.849 51.6956C146.776 51.6027 146.682 51.5289 146.574 51.4805C146.466 51.4321 146.349 51.4106 146.231 51.4177C146.115 51.4106 145.998 51.4321 145.892 51.4806C145.785 51.529 145.692 51.6028 145.621 51.6956C145.469 51.8943 145.391 52.1401 145.401 52.3904C145.393 52.6429 145.47 52.8908 145.621 53.0932C145.692 53.186 145.785 53.2599 145.892 53.3083C145.998 53.3568 146.115 53.3783 146.231 53.3711Z" fill="white"/>
<path d="M149.688 49.9955H151.568V50.8128C151.695 50.5636 151.863 50.3372 152.064 50.1426C152.154 50.053 152.26 49.9823 152.378 49.9345C152.495 49.8868 152.621 49.8631 152.747 49.8648C152.883 49.8494 153.019 49.8494 153.154 49.8648C153.246 49.886 153.336 49.9162 153.423 49.9547L153.219 51.6874L152.991 51.6138L152.764 51.5648C152.677 51.5564 152.59 51.5564 152.503 51.5648C152.39 51.5568 152.275 51.5568 152.162 51.5648C152.051 51.5883 151.947 51.6388 151.861 51.7119C151.762 51.7933 151.689 51.901 151.649 52.0225C151.588 52.1869 151.56 52.362 151.568 52.5374V54.8014H149.688V49.9955Z" fill="white"/>
<path d="M155.05 52.8807C155.143 53.075 155.298 53.233 155.489 53.3302C155.689 53.4381 155.914 53.4916 156.14 53.4855C156.398 53.4904 156.655 53.4601 156.905 53.3956C157.103 53.3322 157.297 53.2529 157.483 53.1586L158.06 54.3437C157.802 54.5048 157.53 54.6416 157.247 54.7524C156.85 54.8934 156.431 54.9598 156.01 54.9485C155.628 54.9526 155.248 54.889 154.887 54.7605C154.578 54.6397 154.297 54.4551 154.063 54.2186C153.829 53.9821 153.647 53.699 153.529 53.3875C153.406 53.0556 153.345 52.7036 153.35 52.3495C153.346 52.0261 153.402 51.7049 153.513 51.4014C153.611 51.0986 153.772 50.8201 153.984 50.584C154.2 50.3435 154.463 50.1513 154.757 50.0201C155.094 49.8773 155.457 49.8077 155.823 49.8158C156.188 49.8062 156.55 49.8817 156.881 50.0364C157.165 50.1795 157.417 50.3798 157.621 50.6249C157.818 50.8667 157.967 51.1442 158.06 51.4422C158.151 51.7445 158.197 52.0583 158.199 52.374C158.199 52.4475 158.199 52.5293 158.199 52.6273C158.199 52.7254 158.199 52.799 158.199 52.8725L155.05 52.8807ZM155.79 51.1316C155.608 51.1233 155.429 51.188 155.294 51.3115C155.16 51.4451 155.062 51.6111 155.009 51.7937H156.571C156.541 51.6057 156.45 51.4332 156.311 51.3033C156.166 51.1813 155.979 51.1198 155.79 51.1316Z" fill="white"/>
<path d="M158.825 53.1668C159.039 53.2953 159.265 53.4021 159.5 53.4856C159.762 53.5764 160.037 53.6234 160.313 53.6245C160.399 53.6433 160.488 53.6433 160.574 53.6245C160.598 53.6074 160.618 53.584 160.631 53.5567C160.644 53.5295 160.649 53.4993 160.647 53.4692C160.648 53.4355 160.639 53.4023 160.622 53.3734C160.604 53.3445 160.579 53.3211 160.549 53.3057L160.281 53.1995L159.801 53.0197C159.605 52.9539 159.414 52.8719 159.231 52.7745C159.075 52.694 158.932 52.5892 158.808 52.4639C158.691 52.3388 158.6 52.1915 158.54 52.0307C158.477 51.8382 158.447 51.6366 158.45 51.4341C158.449 51.2206 158.496 51.0096 158.587 50.817C158.679 50.6244 158.813 50.4553 158.979 50.3225C159.156 50.1766 159.361 50.0682 159.581 50.0038C159.844 49.9206 160.119 49.882 160.395 49.8893C160.749 49.8805 161.102 49.9359 161.436 50.0528C161.686 50.1546 161.93 50.2692 162.168 50.3961L161.631 51.5648L161.395 51.4668L161.094 51.3523L160.793 51.2624C160.702 51.2518 160.609 51.2518 160.517 51.2624C160.429 51.2528 160.34 51.273 160.265 51.3197C160.242 51.3386 160.224 51.3624 160.211 51.3892C160.198 51.416 160.192 51.4453 160.191 51.4749C160.19 51.5109 160.199 51.5465 160.216 51.578C160.233 51.6096 160.258 51.6361 160.289 51.6548C160.376 51.7062 160.469 51.7474 160.566 51.7774L160.948 51.8999C161.159 51.9653 161.363 52.0389 161.55 52.1125C161.719 52.1789 161.878 52.2698 162.022 52.3822C162.153 52.4878 162.259 52.622 162.331 52.7745C162.41 52.9516 162.449 53.1443 162.445 53.3384C162.445 53.564 162.406 53.7879 162.331 54.0005C162.251 54.2036 162.126 54.3854 161.965 54.5317C161.787 54.697 161.576 54.8223 161.347 54.8995C161.065 55.001 160.767 55.0481 160.468 55.0385C160.049 55.0442 159.632 54.9835 159.231 54.8587C158.906 54.7661 158.592 54.6373 158.296 54.4745L158.825 53.1668Z" fill="white"/>
<path d="M163.014 53.1668C163.228 53.2953 163.455 53.4021 163.69 53.4856C163.951 53.5763 164.226 53.6232 164.503 53.6245C164.586 53.6426 164.672 53.6426 164.755 53.6245C164.78 53.6074 164.8 53.584 164.813 53.5567C164.826 53.5295 164.831 53.4993 164.829 53.4692C164.829 53.4355 164.82 53.4023 164.803 53.3734C164.786 53.3445 164.761 53.3211 164.731 53.3057L164.463 53.1995L163.983 53.0197C163.787 52.9524 163.597 52.8704 163.413 52.7745C163.257 52.694 163.114 52.5892 162.99 52.4639C162.873 52.3388 162.782 52.1915 162.722 52.0307C162.659 51.8382 162.629 51.6366 162.632 51.4341C162.63 51.2206 162.677 51.0096 162.769 50.817C162.86 50.6244 162.995 50.4553 163.161 50.3225C163.338 50.1766 163.543 50.0682 163.763 50.0038C164.026 49.9206 164.301 49.882 164.576 49.8893C164.931 49.8805 165.283 49.9359 165.618 50.0528C165.867 50.1546 166.112 50.2692 166.35 50.3961L165.813 51.5648L165.577 51.4668L165.284 51.3523L164.975 51.2624C164.883 51.2518 164.79 51.2518 164.698 51.2624C164.61 51.2528 164.522 51.273 164.446 51.3197C164.424 51.3386 164.405 51.3624 164.393 51.3892C164.38 51.416 164.373 51.4453 164.373 51.4749C164.372 51.5109 164.381 51.5465 164.398 51.578C164.415 51.6096 164.44 51.6361 164.471 51.6548C164.558 51.7062 164.651 51.7474 164.747 51.7774L165.13 51.8999C165.341 51.9653 165.545 52.0389 165.732 52.1125C165.901 52.1789 166.06 52.2698 166.204 52.3822C166.335 52.4878 166.44 52.622 166.513 52.7745C166.592 52.9516 166.631 53.1443 166.627 53.3384C166.626 53.564 166.588 53.7879 166.513 54.0005C166.433 54.2036 166.308 54.3854 166.147 54.5317C165.969 54.697 165.758 54.8223 165.528 54.8995C165.247 55.001 164.949 55.0481 164.65 55.0385C164.231 55.0442 163.813 54.9835 163.413 54.8587C163.088 54.7661 162.774 54.6373 162.478 54.4745L163.014 53.1668Z" fill="white"/>
<path d="M168.091 54.9077C167.951 54.9091 167.812 54.8812 167.684 54.826C167.558 54.777 167.445 54.7017 167.35 54.6053C167.253 54.5064 167.176 54.3899 167.123 54.262C167.066 54.1334 167.038 53.9939 167.041 53.8534C167.038 53.6996 167.066 53.5468 167.123 53.4038C167.174 53.2724 167.252 53.1529 167.35 53.0524C167.442 52.9509 167.556 52.8725 167.684 52.8235C167.812 52.7683 167.951 52.7404 168.091 52.7418C168.23 52.7397 168.369 52.7676 168.497 52.8235C168.626 52.8744 168.743 52.9524 168.839 53.0524C168.933 53.1554 169.007 53.2745 169.059 53.4038C169.115 53.5468 169.143 53.6996 169.14 53.8534C169.143 53.9939 169.115 54.1334 169.059 54.262C169.005 54.3879 168.931 54.5039 168.839 54.6053C168.74 54.7 168.624 54.7749 168.497 54.826C168.369 54.882 168.23 54.9098 168.091 54.9077Z" fill="white"/>
</g>
<defs>
<clipPath id="clip0_673_2618">
<rect width="230" height="57" fill="white"/>
</clipPath>
</defs>
</svg>
